<svg id="Layer_1" data-name="Layer 1" xmlns="http://www.w3.org/2000/svg" viewBox="0 0 80 80"><defs><style>.cls-1{fill:#29ac0a;}</style></defs><path class="cls-1" d="M71,54.31c-.11-.18-.29-.16-.47-.16l-13.9,0a1.07,1.07,0,0,0-.24.82c0,2,0,4,0,5.93-.64-.61-1.25-1.25-1.88-1.87a.91.91,0,0,0-1.46,0c-.62.62-1.23,1.26-1.88,1.87,0-2,0-4,0-5.93a1.08,1.08,0,0,0-.25-.82H39.56a1.53,1.53,0,0,0-.29,1.17V78.58a1.53,1.53,0,0,0,.29,1.17c.33,0,.65,0,1,0,9.75,0,19.51,0,29.27,0,.89,0,1.11-.21,1.11-1.11,0-.55,0-1.11,0-1.66h-.08A32.81,32.81,0,0,1,66.4,77c-1.11-.16-.31-1.26-.5-1.9-.11-.37-.1-.82.55-.79s1.48,0,2.22,0h.68a6.73,6.73,0,0,1,1.56.09c0-5.77,0-11.54,0-17.32A4.45,4.45,0,0,0,71,54.31ZM68,70.43c.12.39.1.85-.57.81s-1.54,0-2.31,0h-.71c-2.25,0-2.24,0-2.09-2.26,0-.4.12-.6.56-.59a35.41,35.41,0,0,1,4.61,0C68.65,68.61,67.82,69.76,68,70.43Z"/><path class="cls-1" d="M47.42,17.1c-.46.51-.23,1.13-.27,1.7-.06.83-.15.92-1,.76a5.48,5.48,0,0,1-4.22-5c0-.86,0-1.72,0-2.58a2,2,0,0,0-.22-1.28c-.44-.1-.71.23-1,.45-1.05.78-2.08,1.57-3.13,2.34A16.74,16.74,0,0,1,27.3,16.87c-2,0-4,.06-5.95-.05a.55.55,0,0,0-.49.14c-.49.32-1,.14-1.55.14-1.74,0-2.95.77-3.17,2.26-.27,1.94-.23,3.36,1.68,4.33,1.06.54,2.1,1.1,3.18,1.58a1.14,1.14,0,0,1,.77,1.22,14.21,14.21,0,0,0,.09,3.45c.75,3.12,3.23,4.81,5.6,6.58a2.14,2.14,0,0,0,1.89.77c2.53.08,5.07.08,7.6,0a2.15,2.15,0,0,0,1.89-.77c1.7-.79,2.7-2.37,4-3.56a5.17,5.17,0,0,0,1.51-2.76,3.82,3.82,0,0,0,.13-1.67c-.44-2.24.46-3.58,2.62-4.17.28-.08.52-.28.8-.39a3.41,3.41,0,0,0,2.32-3.75A2.93,2.93,0,0,0,47.42,17.1ZM28.89,22.81a1.36,1.36,0,0,1-1.4-1.57c.06-.55-.12-.58-.54-.57-.62,0-1.24,0-1.86,0s-1.18,0-1.17-.74.59-.7,1.13-.69c.8,0,1.6,0,2.4,0s1.78,0,2.67,0a.76.76,0,0,1,.84.51.63.63,0,0,1-.43.85c-.41.12-.26.34-.25.59A1.41,1.41,0,0,1,28.89,22.81Zm7.65,6.13A4.22,4.22,0,0,1,33,30.85c-1.47.07-2.41-.92-3.31-2a.62.62,0,0,1,.09-.88.64.64,0,0,1,.89-.06c.12.09.22.2.33.3,1.71,1.62,2.53,1.62,4.19,0a3.19,3.19,0,0,1,.33-.31.65.65,0,0,1,.95.08A.66.66,0,0,1,36.54,28.94Zm5.08-8.27H38.76a4.87,4.87,0,0,1,.07.69,1.41,1.41,0,1,1-2.82,0c0-.33.19-.68-.36-.81a.56.56,0,0,1-.33-.73.67.67,0,0,1,.63-.54c1.93,0,3.86,0,5.78,0a.64.64,0,0,1,.65.71A.68.68,0,0,1,41.62,20.67Z"/><path class="cls-1" d="M41.64,10.74c-2.47,1.77-4.71,3.87-7.58,5a17,17,0,0,1-6.21,1.32c-1.92,0-3.84,0-5.77,0A10.13,10.13,0,0,1,20.86,17a2.86,2.86,0,0,1-1.95-3,51.4,51.4,0,0,1,.16-6.91,8.42,8.42,0,0,1,8.18-7C31,0,34.78,0,38.54,0a5.69,5.69,0,0,1,6,5.68.65.65,0,0,1,.18.49A5.85,5.85,0,0,1,42,10.73.37.37,0,0,1,41.64,10.74Z"/><path class="cls-1" d="M28.93,44.33,14.17,49.88a5.73,5.73,0,0,0-3.81,5.52V79.76c-1.66,0-3.32,0-5,0-.6,0-.73-.19-.73-.75q0-6.84,0-13.69c0-3.35,0-6.7,0-10a5.57,5.57,0,0,1,3.62-5.39c6.38-2.41,12.77-4.78,19.16-7.17A3,3,0,0,1,28.93,44.33Z"/><path class="cls-1" d="M42.4,45.63l.36,0c.56-.39,1.21-.19,1.81-.2a1.18,1.18,0,0,0,1.15-.74A2.36,2.36,0,0,0,45,41.12c-.78-.59-.71-.86,0-1.58a21,21,0,0,1,2-1.91,1.34,1.34,0,0,0,2.18.4,3.15,3.15,0,0,1,.83-.3c.41.05.64.63,1.11.44a14.09,14.09,0,0,0,2.18-1c.31-.19.21-.59.24-.91.07-.69-.19-1.42.23-2.07l.17,0c.86,0,1.93-.35,2.5.14s.16,1.57.16,2.39a.74.74,0,0,0,.67.85,1.84,1.84,0,0,1,.67.23c1.26,1,2.16.49,3.06-.61.78-.95.85-.89,1.75,0s1.75,1.78,2.65,2.64c.36.35.5.57,0,1-.62.55-1.49,1.11-1.65,1.8s.57,1.43.77,2.18.5.82,1.12.8,1.69-.33,2.15.12S68,47.21,68,48s0,1.78,0,2.66c0,.49-.12.69-.64.68-1.93,0-3.86,0-5.78,0-.25-.44.07-.8.19-1.17a5.46,5.46,0,0,0-6.23-7,5.69,5.69,0,0,0-7.43,4.76,5.47,5.47,0,0,0,.47,2.85c.19.43.21.63-.36.62-2,0-3.91,0-5.87,0a.73.73,0,0,1-.23-.47,46.05,46.05,0,0,1,0-4.7A.73.73,0,0,1,42.4,45.63Z"/><path class="cls-1" d="M38.85,42.77l-5.58,5.64H33l-4.1-4.08-1.48-1.58c0-2.07,0-4.15,0-6.22a6.57,6.57,0,0,0,2.67.54c2,0,4,0,6,0a6.57,6.57,0,0,0,2.67-.54Q38.84,39.65,38.85,42.77Z"/><path class="cls-1" d="M39.56,54.18V79.76c-.91,0-2.07.32-2.67-.12s-.17-1.66-.17-2.53c0-6.33,0-12.66,0-19,0-.33.16-.71-.15-1a8.05,8.05,0,0,1,0-2.77C37.55,53.93,38.56,54.23,39.56,54.18Z"/><path class="cls-1" d="M41.64,10.74a6,6,0,0,0,2.91-5,2.89,2.89,0,0,1,2.84,3.17l0,8.22c0,.74-.05,1.49,0,2.23,0,.51-.15.67-.67.61a5.75,5.75,0,0,1-5-5.56C41.67,13.17,41.66,12,41.64,10.74Z"/><path class="cls-1" d="M55.59,43.08c1-.72,2.1-.27,3.08.08a5.66,5.66,0,0,1,3,8.11c-.77,0-1.54,0-2.31,0-.56,0-.56-.19-.36-.62A5.62,5.62,0,0,0,55.59,43.08Z"/><path class="cls-1" d="M47,37.63a9.12,9.12,0,0,1-2,2.21c-.33.36-.55.62,0,1,1.53,1,2,2.26.91,4-.35.57-.56.84-1.2.8s-1.3,0-2,0a8.18,8.18,0,0,1,.88-2.31.82.82,0,0,0-.19-1.16c-.58-.58-1.65-1.11-1.57-1.78s1-1.21,1.63-1.8,1.13-1,1.62-1.64.81-.52,1.22,0A9,9,0,0,0,47,37.63Z"/><path class="cls-1" d="M42.4,45.63v5.64c-.74,0-1.48,0-2.22,0-.44,0-.64-.1-.63-.59,0-1.51,0-3,0-4.54,0-.49.19-.6.63-.58C40.92,45.63,41.66,45.62,42.4,45.63Z"/><path class="cls-1" d="M36.58,54.34a5.53,5.53,0,0,1,0,2.77c-.78.8-1.58,1.59-2.35,2.41a1.14,1.14,0,0,1-1,.33h-2Z"/><path class="cls-1" d="M70.92,57.08a10.21,10.21,0,0,1,.1-2.76l5.38,5.52H74c-.32,0-.46-.24-.65-.42C72.53,58.65,71.72,57.87,70.92,57.08Z"/><path class="cls-1" d="M53.8,34.24v.53c0,2.79,0,2.79-2.64,3.69-.67.23-.8-.39-1.12-.73.83-.16,1-.7.93-1.46,0-2.07,0-2.07,2-2.06C53.27,34.21,53.53,34.23,53.8,34.24Z"/></svg>