<?xml version="1.0" encoding="utf-8"?>
<!-- Generator: Adobe Illustrator 25.1.0, SVG Export Plug-In . SVG Version: 6.00 Build 0)  -->
<svg version="1.1" id="Layer_1" xmlns="http://www.w3.org/2000/svg" xmlns:xlink="http://www.w3.org/1999/xlink" x="0px" y="0px"
	 viewBox="0 0 80 80" style="enable-background:new 0 0 80 80;" xml:space="preserve">
<style type="text/css">
	.st0{fill:#228B22;}
</style>
<path class="st0" d="M28.8,37.9c2.9-3.4,2.5-8.5-0.8-11.4s-8.5-2.5-11.4,0.8c-2.6,3-2.6,7.5,0,10.5c-2.9,1.6-4.7,4.6-4.7,7.9v7
	c0,1.1,0.9,1.9,1.9,1.9h17.8c1.1,0,1.9-0.9,1.9-1.9v-7C33.5,42.5,31.7,39.4,28.8,37.9z M22.7,28.4c2.3,0,4.2,1.9,4.2,4.2
	s-1.9,4.2-4.2,4.2l0,0h-0.1c-2.3,0-4.2-1.9-4.2-4.2S20.4,28.4,22.7,28.4L22.7,28.4L22.7,28.4z M29.7,50.9h-14v-5.1
	c0-2.8,2.3-5.1,5.1-5.1h3.8c2.8,0,5.1,2.3,5.1,5.1V50.9z M54.3,29.2H43.9c-1.1,0-2,0.8-2,1.9s0.8,2,1.9,2h0.1h10.4
	c1.1,0,1.9-0.9,1.9-2C56.1,30.1,55.3,29.3,54.3,29.2L54.3,29.2z M28.8,37.9c2.9-3.4,2.5-8.5-0.8-11.4s-8.5-2.5-11.4,0.8
	c-2.6,3-2.6,7.5,0,10.5c-2.9,1.6-4.7,4.6-4.7,7.9v7c0,1.1,0.9,1.9,1.9,1.9h17.8c1.1,0,1.9-0.9,1.9-1.9v-7
	C33.5,42.5,31.7,39.4,28.8,37.9z M22.7,28.4c2.3,0,4.2,1.9,4.2,4.2s-1.9,4.2-4.2,4.2l0,0h-0.1c-2.3,0-4.2-1.9-4.2-4.2
	S20.4,28.4,22.7,28.4L22.7,28.4L22.7,28.4z M29.7,50.9h-14v-5.1c0-2.8,2.3-5.1,5.1-5.1h3.8c2.8,0,5.1,2.3,5.1,5.1V50.9z M54.3,29.2
	H43.9c-1.1,0-2,0.8-2,1.9s0.8,2,1.9,2h0.1h10.4c1.1,0,1.9-0.9,1.9-2C56.1,30.1,55.3,29.3,54.3,29.2L54.3,29.2z M66.6,46.2H43.9
	c-1.1,0-2,0.8-2,1.9c0,1.1,0.8,2,1.9,2h0.1h22.7c1.1,0,2-0.8,2-1.9c0-1.1-0.8-2-1.9-2C66.6,46.2,66.6,46.2,66.6,46.2L66.6,46.2z
	 M66.6,38.6H43.9c-1.1,0-1.9,0.9-1.9,1.9c0,1.1,0.9,1.9,1.9,1.9h22.7c1.1,0,1.9-0.9,1.9-1.9C68.5,39.4,67.6,38.6,66.6,38.6
	L66.6,38.6z M66.6,38.6H43.9c-1.1,0-1.9,0.9-1.9,1.9c0,1.1,0.9,1.9,1.9,1.9h22.7c1.1,0,1.9-0.9,1.9-1.9
	C68.5,39.4,67.6,38.6,66.6,38.6L66.6,38.6z M66.6,46.2H43.9c-1.1,0-2,0.8-2,1.9c0,1.1,0.8,2,1.9,2h0.1h22.7c1.1,0,2-0.8,2-1.9
	c0-1.1-0.8-2-1.9-2C66.6,46.2,66.6,46.2,66.6,46.2L66.6,46.2z M54.3,29.2H43.9c-1.1,0-2,0.8-2,1.9s0.8,2,1.9,2h0.1h10.4
	c1.1,0,1.9-0.9,1.9-2C56.1,30.1,55.3,29.3,54.3,29.2L54.3,29.2z M28.8,37.9c2.9-3.4,2.5-8.5-0.8-11.4s-8.5-2.5-11.4,0.8
	c-2.6,3-2.6,7.5,0,10.5c-2.9,1.6-4.7,4.6-4.7,7.9v7c0,1.1,0.9,1.9,1.9,1.9h17.8c1.1,0,1.9-0.9,1.9-1.9v-7
	C33.5,42.5,31.7,39.4,28.8,37.9z M22.7,28.4c2.3,0,4.2,1.9,4.2,4.2s-1.9,4.2-4.2,4.2l0,0h-0.1c-2.3,0-4.2-1.9-4.2-4.2
	S20.4,28.4,22.7,28.4L22.7,28.4L22.7,28.4z M29.7,50.9h-14v-5.1c0-2.8,2.3-5.1,5.1-5.1h3.8c2.8,0,5.1,2.3,5.1,5.1V50.9z M28.8,37.9
	c2.9-3.4,2.5-8.5-0.8-11.4s-8.5-2.5-11.4,0.8c-2.6,3-2.6,7.5,0,10.5c-2.9,1.6-4.7,4.6-4.7,7.9v7c0,1.1,0.9,1.9,1.9,1.9h17.8
	c1.1,0,1.9-0.9,1.9-1.9v-7C33.5,42.5,31.7,39.4,28.8,37.9L28.8,37.9z M22.7,28.4c2.3,0,4.2,1.9,4.2,4.2s-1.9,4.2-4.2,4.2h-0.1
	c-2.3,0-4.2-1.9-4.2-4.2S20.4,28.4,22.7,28.4L22.7,28.4z M29.7,50.9h-14v-5.1c0-2.8,2.3-5.1,5.1-5.1h3.8c2.8,0,5.1,2.3,5.1,5.1V50.9
	z M54.3,29.2H43.9c-1.1,0-2,0.8-2,1.9s0.8,2,1.9,2h0.1h10.4c1.1,0,1.9-0.9,1.9-2C56.1,30.1,55.3,29.3,54.3,29.2L54.3,29.2z
	 M66.6,46.2H43.9c-1.1,0-2,0.8-2,1.9c0,1.1,0.8,2,1.9,2h0.1h22.7c1.1,0,2-0.8,2-1.9c0-1.1-0.8-2-1.9-2
	C66.6,46.2,66.6,46.2,66.6,46.2L66.6,46.2z M66.6,38.6H43.9c-1.1,0-1.9,0.9-1.9,1.9c0,1.1,0.9,1.9,1.9,1.9h22.7
	c1.1,0,1.9-0.9,1.9-1.9C68.5,39.4,67.6,38.6,66.6,38.6L66.6,38.6z M66.6,38.6H43.9c-1.1,0-1.9,0.9-1.9,1.9c0,1.1,0.9,1.9,1.9,1.9
	h22.7c1.1,0,1.9-0.9,1.9-1.9C68.5,39.4,67.6,38.6,66.6,38.6L66.6,38.6z M66.6,46.2H43.9c-1.1,0-2,0.8-2,1.9c0,1.1,0.8,2,1.9,2h0.1
	h22.7c1.1,0,2-0.8,2-1.9c0-1.1-0.8-2-1.9-2C66.6,46.2,66.6,46.2,66.6,46.2L66.6,46.2z M54.3,29.2H43.9c-1.1,0-2,0.8-2,1.9
	s0.8,2,1.9,2h0.1h10.4c1.1,0,1.9-0.9,1.9-2C56.1,30.1,55.3,29.3,54.3,29.2L54.3,29.2z M28.8,37.9c2.9-3.4,2.5-8.5-0.8-11.4
	s-8.5-2.5-11.4,0.8c-2.6,3-2.6,7.5,0,10.5c-2.9,1.6-4.7,4.6-4.7,7.9v7c0,1.1,0.9,1.9,1.9,1.9h17.8c1.1,0,1.9-0.9,1.9-1.9v-7
	C33.5,42.5,31.7,39.4,28.8,37.9z M22.7,28.4c2.3,0,4.2,1.9,4.2,4.2s-1.9,4.2-4.2,4.2l0,0h-0.1c-2.3,0-4.2-1.9-4.2-4.2
	S20.4,28.4,22.7,28.4L22.7,28.4L22.7,28.4z M29.7,50.9h-14v-5.1c0-2.8,2.3-5.1,5.1-5.1h3.8c2.8,0,5.1,2.3,5.1,5.1V50.9z M28.8,37.9
	c2.9-3.4,2.5-8.5-0.8-11.4s-8.5-2.5-11.4,0.8c-2.6,3-2.6,7.5,0,10.5c-2.9,1.6-4.7,4.6-4.7,7.9v7c0,1.1,0.9,1.9,1.9,1.9h17.8
	c1.1,0,1.9-0.9,1.9-1.9v-7C33.5,42.5,31.7,39.4,28.8,37.9L28.8,37.9z M22.7,28.4c2.3,0,4.2,1.9,4.2,4.2s-1.9,4.2-4.2,4.2h-0.1
	c-2.3,0-4.2-1.9-4.2-4.2S20.4,28.4,22.7,28.4L22.7,28.4z M29.7,50.9h-14v-5.1c0-2.8,2.3-5.1,5.1-5.1h3.8c2.8,0,5.1,2.3,5.1,5.1V50.9
	z M54.3,29.2H43.9c-1.1,0-2,0.8-2,1.9s0.8,2,1.9,2h0.1h10.4c1.1,0,1.9-0.9,1.9-2C56.1,30.1,55.3,29.3,54.3,29.2L54.3,29.2z
	 M66.6,46.2H43.9c-1.1,0-2,0.8-2,1.9c0,1.1,0.8,2,1.9,2h0.1h22.7c1.1,0,2-0.8,2-1.9c0-1.1-0.8-2-1.9-2
	C66.6,46.2,66.6,46.2,66.6,46.2L66.6,46.2z M66.6,38.6H43.9c-1.1,0-1.9,0.9-1.9,1.9c0,1.1,0.9,1.9,1.9,1.9h22.7
	c1.1,0,1.9-0.9,1.9-1.9C68.5,39.4,67.6,38.6,66.6,38.6L66.6,38.6z M66.6,38.6H43.9c-1.1,0-1.9,0.9-1.9,1.9c0,1.1,0.9,1.9,1.9,1.9
	h22.7c1.1,0,1.9-0.9,1.9-1.9C68.5,39.4,67.6,38.6,66.6,38.6L66.6,38.6z M66.6,46.2H43.9c-1.1,0-2,0.8-2,1.9c0,1.1,0.8,2,1.9,2h0.1
	h22.7c1.1,0,2-0.8,2-1.9c0-1.1-0.8-2-1.9-2C66.6,46.2,66.6,46.2,66.6,46.2L66.6,46.2z M54.3,29.2H43.9c-1.1,0-2,0.8-2,1.9
	s0.8,2,1.9,2h0.1h10.4c1.1,0,1.9-0.9,1.9-2C56.1,30.1,55.3,29.3,54.3,29.2L54.3,29.2z M28.8,37.9c2.9-3.4,2.5-8.5-0.8-11.4
	s-8.5-2.5-11.4,0.8c-2.6,3-2.6,7.5,0,10.5c-2.9,1.6-4.7,4.6-4.7,7.9v7c0,1.1,0.9,1.9,1.9,1.9h17.8c1.1,0,1.9-0.9,1.9-1.9v-7
	C33.5,42.5,31.7,39.4,28.8,37.9z M22.7,28.4c2.3,0,4.2,1.9,4.2,4.2s-1.9,4.2-4.2,4.2l0,0h-0.1c-2.3,0-4.2-1.9-4.2-4.2
	S20.4,28.4,22.7,28.4L22.7,28.4L22.7,28.4z M29.7,50.9h-14v-5.1c0-2.8,2.3-5.1,5.1-5.1h3.8c2.8,0,5.1,2.3,5.1,5.1V50.9z M28.8,37.9
	c2.9-3.4,2.5-8.5-0.8-11.4s-8.5-2.5-11.4,0.8c-2.6,3-2.6,7.5,0,10.5c-2.9,1.6-4.7,4.6-4.7,7.9v7c0,1.1,0.9,1.9,1.9,1.9h17.8
	c1.1,0,1.9-0.9,1.9-1.9v-7C33.5,42.5,31.7,39.4,28.8,37.9L28.8,37.9z M22.7,28.4c2.3,0,4.2,1.9,4.2,4.2s-1.9,4.2-4.2,4.2h-0.1
	c-2.3,0-4.2-1.9-4.2-4.2S20.4,28.4,22.7,28.4L22.7,28.4z M29.7,50.9h-14v-5.1c0-2.8,2.3-5.1,5.1-5.1h3.8c2.8,0,5.1,2.3,5.1,5.1V50.9
	z M54.3,29.2H43.9c-1.1,0-2,0.8-2,1.9s0.8,2,1.9,2h0.1h10.4c1.1,0,1.9-0.9,1.9-2C56.1,30.1,55.3,29.3,54.3,29.2L54.3,29.2z
	 M66.6,46.2H43.9c-1.1,0-2,0.8-2,1.9c0,1.1,0.8,2,1.9,2h0.1h22.7c1.1,0,2-0.8,2-1.9c0-1.1-0.8-2-1.9-2
	C66.6,46.2,66.6,46.2,66.6,46.2L66.6,46.2z M66.6,38.6H43.9c-1.1,0-1.9,0.9-1.9,1.9c0,1.1,0.9,1.9,1.9,1.9h22.7
	c1.1,0,1.9-0.9,1.9-1.9C68.5,39.4,67.6,38.6,66.6,38.6L66.6,38.6z M66.6,38.6H43.9c-1.1,0-1.9,0.9-1.9,1.9c0,1.1,0.9,1.9,1.9,1.9
	h22.7c1.1,0,1.9-0.9,1.9-1.9C68.5,39.4,67.6,38.6,66.6,38.6L66.6,38.6z M66.6,46.2H43.9c-1.1,0-2,0.8-2,1.9c0,1.1,0.8,2,1.9,2h0.1
	h22.7c1.1,0,2-0.8,2-1.9c0-1.1-0.8-2-1.9-2C66.6,46.2,66.6,46.2,66.6,46.2L66.6,46.2z M54.3,29.2H43.9c-1.1,0-2,0.8-2,1.9
	s0.8,2,1.9,2h0.1h10.4c1.1,0,1.9-0.9,1.9-2C56.1,30.1,55.3,29.3,54.3,29.2L54.3,29.2z M28.8,37.9c2.9-3.4,2.5-8.5-0.8-11.4
	s-8.5-2.5-11.4,0.8c-2.6,3-2.6,7.5,0,10.5c-2.9,1.6-4.7,4.6-4.7,7.9v7c0,1.1,0.9,1.9,1.9,1.9h17.8c1.1,0,1.9-0.9,1.9-1.9v-7
	C33.5,42.5,31.7,39.4,28.8,37.9z M22.7,28.4c2.3,0,4.2,1.9,4.2,4.2s-1.9,4.2-4.2,4.2l0,0h-0.1c-2.3,0-4.2-1.9-4.2-4.2
	S20.4,28.4,22.7,28.4L22.7,28.4L22.7,28.4z M29.7,50.9h-14v-5.1c0-2.8,2.3-5.1,5.1-5.1h3.8c2.8,0,5.1,2.3,5.1,5.1V50.9z M28.8,37.9
	c2.9-3.4,2.5-8.5-0.8-11.4s-8.5-2.5-11.4,0.8c-2.6,3-2.6,7.5,0,10.5c-2.9,1.6-4.7,4.6-4.7,7.9v7c0,1.1,0.9,1.9,1.9,1.9h17.8
	c1.1,0,1.9-0.9,1.9-1.9v-7C33.5,42.5,31.7,39.4,28.8,37.9L28.8,37.9z M22.7,28.4c2.3,0,4.2,1.9,4.2,4.2s-1.9,4.2-4.2,4.2h-0.1
	c-2.3,0-4.2-1.9-4.2-4.2S20.4,28.4,22.7,28.4L22.7,28.4z M29.7,50.9h-14v-5.1c0-2.8,2.3-5.1,5.1-5.1h3.8c2.8,0,5.1,2.3,5.1,5.1V50.9
	z M54.3,29.2H43.9c-1.1,0-2,0.8-2,1.9s0.8,2,1.9,2h0.1h10.4c1.1,0,1.9-0.9,1.9-2C56.1,30.1,55.3,29.3,54.3,29.2L54.3,29.2z
	 M66.6,46.2H43.9c-1.1,0-2,0.8-2,1.9c0,1.1,0.8,2,1.9,2h0.1h22.7c1.1,0,2-0.8,2-1.9c0-1.1-0.8-2-1.9-2
	C66.6,46.2,66.6,46.2,66.6,46.2L66.6,46.2z M66.6,38.6H43.9c-1.1,0-1.9,0.9-1.9,1.9c0,1.1,0.9,1.9,1.9,1.9h22.7
	c1.1,0,1.9-0.9,1.9-1.9C68.5,39.4,67.6,38.6,66.6,38.6L66.6,38.6z M66.6,38.6H43.9c-1.1,0-1.9,0.9-1.9,1.9c0,1.1,0.9,1.9,1.9,1.9
	h22.7c1.1,0,1.9-0.9,1.9-1.9C68.5,39.4,67.6,38.6,66.6,38.6L66.6,38.6z M66.6,46.2H43.9c-1.1,0-2,0.8-2,1.9c0,1.1,0.8,2,1.9,2h0.1
	h22.7c1.1,0,2-0.8,2-1.9c0-1.1-0.8-2-1.9-2C66.6,46.2,66.6,46.2,66.6,46.2L66.6,46.2z M54.3,29.2H43.9c-1.1,0-2,0.8-2,1.9
	s0.8,2,1.9,2h0.1h10.4c1.1,0,1.9-0.9,1.9-2C56.1,30.1,55.3,29.3,54.3,29.2L54.3,29.2z M28.8,37.9c2.9-3.4,2.5-8.5-0.8-11.4
	s-8.5-2.5-11.4,0.8c-2.6,3-2.6,7.5,0,10.5c-2.9,1.6-4.7,4.6-4.7,7.9v7c0,1.1,0.9,1.9,1.9,1.9h17.8c1.1,0,1.9-0.9,1.9-1.9v-7
	C33.5,42.5,31.7,39.4,28.8,37.9z M22.7,28.4c2.3,0,4.2,1.9,4.2,4.2s-1.9,4.2-4.2,4.2l0,0h-0.1c-2.3,0-4.2-1.9-4.2-4.2
	S20.4,28.4,22.7,28.4L22.7,28.4L22.7,28.4z M29.7,50.9h-14v-5.1c0-2.8,2.3-5.1,5.1-5.1h3.8c2.8,0,5.1,2.3,5.1,5.1V50.9z M28.8,37.9
	c2.9-3.4,2.5-8.5-0.8-11.4s-8.5-2.5-11.4,0.8c-2.6,3-2.6,7.5,0,10.5c-2.9,1.6-4.7,4.6-4.7,7.9v7c0,1.1,0.9,1.9,1.9,1.9h17.8
	c1.1,0,1.9-0.9,1.9-1.9v-7C33.5,42.5,31.7,39.4,28.8,37.9L28.8,37.9z M22.7,28.4c2.3,0,4.2,1.9,4.2,4.2s-1.9,4.2-4.2,4.2h-0.1
	c-2.3,0-4.2-1.9-4.2-4.2S20.4,28.4,22.7,28.4L22.7,28.4z M29.7,50.9h-14v-5.1c0-2.8,2.3-5.1,5.1-5.1h3.8c2.8,0,5.1,2.3,5.1,5.1V50.9
	z M54.3,29.2H43.9c-1.1,0-2,0.8-2,1.9s0.8,2,1.9,2h0.1h10.4c1.1,0,1.9-0.9,1.9-2C56.1,30.1,55.3,29.3,54.3,29.2L54.3,29.2z
	 M66.6,46.2H43.9c-1.1,0-2,0.8-2,1.9c0,1.1,0.8,2,1.9,2h0.1h22.7c1.1,0,2-0.8,2-1.9c0-1.1-0.8-2-1.9-2
	C66.6,46.2,66.6,46.2,66.6,46.2L66.6,46.2z M66.6,38.6H43.9c-1.1,0-1.9,0.9-1.9,1.9c0,1.1,0.9,1.9,1.9,1.9h22.7
	c1.1,0,1.9-0.9,1.9-1.9C68.5,39.4,67.6,38.6,66.6,38.6L66.6,38.6z M66.6,38.6H43.9c-1.1,0-1.9,0.9-1.9,1.9c0,1.1,0.9,1.9,1.9,1.9
	h22.7c1.1,0,1.9-0.9,1.9-1.9C68.5,39.4,67.6,38.6,66.6,38.6L66.6,38.6z M66.6,46.2H43.9c-1.1,0-2,0.8-2,1.9c0,1.1,0.8,2,1.9,2h0.1
	h22.7c1.1,0,2-0.8,2-1.9c0-1.1-0.8-2-1.9-2C66.6,46.2,66.6,46.2,66.6,46.2L66.6,46.2z M54.3,29.2H43.9c-1.1,0-2,0.8-2,1.9
	s0.8,2,1.9,2h0.1h10.4c1.1,0,1.9-0.9,1.9-2C56.1,30.1,55.3,29.3,54.3,29.2L54.3,29.2z M28.8,37.9c2.9-3.4,2.5-8.5-0.8-11.4
	s-8.5-2.5-11.4,0.8c-2.6,3-2.6,7.5,0,10.5c-2.9,1.6-4.7,4.6-4.7,7.9v7c0,1.1,0.9,1.9,1.9,1.9h17.8c1.1,0,1.9-0.9,1.9-1.9v-7
	C33.5,42.5,31.7,39.4,28.8,37.9z M22.7,28.4c2.3,0,4.2,1.9,4.2,4.2s-1.9,4.2-4.2,4.2l0,0h-0.1c-2.3,0-4.2-1.9-4.2-4.2
	S20.4,28.4,22.7,28.4L22.7,28.4L22.7,28.4z M29.7,50.9h-14v-5.1c0-2.8,2.3-5.1,5.1-5.1h3.8c2.8,0,5.1,2.3,5.1,5.1V50.9z M28.8,37.9
	c2.9-3.4,2.5-8.5-0.8-11.4s-8.5-2.5-11.4,0.8c-2.6,3-2.6,7.5,0,10.5c-2.9,1.6-4.7,4.6-4.7,7.9v7c0,1.1,0.9,1.9,1.9,1.9h17.8
	c1.1,0,1.9-0.9,1.9-1.9v-7C33.5,42.5,31.7,39.4,28.8,37.9L28.8,37.9z M22.7,28.4c2.3,0,4.2,1.9,4.2,4.2s-1.9,4.2-4.2,4.2h-0.1
	c-2.3,0-4.2-1.9-4.2-4.2S20.4,28.4,22.7,28.4L22.7,28.4z M29.7,50.9h-14v-5.1c0-2.8,2.3-5.1,5.1-5.1h3.8c2.8,0,5.1,2.3,5.1,5.1V50.9
	z M54.3,29.2H43.9c-1.1,0-2,0.8-2,1.9s0.8,2,1.9,2h0.1h10.4c1.1,0,1.9-0.9,1.9-2C56.1,30.1,55.3,29.3,54.3,29.2L54.3,29.2z
	 M66.6,46.2H43.9c-1.1,0-2,0.8-2,1.9c0,1.1,0.8,2,1.9,2h0.1h22.7c1.1,0,2-0.8,2-1.9c0-1.1-0.8-2-1.9-2
	C66.6,46.2,66.6,46.2,66.6,46.2L66.6,46.2z M66.6,38.6H43.9c-1.1,0-1.9,0.9-1.9,1.9c0,1.1,0.9,1.9,1.9,1.9h22.7
	c1.1,0,1.9-0.9,1.9-1.9C68.5,39.4,67.6,38.6,66.6,38.6L66.6,38.6z M66.6,38.6H43.9c-1.1,0-1.9,0.9-1.9,1.9c0,1.1,0.9,1.9,1.9,1.9
	h22.7c1.1,0,1.9-0.9,1.9-1.9C68.5,39.4,67.6,38.6,66.6,38.6L66.6,38.6z M66.6,46.2H43.9c-1.1,0-2,0.8-2,1.9c0,1.1,0.8,2,1.9,2h0.1
	h22.7c1.1,0,2-0.8,2-1.9c0-1.1-0.8-2-1.9-2C66.6,46.2,66.6,46.2,66.6,46.2L66.6,46.2z M54.3,29.2H43.9c-1.1,0-2,0.8-2,1.9
	s0.8,2,1.9,2h0.1h10.4c1.1,0,1.9-0.9,1.9-2C56.1,30.1,55.3,29.3,54.3,29.2L54.3,29.2z M28.8,37.9c2.9-3.4,2.5-8.5-0.8-11.4
	s-8.5-2.5-11.4,0.8c-2.6,3-2.6,7.5,0,10.5c-2.9,1.6-4.7,4.6-4.7,7.9v7c0,1.1,0.9,1.9,1.9,1.9h17.8c1.1,0,1.9-0.9,1.9-1.9v-7
	C33.5,42.5,31.7,39.4,28.8,37.9z M22.7,28.4c2.3,0,4.2,1.9,4.2,4.2s-1.9,4.2-4.2,4.2l0,0h-0.1c-2.3,0-4.2-1.9-4.2-4.2
	S20.4,28.4,22.7,28.4L22.7,28.4L22.7,28.4z M29.7,50.9h-14v-5.1c0-2.8,2.3-5.1,5.1-5.1h3.8c2.8,0,5.1,2.3,5.1,5.1V50.9z M28.8,37.9
	c2.9-3.4,2.5-8.5-0.8-11.4s-8.5-2.5-11.4,0.8c-2.6,3-2.6,7.5,0,10.5c-2.9,1.6-4.7,4.6-4.7,7.9v7c0,1.1,0.9,1.9,1.9,1.9h17.8
	c1.1,0,1.9-0.9,1.9-1.9v-7C33.5,42.5,31.7,39.4,28.8,37.9L28.8,37.9z M22.7,28.4c2.3,0,4.2,1.9,4.2,4.2s-1.9,4.2-4.2,4.2h-0.1
	c-2.3,0-4.2-1.9-4.2-4.2S20.4,28.4,22.7,28.4L22.7,28.4z M29.7,50.9h-14v-5.1c0-2.8,2.3-5.1,5.1-5.1h3.8c2.8,0,5.1,2.3,5.1,5.1V50.9
	z M54.3,29.2H43.9c-1.1,0-2,0.8-2,1.9s0.8,2,1.9,2h0.1h10.4c1.1,0,1.9-0.9,1.9-2C56.1,30.1,55.3,29.3,54.3,29.2L54.3,29.2z
	 M66.6,46.2H43.9c-1.1,0-2,0.8-2,1.9c0,1.1,0.8,2,1.9,2h0.1h22.7c1.1,0,2-0.8,2-1.9c0-1.1-0.8-2-1.9-2
	C66.6,46.2,66.6,46.2,66.6,46.2L66.6,46.2z M66.6,38.6H43.9c-1.1,0-1.9,0.9-1.9,1.9c0,1.1,0.9,1.9,1.9,1.9h22.7
	c1.1,0,1.9-0.9,1.9-1.9C68.5,39.4,67.6,38.6,66.6,38.6L66.6,38.6z M43.9,42.4h22.7c1.1,0,1.9-0.9,1.9-1.9s-0.9-1.9-1.9-1.9H43.9
	c-1.1,0-1.9,0.9-1.9,1.9S42.8,42.4,43.9,42.4z M66.6,46.2H43.9c-1.1,0-2,0.8-2,1.9c0,1.1,0.8,2,1.9,2h0.1h22.7c1.1,0,2-0.8,2-1.9
	c0-1.1-0.8-2-1.9-2C66.6,46.2,66.6,46.2,66.6,46.2z M43.9,33.1h10.4c1.1,0,1.9-0.9,1.9-2c0-1-0.9-1.8-1.9-1.9H43.9
	c-1.1,0-2,0.8-2,1.9C41.9,32.2,42.7,33.1,43.9,33.1C43.8,33.1,43.8,33.1,43.9,33.1z M28.8,37.9c2.9-3.4,2.5-8.5-0.8-11.4
	s-8.5-2.5-11.4,0.8c-2.6,3-2.6,7.5,0,10.5c-2.9,1.6-4.7,4.6-4.7,7.9v7c0,1.1,0.9,1.9,1.9,1.9h17.8c1.1,0,1.9-0.9,1.9-1.9v-7
	C33.5,42.5,31.7,39.4,28.8,37.9L28.8,37.9z M22.7,28.4c2.3,0,4.2,1.9,4.2,4.2s-1.9,4.2-4.2,4.2l0,0h-0.1c-2.3,0-4.2-1.9-4.2-4.2
	S20.4,28.4,22.7,28.4L22.7,28.4L22.7,28.4z M29.7,50.9h-14v-5.1c0-2.8,2.3-5.1,5.1-5.1h3.8c2.8,0,5.1,2.3,5.1,5.1V50.9z M71.8,9.2
	H8.2C3.7,9.2,0,12.8,0,17.3V62c0,4.5,3.7,8.2,8.2,8.2h63.7c4.5,0,8.2-3.7,8.2-8.2V17.3C80,12.8,76.3,9.2,71.8,9.2z M76.1,62
	c0,2.4-1.9,4.3-4.3,4.3H8.2c-2.4,0-4.3-1.9-4.3-4.3V17.3C3.9,15,5.8,13,8.2,13h63.7c2.4,0,4.3,1.9,4.3,4.3L76.1,62z M66.6,38.6H43.9
	c-1.1,0-1.9,0.9-1.9,1.9c0,1.1,0.9,1.9,1.9,1.9h22.7c1.1,0,1.9-0.9,1.9-1.9C68.5,39.4,67.6,38.6,66.6,38.6z M66.6,46.2H43.9
	c-1.1,0-2,0.8-2,1.9c0,1.1,0.8,2,1.9,2h0.1h22.7c1.1,0,2-0.8,2-1.9c0-1.1-0.8-2-1.9-2C66.6,46.2,66.6,46.2,66.6,46.2z M43.9,33.1
	h10.4c1.1,0,1.9-0.9,1.9-2c0-1-0.9-1.8-1.9-1.9H43.9c-1.1,0-2,0.8-2,1.9C41.9,32.2,42.7,33.1,43.9,33.1
	C43.8,33.1,43.8,33.1,43.9,33.1z M28.8,37.9c2.9-3.4,2.5-8.5-0.8-11.4s-8.5-2.5-11.4,0.8c-2.6,3-2.6,7.5,0,10.5
	c-2.9,1.6-4.7,4.6-4.7,7.9v7c0,1.1,0.9,1.9,1.9,1.9h17.8c1.1,0,1.9-0.9,1.9-1.9v-7C33.5,42.5,31.7,39.4,28.8,37.9L28.8,37.9z
	 M22.7,28.4c2.3,0,4.2,1.9,4.2,4.2s-1.9,4.2-4.2,4.2l0,0h-0.1c-2.3,0-4.2-1.9-4.2-4.2S20.4,28.4,22.7,28.4L22.7,28.4L22.7,28.4z
	 M29.7,50.9h-14v-5.1c0-2.8,2.3-5.1,5.1-5.1h3.8c2.8,0,5.1,2.3,5.1,5.1V50.9z M28.8,37.9c2.9-3.4,2.5-8.5-0.8-11.4
	s-8.5-2.5-11.4,0.8c-2.6,3-2.6,7.5,0,10.5c-2.9,1.6-4.7,4.6-4.7,7.9v7c0,1.1,0.9,1.9,1.9,1.9h17.8c1.1,0,1.9-0.9,1.9-1.9v-7
	C33.5,42.5,31.7,39.4,28.8,37.9L28.8,37.9z M22.7,28.4c2.3,0,4.2,1.9,4.2,4.2s-1.9,4.2-4.2,4.2l0,0h-0.1c-2.3,0-4.2-1.9-4.2-4.2
	S20.4,28.4,22.7,28.4L22.7,28.4L22.7,28.4z M29.7,50.9h-14v-5.1c0-2.8,2.3-5.1,5.1-5.1h3.8c2.8,0,5.1,2.3,5.1,5.1V50.9z M54.3,29.2
	H43.9c-1.1,0-2,0.8-2,1.9s0.8,2,1.9,2h0.1h10.4c1.1,0,1.9-0.9,1.9-2C56.1,30.1,55.3,29.3,54.3,29.2L54.3,29.2z M66.6,46.2H43.9
	c-1.1,0-2,0.8-2,1.9c0,1.1,0.8,2,1.9,2h0.1h22.7c1.1,0,2-0.8,2-1.9c0-1.1-0.8-2-1.9-2C66.6,46.2,66.6,46.2,66.6,46.2L66.6,46.2z
	 M66.6,38.6H43.9c-1.1,0-1.9,0.9-1.9,1.9s0.9,1.9,1.9,1.9h22.7c1.1,0,1.9-0.9,1.9-1.9S67.6,38.6,66.6,38.6L66.6,38.6z M66.6,38.6
	H43.9c-1.1,0-1.9,0.9-1.9,1.9s0.9,1.9,1.9,1.9h22.7c1.1,0,1.9-0.9,1.9-1.9S67.6,38.6,66.6,38.6L66.6,38.6z M66.6,46.2H43.9
	c-1.1,0-2,0.8-2,1.9c0,1.1,0.8,2,1.9,2h0.1h22.7c1.1,0,2-0.8,2-1.9c0-1.1-0.8-2-1.9-2C66.6,46.2,66.6,46.2,66.6,46.2L66.6,46.2z
	 M54.3,29.2H43.9c-1.1,0-2,0.8-2,1.9s0.8,2,1.9,2h0.1h10.4c1.1,0,1.9-0.9,1.9-2C56.1,30.1,55.3,29.3,54.3,29.2L54.3,29.2z
	 M28.8,37.9c2.9-3.4,2.5-8.5-0.8-11.4s-8.5-2.5-11.4,0.8c-2.6,3-2.6,7.5,0,10.5c-2.9,1.6-4.7,4.6-4.7,7.9v7c0,1.1,0.9,1.9,1.9,1.9
	h17.8c1.1,0,1.9-0.9,1.9-1.9v-7C33.5,42.5,31.7,39.4,28.8,37.9z M22.7,28.4c2.3,0,4.2,1.9,4.2,4.2s-1.9,4.2-4.2,4.2l0,0h-0.1
	c-2.3,0-4.2-1.9-4.2-4.2S20.4,28.4,22.7,28.4L22.7,28.4L22.7,28.4z M29.7,50.9h-14v-5.1c0-2.8,2.3-5.1,5.1-5.1h3.8
	c2.8,0,5.1,2.3,5.1,5.1V50.9z M28.8,37.9c2.9-3.4,2.5-8.5-0.8-11.4s-8.5-2.5-11.4,0.8c-2.6,3-2.6,7.5,0,10.5
	c-2.9,1.6-4.7,4.6-4.7,7.9v7c0,1.1,0.9,1.9,1.9,1.9h17.8c1.1,0,1.9-0.9,1.9-1.9v-7C33.5,42.5,31.7,39.4,28.8,37.9L28.8,37.9z
	 M22.7,28.4c2.3,0,4.2,1.9,4.2,4.2s-1.9,4.2-4.2,4.2h-0.1c-2.3,0-4.2-1.9-4.2-4.2S20.4,28.4,22.7,28.4L22.7,28.4z M29.7,50.9h-14
	v-5.1c0-2.8,2.3-5.1,5.1-5.1h3.8c2.8,0,5.1,2.3,5.1,5.1V50.9z M54.3,29.2H43.9c-1.1,0-2,0.8-2,1.9s0.8,2,1.9,2h0.1h10.4
	c1.1,0,1.9-0.9,1.9-2C56.1,30.1,55.3,29.3,54.3,29.2L54.3,29.2z M66.6,46.2H43.9c-1.1,0-2,0.8-2,1.9c0,1.1,0.8,2,1.9,2h0.1h22.7
	c1.1,0,2-0.8,2-1.9c0-1.1-0.8-2-1.9-2C66.6,46.2,66.6,46.2,66.6,46.2L66.6,46.2z M66.6,38.6H43.9c-1.1,0-1.9,0.9-1.9,1.9
	c0,1.1,0.9,1.9,1.9,1.9h22.7c1.1,0,1.9-0.9,1.9-1.9C68.5,39.4,67.6,38.6,66.6,38.6L66.6,38.6z M66.6,38.6H43.9
	c-1.1,0-1.9,0.9-1.9,1.9c0,1.1,0.9,1.9,1.9,1.9h22.7c1.1,0,1.9-0.9,1.9-1.9C68.5,39.4,67.6,38.6,66.6,38.6L66.6,38.6z M66.6,46.2
	H43.9c-1.1,0-2,0.8-2,1.9c0,1.1,0.8,2,1.9,2h0.1h22.7c1.1,0,2-0.8,2-1.9c0-1.1-0.8-2-1.9-2C66.6,46.2,66.6,46.2,66.6,46.2L66.6,46.2
	z M54.3,29.2H43.9c-1.1,0-2,0.8-2,1.9s0.8,2,1.9,2h0.1h10.4c1.1,0,1.9-0.9,1.9-2C56.1,30.1,55.3,29.3,54.3,29.2L54.3,29.2z
	 M28.8,37.9c2.9-3.4,2.5-8.5-0.8-11.4s-8.5-2.5-11.4,0.8c-2.6,3-2.6,7.5,0,10.5c-2.9,1.6-4.7,4.6-4.7,7.9v7c0,1.1,0.9,1.9,1.9,1.9
	h17.8c1.1,0,1.9-0.9,1.9-1.9v-7C33.5,42.5,31.7,39.4,28.8,37.9z M22.7,28.4c2.3,0,4.2,1.9,4.2,4.2s-1.9,4.2-4.2,4.2l0,0h-0.1
	c-2.3,0-4.2-1.9-4.2-4.2S20.4,28.4,22.7,28.4L22.7,28.4L22.7,28.4z M29.7,50.9h-14v-5.1c0-2.8,2.3-5.1,5.1-5.1h3.8
	c2.8,0,5.1,2.3,5.1,5.1V50.9z M28.8,37.9c2.9-3.4,2.5-8.5-0.8-11.4s-8.5-2.5-11.4,0.8c-2.6,3-2.6,7.5,0,10.5
	c-2.9,1.6-4.7,4.6-4.7,7.9v7c0,1.1,0.9,1.9,1.9,1.9h17.8c1.1,0,1.9-0.9,1.9-1.9v-7C33.5,42.5,31.7,39.4,28.8,37.9L28.8,37.9z
	 M22.7,28.4c2.3,0,4.2,1.9,4.2,4.2s-1.9,4.2-4.2,4.2h-0.1c-2.3,0-4.2-1.9-4.2-4.2S20.4,28.4,22.7,28.4L22.7,28.4z M29.7,50.9h-14
	v-5.1c0-2.8,2.3-5.1,5.1-5.1h3.8c2.8,0,5.1,2.3,5.1,5.1V50.9z M54.3,29.2H43.9c-1.1,0-2,0.8-2,1.9s0.8,2,1.9,2h0.1h10.4
	c1.1,0,1.9-0.9,1.9-2C56.1,30.1,55.3,29.3,54.3,29.2L54.3,29.2z M66.6,46.2H43.9c-1.1,0-2,0.8-2,1.9c0,1.1,0.8,2,1.9,2h0.1h22.7
	c1.1,0,2-0.8,2-1.9c0-1.1-0.8-2-1.9-2C66.6,46.2,66.6,46.2,66.6,46.2L66.6,46.2z M66.6,38.6H43.9c-1.1,0-1.9,0.9-1.9,1.9
	c0,1.1,0.9,1.9,1.9,1.9h22.7c1.1,0,1.9-0.9,1.9-1.9C68.5,39.4,67.6,38.6,66.6,38.6L66.6,38.6z M66.6,38.6H43.9
	c-1.1,0-1.9,0.9-1.9,1.9c0,1.1,0.9,1.9,1.9,1.9h22.7c1.1,0,1.9-0.9,1.9-1.9C68.5,39.4,67.6,38.6,66.6,38.6L66.6,38.6z M66.6,46.2
	H43.9c-1.1,0-2,0.8-2,1.9c0,1.1,0.8,2,1.9,2h0.1h22.7c1.1,0,2-0.8,2-1.9c0-1.1-0.8-2-1.9-2C66.6,46.2,66.6,46.2,66.6,46.2L66.6,46.2
	z M54.3,29.2H43.9c-1.1,0-2,0.8-2,1.9s0.8,2,1.9,2h0.1h10.4c1.1,0,1.9-0.9,1.9-2C56.1,30.1,55.3,29.3,54.3,29.2L54.3,29.2z
	 M28.8,37.9c2.9-3.4,2.5-8.5-0.8-11.4s-8.5-2.5-11.4,0.8c-2.6,3-2.6,7.5,0,10.5c-2.9,1.6-4.7,4.6-4.7,7.9v7c0,1.1,0.9,1.9,1.9,1.9
	h17.8c1.1,0,1.9-0.9,1.9-1.9v-7C33.5,42.5,31.7,39.4,28.8,37.9z M22.7,28.4c2.3,0,4.2,1.9,4.2,4.2s-1.9,4.2-4.2,4.2l0,0h-0.1
	c-2.3,0-4.2-1.9-4.2-4.2S20.4,28.4,22.7,28.4L22.7,28.4L22.7,28.4z M29.7,50.9h-14v-5.1c0-2.8,2.3-5.1,5.1-5.1h3.8
	c2.8,0,5.1,2.3,5.1,5.1V50.9z M28.8,37.9c2.9-3.4,2.5-8.5-0.8-11.4s-8.5-2.5-11.4,0.8c-2.6,3-2.6,7.5,0,10.5
	c-2.9,1.6-4.7,4.6-4.7,7.9v7c0,1.1,0.9,1.9,1.9,1.9h17.8c1.1,0,1.9-0.9,1.9-1.9v-7C33.5,42.5,31.7,39.4,28.8,37.9L28.8,37.9z
	 M22.7,28.4c2.3,0,4.2,1.9,4.2,4.2s-1.9,4.2-4.2,4.2h-0.1c-2.3,0-4.2-1.9-4.2-4.2S20.4,28.4,22.7,28.4L22.7,28.4z M29.7,50.9h-14
	v-5.1c0-2.8,2.3-5.1,5.1-5.1h3.8c2.8,0,5.1,2.3,5.1,5.1V50.9z M54.3,29.2H43.9c-1.1,0-2,0.8-2,1.9s0.8,2,1.9,2h0.1h10.4
	c1.1,0,1.9-0.9,1.9-2C56.1,30.1,55.3,29.3,54.3,29.2L54.3,29.2z M66.6,46.2H43.9c-1.1,0-2,0.8-2,1.9c0,1.1,0.8,2,1.9,2h0.1h22.7
	c1.1,0,2-0.8,2-1.9c0-1.1-0.8-2-1.9-2C66.6,46.2,66.6,46.2,66.6,46.2L66.6,46.2z M66.6,38.6H43.9c-1.1,0-1.9,0.9-1.9,1.9
	c0,1.1,0.9,1.9,1.9,1.9h22.7c1.1,0,1.9-0.9,1.9-1.9C68.5,39.4,67.6,38.6,66.6,38.6L66.6,38.6z M66.6,38.6H43.9
	c-1.1,0-1.9,0.9-1.9,1.9c0,1.1,0.9,1.9,1.9,1.9h22.7c1.1,0,1.9-0.9,1.9-1.9C68.5,39.4,67.6,38.6,66.6,38.6L66.6,38.6z M66.6,46.2
	H43.9c-1.1,0-2,0.8-2,1.9c0,1.1,0.8,2,1.9,2h0.1h22.7c1.1,0,2-0.8,2-1.9c0-1.1-0.8-2-1.9-2C66.6,46.2,66.6,46.2,66.6,46.2L66.6,46.2
	z M54.3,29.2H43.9c-1.1,0-2,0.8-2,1.9s0.8,2,1.9,2h0.1h10.4c1.1,0,1.9-0.9,1.9-2C56.1,30.1,55.3,29.3,54.3,29.2L54.3,29.2z
	 M28.8,37.9c2.9-3.4,2.5-8.5-0.8-11.4s-8.5-2.5-11.4,0.8c-2.6,3-2.6,7.5,0,10.5c-2.9,1.6-4.7,4.6-4.7,7.9v7c0,1.1,0.9,1.9,1.9,1.9
	h17.8c1.1,0,1.9-0.9,1.9-1.9v-7C33.5,42.5,31.7,39.4,28.8,37.9z M22.7,28.4c2.3,0,4.2,1.9,4.2,4.2s-1.9,4.2-4.2,4.2l0,0h-0.1
	c-2.3,0-4.2-1.9-4.2-4.2S20.4,28.4,22.7,28.4L22.7,28.4L22.7,28.4z M29.7,50.9h-14v-5.1c0-2.8,2.3-5.1,5.1-5.1h3.8
	c2.8,0,5.1,2.3,5.1,5.1V50.9z M28.8,37.9c2.9-3.4,2.5-8.5-0.8-11.4s-8.5-2.5-11.4,0.8c-2.6,3-2.6,7.5,0,10.5
	c-2.9,1.6-4.7,4.6-4.7,7.9v7c0,1.1,0.9,1.9,1.9,1.9h17.8c1.1,0,1.9-0.9,1.9-1.9v-7C33.5,42.5,31.7,39.4,28.8,37.9L28.8,37.9z
	 M22.7,28.4c2.3,0,4.2,1.9,4.2,4.2s-1.9,4.2-4.2,4.2h-0.1c-2.3,0-4.2-1.9-4.2-4.2S20.4,28.4,22.7,28.4L22.7,28.4z M29.7,50.9h-14
	v-5.1c0-2.8,2.3-5.1,5.1-5.1h3.8c2.8,0,5.1,2.3,5.1,5.1V50.9z M54.3,29.2H43.9c-1.1,0-2,0.8-2,1.9s0.8,2,1.9,2h0.1h10.4
	c1.1,0,1.9-0.9,1.9-2C56.1,30.1,55.3,29.3,54.3,29.2L54.3,29.2z M66.6,46.2H43.9c-1.1,0-2,0.8-2,1.9c0,1.1,0.8,2,1.9,2h0.1h22.7
	c1.1,0,2-0.8,2-1.9c0-1.1-0.8-2-1.9-2C66.6,46.2,66.6,46.2,66.6,46.2L66.6,46.2z M66.6,38.6H43.9c-1.1,0-1.9,0.9-1.9,1.9
	c0,1.1,0.9,1.9,1.9,1.9h22.7c1.1,0,1.9-0.9,1.9-1.9C68.5,39.4,67.6,38.6,66.6,38.6L66.6,38.6z M66.6,38.6H43.9
	c-1.1,0-1.9,0.9-1.9,1.9c0,1.1,0.9,1.9,1.9,1.9h22.7c1.1,0,1.9-0.9,1.9-1.9C68.5,39.4,67.6,38.6,66.6,38.6L66.6,38.6z M66.6,46.2
	H43.9c-1.1,0-2,0.8-2,1.9c0,1.1,0.8,2,1.9,2h0.1h22.7c1.1,0,2-0.8,2-1.9c0-1.1-0.8-2-1.9-2C66.6,46.2,66.6,46.2,66.6,46.2L66.6,46.2
	z M54.3,29.2H43.9c-1.1,0-2,0.8-2,1.9s0.8,2,1.9,2h0.1h10.4c1.1,0,1.9-0.9,1.9-2C56.1,30.1,55.3,29.3,54.3,29.2L54.3,29.2z
	 M28.8,37.9c2.9-3.4,2.5-8.5-0.8-11.4s-8.5-2.5-11.4,0.8c-2.6,3-2.6,7.5,0,10.5c-2.9,1.6-4.7,4.6-4.7,7.9v7c0,1.1,0.9,1.9,1.9,1.9
	h17.8c1.1,0,1.9-0.9,1.9-1.9v-7C33.5,42.5,31.7,39.4,28.8,37.9z M22.7,28.4c2.3,0,4.2,1.9,4.2,4.2s-1.9,4.2-4.2,4.2l0,0h-0.1
	c-2.3,0-4.2-1.9-4.2-4.2S20.4,28.4,22.7,28.4L22.7,28.4L22.7,28.4z M29.7,50.9h-14v-5.1c0-2.8,2.3-5.1,5.1-5.1h3.8
	c2.8,0,5.1,2.3,5.1,5.1V50.9z M28.8,37.9c2.9-3.4,2.5-8.5-0.8-11.4s-8.5-2.5-11.4,0.8c-2.6,3-2.6,7.5,0,10.5
	c-2.9,1.6-4.7,4.6-4.7,7.9v7c0,1.1,0.9,1.9,1.9,1.9h17.8c1.1,0,1.9-0.9,1.9-1.9v-7C33.5,42.5,31.7,39.4,28.8,37.9L28.8,37.9z
	 M22.7,28.4c2.3,0,4.2,1.9,4.2,4.2s-1.9,4.2-4.2,4.2h-0.1c-2.3,0-4.2-1.9-4.2-4.2S20.4,28.4,22.7,28.4L22.7,28.4z M29.7,50.9h-14
	v-5.1c0-2.8,2.3-5.1,5.1-5.1h3.8c2.8,0,5.1,2.3,5.1,5.1V50.9z M54.3,29.2H43.9c-1.1,0-2,0.8-2,1.9s0.8,2,1.9,2h0.1h10.4
	c1.1,0,1.9-0.9,1.9-2C56.1,30.1,55.3,29.3,54.3,29.2L54.3,29.2z M66.6,46.2H43.9c-1.1,0-2,0.8-2,1.9c0,1.1,0.8,2,1.9,2h0.1h22.7
	c1.1,0,2-0.8,2-1.9c0-1.1-0.8-2-1.9-2C66.6,46.2,66.6,46.2,66.6,46.2L66.6,46.2z M66.6,38.6H43.9c-1.1,0-1.9,0.9-1.9,1.9
	c0,1.1,0.9,1.9,1.9,1.9h22.7c1.1,0,1.9-0.9,1.9-1.9C68.5,39.4,67.6,38.6,66.6,38.6L66.6,38.6z M66.6,38.6H43.9
	c-1.1,0-1.9,0.9-1.9,1.9c0,1.1,0.9,1.9,1.9,1.9h22.7c1.1,0,1.9-0.9,1.9-1.9C68.5,39.4,67.6,38.6,66.6,38.6L66.6,38.6z M66.6,46.2
	H43.9c-1.1,0-2,0.8-2,1.9c0,1.1,0.8,2,1.9,2h0.1h22.7c1.1,0,2-0.8,2-1.9c0-1.1-0.8-2-1.9-2C66.6,46.2,66.6,46.2,66.6,46.2L66.6,46.2
	z M54.3,29.2H43.9c-1.1,0-2,0.8-2,1.9s0.8,2,1.9,2h0.1h10.4c1.1,0,1.9-0.9,1.9-2C56.1,30.1,55.3,29.3,54.3,29.2L54.3,29.2z
	 M28.8,37.9c2.9-3.4,2.5-8.5-0.8-11.4s-8.5-2.5-11.4,0.8c-2.6,3-2.6,7.5,0,10.5c-2.9,1.6-4.7,4.6-4.7,7.9v7c0,1.1,0.9,1.9,1.9,1.9
	h17.8c1.1,0,1.9-0.9,1.9-1.9v-7C33.5,42.5,31.7,39.4,28.8,37.9z M22.7,28.4c2.3,0,4.2,1.9,4.2,4.2s-1.9,4.2-4.2,4.2l0,0h-0.1
	c-2.3,0-4.2-1.9-4.2-4.2S20.4,28.4,22.7,28.4L22.7,28.4L22.7,28.4z M29.7,50.9h-14v-5.1c0-2.8,2.3-5.1,5.1-5.1h3.8
	c2.8,0,5.1,2.3,5.1,5.1V50.9z M28.8,37.9c2.9-3.4,2.5-8.5-0.8-11.4s-8.5-2.5-11.4,0.8c-2.6,3-2.6,7.5,0,10.5
	c-2.9,1.6-4.7,4.6-4.7,7.9v7c0,1.1,0.9,1.9,1.9,1.9h17.8c1.1,0,1.9-0.9,1.9-1.9v-7C33.5,42.5,31.7,39.4,28.8,37.9L28.8,37.9z
	 M22.7,28.4c2.3,0,4.2,1.9,4.2,4.2s-1.9,4.2-4.2,4.2h-0.1c-2.3,0-4.2-1.9-4.2-4.2S20.4,28.4,22.7,28.4L22.7,28.4z M29.7,50.9h-14
	v-5.1c0-2.8,2.3-5.1,5.1-5.1h3.8c2.8,0,5.1,2.3,5.1,5.1V50.9z M54.3,29.2H43.9c-1.1,0-2,0.8-2,1.9s0.8,2,1.9,2h0.1h10.4
	c1.1,0,1.9-0.9,1.9-2C56.1,30.1,55.3,29.3,54.3,29.2L54.3,29.2z M66.6,46.2H43.9c-1.1,0-2,0.8-2,1.9c0,1.1,0.8,2,1.9,2h0.1h22.7
	c1.1,0,2-0.8,2-1.9c0-1.1-0.8-2-1.9-2C66.6,46.2,66.6,46.2,66.6,46.2L66.6,46.2z M66.6,38.6H43.9c-1.1,0-1.9,0.9-1.9,1.9
	c0,1.1,0.9,1.9,1.9,1.9h22.7c1.1,0,1.9-0.9,1.9-1.9C68.5,39.4,67.6,38.6,66.6,38.6L66.6,38.6z M66.6,38.6H43.9
	c-1.1,0-1.9,0.9-1.9,1.9c0,1.1,0.9,1.9,1.9,1.9h22.7c1.1,0,1.9-0.9,1.9-1.9C68.5,39.4,67.6,38.6,66.6,38.6L66.6,38.6z M66.6,46.2
	H43.9c-1.1,0-2,0.8-2,1.9c0,1.1,0.8,2,1.9,2h0.1h22.7c1.1,0,2-0.8,2-1.9c0-1.1-0.8-2-1.9-2C66.6,46.2,66.6,46.2,66.6,46.2L66.6,46.2
	z M54.3,29.2H43.9c-1.1,0-2,0.8-2,1.9s0.8,2,1.9,2h0.1h10.4c1.1,0,1.9-0.9,1.9-2C56.1,30.1,55.3,29.3,54.3,29.2L54.3,29.2z
	 M28.8,37.9c2.9-3.4,2.5-8.5-0.8-11.4s-8.5-2.5-11.4,0.8c-2.6,3-2.6,7.5,0,10.5c-2.9,1.6-4.7,4.6-4.7,7.9v7c0,1.1,0.9,1.9,1.9,1.9
	h17.8c1.1,0,1.9-0.9,1.9-1.9v-7C33.5,42.5,31.7,39.4,28.8,37.9z M22.7,28.4c2.3,0,4.2,1.9,4.2,4.2s-1.9,4.2-4.2,4.2l0,0h-0.1
	c-2.3,0-4.2-1.9-4.2-4.2S20.4,28.4,22.7,28.4L22.7,28.4L22.7,28.4z M29.7,50.9h-14v-5.1c0-2.8,2.3-5.1,5.1-5.1h3.8
	c2.8,0,5.1,2.3,5.1,5.1V50.9z M28.8,37.9c2.9-3.4,2.5-8.5-0.8-11.4s-8.5-2.5-11.4,0.8c-2.6,3-2.6,7.5,0,10.5
	c-2.9,1.6-4.7,4.6-4.7,7.9v7c0,1.1,0.9,1.9,1.9,1.9h17.8c1.1,0,1.9-0.9,1.9-1.9v-7C33.5,42.5,31.7,39.4,28.8,37.9L28.8,37.9z
	 M22.7,28.4c2.3,0,4.2,1.9,4.2,4.2s-1.9,4.2-4.2,4.2h-0.1c-2.3,0-4.2-1.9-4.2-4.2S20.4,28.4,22.7,28.4L22.7,28.4z M29.7,50.9h-14
	v-5.1c0-2.8,2.3-5.1,5.1-5.1h3.8c2.8,0,5.1,2.3,5.1,5.1V50.9z M54.3,29.2H43.9c-1.1,0-2,0.8-2,1.9s0.8,2,1.9,2h0.1h10.4
	c1.1,0,1.9-0.9,1.9-2C56.1,30.1,55.3,29.3,54.3,29.2L54.3,29.2z M66.6,46.2H43.9c-1.1,0-2,0.8-2,1.9c0,1.1,0.8,2,1.9,2h0.1h22.7
	c1.1,0,2-0.8,2-1.9c0-1.1-0.8-2-1.9-2C66.6,46.2,66.6,46.2,66.6,46.2L66.6,46.2z M66.6,38.6H43.9c-1.1,0-1.9,0.9-1.9,1.9
	c0,1.1,0.9,1.9,1.9,1.9h22.7c1.1,0,1.9-0.9,1.9-1.9C68.5,39.4,67.6,38.6,66.6,38.6L66.6,38.6z M66.6,46.2H43.9c-1.1,0-2,0.8-2,1.9
	c0,1.1,0.8,2,1.9,2h0.1h22.7c1.1,0,2-0.8,2-1.9c0-1.1-0.8-2-1.9-2C66.6,46.2,66.6,46.2,66.6,46.2L66.6,46.2z M66.6,38.6H43.9
	c-1.1,0-1.9,0.9-1.9,1.9c0,1.1,0.9,1.9,1.9,1.9h22.7c1.1,0,1.9-0.9,1.9-1.9C68.5,39.4,67.6,38.6,66.6,38.6L66.6,38.6z"/>
</svg>
