<svg id="Layer_1" data-name="Layer 1" xmlns="http://www.w3.org/2000/svg" viewBox="0 0 80 80"><defs><style>.cls-1{fill:#29ac0a;}</style></defs><path class="cls-1" d="M18.42,80a.69.69,0,0,1,.94,0Z"/><path class="cls-1" d="M62.17,80A.53.53,0,0,1,63,80Z"/><path class="cls-1" d="M31.7,19.08q-3.89-5.83-7.8-11.67c-.34-.51-.26-.72.22-1.06A34.29,34.29,0,0,1,34.94.8,22.62,22.62,0,0,1,51.3,2.6a49.21,49.21,0,0,1,6.24,3.83c.44.31.38.52.12.91q-3.93,5.85-7.84,11.74l-.11.1a2.31,2.31,0,0,1-1.07.15H32.89a2.31,2.31,0,0,1-1.07-.15Z"/><path class="cls-1" d="M50,24.07c-.15-.05-.18-.17-.19-.31a6.68,6.68,0,0,1-1.61-2.15.41.41,0,0,1,0-.45,6.83,6.83,0,0,1,1.58-2.08h0a22.4,22.4,0,0,1,5,.29,9.52,9.52,0,0,1,7.05,8.3c0,.54,0,.84-.69.8-1.16-.07-2.34,0-3.51,0-.35,0-.45-.07-.51-.45a4.67,4.67,0,0,0-4.91-4.25H50.35C50.16,23.77,49.9,23.71,50,24.07Z"/><path class="cls-1" d="M31.7,23.76a.29.29,0,0,1-.18.31c.09-.53-.32-.29-.5-.29-1.27,0-2.54,0-3.81,0-.41,0-.53-.1-.52-.51,0-1.22,0-2.44,0-3.66,0-.47.17-.54.58-.53,1.48,0,2.95,0,4.43,0h0a6.56,6.56,0,0,1,1.62,2.15.41.41,0,0,1,0,.45A7.2,7.2,0,0,1,31.7,23.76Z"/><path class="cls-1" d="M73.31,57.78C67.64,49.7,62.1,41.53,56.5,33.4c-2.15-3.12-4.33-6.22-6.49-9.33-.16-.12-.11-.4-.35-.46a3.25,3.25,0,0,0-1.08-.1H32.94a3,3,0,0,0-1.08.11c-.23.05-.19.33-.34.45-1.21,1.72-2.42,3.43-3.61,5.16-6.68,9.69-13.42,19.34-20,29.09a14,14,0,0,0,6.35,20.62c1.2.5,2.48.66,3.69,1.07h.47a1.18,1.18,0,0,1,.94,0H62.17A.83.83,0,0,1,63,80h.31c.05-.11.14-.12.25-.13a12.2,12.2,0,0,0,4.39-1.23A14.16,14.16,0,0,0,73.31,57.78ZM48.67,59.35a12,12,0,0,1-4.82,4.91,6,6,0,0,1-3,.83A12.55,12.55,0,0,1,39.25,65a4.5,4.5,0,0,1-1.68-.55,3.8,3.8,0,0,1-1.31-1.33,4.78,4.78,0,0,1-.53-2.44V55.2h-.67l-3-3h3.69v-.51a4.52,4.52,0,0,1,0-.54.82.82,0,0,0,0-.31c0-.22,0-.44,0-.65s0-.41,0-.61V49a3.78,3.78,0,0,0,0-.51,1.33,1.33,0,0,0-.3-.72,1,1,0,0,0-.78-.24,2.08,2.08,0,0,0-.4,0,2.66,2.66,0,0,0-.74.46l-1-3A14.59,14.59,0,0,1,34,44.46a4.45,4.45,0,0,1,1.25-.18,3.81,3.81,0,0,1,1.87.4,2.9,2.9,0,0,1,1.1,1.07,4.24,4.24,0,0,1,.52,1.5,10.16,10.16,0,0,1,.13,1.64v3.25h.44l2.59,2.68v-.06a3.73,3.73,0,0,1,.83-2.55,3.1,3.1,0,0,1,2.49-1,4.41,4.41,0,0,1,2,.43,3.49,3.49,0,0,1,1.32,1.14,4.52,4.52,0,0,1,.71,1.66,9.53,9.53,0,0,1,.2,1.94A6.48,6.48,0,0,1,48.67,59.35Z"/><path class="cls-1" d="M42.87,57a2.44,2.44,0,0,1-1-1.83H38.83v5.43c0,.91.59,1.36,1.77,1.36a3.44,3.44,0,0,0,1.59-.42,6.1,6.1,0,0,0,1.46-1.07,6.56,6.56,0,0,0,1.07-1.41,3.76,3.76,0,0,0,.49-1.42A3.58,3.58,0,0,1,42.87,57Z"/></svg>