<svg id="Layer_1" data-name="Layer 1" xmlns="http://www.w3.org/2000/svg" viewBox="0 0 32 32"><defs><style>.cls-1{fill:#ffffff;}</style></defs><path class="cls-1" d="M24,27.79v-3c0-.54.21-.75.75-.75l6,0c.58,0,.8.28.69.85a8.17,8.17,0,0,1-6.67,6.58.6.6,0,0,1-.76-.65C24,29.84,24,28.81,24,27.79Z"/><path class="cls-1" d="M8.07,8C7.66,6.7,7.26,5.39,6.85,4.08,6.69,3.56,6.52,3,6.37,2.51s.08-.85.63-.87.65,0,.89.6l.75,1.85c.16.39.46.55.79.41a.59.59,0,0,0,.28-.85c-.3-.76-.61-1.53-.92-2.29A.29.29,0,0,1,8.88,1a2.47,2.47,0,0,1,3,0,.28.28,0,0,1,.09.4c-.31.76-.61,1.53-.91,2.3a.57.57,0,0,0,.24.81.58.58,0,0,0,.82-.35c.29-.72.59-1.45.86-2.18a.41.41,0,0,1,.46-.31c1,0,1.16.22.87,1.16l-1.53,5c0,.13,0,.28-.27.28Z"/><path class="cls-1" d="M30.59,21.18A8.13,8.13,0,1,0,21.1,30.5c.61.11.88-.1.88-.72,0-2.17,0-4.33,0-6.5a1.21,1.21,0,0,1,1.35-1.35h3.24c1.12,0,2.25,0,3.37,0A.58.58,0,0,0,30.59,21.18Zm-9.77-5a.58.58,0,1,1-.56.56A.57.57,0,0,1,20.82,16.15Zm2.91,4.05a.58.58,0,0,1-.57-.59.57.57,0,0,1,.56-.56.59.59,0,0,1,.6.57A.6.6,0,0,1,23.73,20.2Zm.43-3.09c-1,1-2,2-2.94,2.93a.9.9,0,0,1-.33.16.59.59,0,0,1-.57-.84,1.16,1.16,0,0,1,.2-.25l2.71-2.7a1,1,0,0,1,.36-.24.52.52,0,0,1,.63.25A.51.51,0,0,1,24.16,17.11Z"/><path class="cls-1" d="M9,21.55a3.23,3.23,0,0,1-.42.2,2.8,2.8,0,0,1-.77.1.14.14,0,1,0,0,.28H8l.22,0a2.09,2.09,0,0,0,1-.33.14.14,0,0,0,.06-.21C9.2,21.5,9.13,21.5,9,21.55Z"/><path class="cls-1" d="M18.48,14.2a13.23,13.23,0,0,0-3.18-3.83c.33,0,.63,0,.94,0a.57.57,0,0,0,.11-1.11,1.1,1.1,0,0,0-.31,0H4.7c-.45,0-.71.23-.71.59s.25.56.69.57h.86l-.2.17A13.48,13.48,0,0,0,.8,18.06c-.13.6-.2,1.22-.3,1.83V21.1c.07.42.13.85.22,1.27a9.9,9.9,0,0,0,14.59,6.4l.22-.15a9.33,9.33,0,0,1,3-14.42Zm-8.67.4s0-.07.07-.07a2.78,2.78,0,0,1,1.53.25,1.53,1.53,0,0,1,.76,1c.06.23.09.47.13.71h0l0-.06A4.24,4.24,0,0,0,10.62,15c-.09-.05-.15,0-.2,0s0,.16.06.23.44.27.65.42a3.44,3.44,0,0,1,1,1.18l0,.11a2.75,2.75,0,0,1-1.54-.31,1.55,1.55,0,0,1-.68-.93A3.43,3.43,0,0,1,9.81,14.6Zm.41,6.25A2.6,2.6,0,0,1,9.46,22a2.28,2.28,0,0,1-1.12.44l-.43,0a6.73,6.73,0,0,1-2.06-.38.38.38,0,0,1-.27-.35A5.69,5.69,0,0,1,6,19.22a2.13,2.13,0,0,1,1.88-1.29,5.35,5.35,0,0,1,1.82.18.09.09,0,0,1,.06.08,1.1,1.1,0,0,1-.08.59c-.06.16,0,.23.16.25l.61.11s0,0,0,.08A6.52,6.52,0,0,1,10.22,20.85Zm3-2.55a.93.93,0,0,1-1,.65,1.65,1.65,0,0,1-.73-.32.78.78,0,0,0-.94-.06,1,1,0,0,0-.2.13.22.22,0,0,1-.24.05,3.87,3.87,0,0,1,0-.49.09.09,0,0,1,0-.06A1.27,1.27,0,0,1,11.78,18a1.26,1.26,0,0,0,.52.22.25.25,0,0,0,.31-.25.59.59,0,0,0,0-.27c-.07-.17-.14-.34-.2-.52l.14-.12A1.17,1.17,0,0,1,13.18,18.3Z"/><path class="cls-1" d="M8.41,18.33c0-.08-.05-.13-.16-.13l-.38,0a2,2,0,0,0-1,.37,2.07,2.07,0,0,0-.65.92,5.45,5.45,0,0,0-.36,1.92v.19c0,.11.06.17.14.17s.13-.06.15-.17c0-.33,0-.65.07-1a3.73,3.73,0,0,1,.36-1.25,1.44,1.44,0,0,1,1-.82,5.1,5.1,0,0,1,.67-.08C8.34,18.47,8.41,18.42,8.41,18.33Z"/></svg>