<?xml version="1.0" encoding="utf-8"?>
<!-- Generator: Adobe Illustrator 25.1.0, SVG Export Plug-In . SVG Version: 6.00 Build 0)  -->
<svg version="1.1" id="Layer_1" xmlns="http://www.w3.org/2000/svg" xmlns:xlink="http://www.w3.org/1999/xlink" x="0px" y="0px"
	 viewBox="0 0 80 80" style="enable-background:new 0 0 80 80;" xml:space="preserve">
<style type="text/css">
	.st0{fill:#8CC34B;}
</style>
<g>
	<path class="st0" d="M15,5.5c-0.5-1.5,0.1-2.3,1.6-2.3c1.4,0,1.4,0,1.9,1.3c0.6,1.5,1.2,3,1.8,4.6c0.4,1,1.1,1.4,1.9,1.1
		c0.8-0.3,1.1-1.1,0.7-2.1c-0.7-1.8-1.4-3.6-2.2-5.4c-0.2-0.5-0.1-0.8,0.3-1.1c1.9-1.5,5.1-1.5,7,0c0.4,0.3,0.5,0.7,0.3,1.2
		c-0.7,1.7-1.4,3.4-2.1,5.2c-0.5,1.2-0.2,1.9,0.6,2.3c0.8,0.3,1.5-0.1,2-1.2c0-0.1,0.1-0.2,0.1-0.3c0.6-1.5,1.3-3,1.8-4.6
		c0.2-0.7,0.6-0.8,1.3-0.9c1.8-0.1,2.7,0.7,2,2.7c-1.3,3.9-2.5,7.9-3.7,11.9c-0.1,0.3-0.2,0.6-0.3,0.9H19.1c-0.4-1.3-0.8-2.7-1.2-4
		C16.9,11.6,16,8.6,15,5.5z"/>
	<path class="st0" d="M44.1,33.5c-0.4-0.7-0.8-1.3-1.1-1.9c-2.7-4.2-6.1-7.7-10.8-9.8c-0.5-0.3-1.2-0.4-1.8-0.4
		c-3.5,0-6.9,0.1-10.4,0c-1.7-0.1-3.3,0.4-4.7,1.3c-0.7,0.4-1.5,0.9-2.1,1.4c-5.1,3.8-8.4,9-10.6,14.9c-1.7,4.7-2.3,9.5-1.2,14.5
		c2.9,12.7,15.8,21.2,29.9,17.4c2-0.6,3.9-1.4,5.7-2.5C27.3,56.9,31.4,39.5,44.1,33.5z M26.6,54.6c-0.5,0.2-0.7,0.4-0.6,1
		c0,0.4,0,0.8-0.1,1.2c-0.2,0.7-0.7,1-1.4,1.1c-0.7,0-1.4-0.5-1.3-1.2c0.2-1.4-0.5-1.9-1.6-2.5c-1.6-0.8-2.4-2.4-2.6-4.2
		c-0.1-1,0.4-1.8,1.3-1.8c0.8-0.1,1.4,0.5,1.5,1.6c0.2,1.5,1.3,2.6,2.8,2.6c1.3,0,2.6-1,2.8-2.3c0.2-1.4-0.5-2.7-1.9-3.1
		c-0.5-0.1-1.1-0.1-1.6-0.2c-2.5-0.4-4.5-2.3-4.8-4.9c-0.3-2.4,1.1-4.9,3.5-5.8c0.6-0.2,0.8-0.5,0.7-1.1c0-0.3,0-0.6,0-1
		c0.1-0.7,0.6-1.1,1.3-1.2c0.7-0.1,1.2,0.3,1.4,1c0,0.1,0.1,0.2,0.1,0.3c-0.3,1.3,0.4,1.8,1.5,2.3c1.7,0.9,2.6,2.4,2.7,4.3
		c0.1,1.1-0.4,1.7-1.2,1.8c-0.9,0.1-1.5-0.5-1.6-1.6c-0.2-1.7-1.5-2.8-3.2-2.5c-1.4,0.2-2.4,1.3-2.4,2.7c0,1.3,0.9,2.5,2.2,2.8
		c0.7,0.1,1.4,0.1,2,0.3c2.5,0.6,4.1,2.8,4.1,5.3C30.2,51.7,28.9,53.7,26.6,54.6z"/>
	<path class="st0" d="M73.4,52.2H55.9c-2.3,0-3.3,1-3.3,3.3c0,5.5,0,11,0,16.5v1c-4.5,0.9-12.4-4.1-15.6-9.7
		c-4.2-7.3-3.1-16.6,2.6-22.8c5.7-6.3,14.9-8.1,22.7-4.6C68.6,38.8,74,46.6,73.4,52.2z"/>
	<path class="st0" d="M79.1,60.7C78.4,70.9,69.9,78.3,61,78.7V60.7H79.1z"/>
	<g>
		<path class="st0" d="M58.3,39.6c-0.3,0.5-0.4,0.9-0.7,1.1c-2.3,2.3-4.5,4.6-6.8,6.8c-0.6,0.6-1.5,0.7-2,0.1
			c-0.6-0.6-0.6-1.4,0.1-2.1c2.2-2.3,4.5-4.5,6.8-6.8c0.5-0.5,1.1-0.7,1.6-0.3C57.7,38.6,58,39.2,58.3,39.6z"/>
		<path class="st0" d="M58.2,46.6c0,0.8-0.6,1.4-1.4,1.4c-0.8,0-1.3-0.6-1.4-1.3c0-0.8,0.6-1.4,1.4-1.4
			C57.5,45.2,58.2,45.9,58.2,46.6z"/>
		<path class="st0" d="M51.2,39.7c0,0.8-0.6,1.4-1.4,1.3c-0.7,0-1.3-0.6-1.3-1.4c0-0.8,0.6-1.4,1.4-1.4
			C50.6,38.3,51.2,38.9,51.2,39.7z"/>
	</g>
</g>
</svg>
