<?xml version="1.0" encoding="utf-8"?>
<!-- Generator: Adobe Illustrator 25.1.0, SVG Export Plug-In . SVG Version: 6.00 Build 0)  -->
<svg version="1.1" id="Layer_1" xmlns="http://www.w3.org/2000/svg" xmlns:xlink="http://www.w3.org/1999/xlink" x="0px" y="0px"
	 viewBox="0 0 80 80" style="enable-background:new 0 0 80 80;" xml:space="preserve">
<style type="text/css">
	.st0{fill:#FFFFFF;}
</style>
<path class="st0" d="M31.3,16.8c-1.8-2.7-3.6-5.4-5.4-8.1c2.5-1.8,5.8-3.9,9.6-4.9c4.9-1.3,9.7-0.8,14.6,1.6c1.9,1,3.7,2.1,5.4,3.3
	c-1.9,2.8-3.8,5.7-5.7,8.5l-1.3,2c-0.1,0-0.2,0-0.3,0l-0.1,0c-4.9,0-9.9,0-14.8,0l-0.2,0c-0.1,0-0.2,0-0.3,0L31.3,16.8z"/>
<path class="st0" d="M49.7,23.4C49.7,23.4,49.7,23.4,49.7,23.4c-0.3-0.2-0.5-0.6-0.7-1c-0.1-0.1-0.1-0.1-0.1-0.2
	c0.1-0.1,0.1-0.2,0.2-0.3c0.2-0.3,0.4-0.6,0.6-0.8c0.3,0,0.6,0,1,0c1.1,0,2.1,0,3.1,0.2c3.1,0.8,5.4,3.4,5.8,6.5c-0.8,0-1.6,0-2.4,0
	c-0.6-2.7-2.7-4.4-5.5-4.4c-0.3,0-0.5,0-0.8,0C50.4,23.4,50.1,23.4,49.7,23.4z"/>
<path class="st0" d="M28.6,23.4c0-0.8,0-1.6,0-2.3h3.3c0.2,0.2,0.4,0.6,0.6,0.9c0,0.1,0.1,0.2,0.1,0.2c0,0.1-0.1,0.1-0.1,0.2
	c-0.2,0.4-0.4,0.7-0.7,1c-0.1,0-0.3,0-0.4,0c-0.7,0-1.3,0-1.9,0H28.6z"/>
<path class="st0" d="M47,23.2H34.5c0,0,0-0.1,0.1-0.1c0.3-0.5,0.3-1.1,0-1.5c0-0.1-0.1-0.1-0.1-0.2H47c0,0,0,0.1-0.1,0.1
	c-0.3,0.5-0.4,1.1,0,1.6C46.9,23,47,23.1,47,23.2z"/>
<path class="st0" d="M20,78.1l0.2-0.3l0.2,0.2C20.3,78.2,20.1,78.2,20,78.1z"/>
<polygon class="st0" points="20.3,78.3 20.4,78.3 20.1,78.3 "/>
<polygon class="st0" points="61.2,78.3 61.4,78.3 60.9,78.3 61.1,78.3 "/>
<path class="st0" d="M43.6,57.6c0.8,0.6,1.7,0.8,2.7,0.8c-0.1,0.5-0.2,1.1-0.6,1.7c-0.3,0.6-0.8,1.1-1.2,1.6
	c-0.5,0.5-1.1,0.9-1.7,1.2c-0.6,0.3-1.2,0.5-1.9,0.5c-1.4,0-2.1-0.5-2.1-1.6v-6.3h3.6C42.6,56.5,43,57.2,43.6,57.6z"/>
<path class="st0" d="M70.5,57c-3.6-5.1-7.1-10.3-10.6-15.4c-1.7-2.5-3.5-5-5.2-7.6c-1.4-2-2.8-4-4.1-5.9l-1.8-2.7l-0.1-0.1
	c0-0.1-0.1-0.1-0.1-0.2H33c0,0-0.1,0.1-0.1,0.2l-0.1,0.1l-0.9,1.3c-0.8,1.1-1.6,2.2-2.3,3.3c-1.8,2.6-3.6,5.2-5.4,7.8
	c-4.4,6.4-9,13-13.4,19.5c-2,2.9-2.5,6.6-1.5,10c1.1,3.6,3.6,6.4,7,7.8c0.6,0.2,1.2,0.4,1.8,0.5c0.5,0.1,0.9,0.2,1.4,0.4h0.1
	c0.4-0.1,0.8-0.1,1.2,0h39.9c0.3-0.1,0.6-0.1,1,0c0,0,0.1,0,0.1,0c0.1,0,0.2,0,0.3-0.1c1.2-0.1,2.4-0.4,3.8-1.1
	c3.2-1.5,5.6-4.5,6.5-8C73.3,63.6,72.6,60,70.5,57z M50.4,60.4c-0.6,1.2-1.4,2.3-2.4,3.3c-1,1-2.1,1.8-3.2,2.5c-1.2,0.7-2.3,1-3.5,1
	c-0.6,0-1.2,0-1.9-0.1c-0.7-0.1-1.4-0.3-2-0.7c-0.6-0.3-1.1-0.9-1.5-1.6c-0.4-0.7-0.6-1.6-0.6-2.8v-6.4h-0.8L31,52h4.3v-0.6
	c0-0.2,0-0.4,0-0.6c0-0.2,0-0.3,0-0.4c0-0.3,0-0.5,0-0.8c0-0.2,0-0.5,0.1-0.7v-0.7c0-0.2,0-0.4,0-0.6c-0.1-0.4-0.2-0.7-0.3-0.8
	c-0.2-0.2-0.5-0.3-0.9-0.3c-0.1,0-0.3,0-0.5,0.1s-0.5,0.2-0.9,0.5l-1.2-3.5c0.6-0.3,1.2-0.5,1.7-0.6c0.5-0.1,1-0.2,1.5-0.2
	c0.9,0,1.6,0.2,2.2,0.5c0.6,0.3,1,0.7,1.3,1.2c0.3,0.5,0.5,1.1,0.6,1.7c0.1,0.6,0.2,1.3,0.2,1.9v3.8h0.5l3,3.1V55c0-1.2,0.3-2.2,1-3
	c0.7-0.7,1.6-1.1,2.9-1.1c1,0,1.8,0.2,2.4,0.5c0.7,0.3,1.2,0.8,1.6,1.3c0.4,0.6,0.7,1.2,0.8,1.9c0.2,0.7,0.2,1.5,0.2,2.3
	C51.3,58,51,59.2,50.4,60.4z"/>
<g>
	<g>
		<path class="st0" d="M20.3,78.3l-0.2,0.1h0.4L20.3,78.3z M19.5,76.3h0.1c0.4-0.1,0.8-0.1,1.2,0h0.1C20.4,76,19.9,76,19.5,76.3z"/>
	</g>
	<g>
		<path class="st0" d="M60.6,76.3L60.6,76.3c0.4-0.1,0.7-0.1,1.1,0c0,0,0.1,0,0.1,0C61.4,76.1,61,76.1,60.6,76.3z M61.2,78.3
			l-0.1,0.1l-0.2,0h0.5L61.2,78.3z"/>
	</g>
	<g>
		<path class="st0" d="M48.7,25.4c0-0.1-0.1-0.1-0.1-0.2h0C48.6,25.3,48.6,25.4,48.7,25.4L48.7,25.4z"/>
	</g>
	<g>
		<path class="st0" d="M33,25.2c0,0-0.1,0.1-0.1,0.2l-0.1,0.1C32.9,25.4,33,25.3,33,25.2L33,25.2z"/>
	</g>
</g>
<g>
	<path class="st0" d="M20.2,77.9L20,78.1c0.1,0,0.3,0,0.4-0.1L20.2,77.9z"/>
</g>
</svg>
