<?xml version="1.0" encoding="utf-8"?>
<!-- Generator: Adobe Illustrator 25.1.0, SVG Export Plug-In . SVG Version: 6.00 Build 0)  -->
<svg version="1.1" id="Layer_1" xmlns="http://www.w3.org/2000/svg" xmlns:xlink="http://www.w3.org/1999/xlink" x="0px" y="0px"
	 viewBox="0 0 10 28" style="enable-background:new 0 0 10 28;" xml:space="preserve">
<style type="text/css">
	.st0{fill:#FCFCFC;}
</style>
<path class="st0" d="M9.8,8.5c0,0.1-0.1,0.3-0.2,0.4L3.5,15l6.1,6.1c0.1,0.1,0.2,0.2,0.2,0.4s-0.1,0.3-0.2,0.4l-0.8,0.8
	c-0.1,0.1-0.2,0.2-0.4,0.2c-0.1,0-0.3-0.1-0.4-0.2l-7.3-7.3c-0.1-0.1-0.2-0.2-0.2-0.4s0.1-0.3,0.2-0.4l7.3-7.3
	c0.1-0.1,0.2-0.2,0.4-0.2s0.3,0.1,0.4,0.2l0.8,0.8C9.7,8.2,9.8,8.4,9.8,8.5z"/>
</svg>
