<?xml version="1.0" encoding="utf-8"?>
<!-- Generator: Adobe Illustrator 25.1.0, SVG Export Plug-In . SVG Version: 6.00 Build 0)  -->
<svg version="1.1" id="Layer_1" xmlns="http://www.w3.org/2000/svg" xmlns:xlink="http://www.w3.org/1999/xlink" x="0px" y="0px"
	 viewBox="0 0 10 28" style="enable-background:new 0 0 10 28;" xml:space="preserve">
<style type="text/css">
	.st0{fill:#FFFFFF;}
</style>
<path class="st0" d="M9.3,15c0,0.1-0.1,0.3-0.2,0.4l-7.3,7.3c-0.1,0.1-0.2,0.2-0.4,0.2s-0.3-0.1-0.4-0.2l-0.8-0.8
	c-0.1-0.1-0.2-0.2-0.2-0.4s0.1-0.3,0.2-0.4L6.5,15L0.4,8.9C0.3,8.8,0.2,8.6,0.2,8.5s0.1-0.3,0.2-0.4l0.8-0.8
	c0.1-0.1,0.2-0.2,0.4-0.2s0.3,0.1,0.4,0.2l7.3,7.3C9.2,14.7,9.3,14.9,9.3,15z"/>
</svg>
