<svg id="Layer_1" data-name="Layer 1" xmlns="http://www.w3.org/2000/svg" viewBox="0 0 32 32"><defs><style>.cls-1{fill:#228b22;}</style></defs><path class="cls-1" d="M27.63,30a0,0,0,0,1,0,0c0-.12,0-.24,0-.36,0-.33,0-.66,0-1a5.34,5.34,0,0,1,0-.8.45.45,0,0,1,0-.2c0-.11,0-.22,0-.33V6.52c0-.5,0-.5-.52-.5-1.28,0-2.55,0-3.82,0a1.06,1.06,0,0,1-1.18-1.16c0-1.34,0-2.69,0-4,0-.25-.05-.33-.32-.33Q13.22.52,4.65.5c-.31,0-.28.15-.28.35V23.06c0,2.68,0,5.37,0,8.05,0,.29,0,.39.36.39q11.28,0,22.55,0c.28,0,.38-.06.36-.36S27.62,30.38,27.63,30Zm-16-25A4.38,4.38,0,1,1,7.2,9.34,4.39,4.39,0,0,1,11.61,5ZM22.26,24.75a1.09,1.09,0,0,1-.44.05H7.71a.54.54,0,0,1-.51-.54.52.52,0,0,1,.56-.49H21.9a.68.68,0,0,1,.46.09.51.51,0,0,1-.1.89ZM7.2,21.52c0-.31.24-.51.63-.51H17.94a2.36,2.36,0,0,1,.38,0,.51.51,0,0,1,.07,1A1.09,1.09,0,0,1,18,22H7.84C7.44,22,7.2,21.83,7.2,21.52Zm14.61-2.24H8c-.52,0-.78-.17-.78-.52s.25-.52.77-.52H21.8c.53,0,.78.17.78.52S22.33,19.28,21.81,19.28Zm2.58-2.79a1.88,1.88,0,0,1-.41,0H7.9c-.45,0-.7-.19-.7-.52s.25-.52.71-.52H24.09a1.19,1.19,0,0,1,.33,0,.46.46,0,0,1,.37.48A.47.47,0,0,1,24.39,16.49Zm-6.7-5.44c0-.34.23-.54.65-.54h4.71c.48,0,.75.34.59.72a.53.53,0,0,1-.56.31H18.34C17.92,11.54,17.7,11.37,17.69,11.05ZM24.6,8.67a.61.61,0,0,1-.45.12H18.3c-.39,0-.6-.19-.61-.51s.23-.53.63-.53h5.84a.55.55,0,0,1,.6.36A.49.49,0,0,1,24.6,8.67Z"/><path class="cls-1" d="M13.05,12.38a3.36,3.36,0,0,1-2.79.07c-.12,0-.17-.09,0-.21A2.21,2.21,0,0,1,13.05,12.38Z"/><path class="cls-1" d="M12.16,8.85a.57.57,0,0,1-.58.55A.58.58,0,0,1,11,8.81a.61.61,0,0,1,.61-.58A.59.59,0,0,1,12.16,8.85Z"/><path class="cls-1" d="M12.54,6.17A3.35,3.35,0,0,0,9,11.49c.17.21.26.24.49,0a3.22,3.22,0,0,1,4.27,0c.18.17.26.13.39,0a3.35,3.35,0,0,0-1.59-5.37Zm-1,4.27a1.62,1.62,0,1,1,0-3.24,1.62,1.62,0,0,1,0,3.24Z"/><path class="cls-1" d="M26.8,5s-.1,0-.16,0H23.41c-.13,0-.27,0-.27-.18,0-1.15,0-2.31,0-3.5Z"/></svg>