<?xml version="1.0" encoding="utf-8"?>
<!-- Generator: Adobe Illustrator 25.1.0, SVG Export Plug-In . SVG Version: 6.00 Build 0)  -->
<svg version="1.1" id="Layer_1" xmlns="http://www.w3.org/2000/svg" xmlns:xlink="http://www.w3.org/1999/xlink" x="0px" y="0px"
	 viewBox="0 0 80 80" style="enable-background:new 0 0 80 80;" xml:space="preserve">
<style type="text/css">
	.st0{fill:#00BCD5;}
</style>
<path class="st0" d="M79.5,34.8c-0.9-1.5-2.3-2.3-3.6-3.2c-1.3-1-2.2-2.2-2.4-3.8c-0.1-0.6,0-1.2,0.2-1.8c0.4-1.3,0.7-2.5,1.1-3.8
	c0.5-1.8-0.4-3.3-2.1-3.8c-1.3-0.4-2.6-0.7-3.9-1c-1.9-0.5-3.1-1.8-3.5-3.8c-0.2-1.3-0.4-2.5-0.6-3.8c-0.3-2-1.7-3.1-3.7-2.7
	c-1.2,0.2-2.5,0.4-3.7,0.6c-2,0.3-3.6-0.4-4.8-2.1c-0.7-1-1.4-2.1-2-3.1c-0.5-0.9-1.3-1.5-2.3-1.7c0,0-0.1-0.1-0.1-0.1
	c0,0,0.1-0.1,0.1-0.1h-0.8c0.1,0.1,0.1,0.2,0,0.2c-1.6,0.5-2.8,1.6-4.2,2.5c-2.3,1.5-4,1.5-6.2,0c-0.9-0.6-1.9-1.2-2.8-1.9
	c-0.5-0.3-1-0.4-1.4-0.7c0,0,0,0,0-0.1c0,0,0,0,0.1,0h-0.8c0.2,0.3-0.1,0.2-0.2,0.3c-0.9,0.2-1.6,0.8-2,1.5c-0.7,1.1-1.3,2.2-2,3.2
	c-1.2,1.7-2.8,2.5-4.9,2.1C21.5,7.5,20.3,7.2,19,7c-2-0.3-3.4,0.7-3.7,2.7c-0.2,1.3-0.4,2.6-0.6,3.8c-0.3,1.9-1.5,3.2-3.4,3.8
	c-1.3,0.4-2.7,0.7-4,1.1c-1.8,0.5-2.6,2-2.1,3.7c0.3,1.2,0.7,2.5,1,3.7c0.6,2.1,0,3.8-1.7,5.2c-0.9,0.8-1.9,1.5-2.9,2.2
	c-0.6,0.4-0.9,1-1.3,1.5c0,0,0,0,0,0c0,0,0,0,0-0.1v2.3c0-0.1,0.1-0.1,0.2,0c0.9,1.4,2,2.5,3,3.8c1.3,1.7,1.6,3.6,0.6,5.5
	c-0.6,1.1-1.2,2.2-1.7,3.4C1.5,51.4,2,53,3.7,53.9c1.2,0.6,2.4,1.2,3.5,1.8c1.8,0.9,2.8,2.8,2.7,4.8c-0.1,1.2-0.2,2.5-0.2,3.7
	c-0.1,2,1.1,3.2,3,3.3c1.3,0.1,2.6,0.1,3.9,0.2c2,0.1,3.4,1.2,4.2,3c0.5,1.2,0.9,2.5,1.4,3.8c0.7,1.8,2.2,2.5,4,1.8
	c1.2-0.5,2.3-1,3.5-1.4c2-0.8,3.8-0.4,5.4,1.2c0.7,0.7,1.3,1.3,2,2c0.7,0.8,1.4,1.6,2.6,1.7c0,0,0.1,0.1,0.1,0.1
	c0,0-0.1,0.1-0.1,0.1h0.6c-0.1-0.3,0.1-0.2,0.2-0.3c0.7-0.1,1.3-0.5,1.8-1.1c0.9-0.9,1.8-1.8,2.7-2.7c1.5-1.4,3.2-1.8,5.1-1.1
	c1.3,0.5,2.5,1,3.7,1.5c1.7,0.7,3.3,0,4-1.8c0.5-1.2,0.9-2.5,1.4-3.8c0.8-1.9,2.2-3,4.3-3.1c1.3-0.1,2.5-0.1,3.8-0.2
	c2-0.1,3.1-1.3,3-3.3c-0.1-1.2-0.1-2.4-0.2-3.6c-0.2-2.1,0.8-3.9,2.7-4.9c1.1-0.6,2.3-1.1,3.4-1.7c1.8-0.9,2.3-2.5,1.4-4.3
	c-0.6-1.1-1.1-2.2-1.7-3.3c-1-1.9-0.8-3.9,0.6-5.5c1-1.2,2.1-2.4,3-3.8c0,0,0.1-0.1,0.1-0.1c0,0,0,0.1,0.1,0.1v-2.3
	C79.6,34.8,79.6,34.9,79.5,34.8z M39.9,65.9c-14.2-0.1-25.5-11.3-25.5-25.6c0-14.5,11.8-25.8,25.7-25.7c14-0.1,25.6,11.3,25.6,25.6
	C65.6,54.7,54.1,66,39.9,65.9z"/>
<path class="st0" d="M40.1,14.6c-13.9-0.1-25.8,11.1-25.7,25.7c0,14.3,11.3,25.5,25.5,25.6C54.1,66,65.6,54.7,65.7,40.2
	C65.7,25.9,54.1,14.5,40.1,14.6z M54,34c-2.5,2.5-5,5-7.5,7.5c-3.4,3.4-6.8,6.8-10.2,10.2c-0.2,0.2-0.4,0.4-0.7,0.5
	c-0.2,0-0.4-0.2-0.5-0.3c-3.1-3.1-6.2-6.2-9.3-9.2c-0.4-0.4-0.4-0.7,0-1.1c0.8-0.8,1.6-1.5,2.4-2.4c0.4-0.5,0.7-0.5,1.2,0
	c1.8,1.8,3.6,3.7,5.5,5.5c0.9,0.9,0.7,0.9,1.5,0c4.6-4.6,9.2-9.2,13.9-13.9c0.8-0.8,0.8-0.8,1.6,0c0.7,0.7,1.4,1.4,2.1,2.1
	C54.5,33.2,54.5,33.6,54,34z"/>
</svg>
