<svg id="Layer_1" data-name="Layer 1" xmlns="http://www.w3.org/2000/svg" viewBox="0 0 32 32"><defs><style>.cls-1{fill:#00BCD5;}</style></defs><path class="cls-1" d="M8.51,15.38a8,8,0,1,0-.06,16,8,8,0,1,0,.06-16Zm4.37,6.07-2.34,2.33C9.48,24.84,8.42,25.91,7.35,27c-.06.06-.11.14-.21.15S7,27.05,7,27l-2.9-2.89c-.14-.14-.14-.23,0-.36L4.83,23c.13-.15.23-.14.37,0,.56.58,1.14,1.15,1.71,1.71.28.28.21.28.47,0l4.34-4.33c.24-.24.24-.24.49,0s.44.45.67.67S13,21.31,12.88,21.45Z"/><path class="cls-1" d="M10.29.5H23.67V7.28c0,.75.34,1.09,1.09,1.09h6.79v.34q0,9.95,0,19.89a2.73,2.73,0,0,1-2.9,2.9h-14a10.12,10.12,0,0,0,4.21-7.27h7.5a.94.94,0,0,0,.93-.55.91.91,0,0,0-.91-1.27H18.79a10.32,10.32,0,0,0-1-3.63h8.58a.91.91,0,1,0,0-1.82c-3.11,0-6.23,0-9.35,0a.83.83,0,0,1-.69-.31,9.7,9.7,0,0,0-6.51-3.28c-.6-.05-1.2,0-1.81,0,0-.09,0-.13,0-.17q0-5,0-10.08a2.4,2.4,0,0,1,1-2A7.66,7.66,0,0,1,10.29.5Zm9.48,11H13.12a.91.91,0,0,0-.94.8.9.9,0,0,0,.71,1,1.67,1.67,0,0,0,.39,0H26.34a.89.89,0,0,0,.89-.56.91.91,0,0,0-.89-1.26Z"/><path class="cls-1" d="M25.51,1.15,30.9,6.54H25.51Z"/></svg>