<svg id="Layer_1" data-name="Layer 1" xmlns="http://www.w3.org/2000/svg" viewBox="0 0 32 32"><defs><style>.cls-1{fill:#FF9801;}</style></defs><path class="cls-1" d="M20.25,5.67a6,6,0,1,0,6,5.95A5.93,5.93,0,0,0,20.25,5.67Zm3.25,4.51-1.73,1.73L19.4,14.28c0,.05-.09.11-.16.11a.23.23,0,0,1-.11-.08L17,12.16c-.1-.1-.1-.17,0-.26s.37-.37.55-.55.17-.11.28,0l1.27,1.27c.21.21.15.21.35,0L22.64,9.4c.18-.18.18-.18.37,0s.32.33.5.49S23.61,10.08,23.5,10.18Z"/><path class="cls-1" d="M8.26,3.74l-.07,0"/><path class="cls-1" d="M26.82,13.89A6.85,6.85,0,0,0,16.14,6.23l-3-3A11.12,11.12,0,0,1,29.64,17.8a10.63,10.63,0,0,1-6.5,4.63,11,11,0,0,1-9.94-2.22l-2.79,2.71L12,24.48l-7,7a1.4,1.4,0,0,0-.2-.26C3.36,29.79,1.93,28.37.5,26.94v-.06l.25-.2,6.47-6.47L7.49,20,9,21.52l2.78-2.7A11.27,11.27,0,0,1,9.83,8l.26.24c.95.95,1.88,1.91,2.85,2.84a1.85,1.85,0,0,1,.61,1.26,6.84,6.84,0,0,0,8.65,5.95,6.73,6.73,0,0,0,3.7-2.57"/><path class="cls-1" d="M16.48,27.72V25.87h15v1.85Z"/><path class="cls-1" d="M10.85,31.46V29.63H22.07v1.83Z"/></svg>