<svg id="Layer_1" data-name="Layer 1" xmlns="http://www.w3.org/2000/svg" viewBox="0 0 32 32"><defs><style>.cls-1{fill:#EA1E63;}</style></defs><path class="cls-1" d="M23,15.19H11A2.07,2.07,0,0,1,9,14c-.38-.76-.77-1.52-1.13-2.29a.44.44,0,0,0-.47-.3c-2.07,0-4.13,0-6.19,0a1.19,1.19,0,0,0-1.23.7V28.5a1.24,1.24,0,0,0,1.27.69h21c.79,0,1.14-.35,1.14-1.14V15.63C23.44,15.19,23.44,15.19,23,15.19ZM14.3,17.36c0,.25-.06.5-.1.75a8,8,0,0,1-.72,2.49,3.05,3.05,0,0,1-2.08,1.72A2.23,2.23,0,0,1,9.57,22l-.06,0a3.52,3.52,0,0,0-.71,1,3.93,3.93,0,0,0-.44,1.9v2.23a.37.37,0,1,1-.74,0c0-.69,0-1.38,0-2.07a5.65,5.65,0,0,0-.24-1.48,1.37,1.37,0,0,0-.47-.73L6.74,23A2.14,2.14,0,0,1,5,23.5a2.92,2.92,0,0,1-1.84-1,8.3,8.3,0,0,1-1.32-2A.36.36,0,0,1,2,19.89a8.07,8.07,0,0,1,2.66-.44,2.82,2.82,0,0,1,1.86.69,2.06,2.06,0,0,1,.76,1.62s0,0,0,.06c-.08.23,0,.36.2.51a6,6,0,0,1,.5.61s0,0,0-.06a4.7,4.7,0,0,1,.93-1.36.11.11,0,0,0,0-.15,2.28,2.28,0,0,1-.12-2,3.14,3.14,0,0,1,1.64-1.77A8.16,8.16,0,0,1,13,16.89q.42-.06.84-.09a.41.41,0,0,1,.5.29Zm3.43,9a.94.94,0,0,1-1.85-.17q0-.32,0-.63a.94.94,0,1,1,1.87,0c0,.1,0,.21,0,.31h0A4.07,4.07,0,0,1,17.73,26.33Zm3.1-.13a.94.94,0,0,1-.9.87.93.93,0,0,1-.95-.82,3.13,3.13,0,0,1,0-.81.94.94,0,0,1,1.87,0c0,.12,0,.23,0,.35h0C20.83,26,20.84,26.08,20.83,26.2Zm-8.5-7.64a.37.37,0,0,0-.42.09L10.55,20a.37.37,0,1,0,.52.52l1.36-1.37a.89.89,0,0,0,.13-.22A.39.39,0,0,0,12.33,18.56Zm-6.71,2.8L4.11,20.7l-.12,0a.38.38,0,0,0-.38.29.37.37,0,0,0,.23.42L5.31,22a.29.29,0,0,0,.18,0,.36.36,0,0,0,.34-.3A.35.35,0,0,0,5.62,21.36Z"/><path class="cls-1" d="M25.32,24.88V15.56a2,2,0,0,0-2.25-2.25H11.17a.51.51,0,0,1-.54-.35c-.36-.76-.74-1.51-1.12-2.27A2,2,0,0,0,7.57,9.49H4.31a16,16,0,0,1,0-1.7A.79.79,0,0,1,5,7.12a2.12,2.12,0,0,1,.44,0h6.18a.51.51,0,0,1,.55.33c.34.74.72,1.46,1.07,2.19a2.14,2.14,0,0,0,2.11,1.32H27.24c.48,0,.48,0,.48.48,0,4.12,0,8.23,0,12.35a1.55,1.55,0,0,1-.17.74.91.91,0,0,1-.57.38C26.44,24.91,25.89,24.88,25.32,24.88Z"/><path class="cls-1" d="M29.61,20.62V11.2a2,2,0,0,0-1.56-2.1A3.3,3.3,0,0,0,27.28,9H15.47a.53.53,0,0,1-.57-.35c-.34-.74-.72-1.45-1.07-2.19A2.1,2.1,0,0,0,11.74,5.2H8.57c0-.56,0-1.09,0-1.61a.88.88,0,0,1,.89-.78h6.62a.48.48,0,0,1,.33.25c.39.76.77,1.52,1.14,2.29a2.08,2.08,0,0,0,2,1.27H30.85C31.66,6.63,32,7,32,7.79V19.47c0,.8-.35,1.15-1.14,1.15Z"/></svg>