<svg id="Layer_1" data-name="Layer 1" xmlns="http://www.w3.org/2000/svg" viewBox="0 0 32 32"><defs><style>.cls-1{fill:#ffffff;}</style></defs><path class="cls-1" d="M17.61,18.34l-.43-.5s0,0,0,0a1.3,1.3,0,0,0,.13-1.59,2.54,2.54,0,0,0-1.08-1,2.83,2.83,0,0,0-1.36-.34.57.57,0,0,0-.54.43,2,2,0,0,0,0,.23,3.8,3.8,0,0,0,.14,1.11A2.48,2.48,0,0,0,15.23,18a1.38,1.38,0,0,0,1.33.28c.14-.05.26-.13.39-.19l.08.07.38.42a.15.15,0,0,0,.15,0s.09-.06.1-.1S17.64,18.38,17.61,18.34ZM17,17.63l-.25-.27s0-.06,0-.09,0-.29.05-.44,0-.18-.12-.19-.15,0-.16.14,0,.16,0,.26c-.11-.14-.23-.25-.33-.38a.19.19,0,0,1,0-.08,2.91,2.91,0,0,1,0-.31c0-.12,0-.2-.12-.21s-.15.05-.17.17a.75.75,0,0,0,0,.11c-.08-.09-.14-.15-.2-.23s-.17-.1-.23,0a.15.15,0,0,0,0,.23,2.35,2.35,0,0,0,.22.26h-.21c-.1,0-.16.08-.15.15a.13.13,0,0,0,.15.13h.36a.15.15,0,0,1,.09,0l.32.37h-.31a.23.23,0,0,0-.14.1.18.18,0,0,0,0,.14s.08.05.12.05h.47c.07,0,.11,0,.14.06a1.11,1.11,0,0,0,.27.25,1,1,0,0,1-1,.14,1.61,1.61,0,0,1-.77-.69,2.88,2.88,0,0,1-.4-1.25,4.43,4.43,0,0,1,0-.51c0-.23.11-.34.34-.33a2.6,2.6,0,0,1,2,1,1.2,1.2,0,0,1,.28.83A1,1,0,0,1,17,17.63Zm.59.71-.43-.5s0,0,0,0a1.3,1.3,0,0,0,.13-1.59,2.54,2.54,0,0,0-1.08-1,2.83,2.83,0,0,0-1.36-.34.57.57,0,0,0-.54.43,2,2,0,0,0,0,.23,3.8,3.8,0,0,0,.14,1.11A2.48,2.48,0,0,0,15.23,18a1.38,1.38,0,0,0,1.33.28c.14-.05.26-.13.39-.19l.08.07.38.42a.15.15,0,0,0,.15,0s.09-.06.1-.1S17.64,18.38,17.61,18.34ZM17,17.63l-.25-.27s0-.06,0-.09,0-.29.05-.44,0-.18-.12-.19-.15,0-.16.14,0,.16,0,.26c-.11-.14-.23-.25-.33-.38a.19.19,0,0,1,0-.08,2.91,2.91,0,0,1,0-.31c0-.12,0-.2-.12-.21s-.15.05-.17.17a.75.75,0,0,0,0,.11c-.08-.09-.14-.15-.2-.23s-.17-.1-.23,0a.15.15,0,0,0,0,.23,2.35,2.35,0,0,0,.22.26h-.21c-.1,0-.16.08-.15.15a.13.13,0,0,0,.15.13h.36a.15.15,0,0,1,.09,0l.32.37h-.31a.23.23,0,0,0-.14.1.18.18,0,0,0,0,.14s.08.05.12.05h.47c.07,0,.11,0,.14.06a1.11,1.11,0,0,0,.27.25,1,1,0,0,1-1,.14,1.61,1.61,0,0,1-.77-.69,2.88,2.88,0,0,1-.4-1.25,4.43,4.43,0,0,1,0-.51c0-.23.11-.34.34-.33a2.6,2.6,0,0,1,2,1,1.2,1.2,0,0,1,.28.83A1,1,0,0,1,17,17.63Zm.59.71-.43-.5s0,0,0,0a1.3,1.3,0,0,0,.13-1.59,2.54,2.54,0,0,0-1.08-1,2.83,2.83,0,0,0-1.36-.34.57.57,0,0,0-.54.43,2,2,0,0,0,0,.23,3.8,3.8,0,0,0,.14,1.11A2.48,2.48,0,0,0,15.23,18a1.38,1.38,0,0,0,1.33.28c.14-.05.26-.13.39-.19l.08.07.38.42a.15.15,0,0,0,.15,0s.09-.06.1-.1S17.64,18.38,17.61,18.34ZM17,17.63l-.25-.27s0-.06,0-.09,0-.29.05-.44,0-.18-.12-.19-.15,0-.16.14,0,.16,0,.26c-.11-.14-.23-.25-.33-.38a.19.19,0,0,1,0-.08,2.91,2.91,0,0,1,0-.31c0-.12,0-.2-.12-.21s-.15.05-.17.17a.75.75,0,0,0,0,.11c-.08-.09-.14-.15-.2-.23s-.17-.1-.23,0a.15.15,0,0,0,0,.23,2.35,2.35,0,0,0,.22.26h-.21c-.1,0-.16.08-.15.15a.13.13,0,0,0,.15.13h.36a.15.15,0,0,1,.09,0l.32.37h-.31a.23.23,0,0,0-.14.1.18.18,0,0,0,0,.14s.08.05.12.05h.47c.07,0,.11,0,.14.06a1.11,1.11,0,0,0,.27.25,1,1,0,0,1-1,.14,1.61,1.61,0,0,1-.77-.69,2.88,2.88,0,0,1-.4-1.25,4.43,4.43,0,0,1,0-.51c0-.23.11-.34.34-.33a2.6,2.6,0,0,1,2,1,1.2,1.2,0,0,1,.28.83A1,1,0,0,1,17,17.63Zm.59.71-.43-.5s0,0,0,0a1.3,1.3,0,0,0,.13-1.59,2.54,2.54,0,0,0-1.08-1,2.83,2.83,0,0,0-1.36-.34.57.57,0,0,0-.54.43,2,2,0,0,0,0,.23,3.8,3.8,0,0,0,.14,1.11A2.48,2.48,0,0,0,15.23,18a1.38,1.38,0,0,0,1.33.28c.14-.05.26-.13.39-.19l.08.07.38.42a.15.15,0,0,0,.15,0s.09-.06.1-.1S17.64,18.38,17.61,18.34ZM17,17.63l-.25-.27s0-.06,0-.09,0-.29.05-.44,0-.18-.12-.19-.15,0-.16.14,0,.16,0,.26c-.11-.14-.23-.25-.33-.38a.19.19,0,0,1,0-.08,2.91,2.91,0,0,1,0-.31c0-.12,0-.2-.12-.21s-.15.05-.17.17a.75.75,0,0,0,0,.11c-.08-.09-.14-.15-.2-.23s-.17-.1-.23,0a.15.15,0,0,0,0,.23,2.35,2.35,0,0,0,.22.26h-.21c-.1,0-.16.08-.15.15a.13.13,0,0,0,.15.13h.36a.15.15,0,0,1,.09,0l.32.37h-.31a.23.23,0,0,0-.14.1.18.18,0,0,0,0,.14s.08.05.12.05h.47c.07,0,.11,0,.14.06a1.11,1.11,0,0,0,.27.25,1,1,0,0,1-1,.14,1.61,1.61,0,0,1-.77-.69,2.88,2.88,0,0,1-.4-1.25,4.43,4.43,0,0,1,0-.51c0-.23.11-.34.34-.33a2.6,2.6,0,0,1,2,1,1.2,1.2,0,0,1,.28.83A1,1,0,0,1,17,17.63Zm.59.71-.43-.5s0,0,0,0a1.3,1.3,0,0,0,.13-1.59,2.54,2.54,0,0,0-1.08-1,2.83,2.83,0,0,0-1.36-.34.57.57,0,0,0-.54.43,2,2,0,0,0,0,.23,3.8,3.8,0,0,0,.14,1.11A2.48,2.48,0,0,0,15.23,18a1.38,1.38,0,0,0,1.33.28c.14-.05.26-.13.39-.19l.08.07.38.42a.15.15,0,0,0,.15,0s.09-.06.1-.1S17.64,18.38,17.61,18.34ZM17,17.63l-.25-.27s0-.06,0-.09,0-.29.05-.44,0-.18-.12-.19-.15,0-.16.14,0,.16,0,.26c-.11-.14-.23-.25-.33-.38a.19.19,0,0,1,0-.08,2.91,2.91,0,0,1,0-.31c0-.12,0-.2-.12-.21s-.15.05-.17.17a.75.75,0,0,0,0,.11c-.08-.09-.14-.15-.2-.23s-.17-.1-.23,0a.15.15,0,0,0,0,.23,2.35,2.35,0,0,0,.22.26h-.21c-.1,0-.16.08-.15.15a.13.13,0,0,0,.15.13h.36a.15.15,0,0,1,.09,0l.32.37h-.31a.23.23,0,0,0-.14.1.18.18,0,0,0,0,.14s.08.05.12.05h.47c.07,0,.11,0,.14.06a1.11,1.11,0,0,0,.27.25,1,1,0,0,1-1,.14,1.61,1.61,0,0,1-.77-.69,2.88,2.88,0,0,1-.4-1.25,4.43,4.43,0,0,1,0-.51c0-.23.11-.34.34-.33a2.6,2.6,0,0,1,2,1,1.2,1.2,0,0,1,.28.83A1,1,0,0,1,17,17.63Zm.59.71-.43-.5s0,0,0,0a1.3,1.3,0,0,0,.13-1.59,2.54,2.54,0,0,0-1.08-1,2.83,2.83,0,0,0-1.36-.34.57.57,0,0,0-.54.43,2,2,0,0,0,0,.23,3.8,3.8,0,0,0,.14,1.11A2.48,2.48,0,0,0,15.23,18a1.38,1.38,0,0,0,1.33.28c.14-.05.26-.13.39-.19l.08.07.38.42a.15.15,0,0,0,.15,0s.09-.06.1-.1S17.64,18.38,17.61,18.34ZM17,17.63l-.25-.27s0-.06,0-.09,0-.29.05-.44,0-.18-.12-.19-.15,0-.16.14,0,.16,0,.26c-.11-.14-.23-.25-.33-.38a.19.19,0,0,1,0-.08,2.91,2.91,0,0,1,0-.31c0-.12,0-.2-.12-.21s-.15.05-.17.17a.75.75,0,0,0,0,.11c-.08-.09-.14-.15-.2-.23s-.17-.1-.23,0a.15.15,0,0,0,0,.23,2.35,2.35,0,0,0,.22.26h-.21c-.1,0-.16.08-.15.15a.13.13,0,0,0,.15.13h.36a.15.15,0,0,1,.09,0l.32.37h-.31a.23.23,0,0,0-.14.1.18.18,0,0,0,0,.14s.08.05.12.05h.47c.07,0,.11,0,.14.06a1.11,1.11,0,0,0,.27.25,1,1,0,0,1-1,.14,1.61,1.61,0,0,1-.77-.69,2.88,2.88,0,0,1-.4-1.25,4.43,4.43,0,0,1,0-.51c0-.23.11-.34.34-.33a2.6,2.6,0,0,1,2,1,1.2,1.2,0,0,1,.28.83A1,1,0,0,1,17,17.63ZM16,8a8,8,0,1,0,8,8A8,8,0,0,0,16,8Zm-2.58,4.78a.78.78,0,0,1,.51-.19c.09,0,.15-.05.15-.14a.66.66,0,0,1,.36-.54,1.22,1.22,0,0,1,.62-.13.26.26,0,0,0,.19-.07,1.31,1.31,0,0,1,1.66,0,.26.26,0,0,0,.22.09,1,1,0,0,1,.7.27.57.57,0,0,1,.16.37c0,.12,0,.15.15.17a.77.77,0,0,1,.56.23.72.72,0,0,1,.14.19H13.28s0,0,0,0A1.24,1.24,0,0,1,13.45,12.78Zm6.11,7.79-.27,0H12.71a1.45,1.45,0,0,1-.41-.06A.42.42,0,0,1,12,20a.52.52,0,0,1,.1-.18.33.33,0,0,1,.32-.17h3.27c.15,0,.22,0,.22-.14s-.07-.14-.22-.14H12.38a13.1,13.1,0,0,1,.38-5.1h3.05c.07,0,.14-.07.14-.14a.15.15,0,0,0-.16-.14h-3.1a.32.32,0,0,1-.35-.32.29.29,0,0,1,.26-.3h6.78a.4.4,0,0,1,.19,0,.31.31,0,0,1,.2.33.32.32,0,0,1-.27.27H16.43a.12.12,0,0,0-.13.12.13.13,0,0,0,.12.14h2.71c.08,0,.1,0,.13.09a13.42,13.42,0,0,1,.44,4.09c0,.31-.05.61-.07.93H16.54a.13.13,0,0,0-.11.14c0,.08.05.12.13.13h3a.22.22,0,0,1,.19.08.57.57,0,0,1,.2.39A.45.45,0,0,1,19.56,20.57ZM17,18l.08.07.38.42a.15.15,0,0,0,.15,0s.09-.06.1-.1,0-.1-.05-.14l-.43-.5s0,0,0,0a1.3,1.3,0,0,0,.13-1.59,2.54,2.54,0,0,0-1.08-1,2.83,2.83,0,0,0-1.36-.34.57.57,0,0,0-.54.43,2,2,0,0,0,0,.23,3.8,3.8,0,0,0,.14,1.11A2.48,2.48,0,0,0,15.23,18a1.38,1.38,0,0,0,1.33.28C16.7,18.18,16.82,18.1,17,18ZM15.84,18a1.61,1.61,0,0,1-.77-.69,2.88,2.88,0,0,1-.4-1.25,4.43,4.43,0,0,1,0-.51c0-.23.11-.34.34-.33a2.6,2.6,0,0,1,2,1,1.2,1.2,0,0,1,.28.83,1,1,0,0,1-.26.6l-.25-.27s0-.06,0-.09,0-.29.05-.44,0-.18-.12-.19-.15,0-.16.14,0,.16,0,.26c-.11-.14-.23-.25-.33-.38a.19.19,0,0,1,0-.08,2.91,2.91,0,0,1,0-.31c0-.12,0-.2-.12-.21s-.15.05-.17.17a.75.75,0,0,0,0,.11c-.08-.09-.14-.15-.2-.23s-.17-.1-.23,0a.15.15,0,0,0,0,.23,2.35,2.35,0,0,0,.22.26h-.21c-.1,0-.16.08-.15.15a.13.13,0,0,0,.15.13h.36a.15.15,0,0,1,.09,0l.32.37h-.31a.23.23,0,0,0-.14.1.18.18,0,0,0,0,.14s.08.05.12.05h.47c.07,0,.11,0,.14.06a1.11,1.11,0,0,0,.27.25A1,1,0,0,1,15.84,18Zm1.77.39-.43-.5s0,0,0,0a1.3,1.3,0,0,0,.13-1.59,2.54,2.54,0,0,0-1.08-1,2.83,2.83,0,0,0-1.36-.34.57.57,0,0,0-.54.43,2,2,0,0,0,0,.23,3.8,3.8,0,0,0,.14,1.11A2.48,2.48,0,0,0,15.23,18a1.38,1.38,0,0,0,1.33.28c.14-.05.26-.13.39-.19l.08.07.38.42a.15.15,0,0,0,.15,0s.09-.06.1-.1S17.64,18.38,17.61,18.34ZM17,17.63l-.25-.27s0-.06,0-.09,0-.29.05-.44,0-.18-.12-.19-.15,0-.16.14,0,.16,0,.26c-.11-.14-.23-.25-.33-.38a.19.19,0,0,1,0-.08,2.91,2.91,0,0,1,0-.31c0-.12,0-.2-.12-.21s-.15.05-.17.17a.75.75,0,0,0,0,.11c-.08-.09-.14-.15-.2-.23s-.17-.1-.23,0a.15.15,0,0,0,0,.23,2.35,2.35,0,0,0,.22.26h-.21c-.1,0-.16.08-.15.15a.13.13,0,0,0,.15.13h.36a.15.15,0,0,1,.09,0l.32.37h-.31a.23.23,0,0,0-.14.1.18.18,0,0,0,0,.14s.08.05.12.05h.47c.07,0,.11,0,.14.06a1.11,1.11,0,0,0,.27.25,1,1,0,0,1-1,.14,1.61,1.61,0,0,1-.77-.69,2.88,2.88,0,0,1-.4-1.25,4.43,4.43,0,0,1,0-.51c0-.23.11-.34.34-.33a2.6,2.6,0,0,1,2,1,1.2,1.2,0,0,1,.28.83A1,1,0,0,1,17,17.63Zm.59.71-.43-.5s0,0,0,0a1.3,1.3,0,0,0,.13-1.59,2.54,2.54,0,0,0-1.08-1,2.83,2.83,0,0,0-1.36-.34.57.57,0,0,0-.54.43,2,2,0,0,0,0,.23,3.8,3.8,0,0,0,.14,1.11A2.48,2.48,0,0,0,15.23,18a1.38,1.38,0,0,0,1.33.28c.14-.05.26-.13.39-.19l.08.07.38.42a.15.15,0,0,0,.15,0s.09-.06.1-.1S17.64,18.38,17.61,18.34ZM17,17.63l-.25-.27s0-.06,0-.09,0-.29.05-.44,0-.18-.12-.19-.15,0-.16.14,0,.16,0,.26c-.11-.14-.23-.25-.33-.38a.19.19,0,0,1,0-.08,2.91,2.91,0,0,1,0-.31c0-.12,0-.2-.12-.21s-.15.05-.17.17a.75.75,0,0,0,0,.11c-.08-.09-.14-.15-.2-.23s-.17-.1-.23,0a.15.15,0,0,0,0,.23,2.35,2.35,0,0,0,.22.26h-.21c-.1,0-.16.08-.15.15a.13.13,0,0,0,.15.13h.36a.15.15,0,0,1,.09,0l.32.37h-.31a.23.23,0,0,0-.14.1.18.18,0,0,0,0,.14s.08.05.12.05h.47c.07,0,.11,0,.14.06a1.11,1.11,0,0,0,.27.25,1,1,0,0,1-1,.14,1.61,1.61,0,0,1-.77-.69,2.88,2.88,0,0,1-.4-1.25,4.43,4.43,0,0,1,0-.51c0-.23.11-.34.34-.33a2.6,2.6,0,0,1,2,1,1.2,1.2,0,0,1,.28.83A1,1,0,0,1,17,17.63Zm.59.71-.43-.5s0,0,0,0a1.3,1.3,0,0,0,.13-1.59,2.54,2.54,0,0,0-1.08-1,2.83,2.83,0,0,0-1.36-.34.57.57,0,0,0-.54.43,2,2,0,0,0,0,.23,3.8,3.8,0,0,0,.14,1.11A2.48,2.48,0,0,0,15.23,18a1.38,1.38,0,0,0,1.33.28c.14-.05.26-.13.39-.19l.08.07.38.42a.15.15,0,0,0,.15,0s.09-.06.1-.1S17.64,18.38,17.61,18.34ZM17,17.63l-.25-.27s0-.06,0-.09,0-.29.05-.44,0-.18-.12-.19-.15,0-.16.14,0,.16,0,.26c-.11-.14-.23-.25-.33-.38a.19.19,0,0,1,0-.08,2.91,2.91,0,0,1,0-.31c0-.12,0-.2-.12-.21s-.15.05-.17.17a.75.75,0,0,0,0,.11c-.08-.09-.14-.15-.2-.23s-.17-.1-.23,0a.15.15,0,0,0,0,.23,2.35,2.35,0,0,0,.22.26h-.21c-.1,0-.16.08-.15.15a.13.13,0,0,0,.15.13h.36a.15.15,0,0,1,.09,0l.32.37h-.31a.23.23,0,0,0-.14.1.18.18,0,0,0,0,.14s.08.05.12.05h.47c.07,0,.11,0,.14.06a1.11,1.11,0,0,0,.27.25,1,1,0,0,1-1,.14,1.61,1.61,0,0,1-.77-.69,2.88,2.88,0,0,1-.4-1.25,4.43,4.43,0,0,1,0-.51c0-.23.11-.34.34-.33a2.6,2.6,0,0,1,2,1,1.2,1.2,0,0,1,.28.83A1,1,0,0,1,17,17.63Zm.59.71-.43-.5s0,0,0,0a1.3,1.3,0,0,0,.13-1.59,2.54,2.54,0,0,0-1.08-1,2.83,2.83,0,0,0-1.36-.34.57.57,0,0,0-.54.43,2,2,0,0,0,0,.23,3.8,3.8,0,0,0,.14,1.11A2.48,2.48,0,0,0,15.23,18a1.38,1.38,0,0,0,1.33.28c.14-.05.26-.13.39-.19l.08.07.38.42a.15.15,0,0,0,.15,0s.09-.06.1-.1S17.64,18.38,17.61,18.34ZM17,17.63l-.25-.27s0-.06,0-.09,0-.29.05-.44,0-.18-.12-.19-.15,0-.16.14,0,.16,0,.26c-.11-.14-.23-.25-.33-.38a.19.19,0,0,1,0-.08,2.91,2.91,0,0,1,0-.31c0-.12,0-.2-.12-.21s-.15.05-.17.17a.75.75,0,0,0,0,.11c-.08-.09-.14-.15-.2-.23s-.17-.1-.23,0a.15.15,0,0,0,0,.23,2.35,2.35,0,0,0,.22.26h-.21c-.1,0-.16.08-.15.15a.13.13,0,0,0,.15.13h.36a.15.15,0,0,1,.09,0l.32.37h-.31a.23.23,0,0,0-.14.1.18.18,0,0,0,0,.14s.08.05.12.05h.47c.07,0,.11,0,.14.06a1.11,1.11,0,0,0,.27.25,1,1,0,0,1-1,.14,1.61,1.61,0,0,1-.77-.69,2.88,2.88,0,0,1-.4-1.25,4.43,4.43,0,0,1,0-.51c0-.23.11-.34.34-.33a2.6,2.6,0,0,1,2,1,1.2,1.2,0,0,1,.28.83A1,1,0,0,1,17,17.63Z"/><path class="cls-1" d="M3.5,16.76a.39.39,0,0,1,.39-.23H6.58l.34,0v-1h-3a.36.36,0,0,1-.39-.22,1.57,1.57,0,0,0-1.83-.79,1.6,1.6,0,0,0,0,3.09A1.58,1.58,0,0,0,3.5,16.76Z"/><path class="cls-1" d="M15.25,3.53a.36.36,0,0,1,.23.38c0,.9,0,1.79,0,2.69,0,.11,0,.22,0,.33h1V6.57c0-.89,0-1.77,0-2.65a.36.36,0,0,1,.22-.39,1.59,1.59,0,0,0-.74-3A1.6,1.6,0,0,0,14.46,1.7,1.58,1.58,0,0,0,15.25,3.53Z"/><path class="cls-1" d="M30.32,14.46a1.58,1.58,0,0,0-1.81.78.38.38,0,0,1-.41.23h-3v1.07h3a.4.4,0,0,1,.44.25,1.56,1.56,0,0,0,1.79.76,1.59,1.59,0,0,0,0-3.08Z"/><path class="cls-1" d="M16.77,28.48a.38.38,0,0,1-.23-.39c0-.9,0-1.79,0-2.69,0-.11,0-.21,0-.33H15.47v.37c0,.88,0,1.77,0,2.66a.38.38,0,0,1-.23.38,1.57,1.57,0,0,0-.79,1.81,1.6,1.6,0,1,0,2.31-1.81Z"/><path class="cls-1" d="M7.88,20.07,5.31,21.55a.46.46,0,0,1-.56,0,1.58,1.58,0,0,0-2.23.69,1.6,1.6,0,1,0,3,1.15,4.49,4.49,0,0,0,.1-.77L8.41,21Z"/><path class="cls-1" d="M24.14,11.94c.86-.5,1.71-1,2.55-1.48a.49.49,0,0,1,.59,0,1.54,1.54,0,0,0,1.85-.21,1.59,1.59,0,0,0,.36-1.86,1.56,1.56,0,0,0-1.63-.9c-.7.09-1.37.61-1.35,1.26s-.36.81-.77,1l-.49.28L23.6,11Z"/><path class="cls-1" d="M9.5,26.19a.4.4,0,0,1-.43.24,1.56,1.56,0,0,0-1.54,1.11,1.59,1.59,0,0,0,.61,1.79,1.61,1.61,0,0,0,1.9,0,1.48,1.48,0,0,0,.5-1.81,1,1,0,0,1,.11-1.14c.31-.49.59-1,.88-1.51l.4-.71L11,23.58C10.5,24.46,10,25.32,9.5,26.19Z"/><path class="cls-1" d="M22.66,5.58H23a1.6,1.6,0,1,0-.76-3,1.57,1.57,0,0,0-.65,2.21.46.46,0,0,1,0,.56c-.23.37-.45.75-.66,1.13s-.55,1-.83,1.43l.93.53Z"/><path class="cls-1" d="M9,5.57a.45.45,0,0,1,.48.28c.28.51.58,1,.87,1.51L11,8.42l.92-.52-.16-.29L10.43,5.29a.41.41,0,0,1,0-.5A1.55,1.55,0,0,0,10.28,3a1.6,1.6,0,0,0-2.8,1.3A1.56,1.56,0,0,0,9,5.57Z"/><path class="cls-1" d="M27.49,21.47a1,1,0,0,1-1.13-.12c-.48-.29-1-.56-1.46-.84l-.77-.44-.52.93,2.84,1.64V23a1.6,1.6,0,1,0,2.86-1A1.48,1.48,0,0,0,27.49,21.47Z"/><path class="cls-1" d="M22.92,26.43a.36.36,0,0,1-.39-.21c-.45-.8-.91-1.59-1.37-2.38-.05-.09-.11-.17-.16-.25l-.91.52.15.28c.45.78.9,1.57,1.36,2.35a.41.41,0,0,1,0,.44,2.3,2.3,0,0,0-.23,1,1.57,1.57,0,0,0,1.67,1.46A1.62,1.62,0,0,0,24.56,28,1.58,1.58,0,0,0,22.92,26.43Z"/><path class="cls-1" d="M4.74,10.44a.48.48,0,0,1,.58,0l2.56,1.47L8.41,11l-.3-.19c-.75-.44-1.51-.88-2.27-1.3a.46.46,0,0,1-.29-.48A1.57,1.57,0,0,0,4.37,7.51a1.62,1.62,0,0,0-1.78.74,1.59,1.59,0,0,0,.23,1.93A1.55,1.55,0,0,0,4.74,10.44Z"/></svg>