<?xml version="1.0" encoding="utf-8"?>
<!-- Generator: Adobe Illustrator 25.1.0, SVG Export Plug-In . SVG Version: 6.00 Build 0)  -->
<svg version="1.1" id="Layer_1" xmlns="http://www.w3.org/2000/svg" xmlns:xlink="http://www.w3.org/1999/xlink" x="0px" y="0px"
	 viewBox="0 0 80 80" style="enable-background:new 0 0 80 80;" xml:space="preserve">
<style type="text/css">
	.st0{fill:#FFFFFF;}
</style>
<g>
	<path class="st0" d="M22.9,62.6c0.7,0.6,0.6,1.6,0.5,2.3c0,0.2,0,0.4,0,0.6c0,1.1,0,2.3,0,3.4V72c0,1.5,0,3.1,0,4.6
		c0,0.2,0,0.8-0.4,1.2c-0.4,0.4-0.9,0.4-1.2,0.4h-0.1c-2.9,0-5.8,0-8.7,0c-1.2,0-2.2-0.4-2.8-1.2c-0.6-0.8-0.8-1.8-0.5-2.9l0.1-0.6
		c0.3-1.4,0.7-2.8,1.1-4.3c1.2-4,4.9-6.9,9.1-7c0.2,0,0.4,0,0.5,0C21.3,62.1,22.2,62,22.9,62.6z"/>
	<path class="st0" d="M50.3,59l0.6,1.6c0.3,0.7,0.2,1.3-0.3,1.7l-0.5,0.5c-1.5,1.5-3,3-5.2,3.9c-1.8,0.7-3.5,1-5.4,1h-0.1
		c-3.6-0.1-6.6-1.4-8.9-3.8c-0.5-0.5-1-1-1.5-1.5c-0.4-0.4-0.8-1-0.4-1.9c0.6-1.5,1.1-3,1.7-4.6c0.1-0.2,0.3-0.8,0.8-1
		c0.6-0.2,1.1,0.1,1.3,0.2c4.9,2.7,9.7,2.7,14.6,0c0.2-0.1,0.7-0.4,1.3-0.2c0.6,0.2,0.8,0.7,0.8,1C49.6,57,50,58,50.3,59z"/>
	<path class="st0" d="M29.2,9.1l-1.3,0.2L28,8c0.2-3.3,2.6-6,5.7-6.7L33.8,1h12l0.1,0.2C49,1.9,51.4,4.7,51.6,8l0.1,1.3l-1.3-0.2
		C43.4,7.9,36.2,7.9,29.2,9.1z"/>
	<path class="st0" d="M52,43.5c-0.3,6.1-5.4,11.1-11.5,11.4c-0.2,0-0.4,0-0.7,0c-6,0-11.1-4.2-12.1-10.1c-0.3-1.9-0.4-3.8-0.4-5.6
		c0-0.9,0-1.8-0.1-2.7c0-0.1,0-0.2,0-0.3l0-0.5l-0.1-2c-0.1-2-0.1-4-0.2-5.9c0-1.2,0.7-1.6,1.3-1.8c7.6-1.5,15.4-1.5,23,0
		c0.9,0.2,1.4,0.8,1.3,1.7c-0.1,2-0.2,4-0.2,6C52.3,37,52.2,40.2,52,43.5z"/>
	<path class="st0" d="M53.9,68.5c0,2.7,0,5.4,0,8.1c0,0.2,0,0.8-0.4,1.3s-1,0.4-1.3,0.4c-8.3,0-16.5,0-24.8,0h0
		c-0.3,0-0.8,0-1.2-0.4c-0.4-0.4-0.4-1-0.4-1.3c0-2.9,0-5.7,0-8.7V62l1.8,2.1c3.4,4,7.4,6,12.3,6h0c4.8,0,8.8-2,12.2-6l1.8-2.2
		L53.9,68.5z"/>
	<path class="st0" d="M69.9,74.1c0.2,1,0,2.1-0.6,2.9c-0.6,0.8-1.5,1.2-2.6,1.2c-1.6,0-3.1,0-4.6,0c-1.4,0-2.9,0-4.3,0c0,0,0,0,0,0
		c-0.3,0-0.8,0-1.1-0.4c-0.4-0.4-0.4-1-0.4-1.2c0-1.6,0-3.2,0-4.9v-3.3c0-1.5,0-3.1,0-4.6c0-0.2,0-0.8,0.4-1.2s1-0.4,1.2-0.4h0.4
		c1.4,0,2.8,0,4.3,0.6c3.3,1.2,5.4,3.5,6.3,6.9c0.3,1.2,0.6,2.5,0.9,3.7L69.9,74.1z"/>
	<path class="st0" d="M60.5,41.4c-1.5,0.7-3.1,1.2-4.6,1.6l-0.6,0.2l-0.4-0.4c-0.5-0.5-0.4-1.1-0.4-1.4l0.1-2.4c0.1-4,0.3-8,0.5-12
		c0.1-2.4,0.1-2.4-2.2-2.9c-9.1-2-18.2-1.9-27.2,0.3c-0.6,0.2-1.1,0.5-1,1.5c0.1,2,0.2,4.1,0.2,6.2l0.4,11.5l-1.4-0.4
		c-3.9-1.1-7-2.5-9.8-4.3c-2-1.4-3.6-2.8-4.7-4.5c-3.1-4.4-2.9-9.6,0.7-13.8c2.1-2.5,5-4.5,8.9-6.1c5.2-2.2,10.9-3.4,17.4-3.8
		c6.8-0.4,13.3,0.3,19.3,2c4.8,1.3,8.4,3.1,11.4,5.5c1.1,0.9,2.2,2,3,3.1c3.3,4.5,3.1,9.7-0.6,14C67.4,37.7,64.5,39.7,60.5,41.4z"/>
</g>
</svg>
