<?xml version="1.0" encoding="utf-8"?>
<!-- Generator: Adobe Illustrator 25.1.0, SVG Export Plug-In . SVG Version: 6.00 Build 0)  -->
<svg version="1.1" id="Layer_1" xmlns="http://www.w3.org/2000/svg" xmlns:xlink="http://www.w3.org/1999/xlink" x="0px" y="0px"
	 viewBox="0 0 80 80" style="enable-background:new 0 0 80 80;" xml:space="preserve">
<style type="text/css">
	.st0{fill:#FFFFFF;}
</style>
<g>
	<path class="st0" d="M71.4,71.3c-0.1-1.2-0.7-2.2-1.6-3.1c-0.4-0.4-0.9-0.6-1.5-0.6c-7.7,0-15.4,0-23.1,0c-0.2,0-0.5,0-0.8,0
		c-0.6-0.1-1-0.4-1-1c0-0.6,0.3-1,0.9-1.1c0.3-0.1,0.6-0.1,0.9-0.1c7.4,0,14.8,0,22.2,0h1.1c0.2-2.5,0.5-4.9,0.6-7.3
		c0.5-10.9-0.7-21.6-3.5-32.1c-0.2-0.6-0.4-0.7-1-0.7c-6.8,0-13.7,0-20.5,0c-0.3,0-0.6,0-0.8,0c-0.6-0.2-0.9-0.5-0.9-1.1
		c0-0.6,0.4-1,1-1c0.2,0,0.5,0,0.8,0h22.5c0.3,0,0.6,0,0.8,0c1.1-0.1,2-1,2.1-2.1c0.2-1.2-0.5-2.2-1.5-2.6c-0.5-0.2-1-0.2-1.5-0.2
		c-17.4,0-34.9,0-52.3,0c-0.4,0-0.7,0-1,0.1c-1.2,0.2-2,1.1-2,2.3c0,1.5,1.1,2.5,2.7,2.5h21.2c1.1,0,2.2,0,3.2,0
		c0.7,0,1.2,0.5,1.2,1.1c0,0.6-0.5,1-1.1,1.1c-0.2,0-0.5,0-0.8,0H14.6c-3.5,13.2-4.8,26.5-3,40.1h26.3c1.2,0,1.8,0.4,1.7,1.1
		c0,0.8-0.5,1.1-1.7,1.1c-8.6,0-17.2,0-25.7,0c-1.2,0-1.9,0.4-2.5,1.3c-0.3,0.4-0.6,0.9-0.8,1.4c-0.8,2,0.1,3.9,2.1,4.6
		c1,0.3,2.2,0.5,3.2,0.5c17.2,0,34.4,0,51.7,0c0.7,0,1.4-0.1,2.1-0.2C70.3,74.9,71.7,73.4,71.4,71.3z M34,54.7
		c-3.2-2.6-5-6.2-6.1-10.1c-0.8-2.8-1.1-5.8-1.1-8.7c0-0.6,0.1-1.2,0.2-1.8c0.5-2,2.1-3.3,4.2-3.4c3.8-0.1,7.3,0.9,10.7,2.7
		c3.5,1.8,6.5,4.3,8.5,7.8c2.3,4.1,2.4,8.8-1,12.5c0,0.1-0.1,0.1-0.1,0.2c1.1,1.3,2.3,2.6,3.4,3.9c0.2,0.3,0.5,0.8,0.4,1.1
		s-0.5,0.8-0.8,0.8c-0.4,0.1-0.9-0.1-1.2-0.4c-1-1.1-2-2.2-3-3.3c-0.2-0.2-0.4-0.4-0.6-0.6c-1,0.5-2,1.1-3.1,1.5
		C40.6,58.2,37.1,57.2,34,54.7z"/>
	<path class="st0" d="M44.3,51.7c-0.3-0.4-0.6-0.5-1.1-0.5c-1.2,0.1-2.4,0.1-3.7,0.1c-0.3,0-0.8-0.1-1-0.4c-0.2-0.3-0.3-0.8-0.2-1.1
		c0.2-0.4,0.7-0.7,1.1-0.8c0.8-0.1,1.6,0,2.4,0C41,48,40.2,47,39.3,46.1c-0.1-0.2-0.5-0.2-0.7-0.2c-1,0-1.9,0.1-2.8,0.1
		c-0.7,0-1.2-0.4-1.2-1c-0.1-0.6,0.4-1.1,1.2-1.2c0.5,0,0.9,0,1.6,0c-0.7-0.8-1.2-1.3-1.7-2c-0.6-0.6-0.6-1.3-0.1-1.8
		c0.5-0.5,1.2-0.4,1.8,0.3c0.5,0.6,1,1.1,1.6,1.8c0.1-0.4,0.1-0.7,0.2-0.9c0.1-0.9,0.6-1.4,1.3-1.3c0.7,0.1,1,0.7,0.9,1.6
		c-0.1,0.8-0.2,1.6-0.3,2.5c0,0.2,0,0.4,0.1,0.6c0.8,1,1.7,1.9,2.6,3c0.1-0.8,0.2-1.5,0.3-2.1c0.1-0.8,0.6-1.2,1.3-1.1
		c0.7,0.1,1,0.7,0.9,1.5c-0.1,1.2-0.3,2.3-0.4,3.5c0,0.2,0,0.6,0.2,0.7c0.6,0.7,1.2,1.4,1.9,2.1c1.2-1.4,2-2.9,2.1-4.7
		c0.1-2.4-0.7-4.6-2.2-6.5c-4-5.2-9.3-7.7-15.8-8.1c-1.8-0.1-2.7,0.8-2.7,2.6c0,1.3,0,2.6,0.2,4c0.4,3.5,1.2,6.8,3.1,9.8
		c1.5,2.4,3.4,4.4,6.1,5.4c2.7,1,5.2,0.5,7.6-1.1C45.4,53,44.8,52.3,44.3,51.7z"/>
	<path class="st0" d="M62.6,15.9c-0.4-0.6-0.7-1.1-1.1-1.5c-1.2-1.2-2.7-1.7-4.4-1.8c-0.9-0.1-1.2-0.4-1.2-1.3
		c-0.1-1.1-0.5-2.1-1.3-2.9C53,7,51.2,6.3,49.1,6.3c-0.7,0-1.2-0.2-1.7-0.7c-3.4-3.1-9.7-3-13,0.1c-0.5,0.4-0.9,0.6-1.5,0.6
		c-1.7-0.1-3.4,0.2-4.9,1c-1.6,0.9-2.7,2.2-2.8,4.2c0,0.7-0.5,1-1.2,1.1c-1.5,0.1-2.9,0.5-4,1.5c-0.6,0.5-1,1.1-1.5,1.7
		c0,0.1,0.1,0.1,0.2,0.2H62.6z"/>
</g>
</svg>
