<svg id="Layer_1" data-name="Layer 1" xmlns="http://www.w3.org/2000/svg" viewBox="0 0 32 32"><defs><style>.cls-1{fill:#ffffff;}</style></defs><path class="cls-1" d="M31.47,24h-1v-.37c0-1.11,0-2.21,0-3.32a.6.6,0,0,0-.19-.45,2.34,2.34,0,0,1-.89-2.17c.06-3.1,0-6.2,0-9.3V8H2.64v.39q0,3.43,0,6.86a.42.42,0,0,1-.26.44,1.56,1.56,0,0,0-.82,1.43c0,2.16,0,4.31,0,6.46V24H.51v-.35q0-8,0-16.07a.45.45,0,0,1,.31-.49L15.08.68a2.06,2.06,0,0,1,1.78,0q7.2,3.24,14.41,6.48a.44.44,0,0,1,.22.3q0,8.24,0,16.47A.62.62,0,0,1,31.47,24ZM11.74,4.21a1.07,1.07,0,1,0,0,2.14,1.07,1.07,0,0,0,0-2.14Zm3.2,1a1.06,1.06,0,0,0,1,1.09,1.07,1.07,0,1,0,0-2.14A1.05,1.05,0,0,0,14.94,5.26Zm4.27,0a1.07,1.07,0,0,0,1.05,1.07,1.07,1.07,0,1,0,0-2.14A1.06,1.06,0,0,0,19.21,5.28Z"/><path class="cls-1" d="M2.64,27.25v-10c0-.61.15-.76.75-.76H20.05c.6,0,.76.17.76.75,0,2.62,0,5.25,0,7.87a.47.47,0,0,1-.27.47A3.37,3.37,0,0,0,19.16,27a.38.38,0,0,1-.39.22c-2.56,0-5.12,0-7.68,0A.38.38,0,0,1,10.7,27a3.71,3.71,0,0,0-6.5,0,.4.4,0,0,1-.42.24C3.42,27.24,3.05,27.25,2.64,27.25Zm11.22-7H4.27v3.22h9.61v1.58l3.65-2.28a1,1,0,0,0,0-1.85l-3.36-2.11-.29-.15Z"/><path class="cls-1" d="M28.28,9.06v8.83c-.28-.38-.64-.28-1-.28H26.17V10.13H5.85v5.31H3.74V9.06Z"/><path class="cls-1" d="M29.34,27.25c-1,0-1.91,0-2.85,0a1,1,0,0,1-1-.53,3.5,3.5,0,0,0-3.12-1.62H21.9V18.69h5.33a.66.66,0,0,1,.53.22c.47.49,1,1,1.43,1.45a.58.58,0,0,1,.17.37c0,2.12,0,4.23,0,6.35C29.36,27.11,29.35,27.15,29.34,27.25Zm-5.83-3.78h4.25v-2a.32.32,0,0,0-.07-.22c-.31-.32-.62-.64-1-.94a.51.51,0,0,0-.31-.06H23.51Z"/><path class="cls-1" d="M21.91,17.59c-.19-1.77-.36-1.94-2.14-2.16V11.19h1V13.3H24V11.19h1.06v6.4Z"/><path class="cls-1" d="M4.78,28.85a2.67,2.67,0,1,1,5.34,0,2.67,2.67,0,1,1-5.34,0Zm1.61,0a1.07,1.07,0,0,0,1.06,1.06,1.07,1.07,0,1,0,0-2.14A1,1,0,0,0,6.39,28.86Z"/><path class="cls-1" d="M19.75,28.85a2.67,2.67,0,1,1,5.34,0,2.7,2.7,0,0,1-2.67,2.66A2.67,2.67,0,0,1,19.75,28.85Zm1.6,0a1.07,1.07,0,0,0,1,1.07,1.07,1.07,0,1,0,0-2.14A1.07,1.07,0,0,0,21.35,28.85Z"/><path class="cls-1" d="M7,11.2H8v2.1h3.2V11.2h1.07v4.24H7Z"/><path class="cls-1" d="M17.6,13.3V11.2h1.06v4.24h-5.3V11.2h1v2.1Z"/><path class="cls-1" d="M11.18,29.37v-1h7.49v1Z"/><path class="cls-1" d="M30.42,28.35v1H26.14v-1Z"/><path class="cls-1" d="M10.11,11.2v1h-1v-1Z"/><path class="cls-1" d="M16.53,11.2v1h-1v-1Z"/><path class="cls-1" d="M21.9,12.23v-1h1v1Z"/><path class="cls-1" d="M2.68,28.33h1v1C2.88,29.56,2.54,29.23,2.68,28.33Z"/></svg>