<?xml version="1.0" encoding="utf-8"?>
<!-- Generator: Adobe Illustrator 25.1.0, SVG Export Plug-In . SVG Version: 6.00 Build 0)  -->
<svg version="1.1" id="Layer_1" xmlns="http://www.w3.org/2000/svg" xmlns:xlink="http://www.w3.org/1999/xlink" x="0px" y="0px"
	 viewBox="0 0 80 80" style="enable-background:new 0 0 80 80;" xml:space="preserve">
<style type="text/css">
	.st0{fill:#FFFFFF;}
</style>
<path class="st0" d="M13.9,29.3c-0.4-0.6-0.2-1.4,0.6-1.8c1.1-0.6,2.1-1.3,3.2-1.9c1-0.5,2,0.1,2,1.3c-0.2,0.2-0.4,0.7-0.8,0.9
	c-1,0.7-2.1,1.3-3.2,1.9C15,30.2,14.3,30,13.9,29.3z"/>
<path class="st0" d="M14.8,6.6c0.4-0.6,0.9-0.9,1.6-0.5c1.2,0.7,2.4,1.4,3.6,2.1c0.3,0.2,0.4,0.6,0.6,0.8c0,1.1-0.9,1.8-1.8,1.4
	c-1.3-0.6-2.5-1.4-3.7-2.1C14.5,7.9,14.4,7.2,14.8,6.6z"/>
<path class="st0" d="M34.6,35.2c0,0.6,0,1.2,0,1.9c0,0.8-0.6,1.4-1.3,1.4c-0.7,0-1.3-0.5-1.3-1.4c0-1.2,0-2.5,0-3.7
	c0-0.8,0.6-1.4,1.3-1.4c0.7,0,1.3,0.5,1.3,1.4C34.6,34,34.6,34.6,34.6,35.2z"/>
<path class="st0" d="M18.2,12.6c2.9-0.4,5.9-0.8,8.8-1.1c0.5-0.1,0.7-0.3,0.9-0.7c1.2-2.7,2.5-5.4,3.8-8.1c0.3-0.6,0.6-1.2,1.4-1.2
	s1.1,0.5,1.4,1.2c1.2,2.7,2.5,5.4,3.8,8.1c0.2,0.5,0.5,0.6,1,0.7c2.9,0.4,5.9,0.7,8.9,1.1c0.7,0.1,1.3,0.2,1.5,1
	c0.2,0.7-0.2,1.2-0.6,1.6c-2.2,2-4.3,4.1-6.5,6.1C42,21.7,41.9,22,42,22.5c0.6,3,1.1,6,1.7,8.9c0.1,0.6,0.1,1.1-0.4,1.5
	c-0.6,0.4-1.1,0.3-1.7,0c-2.6-1.4-5.2-2.8-7.7-4.3c-0.6-0.4-1.1-0.3-1.7,0c-2.6,1.5-5.2,2.9-7.8,4.3c-1.1,0.6-2.1,0-2-1.3
	c0.4-2.1,0.8-4.3,1.2-6.5c0.2-0.9,0.3-1.8,0.5-2.7c0.1-0.5,0-0.8-0.4-1.1c-2.2-2-4.3-4-6.5-6c-0.5-0.5-1-1-0.7-1.8
	S17.5,12.7,18.2,12.6z"/>
<path class="st0" d="M45.1,9.8C44.8,9.2,45,8.5,45.7,8c1.1-0.7,2.2-1.3,3.3-1.9c0.9-0.5,2,0.1,2,1.4c-0.1,0.2-0.3,0.6-0.7,0.9
	c-1.1,0.7-2.2,1.3-3.3,2C46.2,10.7,45.5,10.4,45.1,9.8z"/>
<path class="st0" d="M76.9,69.4c-7.9-13-15.7-25.9-23.6-38.9c-0.4-0.7-0.9-1.2-1.7-1.2c0.3-1-0.1-1.5-0.9-2c-0.9-0.5-1.7-1-2.6-1.5
	c-1-0.6-1.8-0.5-2.2,0.3c-0.4,0.7-0.1,1.4,0.8,2c1.2,0.7,2.3,1.3,3.5,2c-0.1,0.1-0.2,0.2-0.3,0.2c-3.2,1.9-6.3,3.9-9.5,5.8
	c-1.1,0.7-1.2,1.2-0.6,2.3c0.2,0.4,0.5,0.8,0.7,1.2H29.4c-0.1-2-0.4-2.6-1.3-2.5c-1.7,0.1-1.3,1.5-1.4,2.5H19
	c-0.1-1,0.3-2.4-1.3-2.5c-1.7-0.1-1.3,1.5-1.4,2.6h-6.1c-1.2,0-1.7,0.4-1.7,1.7c0,3.1,0,6.3,0,9.4c0,1,0.2,1.8,1.3,2V77
	c0,1.3,0.4,1.8,1.7,1.8c14.4,0,28.9,0,43.3,0c1.3,0,1.8-0.4,1.8-1.7V66.2c0.3,0.5,0.5,0.7,0.7,1c2.1,3.5,4.3,7,6.4,10.6
	c0.7,1.1,1.2,1.3,2.4,0.6c3.4-2,6.8-4.1,10.1-6.1C77.7,71.3,77.8,70.8,76.9,69.4z M19,42.4h7.7v2.5H19V42.4z M19,58h7.7v2.5H19V58z
	 M26.7,76.1H19v-2.5h7.7V76.1z M26.7,70.9H19v-2.5h7.7V70.9z M26.7,65.7H19v-2.5h7.7V65.7z M26.7,55.3H19v-2.5h7.7V55.3z M26.7,50.1
	H19v-2.5h7.7V50.1z M65.5,75.7C57.8,63,50.2,50.5,42.6,37.9c0.7-0.5,1.4-0.9,2.2-1.4C52.4,49.1,60,61.7,67.7,74.3
	C67,74.7,66.3,75.2,65.5,75.7z M69.9,72.9C62.3,60.4,54.7,47.8,47,35.2c1.5-0.9,2.9-1.8,4.4-2.7c7.6,12.6,15.3,25.2,22.9,37.8
	C72.9,71.1,71.4,72,69.9,72.9z"/>
</svg>
