<svg id="Layer_1" data-name="Layer 1" xmlns="http://www.w3.org/2000/svg" viewBox="0 0 80 80"><defs><style>.cls-1{fill:#ffffff;}</style></defs><path class="cls-1" d="M61.05,17.41c2.39,0,4.79,0,7.18,0,3.18,0,6.36,0,9.53,0A2.29,2.29,0,0,0,80,16.32V9a2,2,0,0,0-2-1.13c-5.83,0-11.66,0-17.49,0a20.06,20.06,0,0,0-2.57.18c-4,.6-7,3.28-7.55,7.12a49.9,49.9,0,0,0-.22,5.75c0,.3,0,.59,0,.87-1.65.28-2,.67-2,2.26v6H45.31c0-.26-.06-.49-.1-.72a2.83,2.83,0,0,0-2.67-2.59c-1.64-.08-3.28-.07-4.92,0A2.82,2.82,0,0,0,35,29.15c-.05.28-.05.56-.08.86h-4c0-.78,0-1.5,0-2.22a5.23,5.23,0,0,0-5.11-5.08c-1.22,0-2.45,0-3.67,0a5.24,5.24,0,0,0-5.63,5.58V30.1l-.35.08C8.52,31.26,3.41,35.46.84,42.72A32.06,32.06,0,0,0,0,46.42v3.43c.17.86.31,1.73.52,2.57A18.09,18.09,0,0,0,15.51,66c.31,0,.62.1,1,.16v5.61h3.23V66.19h6.84v5.53h3.24V66.19H35c0,.29,0,.55.07.8a2.91,2.91,0,0,0,2.84,2.52c1.38,0,2.76,0,4.14,0a3,3,0,0,0,3.24-2.86c0-.15,0-.3.09-.52H66.11c2.26,0,2.59-.33,2.59-2.55V58.11h.89c2.76,0,5.52,0,8.28,0A2.14,2.14,0,0,0,80,57V39.25a1.94,1.94,0,0,0-2-1.14c-2.78,0-5.57,0-8.36,0H68.7v-5.3c0-2.49-.26-2.75-2.78-2.75H62.19c0-2.18,0-4.28,0-6.37a1.6,1.6,0,0,0-.84-1.63,6.24,6.24,0,0,0-1.09-.29c0-1.29,0-2.63,0-4C60.3,17.66,60.78,17.41,61.05,17.41ZM19.7,27.59a2,2,0,0,1,2-1.75q2,0,4,0a2.07,2.07,0,0,1,2.06,2c0,.7,0,1.4,0,2.15H19.68C19.68,29.18,19.62,28.38,19.7,27.59ZM35,63c-.3,0-.55,0-.8,0-5.24,0-10.47,0-15.7,0a14.9,14.9,0,0,1-1.88-29.73c.65-.06,1.3-.09,1.95-.1H35ZM68.76,41.29h8.07V55H68.76ZM51.34,25.06H59v5H51.34Zm14.18,8.18V63H45.29c0-.28,0-.56,0-.83,0-2.16,0-4.32,0-6.47a3.77,3.77,0,0,0-.1-1,1.54,1.54,0,0,0-3,.17,8,8,0,0,0,0,1.09V66.34h-4V29.85h4V40.48a6,6,0,0,0,0,.85,1.53,1.53,0,0,0,3,.11,4.69,4.69,0,0,0,.07-.92c0-2.14,0-4.27,0-6.4v-.88ZM57.16,17.4c-.06,1.45,0,2.9,0,4.41h-4a55.88,55.88,0,0,1,.38-6.5c.46-2.66,2.78-4.24,5.93-4.28,4.61-.07,9.21,0,13.82,0h3.55v3.27H61.63c-.45,0-.89,0-1.33,0A3.07,3.07,0,0,0,57.16,17.4Z"/><path class="cls-1" d="M27.41,38.77c.67,0,1.35,0,2,0a1.55,1.55,0,1,1,.05,3.1c-1.37,0-2.75,0-4.12,0a1.55,1.55,0,1,1,.1-3.1C26.11,38.75,26.76,38.77,27.41,38.77Z"/><path class="cls-1" d="M27.41,46.56c.7,0,1.4,0,2.1,0a1.54,1.54,0,0,1,0,3.08c-1.42.05-2.85.05-4.28,0a1.53,1.53,0,0,1-1.48-1.59,1.58,1.58,0,0,1,1.58-1.5h2Z"/><path class="cls-1" d="M27.45,54.36c.67,0,1.35,0,2,0a1.55,1.55,0,0,1,.05,3.09q-2.1.06-4.2,0a1.55,1.55,0,0,1,0-3.09C26.05,54.34,26.75,54.36,27.45,54.36Z"/><path class="cls-1" d="M42.14,48.14a1.55,1.55,0,1,1,3.09,0,1.55,1.55,0,1,1-3.09,0Z"/></svg>