<?xml version="1.0" encoding="utf-8"?>
<!-- Generator: Adobe Illustrator 25.1.0, SVG Export Plug-In . SVG Version: 6.00 Build 0)  -->
<svg version="1.1" id="Layer_1" xmlns="http://www.w3.org/2000/svg" xmlns:xlink="http://www.w3.org/1999/xlink" x="0px" y="0px"
	 viewBox="0 0 80 80" style="enable-background:new 0 0 80 80;" xml:space="preserve">
<style type="text/css">
	.st0{fill:#FFFFFF;}
</style>
<path class="st0" d="M26,29.6c-0.1-0.1-0.2-0.2-0.3-0.3c-0.2-0.2-0.4-0.3-0.6-0.4c0,0,0,0,0,0c-0.1-0.1-0.3-0.2-0.4-0.2
	c-0.2-0.1-0.3-0.1-0.5-0.1c-0.2,0-0.3-0.1-0.5-0.1c-0.2,0-0.4,0-0.6,0c-0.5,0-1.1,0.1-1.5,0.3c-0.2,0.1-0.3,0.1-0.4,0.2h0
	c-0.2,0.1-0.4,0.3-0.6,0.4c-0.1,0.1-0.2,0.2-0.3,0.3c-0.7,0.7-1.2,1.8-1.2,2.9c0,1.1,0.5,2.2,1.2,2.9c0.2,0.2,0.4,0.4,0.6,0.5
	c0.1,0,0.2,0.1,0.2,0.2c0.2,0.1,0.3,0.2,0.5,0.2c0.5,0.2,1,0.3,1.6,0.3h0.1c0.5,0,1.1-0.1,1.5-0.3c0.2-0.1,0.3-0.1,0.5-0.2
	c0.1,0,0.2-0.1,0.2-0.2c0.2-0.1,0.4-0.3,0.6-0.5c0.7-0.8,1.2-1.8,1.2-2.9C27.2,31.4,26.8,30.3,26,29.6z M29.9,45.3
	c0-1.4-0.6-2.6-1.5-3.5c-0.2-0.2-0.4-0.4-0.6-0.5c0,0-0.1-0.1-0.1-0.1c-0.1-0.1-0.3-0.2-0.4-0.2c0,0,0,0-0.1,0
	c-0.1-0.1-0.2-0.1-0.4-0.2c-0.1,0-0.2-0.1-0.3-0.1c-0.1,0-0.2-0.1-0.4-0.1c-0.1,0-0.1,0-0.2-0.1c-0.2,0-0.3-0.1-0.5-0.1
	c-0.2,0-0.4,0-0.6,0h-3.7c-0.2,0-0.4,0-0.5,0c-0.2,0-0.3,0.1-0.5,0.1c-0.1,0-0.2,0-0.3,0.1c-0.1,0-0.2,0.1-0.3,0.1
	c-0.1,0-0.2,0.1-0.3,0.1c-0.1,0-0.2,0.1-0.3,0.1c0,0-0.1,0-0.1,0.1c-0.1,0-0.1,0-0.1,0.1c-0.1,0-0.1,0.1-0.2,0.1c0,0-0.1,0-0.1,0
	c0,0,0,0,0,0c0,0,0,0,0,0c-0.2,0.2-0.5,0.3-0.6,0.5c-0.9,0.9-1.5,2.1-1.5,3.5v5H30v0L29.9,45.3z M29.9,45.3c0-1.4-0.6-2.6-1.5-3.5
	c-0.2-0.2-0.4-0.4-0.6-0.5c0,0-0.1-0.1-0.1-0.1c-0.1-0.1-0.3-0.2-0.4-0.2c0,0,0,0-0.1,0c-0.1-0.1-0.2-0.1-0.4-0.2
	c-0.1,0-0.2-0.1-0.3-0.1c-0.1,0-0.2-0.1-0.4-0.1c-0.1,0-0.1,0-0.2-0.1c-0.2,0-0.3-0.1-0.5-0.1c-0.2,0-0.4,0-0.6,0h-3.7
	c-0.2,0-0.4,0-0.5,0c-0.2,0-0.3,0.1-0.5,0.1c-0.1,0-0.2,0-0.3,0.1c-0.1,0-0.2,0.1-0.3,0.1c-0.1,0-0.2,0.1-0.3,0.1
	c-0.1,0-0.2,0.1-0.3,0.1c0,0-0.1,0-0.1,0.1c-0.1,0-0.1,0-0.1,0.1c-0.1,0-0.1,0.1-0.2,0.1c0,0-0.1,0-0.1,0c0,0,0,0,0,0c0,0,0,0,0,0
	c-0.2,0.2-0.5,0.3-0.6,0.5c-0.9,0.9-1.5,2.1-1.5,3.5v5H30v0L29.9,45.3z M20.8,35.9c0.1,0,0.2,0.1,0.2,0.2c0.2,0.1,0.3,0.2,0.5,0.2
	c0.5,0.2,1,0.3,1.6,0.3h0.1c0.5,0,1.1-0.1,1.5-0.3c0.2-0.1,0.3-0.1,0.5-0.2c0.1,0,0.2-0.1,0.2-0.2c0.2-0.1,0.4-0.3,0.6-0.5
	c0.7-0.8,1.2-1.8,1.2-2.9c0-1.1-0.5-2.1-1.2-2.9c-0.1-0.1-0.2-0.2-0.3-0.3c-0.2-0.2-0.4-0.3-0.6-0.4c0,0,0,0,0,0
	c-0.1-0.1-0.3-0.2-0.4-0.2c-0.2-0.1-0.3-0.1-0.5-0.1c-0.2,0-0.3-0.1-0.5-0.1c-0.2,0-0.4,0-0.6,0c-0.5,0-1.1,0.1-1.5,0.3
	c-0.2,0.1-0.3,0.1-0.4,0.2h0c-0.2,0.1-0.4,0.3-0.6,0.4c-0.1,0.1-0.2,0.2-0.3,0.3c-0.7,0.7-1.2,1.8-1.2,2.9c0,1.1,0.5,2.2,1.2,2.9
	C20.4,35.6,20.6,35.8,20.8,35.9z M71,9.7H9c-4.4,0-7.9,3.6-7.9,7.9v43.4C1.1,65.5,4.6,69,9,69h62c4.4,0,7.9-3.6,7.9-7.9V17.6
	C78.9,13.2,75.4,9.7,71,9.7z M17.2,27.4c0.4-0.5,0.8-0.8,1.3-1.2c0.2-0.2,0.5-0.3,0.7-0.5c0.2-0.2,0.5-0.3,0.8-0.4
	c0.2-0.1,0.5-0.2,0.8-0.3c1.2-0.4,2.5-0.5,3.8-0.3c0.5,0.1,0.9,0.2,1.3,0.4c0.2,0.1,0.4,0.2,0.6,0.3c0.4,0.2,0.8,0.4,1.2,0.7
	c0.2,0.1,0.4,0.3,0.6,0.5c3.3,2.8,3.7,7.8,0.8,11c2.9,1.5,4.6,4.5,4.6,7.7v6.8c0,1-0.8,1.9-1.9,1.9H14.5c-0.4,0-0.8-0.1-1-0.3
	c-0.1-0.1-0.2-0.1-0.3-0.2c-0.3-0.3-0.6-0.8-0.6-1.3v-6.8c0-2.6,1.2-5.1,3.1-6.7c0.3-0.3,0.6-0.5,1-0.7c0.2-0.1,0.3-0.2,0.5-0.3
	C14.7,34.7,14.7,30.3,17.2,27.4z M65.9,49.5H43.6c-1,0-1.9-0.9-1.8-1.9c0-0.5,0.2-1,0.6-1.3c0.2-0.2,0.4-0.3,0.6-0.4
	c0.2-0.1,0.5-0.2,0.8-0.1H66c0.2,0,0.5,0.1,0.7,0.2c0.2,0.1,0.4,0.2,0.6,0.4c0.3,0.3,0.5,0.8,0.5,1.4C67.8,48.7,66.9,49.5,65.9,49.5
	z M43.8,29.2h10.2c0.4,0,0.7,0.1,1,0.3c0.1,0.1,0.2,0.1,0.3,0.2c0.3,0.3,0.5,0.8,0.5,1.3c0,0.5-0.2,1-0.5,1.4
	c-0.2,0.2-0.4,0.3-0.6,0.4c-0.2,0.1-0.5,0.2-0.7,0.2H43.8c0,0,0,0-0.1,0c0,0,0,0-0.1,0c-0.2,0-0.5-0.1-0.7-0.2
	c-0.2-0.1-0.4-0.2-0.6-0.4C42,32,41.8,31.6,41.8,31c0-0.5,0.2-1,0.6-1.3c0.2-0.2,0.4-0.3,0.6-0.4C43.2,29.3,43.5,29.2,43.8,29.2z
	 M65.9,42H43.8c-0.5,0-1-0.2-1.3-0.5c-0.3-0.3-0.6-0.8-0.6-1.3c0-1,0.8-1.9,1.9-1.9h22.1c1,0,1.9,0.8,1.9,1.9c0,0.5-0.2,1-0.5,1.3
	C66.8,41.8,66.4,42,65.9,42z M16.3,50.3H30v0l0-5c0-1.4-0.6-2.6-1.5-3.5c-0.2-0.2-0.4-0.4-0.6-0.5c0,0-0.1-0.1-0.1-0.1
	c-0.1-0.1-0.3-0.2-0.4-0.2c0,0,0,0-0.1,0c-0.1-0.1-0.2-0.1-0.4-0.2c-0.1,0-0.2-0.1-0.3-0.1c-0.1,0-0.2-0.1-0.4-0.1
	c-0.1,0-0.1,0-0.2-0.1c-0.2,0-0.3-0.1-0.5-0.1c-0.2,0-0.4,0-0.6,0h-3.7c-0.2,0-0.4,0-0.5,0c-0.2,0-0.3,0.1-0.5,0.1
	c-0.1,0-0.2,0-0.3,0.1c-0.1,0-0.2,0.1-0.3,0.1c-0.1,0-0.2,0.1-0.3,0.1c-0.1,0-0.2,0.1-0.3,0.1c0,0-0.1,0-0.1,0.1
	c-0.1,0-0.1,0-0.1,0.1c-0.1,0-0.1,0.1-0.2,0.1c0,0-0.1,0-0.1,0c0,0,0,0,0,0c0,0,0,0,0,0c-0.2,0.2-0.5,0.3-0.6,0.5
	c-0.9,0.9-1.5,2.1-1.5,3.5V50.3z M20.8,35.9c0.1,0,0.2,0.1,0.2,0.2c0.2,0.1,0.3,0.2,0.5,0.2c0.5,0.2,1,0.3,1.6,0.3h0.1
	c0.5,0,1.1-0.1,1.5-0.3c0.2-0.1,0.3-0.1,0.5-0.2c0.1,0,0.2-0.1,0.2-0.2c0.2-0.1,0.4-0.3,0.6-0.5c0.7-0.8,1.2-1.8,1.2-2.9
	c0-1.1-0.5-2.1-1.2-2.9c-0.1-0.1-0.2-0.2-0.3-0.3c-0.2-0.2-0.4-0.3-0.6-0.4c0,0,0,0,0,0c-0.1-0.1-0.3-0.2-0.4-0.2
	c-0.2-0.1-0.3-0.1-0.5-0.1c-0.2,0-0.3-0.1-0.5-0.1c-0.2,0-0.4,0-0.6,0c-0.5,0-1.1,0.1-1.5,0.3c-0.2,0.1-0.3,0.1-0.4,0.2h0
	c-0.2,0.1-0.4,0.3-0.6,0.4c-0.1,0.1-0.2,0.2-0.3,0.3c-0.7,0.7-1.2,1.8-1.2,2.9c0,1.1,0.5,2.2,1.2,2.9C20.4,35.6,20.6,35.8,20.8,35.9
	z"/>
</svg>
