<svg xmlns="http://www.w3.org/2000/svg" viewBox="0 0 24.65 27.54"><defs><style>.cls-1{fill:#fff;}</style></defs><g id="Layer_2" data-name="Layer 2"><g id="Layer_1-2" data-name="Layer 1"><path class="cls-1" d="M24.63,21.17l0-.25a2.2,2.2,0,0,0-.06-.37.51.51,0,0,0,0-.13,2.81,2.81,0,0,0-.08-.31c0-.09-.05-.19-.08-.28a6,6,0,0,0-.72-1.46,5.75,5.75,0,0,0-.95-1.08l-.71.77h0a4.83,4.83,0,0,1,.71.79.86.86,0,0,1,.07.1c.05.08.1.15.14.23a4.77,4.77,0,0,1,.65,2.93,4.87,4.87,0,0,1-1.75,3.28h0a.71.71,0,0,1-.14.1,3.55,3.55,0,0,1-.31.23s0,0-.06,0a3.3,3.3,0,0,1-.73.36h0a2.83,2.83,0,0,1-.41.14l-.42.11-.19,0-.26,0h-.17a4.83,4.83,0,0,1-.76,0,5,5,0,0,1-.56-.07,4.26,4.26,0,0,1-.54-.15l-.34-.13-.41-.2a2.85,2.85,0,0,1-.37-.23l-.08,0a4.41,4.41,0,0,1-.58-.47l-.06-.06-.3-.33v0a2.43,2.43,0,0,1-.24-.32,4,4,0,0,1-.22-.34,1.59,1.59,0,0,1-.15-.29,4.32,4.32,0,0,1-.19-.45,4,4,0,0,1-.24-.86,2.21,2.21,0,0,1,0-.37,3.62,3.62,0,0,1,0-.93,4.48,4.48,0,0,1,.29-1.2,3,3,0,0,1,.18-.41l.12-.24h0a2.85,2.85,0,0,1,.23-.37l0,0A1.33,1.33,0,0,1,15,18.7l.28-.33a.93.93,0,0,1,.14-.14l0,0a2.52,2.52,0,0,1,.35-.3,4.22,4.22,0,0,1,.71-.48,5.22,5.22,0,0,1,3.72-.4c.51.11.77-.1.77-.62v-.16c0-3,0-6,0-9a.79.79,0,0,0-.27-.62C18.56,4.48,16.38,2.39,14.22.3a1,1,0,0,0-.76-.3H.75C.15,0,0,.17,0,.77v26c0,.62.15.77.77.77,5.65,0,11.29,0,16.93,0h1l.46,0,.31,0a3.5,3.5,0,0,0,.45-.07,5.29,5.29,0,0,0,.54-.13c.17-.06.35-.11.51-.18a5.66,5.66,0,0,0,.89-.44c.09-.06.18-.11.27-.18a2.11,2.11,0,0,0,.35-.26l.1-.07.32-.29a.6.6,0,0,1,.08-.08,4.4,4.4,0,0,0,.35-.39q.15-.18.3-.39a6.78,6.78,0,0,0,.53-.95,3.38,3.38,0,0,0,.18-.44v0a2.23,2.23,0,0,0,.13-.44,2.37,2.37,0,0,0,.09-.36c0-.15.05-.3.07-.46a4.92,4.92,0,0,0,0-.67C24.65,21.49,24.64,21.33,24.63,21.17ZM14.23,1.81l4.89,4.68-.29,0H16a1.64,1.64,0,0,1-1.77-1.79ZM1.08,26.45V1.11H13.15v.28c0,1.14,0,2.29,0,3.43a2.72,2.72,0,0,0,2.28,2.72,5.27,5.27,0,0,0,.57,0h3.91v8.25c-2.79-.27-5,.59-6.25,3-.05.1-.1.19-.14.29s-.13.29-.19.44-.14.39-.2.59a2.37,2.37,0,0,0-.09.36,5.36,5.36,0,0,0,1.22,4.91,0,0,0,0,1,0,0c.12.14.24.27.37.4a8.38,8.38,0,0,0,.68.64Z"/><path class="cls-1" d="M10.8,14.91a4.25,4.25,0,0,0-3.64-2.17.55.55,0,0,0-.64.61v.28a3.47,3.47,0,0,0,0,6.85,3.48,3.48,0,0,0,4-2.87h.18c.57.06.77-.29.72-.79A4.26,4.26,0,0,0,10.8,14.91ZM7,19.44a2.35,2.35,0,0,1-2.26-2.22,2.33,2.33,0,0,1,1.83-2.45v2.17c0,.48.19.66.66.66H9.35A2.33,2.33,0,0,1,7,19.44ZM10,16.53H7.61V13.89a3.14,3.14,0,0,1,2.63,2.63Z"/><path class="cls-1" d="M7.23,9.62h3.19a.52.52,0,0,1,.52.73.57.57,0,0,1-.6.33H4.11c-.39,0-.62-.19-.62-.52s.23-.54.62-.54Z"/><path class="cls-1" d="M15.05,10.68H13.17c-.38,0-.62-.21-.62-.53a.55.55,0,0,1,.62-.53H17a.53.53,0,0,1,.6.55c0,.31-.23.51-.6.51Z"/><path class="cls-1" d="M15.57,14.11H14.1c-.38,0-.63-.21-.62-.53a.54.54,0,0,1,.6-.53c1,0,2,0,3,0a.53.53,0,0,1,.59.53.54.54,0,0,1-.6.53Z"/><path class="cls-1" d="M5.59,7.26H4.09c-.38,0-.61-.21-.6-.55A.54.54,0,0,1,4.1,6.2h3a.54.54,0,1,1,0,1.06Z"/><path class="cls-1" d="M5.57,23.37H4.1c-.38,0-.61-.2-.61-.53s.23-.53.63-.53h3c.39,0,.62.21.62.54s-.24.52-.63.52Z"/><path class="cls-1" d="M10.14,22.32c.22,0,.43,0,.65,0a.52.52,0,0,1,.5.51.51.51,0,0,1-.48.53c-.45,0-.91,0-1.36,0A.52.52,0,0,1,9,22.84a.54.54,0,0,1,.5-.52h.68Z"/><path class="cls-1" d="M10.14,6.2h.63a.53.53,0,0,1,0,1.06H9.47A.53.53,0,0,1,9,6.72a.55.55,0,0,1,.53-.52Z"/><circle class="cls-1" cx="18.83" cy="19.75" r="2.01"/><path class="cls-1" d="M20.2,22.79l-.61,2.52-.53-1.94.29-.48a.25.25,0,0,0-.21-.38h-.62a.25.25,0,0,0-.21.38l.29.48h0l-.53,1.94-.61-2.52a2.53,2.53,0,0,0-2.14,2.5.49.49,0,0,0,.48.48H16v.4l1.39.43,1.25.18,1.31-.14L21,26.45l.87-.68a.49.49,0,0,0,.48-.48A2.53,2.53,0,0,0,20.2,22.79Z"/></g></g></svg>