<svg id="Layer_1" data-name="Layer 1" xmlns="http://www.w3.org/2000/svg" viewBox="0 0 32 32"><defs><style>.cls-1{fill:#ffffff;}</style></defs><path class="cls-1" d="M16.19.53c3,1.42,6,3,9.08,4.41a1.27,1.27,0,0,1,.31.2.4.4,0,0,1,0,.63.5.5,0,0,1-.19.13c-.46.12-.53.44-.51.86,0,.66,0,1.33,0,2a.39.39,0,0,0,.13.31.6.6,0,0,1,0,.86.33.33,0,0,0-.07.3c.11.55.2,1.11.31,1.66a.33.33,0,0,1-.28.46,2.09,2.09,0,0,1-.93,0,.33.33,0,0,1-.27-.44c.11-.56.2-1.12.31-1.69a.32.32,0,0,0-.07-.32.59.59,0,0,1,.06-.86.3.3,0,0,0,.11-.26V6.54c-.1-.06-.16,0-.22,0l-1.66.8c-.13.06-.21.12-.21.28a15.39,15.39,0,0,1-.32,2.88.34.34,0,0,0,.11.37,1,1,0,0,1,.32.6A3.4,3.4,0,0,1,22,13.58a1,1,0,0,1-.52.48,1,1,0,0,0-.6.77,5.36,5.36,0,0,1-4.38,4,4.26,4.26,0,0,1-3.22-.92,5.24,5.24,0,0,1-2.15-3.2.79.79,0,0,0-.46-.56A1.34,1.34,0,0,1,9.83,13a4,4,0,0,1-.11-1.25,1.28,1.28,0,0,1,.37-.86.32.32,0,0,0,.11-.35,16.62,16.62,0,0,1-.33-2.9c0-.19-.11-.24-.24-.3L6.77,6a1.57,1.57,0,0,1-.31-.18.4.4,0,0,1,0-.67,1.48,1.48,0,0,1,.38-.23L15.22.79c.2-.1.4-.17.6-.26Z"/><path class="cls-1" d="M16,31.46H3.35c-.27,0-.33-.07-.32-.33,0-1.73,0-3.47,0-5.2a2.1,2.1,0,0,1,.87-1.78,11.66,11.66,0,0,1,3.2-1.77,27.77,27.77,0,0,0,4.26-2c.52-.3.75-.23,1,.3.73,1.32,1.31,2.71,2.06,4a5.67,5.67,0,0,0,1,1.39.68.68,0,0,0,1.12,0A8.3,8.3,0,0,0,18,23.85c.56-1.07,1.08-2.15,1.63-3.22.26-.5.52-.59,1-.29a42.26,42.26,0,0,0,5.27,2.49,7.71,7.71,0,0,1,2.65,1.75A1.56,1.56,0,0,1,29,25.67q0,2.74,0,5.49c0,.27-.08.31-.32.31Z"/></svg>