<svg id="Layer_1" data-name="Layer 1" xmlns="http://www.w3.org/2000/svg" viewBox="0 0 32 32"><defs><style>.cls-1{fill:#8CC34B;}</style></defs><path class="cls-1" d="M6.33.53H12V2.42H9.68L19,11.74,21.79,8.9l2.51,2.51,2.5,2.51a6.77,6.77,0,0,0-1.53-7,6.68,6.68,0,0,0-3.6-2,6.78,6.78,0,0,0-5.53,1.31l-3-3A11.1,11.1,0,0,1,29.61,17.81a10.66,10.66,0,0,1-6.48,4.63,11,11,0,0,1-9.92-2.22l-2.79,2.7L12,24.48l-7,7a2.78,2.78,0,0,0-.19-.27L.53,26.94v-.06c.08-.07.17-.13.25-.21,2.15-2.14,4.3-4.3,6.45-6.45L7.51,20,9,21.53l2.78-2.7A11.23,11.23,0,0,1,9.84,8l.26.25c1,.94,1.88,1.9,2.85,2.83a1.84,1.84,0,0,1,.6,1.26,6.84,6.84,0,0,0,12.33,3.37l-4.16-4.17-2.83,2.84L8.27,3.78l-.07.05v2.3H6.35V4.7C6.34,3.31,6.34,1.92,6.33.53Z"/><path class="cls-1" d="M16.47,27.71V25.87H31.41v1.84Z"/><path class="cls-1" d="M10.86,31.45V29.62h11.2v1.83Z"/></svg>