<svg id="Layer_1" data-name="Layer 1" xmlns="http://www.w3.org/2000/svg" viewBox="0 0 32 32"><defs><style>.cls-1{fill:#228b22;}</style></defs><path class="cls-1" d="M10.19.5H23.57V7.28c0,.75.34,1.09,1.09,1.09h6.78V28.6a2.73,2.73,0,0,1-2.9,2.9h-14a10.15,10.15,0,0,0,4.2-7.27h7.5a.93.93,0,0,0,.93-.55.91.91,0,0,0-.91-1.27H18.68a10.32,10.32,0,0,0-1-3.63h8.59a.91.91,0,1,0,0-1.82c-3.12,0-6.24,0-9.36,0a.85.85,0,0,1-.69-.31,9.68,9.68,0,0,0-6.51-3.28c-.6-.05-1.2,0-1.8,0,0-.09,0-.13,0-.17,0-3.36,0-6.72,0-10.08a2.41,2.41,0,0,1,1.06-2A7,7,0,0,1,10.19.5Zm9.48,11H13a.91.91,0,0,0-.23,1.79,1.7,1.7,0,0,0,.39,0H26.24a.91.91,0,1,0,0-1.82Z"/><path class="cls-1" d="M8.73,15.15A8.18,8.18,0,1,1,.56,23.31,8.2,8.2,0,0,1,8.73,15.15Zm.91,7.27c0-.91,0-1.79,0-2.66a.91.91,0,1,0-1.81,0q0,1.76,0,3.51a.9.9,0,0,0,1,1h2.3a.91.91,0,1,0,0-1.81Z"/><path class="cls-1" d="M25.41,1.15,30.8,6.54H25.41Z"/></svg>