<?xml version="1.0" encoding="utf-8"?>
<!-- Generator: Adobe Illustrator 25.1.0, SVG Export Plug-In . SVG Version: 6.00 Build 0)  -->
<svg version="1.1" id="Layer_1" xmlns="http://www.w3.org/2000/svg" xmlns:xlink="http://www.w3.org/1999/xlink" x="0px" y="0px"
	 viewBox="0 0 80 80" style="enable-background:new 0 0 80 80;" xml:space="preserve">
<style type="text/css">
	.st0{fill:#FF9801;}
</style>
<g>
	<path class="st0" d="M35.6,31.3v-6.9H41v6.8C39.2,29.7,37.4,29.7,35.6,31.3z"/>
	<rect x="33.3" y="45.3" class="st0" width="10" height="3.7"/>
	<path class="st0" d="M53.4,44.5c0-6.4,0-12.8,0-19.2v-0.9H43.2v0.8c0,2.1,0,4.2,0,6.3c0,1.8-1.3,2.7-2.8,1.8c-1.5-1-2.7-0.9-4.2,0
		c-1.5,0.9-2.8,0-2.8-1.7c0-2.1,0-4.2,0-6.3v-0.8H23.2v30h30.1V51c0-0.2,0-0.5,0-0.7C53.3,48.7,53.4,44.7,53.4,44.5z M45.5,49.3
		c0,1.3-0.7,2-2,2c-1.8,0-3.5,0-5.2,0c-1.7,0-3.5,0-5.2,0c-1.3,0-2-0.7-2-2c0-1.4,0-2.8,0-4.2c0-1.2,0.7-1.9,1.9-2c3.5,0,7,0,10.5,0
		c1.2,0,1.9,0.7,2,2C45.5,46.5,45.5,47.9,45.5,49.3z"/>
	<path class="st0" d="M55.5,30.5v-1.9c0-1.3,0-2.7,0-4c0-1.5-1-2.4-2.5-2.4c-2.1,0-4.1,0-6.2,0c0-4.3,3.8-7.9,8.1-7.8
		c4.6,0.1,8.2,3.8,8.1,8.4C62.9,26.8,59.3,30.6,55.5,30.5z"/>
	<path class="st0" d="M37.3,22.2c0-0.8,0-1.5,0-2.2c0-0.1,0.3-0.4,0.5-0.4c0.7,0,1.4,0,2.1,0c1.3,0,2.1-0.6,2.6-1.8
		c1.1-2.6,0.8-3.1-1-4.8c-0.4-0.3-0.7-0.7-1-0.9c1.4-1.4,2.7-2.7,4.1-4.1c0.5,0.6,1.1,1.2,1.7,1.8c1,1,1.8,1,3.1,0.6
		c2.1-0.6,2.9-1.9,2.7-4.1c-0.1-1.5,0-1.6,1.5-1.6c1.2,0,2.3,0,3.5,0c0.5,0,0.6,0.2,0.6,0.6c0,0.8,0,1.5,0,2.3c0,1,0.5,1.8,1.5,2.2
		c2.7,1.2,3,1.2,5.1-1c0.3-0.3,0.5-0.7,0.8-1c1.5,1.5,2.7,2.7,4.1,4.1c-0.4,0.4-1,1-1.5,1.6c-1.2,1.2-1.3,1.9-0.7,3.4
		c0.1,0.3,0.2,0.6,0.4,0.9c0.4,1.1,1.2,1.6,2.4,1.6c0.8,0,1.5,0,2.3,0c0.4,0,0.5,0.1,0.5,0.6c0,1.5,0,3.1,0,4.6
		c0,0.4-0.2,0.5-0.6,0.5c-0.7,0-1.5,0-2.2,0c-1.2,0-2,0.6-2.5,1.7c-1.2,2.7-0.8,3.2,1,4.8c0.3,0.3,0.7,0.7,1,0.9
		c-1.4,1.4-2.7,2.7-4.2,4.1c-0.5-0.5-1-1.2-1.6-1.8c-1-1-1.8-1.2-3.2-0.6c-0.3,0.1-0.5,0.2-0.8,0.3c-1.3,0.5-1.8,1.2-1.8,2.6
		c0,0.7,0,1.4,0,2.1c0,0.2-0.2,0.5-0.4,0.5c-0.6,0.1-1.2,0-1.8,0v-7.3c3.5-0.4,6.3-2,8.2-5c1.3-2.2,1.7-4.6,1.3-7.1
		c-0.8-4.8-5.1-8.5-10.1-8.5c-4.8,0-9.9,3.5-10.4,10H37.3z"/>
	<path class="st0" d="M65.8,66c0,1.7-1.4,3-3.1,3c-1.7,0-3-1.4-3-3c0-1.7,1.4-3,3.1-3C64.5,63,65.8,64.4,65.8,66z"/>
	<path class="st0" d="M47.5,62.9c-1.7,0-3,1.4-3,3.1c0,1.7,1.4,3,3.1,3c1.7,0,3-1.4,3-3C50.6,64.3,49.2,62.9,47.5,62.9z M47.5,62.9
		c-1.7,0-3,1.4-3,3.1c0,1.7,1.4,3,3.1,3c1.7,0,3-1.4,3-3C50.6,64.3,49.2,62.9,47.5,62.9z M17.1,62.9c-1.6,0-3,1.4-3,3
		c0,1.7,1.4,3,3.1,3c1.7,0,3-1.4,3-3C20.2,64.3,18.8,62.9,17.1,62.9z M32.4,62.9c-1.7,0-3.1,1.4-3.1,3c0,1.7,1.4,3,3,3
		c1.7,0,3-1.3,3.1-3C35.4,64.3,34,63,32.4,62.9z M47.5,62.9c-1.7,0-3,1.4-3,3.1c0,1.7,1.4,3,3.1,3c1.7,0,3-1.4,3-3
		C50.6,64.3,49.2,62.9,47.5,62.9z M47.5,62.9c-1.7,0-3,1.4-3,3.1c0,1.7,1.4,3,3.1,3c1.7,0,3-1.4,3-3C50.6,64.3,49.2,62.9,47.5,62.9z
		 M32.4,62.9c-1.7,0-3.1,1.4-3.1,3c0,1.7,1.4,3,3,3c1.7,0,3-1.3,3.1-3C35.4,64.3,34,63,32.4,62.9z M17.1,62.9c-1.6,0-3,1.4-3,3
		c0,1.7,1.4,3,3.1,3c1.7,0,3-1.4,3-3C20.2,64.3,18.8,62.9,17.1,62.9z M66.1,56.7c-0.2,0-0.3,0-0.5,0c-17.1,0-34.2,0-51.2,0
		c-4.4,0-8,2.6-9.2,6.6c-1.8,5.8,2.6,11.8,8.7,11.9c1.6,0,3.3,0,4.9,0c0,0,0.1,0,0.1,0c1.4,0,8.4,0,9.8,0c12.4,0,24.8,0,37.3,0
		c5.3,0,9.5-4.3,9.3-9.6C75,60.8,71.1,56.9,66.1,56.7z M17.1,71.2c-2.9,0-5.3-2.4-5.2-5.2c0-2.9,2.4-5.2,5.2-5.2
		c2.9,0,5.3,2.4,5.2,5.3C22.3,68.9,20,71.2,17.1,71.2z M32.4,71.2c-2.9,0-5.3-2.3-5.3-5.2c0-2.9,2.3-5.2,5.2-5.2
		c2.9,0,5.3,2.3,5.3,5.2C37.6,68.8,35.2,71.2,32.4,71.2z M47.5,71.2c-2.9,0-5.2-2.3-5.2-5.2c0-2.9,2.4-5.2,5.3-5.2
		c2.9,0,5.2,2.4,5.2,5.2C52.8,68.9,50.4,71.2,47.5,71.2z M62.8,71.2c-2.9,0-5.3-2.3-5.3-5.2c0-2.9,2.4-5.2,5.2-5.2
		c2.9,0,5.3,2.3,5.3,5.2C68,68.8,65.6,71.2,62.8,71.2z M47.5,62.9c-1.7,0-3,1.4-3,3.1c0,1.7,1.4,3,3.1,3c1.7,0,3-1.4,3-3
		C50.6,64.3,49.2,62.9,47.5,62.9z M32.4,62.9c-1.7,0-3.1,1.4-3.1,3c0,1.7,1.4,3,3,3c1.7,0,3-1.3,3.1-3C35.4,64.3,34,63,32.4,62.9z
		 M17.1,62.9c-1.6,0-3,1.4-3,3c0,1.7,1.4,3,3.1,3c1.7,0,3-1.4,3-3C20.2,64.3,18.8,62.9,17.1,62.9z M32.4,62.9c-1.7,0-3.1,1.4-3.1,3
		c0,1.7,1.4,3,3,3c1.7,0,3-1.3,3.1-3C35.4,64.3,34,63,32.4,62.9z M47.5,62.9c-1.7,0-3,1.4-3,3.1c0,1.7,1.4,3,3.1,3c1.7,0,3-1.4,3-3
		C50.6,64.3,49.2,62.9,47.5,62.9z M47.5,62.9c-1.7,0-3,1.4-3,3.1c0,1.7,1.4,3,3.1,3c1.7,0,3-1.4,3-3C50.6,64.3,49.2,62.9,47.5,62.9z
		 M32.4,62.9c-1.7,0-3.1,1.4-3.1,3c0,1.7,1.4,3,3,3c1.7,0,3-1.3,3.1-3C35.4,64.3,34,63,32.4,62.9z"/>
</g>
</svg>
