<svg id="Layer_1" data-name="Layer 1" xmlns="http://www.w3.org/2000/svg" viewBox="0 0 32 32"><defs><style>.cls-1{fill:#ffffff;}</style></defs><path class="cls-1" d="M14,12.2v-3h2.38v3A1.64,1.64,0,0,0,14,12.2Z"/><rect class="cls-1" x="13.03" y="18.35" width="4.4" height="1.63"/><path class="cls-1" d="M21.87,18V9.16H17.38v3.13c0,.79-.57,1.18-1.23.79a1.5,1.5,0,0,0-1.84,0c-.66.39-1.23,0-1.23-.75V9.21H8.59V22.4H21.83V20.55C21.83,19.85,21.87,18.09,21.87,18ZM18.4,20.11a.79.79,0,0,1-.88.88H12.94a.78.78,0,0,1-.87-.88V18.26a.82.82,0,0,1,.83-.88h4.62a.84.84,0,0,1,.88.88Z"/><path class="cls-1" d="M22.79,11.85V9.25a1,1,0,0,0-1.1-1.05H19a3.52,3.52,0,0,1,3.56-3.43,3.6,3.6,0,0,1,3.56,3.69A3.53,3.53,0,0,1,22.79,11.85Z"/><path class="cls-1" d="M14.79,8.2v-1A.32.32,0,0,1,15,7.05h.92a1.13,1.13,0,0,0,1.15-.79c.48-1.14.35-1.36-.44-2.11-.18-.13-.31-.31-.44-.39L18,2c.22.27.48.53.75.8A1.16,1.16,0,0,0,20.11,3a1.49,1.49,0,0,0,1.19-1.8C21.25.55,21.3.5,22,.5H23.5c.22,0,.26.09.26.27v1a1,1,0,0,0,.66,1c1.19.52,1.32.52,2.24-.44.13-.14.22-.31.35-.44l1.81,1.8a9.41,9.41,0,0,0-.66.7,1.12,1.12,0,0,0-.31,1.5,1.65,1.65,0,0,0,.17.39A1,1,0,0,0,29.08,7h1c.18,0,.22,0,.22.26v2c0,.18-.09.22-.26.22h-1a1.14,1.14,0,0,0-1.1.75c-.53,1.19-.35,1.41.44,2.11a3.08,3.08,0,0,0,.44.39c-.62.62-1.19,1.19-1.85,1.81-.22-.22-.44-.53-.7-.79a1.09,1.09,0,0,0-1.41-.27l-.35.13a1.06,1.06,0,0,0-.79,1.15v.92c0,.09-.09.22-.18.22a5.21,5.21,0,0,1-.79,0V12.68a4.7,4.7,0,0,0,3.61-2.2A4.59,4.59,0,0,0,27,7.36a4.53,4.53,0,0,0-4.44-3.74A4.6,4.6,0,0,0,18,8H14.79Z"/><path class="cls-1" d="M27.32,27.45A1.34,1.34,0,1,1,26,26.13,1.33,1.33,0,0,1,27.32,27.45Z"/><path class="cls-1" d="M19.28,26.09a1.34,1.34,0,1,0,0,2.68,1.32,1.32,0,0,0,1.32-1.32A1.37,1.37,0,0,0,19.28,26.09Zm0,0a1.34,1.34,0,1,0,0,2.68,1.32,1.32,0,0,0,1.32-1.32A1.37,1.37,0,0,0,19.28,26.09Zm-13.37,0a1.36,1.36,0,0,0-1.32,1.32,1.34,1.34,0,0,0,2.68,0A1.36,1.36,0,0,0,5.91,26.09Zm6.73,0a1.37,1.37,0,0,0-1.37,1.32,1.33,1.33,0,0,0,1.32,1.32A1.37,1.37,0,0,0,14,27.41,1.39,1.39,0,0,0,12.64,26.09Zm6.64,0a1.34,1.34,0,1,0,0,2.68,1.32,1.32,0,0,0,1.32-1.32A1.37,1.37,0,0,0,19.28,26.09Zm0,0a1.34,1.34,0,1,0,0,2.68,1.32,1.32,0,0,0,1.32-1.32A1.37,1.37,0,0,0,19.28,26.09Zm-6.64,0a1.37,1.37,0,0,0-1.37,1.32,1.33,1.33,0,0,0,1.32,1.32A1.37,1.37,0,0,0,14,27.41,1.39,1.39,0,0,0,12.64,26.09Zm-6.73,0a1.36,1.36,0,0,0-1.32,1.32,1.34,1.34,0,0,0,2.68,0A1.36,1.36,0,0,0,5.91,26.09Zm21.54-2.73H4.72A4.07,4.07,0,1,0,4.5,31.5H27.41a4.06,4.06,0,0,0,4.09-4.22A4.2,4.2,0,0,0,27.45,23.36ZM5.91,29.74A2.29,2.29,0,1,1,8.2,27.5,2.26,2.26,0,0,1,5.91,29.74Zm6.73,0a2.3,2.3,0,0,1-2.33-2.29,2.27,2.27,0,0,1,2.28-2.28,2.3,2.3,0,0,1,2.33,2.28A2.33,2.33,0,0,1,12.64,29.74Zm6.64,0A2.27,2.27,0,0,1,17,27.45a2.31,2.31,0,1,1,2.29,2.29Zm6.72,0a2.29,2.29,0,1,1,2.29-2.29A2.34,2.34,0,0,1,26,29.74Zm-6.72-3.65a1.34,1.34,0,1,0,0,2.68,1.32,1.32,0,0,0,1.32-1.32A1.37,1.37,0,0,0,19.28,26.09Zm-6.64,0a1.37,1.37,0,0,0-1.37,1.32,1.33,1.33,0,0,0,1.32,1.32A1.37,1.37,0,0,0,14,27.41,1.39,1.39,0,0,0,12.64,26.09Zm-6.73,0a1.36,1.36,0,0,0-1.32,1.32,1.34,1.34,0,0,0,2.68,0A1.36,1.36,0,0,0,5.91,26.09Zm6.73,0a1.37,1.37,0,0,0-1.37,1.32,1.33,1.33,0,0,0,1.32,1.32A1.37,1.37,0,0,0,14,27.41,1.39,1.39,0,0,0,12.64,26.09Zm6.64,0a1.34,1.34,0,1,0,0,2.68,1.32,1.32,0,0,0,1.32-1.32A1.37,1.37,0,0,0,19.28,26.09Zm0,0a1.34,1.34,0,1,0,0,2.68,1.32,1.32,0,0,0,1.32-1.32A1.37,1.37,0,0,0,19.28,26.09Zm-6.64,0a1.37,1.37,0,0,0-1.37,1.32,1.33,1.33,0,0,0,1.32,1.32A1.37,1.37,0,0,0,14,27.41,1.39,1.39,0,0,0,12.64,26.09Z"/></svg>