<svg id="Layer_1" data-name="Layer 1" xmlns="http://www.w3.org/2000/svg" viewBox="0 0 32 32"><defs><style>.cls-1{fill:#ffffff;}</style></defs><path class="cls-1" d="M7.31,32l-.12-.08a1,1,0,0,1-.54-1.05.93.93,0,0,1,.95-.74h2.77V18.83H16v11.3h2.67a1,1,0,0,1,1.08.74A1,1,0,0,1,19.1,32a.1.1,0,0,0,0,.05Z"/><path class="cls-1" d="M14.13,7.5c.78,0,1.52,0,2.27,0C17.57,7.44,18,7.83,17.88,9c0,.13,0,.25,0,.42h4.59A6.62,6.62,0,0,1,29.13,16v.92H30a.94.94,0,1,1,0,1.87q-3.64,0-7.31,0a.94.94,0,1,1,0-1.87h.8a8.33,8.33,0,0,0,0-1.12.85.85,0,0,0-.81-.74c-1.59,0-3.17,0-4.78,0,0,.31,0,.59,0,.88a.93.93,0,0,1-1,1H9.49a.93.93,0,0,1-1-1V8.46a.92.92,0,0,1,1-1h2.78c0-.65,0-1.29,0-1.92a.28.28,0,0,0-.15-.19,2.8,2.8,0,0,1-1.47-1.46c0-.07-.12-.17-.18-.17a9.37,9.37,0,0,0-1.68.1A2.72,2.72,0,0,0,6.63,6.62q0,4,0,8a5.16,5.16,0,0,1-.9,3c-1,1.47-2,3-3,4.44a.93.93,0,0,1-1,.47A.9.9,0,0,1,1,21.84a1,1,0,0,1,.2-.85c1-1.45,1.93-2.91,2.92-4.36a3.46,3.46,0,0,0,.61-2c0-2.64,0-5.27,0-7.9A4.66,4.66,0,0,1,9.58,1.89a1.26,1.26,0,0,0,1.35-.68,2.62,2.62,0,0,1,3-1.12A2.83,2.83,0,0,1,16,2.53,2.76,2.76,0,0,1,14.45,5.3a.5.5,0,0,0-.33.56C14.14,6.39,14.13,6.92,14.13,7.5Z"/><path class="cls-1" d="M26.33,28.19a2.78,2.78,0,0,1-2.69-3.58,12.87,12.87,0,0,1,1.95-3.56A.91.91,0,0,1,27,21a11.22,11.22,0,0,1,2.06,3.89A2.76,2.76,0,0,1,26.33,28.19Z"/></svg>