<svg id="Layer_1" data-name="Layer 1" xmlns="http://www.w3.org/2000/svg" viewBox="0 0 80 80"><defs><style>.cls-1{fill:#ffffff;}</style></defs><path class="cls-1" d="M44.45.15A6.8,6.8,0,0,1,50.23,6.4a70.93,70.93,0,0,0-22.85,0A6.79,6.79,0,0,1,33.16.15C33.41,0,33.72.2,34,0h9.67C43.89.2,44.19,0,44.45.15Z"/><path class="cls-1" d="M34,0a.9.9,0,0,1-.81.13.5.5,0,0,1,0-.13Z"/><path class="cls-1" d="M44.45.15A.9.9,0,0,1,43.64,0h.78Z"/><path class="cls-1" d="M22.17,42.53a35.73,35.73,0,0,1-10.05-4.44,17.47,17.47,0,0,1-4.73-4.46,10.33,10.33,0,0,1,.67-13.26,23.22,23.22,0,0,1,9-6.2,53.94,53.94,0,0,1,18.07-3.91,61.73,61.73,0,0,1,20.2,2.07A32.08,32.08,0,0,1,67.08,18a17,17,0,0,1,3,3.08c3.19,4.33,3,9.32-.56,13.48a24,24,0,0,1-9.16,6.27,36.23,36.23,0,0,1-4.76,1.66c-.21-.22-.1-.46-.1-.67.19-5.09.37-10.18.59-15.26.14-3.13-.17-3.57-3.2-4.23a64.41,64.41,0,0,0-29.39.31,2.38,2.38,0,0,0-1.95,2.69c.1,3.25.25,6.49.37,9.74C22,37.53,22.07,40,22.17,42.53Z"/><path class="cls-1" d="M26.59,35.81c-.1-2.8-.19-5.61-.31-8.41,0-.43,0-.64.53-.73a60.08,60.08,0,0,1,24,0c.45.1.57.26.55.72-.23,5.52-.39,11.05-.67,16.57a11.88,11.88,0,0,1-23.55,1.34,76.6,76.6,0,0,1-.47-8.7c0-.26,0-.52,0-.78Z"/><path class="cls-1" d="M24.93,66.68c3.75,4.42,8.31,6.75,13.91,6.74S49,71.09,52.68,66.68v1c0,3.82,0,7.64,0,11.46,0,.58-.13.72-.71.71q-13.18,0-26.35,0c-.58,0-.72-.13-.72-.71C24.94,75.07,24.93,71,24.93,66.68Z"/><path class="cls-1" d="M38.49,68.77A12.33,12.33,0,0,1,29.82,65c-.52-.55-1.05-1.09-1.6-1.6a.62.62,0,0,1-.18-.8c.62-1.62,1.21-3.25,1.79-4.89.14-.4.23-.52.68-.28a16.36,16.36,0,0,0,16.61,0c.44-.25.53-.12.67.27.58,1.63,1.18,3.26,1.76,4.89.09.24.22.44,0,.7-1.71,1.7-3.33,3.5-5.67,4.4A14.81,14.81,0,0,1,38.49,68.77Z"/><path class="cls-1" d="M20.25,72.43c0,2.26,0,4.51,0,6.77,0,.5-.12.65-.64.64-3.08,0-6.17,0-9.26,0a2.32,2.32,0,0,1-2.46-3.06c.4-1.72.78-3.44,1.27-5.13A9.24,9.24,0,0,1,17.85,65c.77,0,1.79-.27,2.25.11s.14,1.46.15,2.23C20.27,69.05,20.25,70.74,20.25,72.43Z"/><path class="cls-1" d="M57.35,72.35c0-2.23,0-4.46,0-6.69,0-.49.09-.66.62-.66a13.29,13.29,0,0,1,4.61.53,9.2,9.2,0,0,1,6,6.54c.42,1.57.78,3.16,1.15,4.75a2.32,2.32,0,0,1-2.32,3c-3.17,0-6.34,0-9.5,0-.44,0-.56-.12-.56-.56C57.36,77,57.35,74.66,57.35,72.35Z"/></svg>