<?xml version="1.0" encoding="utf-8"?>
<!-- Generator: Adobe Illustrator 25.1.0, SVG Export Plug-In . SVG Version: 6.00 Build 0)  -->
<svg version="1.1" id="Layer_1" xmlns="http://www.w3.org/2000/svg" xmlns:xlink="http://www.w3.org/1999/xlink" x="0px" y="0px"
	 viewBox="0 0 80 80" style="enable-background:new 0 0 80 80;" xml:space="preserve">
<style type="text/css">
	.st0{fill:#EA1E63;}
</style>
<path class="st0" d="M42.5,23.2c-2.6,1.8-4.9,1.8-7.5,0c-0.3,0.2-0.6,0.5-1,0.7c-2,1.6-3.9,3.1-5.9,4.7c-0.4,0.3-0.5,0.5-0.3,1
	c0.9,2.3,0.2,4.8-1.5,6.3c-1.8,1.6-4.2,2-6.4,1c-2.2-1-3.5-3.2-3.4-5.6c0.2-4.4,5.2-7,8.9-4.6c0.2,0.1,0.4,0.3,0.7,0.5
	c1.2-1,2.4-1.9,3.7-2.9c1.2-1,2.4-1.9,3.7-2.9c-0.7-1.6-0.9-3.3-0.2-4.9c0.5-1.1,1.2-2,2.3-2.7c2.1-1.3,4.7-1.2,6.7,0.3
	c2.2,1.7,2.7,4.1,1.7,7.3c2.4,1.9,4.9,3.8,7.3,5.8c0.5-0.3,0.9-0.6,1.4-0.8c1.3-0.6,2.6-0.7,4-0.3c0.3,0.1,0.6,0.1,0.8-0.2
	c2.1-3.3,4.2-6.5,6.4-9.8c-0.8-0.9-1.4-2-1.6-3.2c-0.6-3.3,1.8-6.5,5.2-6.8c3.3-0.3,6.3,2.3,6.4,5.6c0.1,3.5-2.7,6.3-6.1,6.1
	c-0.2,0-0.4,0-0.6-0.1c-1.3-0.2-1.3-0.2-2,0.9c-1.8,2.8-3.6,5.6-5.4,8.3c-0.1,0.2-0.3,0.5-0.4,0.7c1.1,1.2,1.7,2.5,1.7,4.2
	c-0.1,2.5-1.2,4.3-3.5,5.4c-2.3,1-4.5,0.6-6.3-1.1c-1.8-1.7-2.3-3.8-1.5-6.2c0.2-0.5,0.1-0.8-0.3-1.1C47.1,26.8,44.8,25,42.5,23.2z
	 M38.7,15.3c-1.9,0-3.5,1.6-3.5,3.5c0,2,1.6,3.5,3.5,3.5c1.9,0,3.5-1.6,3.5-3.5C42.3,16.8,40.7,15.3,38.7,15.3z M22.4,28.1
	c-1.9,0-3.5,1.6-3.5,3.5c0,2,1.6,3.5,3.5,3.5c1.9,0,3.5-1.6,3.5-3.5C25.9,29.7,24.3,28.1,22.4,28.1z M58.6,31.6
	c0-1.9-1.6-3.5-3.5-3.5c-1.9,0-3.5,1.6-3.5,3.5c0,1.9,1.6,3.5,3.5,3.5C57,35.2,58.6,33.6,58.6,31.6z M68,8.2c-1.9,0-3.5,1.6-3.5,3.5
	c0,1.9,1.6,3.5,3.5,3.5c1.9,0,3.5-1.6,3.5-3.5C71.5,9.8,69.9,8.2,68,8.2z"/>
<path class="st0" d="M71.5,71.4c0-1.2,0-2.3,0-3.5c-0.3,0-0.6,0-0.9,0c-7,0-14,0-21,0c-0.2,0-0.5,0-0.7,0c-0.6-0.1-1.1-0.6-1-1.2
	c0-0.7,0.4-1,1-1.1c0.2,0,0.5,0,0.7,0c7,0,14,0,21,0c0.3,0,0.6,0,0.9,0c0-1.2,0-2.3,0-3.5c-0.3,0-0.6,0-0.8,0c-6.5,0-13.1,0-19.6,0
	c-0.2,0-0.5,0-0.7,0c-0.6-0.1-1-0.5-1-1.2c0-0.6,0.4-1,1-1.1c0.2,0,0.5,0,0.7,0c5,0,9.9,0,14.9,0c0.3,0,0.5,0,0.8,0
	c0-1.2,0-2.3,0-3.5c-0.3,0-0.5,0-0.8,0c-5.2,0-10.4,0-15.6,0c-0.2,0-0.5,0-0.7,0C49,56,48.7,55.7,48.7,55c0-0.6,0.4-1,0.9-1.1
	c0.2-0.1,0.5,0,0.7,0c6.7,0,13.5,0,20.2,0c0.3,0,0.6,0,0.9,0c0-1.2,0-2.3,0-3.5c-0.3,0-0.6,0-0.8,0c-7.6,0-15.2,0-22.7,0
	c-0.2,0-0.3,0-0.5,0c-1,0-1.6-0.4-1.6-1.2c0-0.7,0.6-1.1,1.6-1.1c3.9,0,7.9,0,11.8,0c4,0,8,0,12,0c1.8,0,2.7,0.9,2.7,2.7
	c0,1,0,2,0,3.1c0,1.4-1,2.4-2.4,2.4c-0.7,0-1.5,0-2.3,0c0,0.6,0,1.2,0,1.8c0,0.6,0,1.1,0,1.7c0.8,0,1.5,0,2.2,0c1.4,0,2.4,1,2.4,2.4
	c0,0.5-0.1,1.1,0,1.6c0.2,1.2-0.3,2.4-0.1,3.7c0.2,1.2,0.1,2.5,0.1,3.7c0,1.7-0.9,2.6-2.6,2.6c-8.7,0-17.4,0-26,0
	c-0.2,0-0.3,0-0.5,0c-0.6-0.1-1-0.5-1-1.1c0-0.6,0.4-1,1-1.2c0.2,0,0.5,0,0.7,0c8.4,0,16.8,0,25.1,0C70.8,71.4,71.1,71.4,71.5,71.4z
	"/>
<path class="st0" d="M32.9,45.7c7.7,0,14,6.3,14,14c0,7.7-6.2,14.1-13.9,14.1c-7.9,0-14.2-6.2-14.2-14.1
	C18.9,52,25.2,45.7,32.9,45.7z M33,71.4c6.4,0,11.6-5.3,11.6-11.6C44.6,53.3,39.4,48,33,48c-6.5,0-11.8,5.2-11.8,11.7
	C21.2,66.2,26.5,71.4,33,71.4z"/>
<path class="st0" d="M6,51.7C6.2,46.9,8.8,42.4,14,40c5.2-2.4,10.1-1.7,14.7,1.7c0.3,0.2,0.6,0.7,0.6,1.1c0,0.4-0.3,0.9-0.6,1
	c-0.4,0.1-1,0.1-1.3-0.2c-1.4-1-2.9-1.8-4.6-2.2c-6-1.5-12.1,1.9-14,7.8c-1.8,5.9,1.2,12.3,7,14.4c0.2,0.1,0.4,0.1,0.6,0.2
	c0.7,0.2,1.1,0.8,0.9,1.4c-0.2,0.7-0.8,1.1-1.5,0.8c-3.1-0.9-5.5-2.7-7.4-5.3C6.8,58.3,6,55.6,6,51.7z"/>
<path class="st0" d="M20.1,43.2c1,0.2,2.1,0.4,3.1,0.7c0.9,0.3,1.3,0.9,1,1.6c-0.2,0.7-0.9,0.9-1.8,0.6c-4.4-1.5-8.7,1.1-9.4,5.7
	c-0.4,2.7,0.6,4.9,2.7,6.5c0.4,0.3,0.8,0.7,0.7,1.3c-0.1,0.9-1.1,1.3-2,0.7c-2-1.5-3.2-3.4-3.7-5.8C9.8,48.6,14.2,43.4,20.1,43.2z"
	/>
<path class="st0" d="M33,50.4c5.1,0,9.3,4.2,9.3,9.3c0,5.2-4.2,9.4-9.4,9.4c-5.2,0-9.4-4.2-9.3-9.4C23.6,54.5,27.8,50.4,33,50.4z
	 M32.9,66.7c3.9,0,7-3.2,7-7.1c0-3.8-3.2-6.9-7-6.9c-3.9,0-7,3.2-7,7C25.9,63.6,29.1,66.8,32.9,66.7z"/>
<path class="st0" d="M31.7,64.4c-0.3,0-0.6,0-0.9,0c-0.8,0-1.4-0.5-1.4-1.2c0-0.7,0.5-1.1,1.3-1.1c0.8,0,1.7,0,2.5,0
	c0.4,0,0.8-0.1,0.8-0.6c0-0.5-0.4-0.6-0.8-0.6c-0.4,0-0.8,0-1.2,0c-1.5,0-2.7-1-2.9-2.4c-0.2-1.5,0.6-2.8,2-3.3
	c0.2-0.1,0.5-0.3,0.6-0.5c0.2-0.5,0.6-0.8,1.1-0.8c0.6,0,0.9,0.3,1.1,0.9c0,0.1,0.1,0.2,0.1,0.3c0.3,0,0.6,0,0.9,0
	c0.8,0,1.3,0.5,1.3,1.2c0,0.7-0.5,1.2-1.3,1.2c-0.9,0-1.7,0-2.6,0c-0.4,0-0.8,0.1-0.8,0.6c0,0.5,0.4,0.6,0.8,0.6c0.4,0,0.8,0,1.2,0
	c1.5,0,2.7,1,2.9,2.5c0.2,1.4-0.6,2.8-2,3.3c-0.2,0.1-0.5,0.2-0.6,0.4c-0.2,0.6-0.6,0.9-1.3,0.9C32.2,65.5,31.8,65,31.7,64.4z"/>
</svg>
