<svg id="Layer_1" data-name="Layer 1" xmlns="http://www.w3.org/2000/svg" viewBox="0 0 32 32"><defs><style>.cls-1{fill:#ffffff;}</style></defs><path class="cls-1" d="M25.06,18.26V9.45c0-.72.2-.93.92-.93H28.2c.59,0,.83.24.83.82V27.22c0,.58-.22.8-.8.81H25.87c-.59,0-.81-.23-.81-.83Z"/><path class="cls-1" d="M17.69,20.17v-7c0-.67.22-.89.89-.89h2.26c.59,0,.83.24.83.81V27.22c0,.58-.23.8-.8.81H18.51c-.6,0-.82-.23-.82-.83Z"/><path class="cls-1" d="M14.31,22.26c0,1.63,0,3.25,0,4.88,0,.69-.19.89-.88.89H11.1c-.53,0-.77-.23-.77-.77v-10c0-.54.24-.78.77-.78h2.42c.55,0,.78.23.78.79C14.31,18.91,14.31,20.59,14.31,22.26Z"/><path class="cls-1" d="M16,30H29.46a.73.73,0,0,1,.77,1,.62.62,0,0,1-.58.48H2.57c-.62,0-.93-.36-.82-.94A.64.64,0,0,1,2.37,30c.11,0,.22,0,.33,0Z"/><path class="cls-1" d="M27.51,1.6l-1.57.08a.5.5,0,0,1-.57-.37.49.49,0,0,1,.44-.65C26.9.59,28,.54,29.07.5a.48.48,0,0,1,.47.57c-.14,1-.29,2.07-.45,3.1a.5.5,0,0,1-.58.47.5.5,0,0,1-.44-.6c.06-.52.14-1,.23-1.63a1.93,1.93,0,0,0-.24.16A74.34,74.34,0,0,1,4.64,16.46l-1.76.63c-.41.15-.7.06-.81-.25s.05-.57.46-.71a79.09,79.09,0,0,0,12-5.31,70.81,70.81,0,0,0,12.82-9l.22-.16Z"/><path class="cls-1" d="M3,24.22v-3c0-.59.23-.83.82-.83.79,0,1.57,0,2.36,0,.57,0,.8.24.8.82v6c0,.6-.22.81-.82.82H3.73C3.2,28,3,27.79,3,27.25Z"/></svg>