<?xml version="1.0" encoding="utf-8"?>
<!-- Generator: Adobe Illustrator 25.1.0, SVG Export Plug-In . SVG Version: 6.00 Build 0)  -->
<svg version="1.1" id="Layer_1" xmlns="http://www.w3.org/2000/svg" xmlns:xlink="http://www.w3.org/1999/xlink" x="0px" y="0px"
	 viewBox="0 0 80 80" style="enable-background:new 0 0 80 80;" xml:space="preserve">
<style type="text/css">
	.st0{fill:#FFFFFF;}
</style>
<g>
	<path class="st0" d="M76.9,38.7c1.2-4.5-1.9-10.3-6.3-12.1c-0.5,0.4-1,0.8-1.4,1.2c0.6,1.7,1.3,3.3,1.9,4.9
		c0.3,0.8,0.4,1.7,0.3,2.6c-0.1,1.8-1.1,2.6-2.9,2.4c-1.9-0.2-3.5-1.1-5-2.1c-5.6-3.5-11.8-2.1-15.9,2.1c-0.2,0.2-0.3,0.4-0.3,0.6
		c-0.2,1.5-0.3,3.1-0.4,4.7c0.8,0.3,1.6,0.2,2.3-0.5c0.6-0.5,1.3-0.9,1.9-1.2c3.2-1.8,6.1-1.6,9,0.6c2.1,1.6,4.4,2.6,7,3
		C71.5,45.5,75.7,42.9,76.9,38.7z"/>
	<path class="st0" d="M45.8,13.6c1.1,3.7,3.1,6.9,6.5,9c4.6,2.7,9.6,3.1,14.8,2.9c-0.2-0.4-0.3-0.7-0.4-1c-2.3-4.6-5.5-8.3-9.5-11.3
		c-2-1.5-4.1-2.8-6.2-4.1c-0.9-0.6-1.2-1.5-0.6-2.2c0.5-0.5,1.1-0.6,1.9-0.2c6.4,3.4,11.6,8.1,15.5,14.2c0.1,0.2,0.3,0.4,0.4,0.6
		c0.1,0,0.2-0.1,0.3-0.1c-0.4-2.3-0.7-4.6-1.3-6.8c-1.1-4.2-3.3-7.6-7.3-9.7c-4.6-2.4-9.6-2.8-14.7-2.4c-0.5,0-0.6,0.3-0.6,0.7
		C44.5,6.6,44.8,10.1,45.8,13.6z"/>
	<path class="st0" d="M51.5,47.5c0-0.5-0.2-0.6-0.5-0.7c-2-0.4-3.9-0.8-5.9-1.1c-1.6-0.2-2.1-0.9-1.5-2.4c0.8-1.8,1.1-3.8,0.8-5.7
		c0-0.3-0.3-0.6-0.6-0.7c-5.8-1.5-11.6-2.3-17.5-1.8c-8.4,0.7-14.5,4.8-18,12.4c-3.5,7.6-4.4,15.6-4.3,23.8c0,1.7,1.1,2.9,2.6,3.4
		c6.1,2.1,12.4,3.4,19.7,3.6c0.9-0.1,2.5-0.1,4.2-0.3c3.9-0.5,7.5-1.7,10.7-4.2c3.5-2.8,5.7-6.5,7.3-10.6
		C50.2,58.1,51.1,52.8,51.5,47.5z M13.4,49.1c-1.9,3.8-3,7.8-3.5,12c-0.4,3.2-0.5,6.3-0.7,9.5c-0.1,1-0.5,1.6-1.4,1.6
		c-0.8,0-1.3-0.6-1.3-1.6c0-0.1,0-0.3,0-0.4c0-0.5,0-1,0-1.5c0.2-6.3,1-12.5,3.4-18.4c1.4-3.4,3.3-6.5,6.3-8.8
		c2.9-2.2,6.2-3.2,9.7-3.6c1.2-0.1,2.4-0.2,3.7-0.2c1,0,1.5,0.5,1.5,1.3c0,0.8-0.6,1.3-1.5,1.4c-2.1,0.2-4.3,0.3-6.4,0.8
		C18.6,42.1,15.5,45,13.4,49.1z M38.6,72.1c-3,2-6.3,2.9-9.8,3.2c-0.7,0.1-1.4,0.1-2.1,0.2c-0.3,0-0.6,0-1,0c-0.8,0-1.4-0.7-1.4-1.4
		c0-0.7,0.6-1.3,1.4-1.3c2.5-0.1,4.9-0.2,7.3-1c1.4-0.5,2.8-1.2,4.1-1.9c0.9-0.5,1.6-0.5,2.1,0.2C39.7,70.8,39.5,71.6,38.6,72.1z"/>
</g>
</svg>
