<svg id="Layer_1" data-name="Layer 1" xmlns="http://www.w3.org/2000/svg" viewBox="0 0 32 32"><defs><style>.cls-1{fill:#ffffff;}</style></defs><path class="cls-1" d="M29.34,5.15H2.86A2.46,2.46,0,0,0,.11,7.92c0,5.55,0,11.11,0,16.66a2.63,2.63,0,0,0,2.8,2.81c4.4-.06,8.8,0,13.21,0H29.37a2.45,2.45,0,0,0,2.72-2.73V7.91A2.46,2.46,0,0,0,29.34,5.15ZM3.37,10A1.55,1.55,0,0,1,5,8.42q1.91,0,3.81,0a1.58,1.58,0,0,1,1.62,1.64q0,1.33,0,2.64a1.6,1.6,0,0,1-1.63,1.65c-.63,0-1.25,0-1.88,0s-1.26,0-1.88,0a1.58,1.58,0,0,1-1.64-1.63C3.35,11.82,3.35,10.92,3.37,10Zm.83,9.76A.81.81,0,0,1,3.37,19a.78.78,0,0,1,.86-.79q1,0,2.07,0a.8.8,0,0,1,.85.77.85.85,0,0,1-.82.85H5.27C4.91,19.79,4.56,19.81,4.2,19.79Zm8.06,4.12a1.05,1.05,0,0,1-.69.2c-1.2,0-2.4,0-3.61,0s-2.39,0-3.6,0c-.65,0-1-.29-1-.81s.34-.81,1-.81h7.25c.43,0,.83.12.91.56A1.23,1.23,0,0,1,12.26,23.91Zm-.38-4.15a18.9,18.9,0,0,1-2.38,0,.76.76,0,0,1-.72-.82.79.79,0,0,1,.79-.76c.37,0,.75,0,1.12,0s.74,0,1.11,0a.8.8,0,0,1,.08,1.58Zm5.39,0a22.64,22.64,0,0,1-2.33,0A.79.79,0,0,1,14.2,19a.81.81,0,0,1,.83-.78c.36,0,.71,0,1.07,0s.74,0,1.11,0a.79.79,0,0,1,.79.76A.8.8,0,0,1,17.27,19.77Zm2.37-.83a.77.77,0,0,1,.79-.76c.37,0,.74,0,1.11,0s.71,0,1.06,0a.8.8,0,0,1,.82.79.79.79,0,0,1-.75.81,20,20,0,0,1-2.32,0A.75.75,0,0,1,19.64,18.94Zm3.81,6a.38.38,0,1,1,.37-.38A.38.38,0,0,1,23.45,25Zm1.34-1.2a.38.38,0,0,1-.56,0,1.14,1.14,0,0,0-1.56,0,.38.38,0,0,1-.58,0,.39.39,0,0,1,.11-.57,1.91,1.91,0,0,1,1.25-.46,1.89,1.89,0,0,1,1.25.47A.39.39,0,0,1,24.79,23.79ZM26,22.45a.37.37,0,0,1-.63.2A3.28,3.28,0,0,0,24,22a3.08,3.08,0,0,0-2.42.56c-.31.22-.53.24-.68,0s-.07-.42.23-.64a3.88,3.88,0,0,1,2.42-.76,3.78,3.78,0,0,1,2.29.82A.4.4,0,0,1,26,22.45Zm2-2.66c-.35,0-.71,0-1.06,0s-.71,0-1.06,0a.83.83,0,0,1-.85-.83.81.81,0,0,1,.87-.79c.69,0,1.38,0,2.08,0a.77.77,0,0,1,.83.77A.8.8,0,0,1,28,19.79Zm-.16-8.69H20.65c-.66,0-1-.28-1-.8s.35-.82,1-.83h7.2c.65,0,1,.32,1,.84S28.48,11.1,27.86,11.1Z"/><path class="cls-1" d="M5,10.06H8.74v2.63H5Z"/></svg>