<svg id="Layer_1" data-name="Layer 1" xmlns="http://www.w3.org/2000/svg" viewBox="0 0 32 32"><defs><style>.cls-1{fill:#ffffff;}</style></defs><path class="cls-1" d="M13.22,3.8V.5H10.46V11.77H21.68V.5H18.87V3.85a.75.75,0,0,1-.86.86H14.12C13.44,4.71,13.22,4.44,13.22,3.8Z"/><path class="cls-1" d="M.5,31.5H4.71V29.6c0-.63.27-.91.9-.91h6.61c.73,0,.95.23.95.95V31.5h5.66V29.6c0-.68.22-.91.9-.91H26.3c.76,0,1,.23,1,1V31.5H31.5V25.89H.5Z"/><rect class="cls-1" x="14.62" y="0.5" width="2.76" height="2.76"/><path class="cls-1" d="M15.3,13.22H11.81v3.39a.69.69,0,0,1-.77.77H6.93a.69.69,0,0,1-.77-.77V13.17H3.35V24.39h12Z"/><rect class="cls-1" x="7.56" y="13.22" width="2.81" height="2.76"/><rect class="cls-1" x="21.68" y="13.22" width="2.81" height="2.76"/><path class="cls-1" d="M28.69,13.22h-2.8v3.39a.73.73,0,0,1-.82.82h-4c-.59,0-.81-.28-.81-.82V13.26H16.79V24.49h11.9Z"/></svg>