<svg id="Layer_1" data-name="Layer 1" xmlns="http://www.w3.org/2000/svg" viewBox="0 0 32 32"><defs><style>.cls-1{fill:#ffffff;}</style></defs><path class="cls-1" d="M7,31.5c.12-.12.24-.08.36,0Z"/><path class="cls-1" d="M24.64,31.5a.24.24,0,0,1,.32,0Z"/><path class="cls-1" d="M12.36,7.86c-1-1.53-2.1-3-3.14-4.51-.12-.2-.12-.28.08-.4A13.16,13.16,0,0,1,13.65.82a9.32,9.32,0,0,1,6.6.68A15.86,15.86,0,0,1,22.75,3c.2.08.16.16.08.32-1,1.53-2.1,3-3.14,4.55l0,0c-.12.08-.29,0-.45,0H12.84a1.64,1.64,0,0,1-.44,0Z"/><path class="cls-1" d="M19.73,9.8s-.08-.09-.08-.13A2.17,2.17,0,0,1,19,8.83a.12.12,0,0,1,0-.16,2.4,2.4,0,0,1,.65-.81h0a11.3,11.3,0,0,1,2,.12,3.83,3.83,0,0,1,2.86,3.22c0,.21,0,.33-.28.33-.49,0-.93,0-1.41,0-.16,0-.2,0-.2-.16a1.88,1.88,0,0,0-2-1.66h-.76C19.81,9.67,19.69,9.63,19.73,9.8Z"/><path class="cls-1" d="M12.36,9.67a.12.12,0,0,1-.08.13c0-.21-.12-.13-.2-.13H10.55c-.16,0-.21,0-.21-.2V8.06c0-.2.09-.2.25-.2h1.77a2.28,2.28,0,0,1,.64.85.12.12,0,0,1,0,.16A3.13,3.13,0,0,1,12.36,9.67Z"/><path class="cls-1" d="M29.11,22.88c-2.3-3.14-4.51-6.32-6.77-9.46-.88-1.21-1.73-2.42-2.61-3.62-.08,0,0-.17-.12-.17a1.71,1.71,0,0,0-.45,0H12.88a1.64,1.64,0,0,0-.44,0c-.08,0-.08.13-.12.17-.49.68-1,1.32-1.45,2-2.7,3.74-5.4,7.49-8.06,11.27a5.34,5.34,0,0,0,2.54,8c.48.2,1,.24,1.49.4H7a.59.59,0,0,1,.37,0H24.64a.44.44,0,0,1,.32,0h.12s0,0,.08,0A4.72,4.72,0,0,0,26.94,31,5.42,5.42,0,0,0,29.11,22.88Zm-9.91.61a4.21,4.21,0,0,1-.8,1.08,4.26,4.26,0,0,1-1.13.81,2.7,2.7,0,0,1-1.21.32,3.66,3.66,0,0,1-.64,0,2,2,0,0,1-.69-.2,1.3,1.3,0,0,1-.52-.52A1.71,1.71,0,0,1,14,24V21.88h-.28l-1.21-1.17H14v-.77a.51.51,0,0,1,0-.24v-.44a.36.36,0,0,0-.12-.28c0-.08-.16-.08-.32-.08a.24.24,0,0,0-.16,0,1.1,1.1,0,0,0-.29.16l-.4-1.17a4.85,4.85,0,0,1,.56-.2,2.18,2.18,0,0,1,.53-.08,1.43,1.43,0,0,1,.76.16,1.47,1.47,0,0,1,.45.4,1.34,1.34,0,0,1,.2.57,3.44,3.44,0,0,1,0,.64v1.25h.16l1.05,1v0a1.66,1.66,0,0,1,.32-1,1.33,1.33,0,0,1,1-.36,1.6,1.6,0,0,1,.81.16,1.14,1.14,0,0,1,.52.44,1.86,1.86,0,0,1,.29.64,4.66,4.66,0,0,1,.08.77A2.5,2.5,0,0,1,19.2,23.49Z"/><path class="cls-1" d="M16.87,22.6a.94.94,0,0,1-.4-.72H15.22V24c0,.36.24.52.72.52a1.44,1.44,0,0,0,.65-.16,5.21,5.21,0,0,0,.6-.4,3,3,0,0,0,.44-.56,1.7,1.7,0,0,0,.2-.57A1.44,1.44,0,0,1,16.87,22.6Z"/></svg>