<svg id="Layer_1" data-name="Layer 1" xmlns="http://www.w3.org/2000/svg" viewBox="0 0 32 32"><defs><style>.cls-1{fill:#ffffff;}</style></defs><path class="cls-1" d="M18.25.55A2.66,2.66,0,0,1,20.54,3a28.81,28.81,0,0,0-9.08,0A2.66,2.66,0,0,1,13.75.55c.11-.05.23,0,.33-.05h3.84C18,.57,18.15.5,18.25.55Z"/><path class="cls-1" d="M14.08.5a.38.38,0,0,1-.33.05l0-.05Z"/><path class="cls-1" d="M18.25.55A.38.38,0,0,1,17.92.5h.31Z"/><path class="cls-1" d="M9.38,17a14.64,14.64,0,0,1-4-1.72A7.13,7.13,0,0,1,3.5,13.55,4,4,0,0,1,3.77,8.4,9.17,9.17,0,0,1,7.36,6a21.74,21.74,0,0,1,7.18-1.52,25,25,0,0,1,8,.8,12.88,12.88,0,0,1,4.67,2.21,6.65,6.65,0,0,1,1.18,1.19,3.92,3.92,0,0,1-.22,5.24,9.64,9.64,0,0,1-3.65,2.43,13.55,13.55,0,0,1-1.89.64c-.08-.08,0-.17,0-.26.08-2,.15-4,.24-5.92.05-1.22-.07-1.39-1.28-1.65A26.51,26.51,0,0,0,9.9,9.28a.93.93,0,0,0-.77,1.05c0,1.26.09,2.52.14,3.78C9.31,15.07,9.35,16,9.38,17Z"/><path class="cls-1" d="M11.14,14.4c0-1.09-.07-2.18-.12-3.26,0-.17,0-.25.21-.29a24.26,24.26,0,0,1,9.53,0c.19,0,.23.1.23.28-.1,2.14-.16,4.29-.27,6.43a4.74,4.74,0,0,1-9.37.52,29.33,29.33,0,0,1-.19-3.38v-.3Z"/><path class="cls-1" d="M10.48,26.39a7.14,7.14,0,0,0,11,0v.38c0,1.48,0,3,0,4.45,0,.23-.06.28-.29.28-3.49,0-7,0-10.48,0-.23,0-.29-.05-.28-.28C10.49,29.65,10.48,28.07,10.48,26.39Z"/><path class="cls-1" d="M15.87,27.2a4.93,4.93,0,0,1-3.44-1.45c-.21-.21-.42-.42-.64-.62a.24.24,0,0,1-.07-.31c.25-.63.48-1.26.71-1.9.06-.15.09-.2.27-.11a6.61,6.61,0,0,0,6.61,0c.17-.09.21,0,.27.11.22.63.46,1.26.7,1.9,0,.09.08.17,0,.27A6.83,6.83,0,0,1,18,26.8,5.94,5.94,0,0,1,15.87,27.2Z"/><path class="cls-1" d="M8.62,28.62c0,.88,0,1.75,0,2.63,0,.19-.05.25-.25.25H4.69a.91.91,0,0,1-1-1.19c.16-.67.31-1.34.51-2a3.65,3.65,0,0,1,3.45-2.56c.3,0,.71-.11.89,0s0,.57.06.87C8.63,27.31,8.62,28,8.62,28.62Z"/><path class="cls-1" d="M23.38,28.59V26c0-.19,0-.25.24-.25a5.45,5.45,0,0,1,1.84.2,3.6,3.6,0,0,1,2.38,2.54c.17.61.31,1.23.46,1.85a.91.91,0,0,1-.93,1.16H23.6c-.18,0-.23-.05-.22-.22Z"/></svg>