<svg id="Layer_1" data-name="Layer 1" xmlns="http://www.w3.org/2000/svg" viewBox="0 0 32 32"><defs><style>.cls-1{fill:#00BCD5;}</style></defs><path class="cls-1" d="M31.47,7.36V24.64a.54.54,0,0,0,0,.11,2.82,2.82,0,0,1-2.87,2.35H3.44A2.83,2.83,0,0,1,.53,24.17V7.83a3.39,3.39,0,0,1,.09-.78A2.86,2.86,0,0,1,3.54,4.9H28.4a2.43,2.43,0,0,1,.27,0,2.85,2.85,0,0,1,2.65,1.94C31.38,7,31.42,7.19,31.47,7.36ZM7.67,18.21l-.16.12a4.77,4.77,0,0,0-2.12,3.81.91.91,0,0,0,1,1.07H14a.91.91,0,0,0,1-1.06,4.72,4.72,0,0,0-1.66-3.46c-.2-.17-.41-.32-.62-.48a3.34,3.34,0,1,0-5,0ZM16,10.59h9.49c.7,0,1.12-.33,1.13-.89s-.42-.92-1.14-.92h-19c-.7,0-1.12.34-1.13.9s.43.91,1.14.91Zm6.34,3.05H18.93a.91.91,0,1,0,0,1.81H25.7a.91.91,0,1,0,0-1.81Zm0,5.69h3.38a.91.91,0,1,0,0-1.81c-2.26,0-4.51,0-6.77,0a1.09,1.09,0,0,0-.58.2.84.84,0,0,0-.29,1,.89.89,0,0,0,.87.63Zm-1,2.07H19a.9.9,0,1,0,0,1.8c1.59,0,3.19,0,4.79,0a1.14,1.14,0,0,0,.69-.3.78.78,0,0,0,.16-.95.86.86,0,0,0-.86-.54Z"/><path class="cls-1" d="M13,21.39a3,3,0,0,0-2.91-2.06,2.91,2.91,0,0,0-2.69,2.06Zm-2.82-6.91A1.52,1.52,0,1,0,11.7,16,1.52,1.52,0,0,0,10.16,14.48Z"/><path class="cls-1" d="M13,21.39H7.38a2.91,2.91,0,0,1,2.69-2.06A3,3,0,0,1,13,21.39Z"/><path class="cls-1" d="M10.16,14.48a1.52,1.52,0,1,1,0,3,1.52,1.52,0,0,1,0-3Z"/></svg>