<svg id="Layer_1" data-name="Layer 1" xmlns="http://www.w3.org/2000/svg" viewBox="0 0 32 32"><defs><style>.cls-1{fill:#ffffff;}</style></defs><path class="cls-1" d="M29.48,29.7a2.16,2.16,0,0,0-.69-1.34.88.88,0,0,0-.65-.25H17.88c-.26-.05-.43-.17-.43-.43a.44.44,0,0,1,.39-.48,1.23,1.23,0,0,1,.38,0h10c.09-1.07.22-2.1.26-3.13A45.09,45.09,0,0,0,27,10.24c-.08-.26-.17-.3-.42-.3H17.41c-.26-.09-.39-.22-.39-.47A.4.4,0,0,1,17.45,9H27.8a1,1,0,0,0,.9-.91A1,1,0,0,0,28.06,7a1.63,1.63,0,0,0-.65-.09H5A1.16,1.16,0,0,0,4.52,7a1,1,0,0,0-.86,1A1.06,1.06,0,0,0,4.82,9H15.3a.49.49,0,0,1,.52.47.51.51,0,0,1-.47.47H5.08A44.09,44.09,0,0,0,3.79,27.2h11.3c.51,0,.77.18.73.48s-.22.47-.73.47h-11A1.12,1.12,0,0,0,3,28.71a2.7,2.7,0,0,0-.35.6,1.44,1.44,0,0,0,.9,2,5.5,5.5,0,0,0,1.38.21h22.2a5.72,5.72,0,0,0,.91-.09A1.53,1.53,0,0,0,29.48,29.7ZM13.41,22.57a8.32,8.32,0,0,1-2.62-4.34,13.85,13.85,0,0,1-.47-3.74,4,4,0,0,1,.09-.77,1.87,1.87,0,0,1,1.8-1.46,9.12,9.12,0,0,1,4.6,1.16,8.55,8.55,0,0,1,3.65,3.35A4.41,4.41,0,0,1,20,22.14s-.05,0-.05.08c.48.56,1,1.12,1.46,1.68.09.13.22.34.18.47s-.22.34-.35.34a.56.56,0,0,1-.51-.17l-1.29-1.42-.26-.25a13.61,13.61,0,0,1-1.33.64A4.51,4.51,0,0,1,13.41,22.57Z"/><path class="cls-1" d="M17.84,21.28a.52.52,0,0,0-.48-.22c-.51.05-1,.05-1.59.05a.54.54,0,0,1-.42-.18.61.61,0,0,1-.09-.47.77.77,0,0,1,.47-.34,8.85,8.85,0,0,1,1,0,14.11,14.11,0,0,0-1.07-1.25c0-.08-.22-.08-.3-.08-.43,0-.82,0-1.2,0s-.52-.17-.52-.43.17-.47.52-.52h.68c-.3-.34-.51-.55-.73-.85a.51.51,0,0,1,0-.78c.21-.21.51-.17.77.13s.43.47.69.77a1.63,1.63,0,0,1,.09-.38c0-.39.25-.6.55-.56s.43.3.39.69-.09.68-.13,1.07a.59.59,0,0,0,0,.26c.35.43.73.81,1.12,1.29,0-.35.09-.65.13-.91a.47.47,0,0,1,.56-.47c.3.05.43.3.39.65-.05.51-.13,1-.18,1.5,0,.09,0,.26.09.3.26.3.51.6.82.9a3.4,3.4,0,0,0,.9-2,4.15,4.15,0,0,0-.95-2.79A8.78,8.78,0,0,0,12.6,13.2a1,1,0,0,0-1.16,1.12A12.67,12.67,0,0,0,11.52,16a9.77,9.77,0,0,0,1.33,4.21,5.33,5.33,0,0,0,2.62,2.32,3.44,3.44,0,0,0,3.27-.48A3.16,3.16,0,0,1,17.84,21.28Z"/><path class="cls-1" d="M25.7,5.9a3.94,3.94,0,0,0-.48-.64,2.79,2.79,0,0,0-1.89-.78c-.38,0-.51-.17-.51-.55a2,2,0,0,0-.56-1.25,3.47,3.47,0,0,0-2.36-.9,1,1,0,0,1-.73-.3,4.41,4.41,0,0,0-5.59,0,.93.93,0,0,1-.64.26,3.9,3.9,0,0,0-2.1.43A2.11,2.11,0,0,0,9.63,4c0,.3-.21.43-.51.47a2.77,2.77,0,0,0-1.72.65,5.06,5.06,0,0,0-.65.73s0,0,.09.08H25.7Z"/></svg>