<svg id="Layer_1" data-name="Layer 1" xmlns="http://www.w3.org/2000/svg" viewBox="0 0 32 32"><defs><style>.cls-1{fill:#ffffff;}.cls-2{fill:#228B22;}</style></defs><path class="cls-1" d="M17,11.24A17.59,17.59,0,0,0,8.78.44,4,4,0,0,1,8.07,0H8L7.89.13a3.81,3.81,0,0,1-.15.44,23.44,23.44,0,0,0-.62,5,32.67,32.67,0,0,0,.24,5,32.09,32.09,0,0,0,.9,4.85.77.77,0,0,0,.55.57,15.53,15.53,0,0,1,3.75,1.89c.56.38.58.37.66-.29a7.35,7.35,0,0,1,1.61-3.84,15.5,15.5,0,0,1,2.08-2c.09-.07.24-.11.22-.27C16.93,11.53,17,11.35,17,11.24ZM9,4.19c.23,0,.36.23.41.49.16.74.31,1.49.46,2.24q.63,3.16,1.28,6.32c.19.94.39,1.87.57,2.8a.52.52,0,0,1-.41.57.41.41,0,0,1-.52-.33q-.26-1.14-.48-2.28L9.1,8c-.21-1.06-.43-2.13-.64-3.19A.5.5,0,0,1,9,4.19Z"/><path class="cls-1" d="M29.44,8.2c0-.08,0-.21-.13-.19s-.3.07-.44.12a23.54,23.54,0,0,0-4.54,2.35,34.08,34.08,0,0,0-4.7,3.69,27.68,27.68,0,0,0-2.83,2.9,13.81,13.81,0,0,0-2.36,4.26v.05a.42.42,0,0,0,.14.24,6.86,6.86,0,0,1,1.59,2.75c0,.1.05.21.17.25a13.16,13.16,0,0,0,3.76.06,7.61,7.61,0,0,0,4-1.7,15.28,15.28,0,0,0,3.19-4.05A17.46,17.46,0,0,0,29.44,8.2ZM26.6,11.48a1.11,1.11,0,0,1-.34.54l-1.75,1.82c-1.48,1.57-3,3.09-4.49,4.63-.7.72-1.41,1.42-2.1,2.14-.28.29-.52.31-.75.08s-.21-.49.06-.76c1.23-1.25,2.47-2.48,3.67-3.75.75-.79,1.53-1.55,2.29-2.34s1.5-1.58,2.25-2.37c.16-.18.27-.39.52-.48A.49.49,0,0,1,26.6,11.48Z"/><path class="cls-1" d="M14.44,21.37a7.66,7.66,0,0,1,1.62,2.48l.26.77a10.34,10.34,0,0,1,.19,2.23,13,13,0,0,1-1.1,4.58c-.05.12-.1.25-.28.24a10.44,10.44,0,0,1-2.64-1A12.63,12.63,0,0,1,8.9,27.79a34.51,34.51,0,0,1-3.31-4.57A23.73,23.73,0,0,1,2.85,17a2,2,0,0,1-.08-.55A3.45,3.45,0,0,1,4,16.4a3.15,3.15,0,0,0,.75,0,3.08,3.08,0,0,1,1.17.13,15.77,15.77,0,0,1,7,3.25,16,16,0,0,1,1.41,1.32A.43.43,0,0,1,14.44,21.37Z"/><path class="cls-2" d="M14.44,21.37a16.28,16.28,0,0,0-3.62-2.88,15.57,15.57,0,0,0-5.92-2l-.14,0a14.31,14.31,0,0,1-.54-1.8A18.36,18.36,0,0,1,4,9.46a17.76,17.76,0,0,1,3.61-9c.09-.12.18-.22.28-.33.1.11,0,.22,0,.31a22.24,22.24,0,0,0-.55,3.33,28.84,28.84,0,0,0-.11,4.05,37.15,37.15,0,0,0,.41,4.07,34.39,34.39,0,0,0,.7,3.5.74.74,0,0,0,.52.57,15,15,0,0,1,4,2.05,1.85,1.85,0,0,0,.23.15A13.41,13.41,0,0,1,13.5,16a7.42,7.42,0,0,1,1.72-2.79,19,19,0,0,1,1.91-1.68,17.13,17.13,0,0,1,6.78-3.18A16.35,16.35,0,0,1,29.31,8l-1.51.65A22.23,22.23,0,0,0,25,10.13a32.21,32.21,0,0,0-3.65,2.6,37,37,0,0,0-3.88,3.63,14.31,14.31,0,0,0-2.92,4.77A.4.4,0,0,1,14.44,21.37Z"/><path class="cls-2" d="M2.77,16.44a29.87,29.87,0,0,0,1,2.95A29.75,29.75,0,0,0,6,23.72a29.21,29.21,0,0,0,3.09,4.17,11.78,11.78,0,0,0,5.74,3.62c.1,0,.27,0,.3.16a11.74,11.74,0,0,1-6-.12,7.09,7.09,0,0,1-3.73-2.89A15.85,15.85,0,0,1,2.6,21.71a15.53,15.53,0,0,1,.12-5.09C2.73,16.56,2.76,16.5,2.77,16.44Z"/></svg>