<?xml version="1.0" encoding="utf-8"?>
<!-- Generator: Adobe Illustrator 25.1.0, SVG Export Plug-In . SVG Version: 6.00 Build 0)  -->
<svg version="1.1" id="Layer_1" xmlns="http://www.w3.org/2000/svg" xmlns:xlink="http://www.w3.org/1999/xlink" x="0px" y="0px"
	 viewBox="0 0 80 80" style="enable-background:new 0 0 80 80;" xml:space="preserve">
<style type="text/css">
	.st0{fill:#FF9801;}
</style>
<g>
	<path class="st0" d="M68.6,74.3C68.5,74.3,68.5,74.2,68.6,74.3c0-0.4,0-0.7,0-1c0-0.8,0-1.6,0-2.4c0-0.6-0.1-1.3,0-2
		c0-0.2,0-0.3,0-0.5c0-0.3,0-0.5,0-0.8v-51c0-1.2,0-1.2-1.3-1.2c-3.1,0-6.3,0-9.4,0c-1.8,0-2.9-1-2.9-2.9c0-3.3,0-6.6,0-9.9
		c0-0.6-0.1-0.8-0.8-0.8c-14,0-28.1,0-42.1,0c-0.8,0-0.7,0.4-0.7,0.9v54.5c0,6.6,0,13.2,0,19.8c0,0.7,0.1,0.9,0.9,0.9
		c18.5,0,36.9,0,55.4,0c0.7,0,0.9-0.1,0.9-0.9C68.5,76.2,68.5,75.2,68.6,74.3z M29.2,12.9c5.9,0,10.7,4.9,10.7,10.8
		c0,5.9-4.8,10.7-10.8,10.7c-6,0-10.8-4.9-10.7-10.8C18.4,17.7,23.3,12.9,29.2,12.9z M55.4,61.4c-0.3,0.1-0.7,0.1-1.1,0.1H20.2
		c-0.2,0-0.4,0-0.6,0c-0.8-0.1-1.3-0.7-1.3-1.3c0-0.7,0.6-1.2,1.4-1.2c1.2,0,2.5,0,3.7,0h31c0.4,0,0.8,0,1.1,0.2
		c0.4,0.3,0.6,0.7,0.5,1.2C56.1,60.9,55.8,61.2,55.4,61.4z M18.4,53.5c0-0.8,0.6-1.3,1.6-1.3c4.2,0,8.4,0,12.6,0h12.2
		c0.3,0,0.6,0,0.9,0.1c0.6,0.1,0.9,0.5,1,1.1c0,0.6-0.2,1-0.8,1.3c-0.4,0.1-0.7,0.1-1.1,0.1H20C19,54.7,18.4,54.3,18.4,53.5z
		 M54.3,48h-34c-1.3,0-1.9-0.4-1.9-1.3c0-0.9,0.6-1.3,1.9-1.3h34c1.3,0,1.9,0.4,1.9,1.3C56.2,47.6,55.5,48,54.3,48z M60.6,41.1
		c-0.3,0.1-0.7,0.1-1,0.1c-6.5,0-13.1,0-19.6,0H20.1c-1.1,0-1.7-0.5-1.7-1.3c0-0.8,0.6-1.3,1.8-1.3h39.7c0.3,0,0.6,0,0.8,0.1
		c0.6,0.2,0.9,0.6,0.9,1.2C61.6,40.6,61.2,41,60.6,41.1z M44.2,27.8c0-0.8,0.5-1.3,1.6-1.3c3.9,0,7.7,0,11.6,0
		c1.2,0,1.8,0.8,1.4,1.8C58.5,28.8,58,29,57.4,29c-2,0-4,0-6,0h-5.7C44.7,29,44.2,28.6,44.2,27.8z M61.1,21.9
		c-0.3,0.3-0.7,0.3-1.1,0.3h-7.2c-2.4,0-4.8,0-7.2,0c-0.9,0-1.5-0.5-1.5-1.2c0-0.8,0.5-1.3,1.5-1.3c4.8,0,9.6,0,14.4,0
		c0.7,0,1.2,0.2,1.5,0.9C61.7,21.1,61.5,21.6,61.1,21.9z"/>
	<path class="st0" d="M32.8,31c-2.3,1-4.5,1.1-6.8,0.2c-0.3-0.1-0.4-0.2-0.1-0.5C27.4,29.1,31.1,29.2,32.8,31z"/>
	<path class="st0" d="M30.6,22.4c0,0.8-0.6,1.4-1.4,1.4c-0.8,0-1.5-0.7-1.4-1.4c0-0.8,0.7-1.4,1.5-1.4C30,20.9,30.6,21.6,30.6,22.4z
		"/>
	<path class="st0" d="M31.5,15.8c-3.5-1-7.2,0.3-9.2,3.3c-2,3-1.8,6.9,0.4,9.8c0.4,0.5,0.6,0.6,1.2,0.1c3-2.6,7.5-2.6,10.5,0.1
		c0.5,0.4,0.6,0.3,1-0.1c1.3-1.6,1.9-3.3,1.9-5.4C37.3,20,34.9,16.8,31.5,15.8z M29.1,26.3c-2.2,0-4-1.8-4-4c0-2.2,1.8-4,4-4
		c2.2,0,3.9,1.8,3.9,4C33.1,24.5,31.3,26.3,29.1,26.3z"/>
	<path class="st0" d="M66.5,12.8c-0.1,0.1-0.3,0-0.4,0c-2.6,0-5.3,0-7.9,0c-0.3,0-0.7,0.1-0.7-0.4c0-2.8,0-5.7,0-8.6
		C60.6,6.9,63.5,9.9,66.5,12.8z"/>
</g>
</svg>
