<svg id="Layer_1" data-name="Layer 1" xmlns="http://www.w3.org/2000/svg" viewBox="0 0 32 32"><defs><style>.cls-1{fill:#ffffff;}</style></defs><path class="cls-1" d="M28.12,28a2.74,2.74,0,0,0,1.08-3c-.73-2.49-1.56-4.94-2.41-7.39A6.38,6.38,0,0,0,21.4,13c-.42-.06-.61,0-.82.34-.72,1.24-1.48,2.46-2.21,3.69a4.46,4.46,0,0,0-.21.5c1.53,0,3,0,4.4,0a1,1,0,0,1,.73.43c.06.19-.22.5-.37.75s-.29.28-.31.43A15.12,15.12,0,0,0,22.56,21c0,.43.23.63.7.6a22.07,22.07,0,0,1,2.44,0,.9.9,0,0,1,.66.45c.05.2-.19.5-.34.72a6.55,6.55,0,0,1-.6.65C27.72,24.16,28,26,28.12,28ZM13.77,17.54c0-.13,0-.18,0-.21-.83-1.39-1.66-2.79-2.51-4.18a.51.51,0,0,0-.41-.2c-2.16.38-4,1.17-5,3.35a61.63,61.63,0,0,0-3,8.72,2.52,2.52,0,0,0,1.1,2.84c0-.16,0-.3,0-.45.11-1.75.54-3.27,2.45-4A1.52,1.52,0,0,0,6.93,22a7.56,7.56,0,0,1-.21-2.79,1.62,1.62,0,0,1,1.75-1.71h5.3ZM24.34,22.8H10.21c-.53,0-1.07,0-1.6,0a.71.71,0,0,0-.77.76c0,.19,0,.39,0,.58,0,.41.11.54.54.65a13.73,13.73,0,0,1,1.89.83,2.58,2.58,0,0,0,1,.36c2.74,0,5.48,0,8.22,0,1,0,2,.15,2.83-.76.39-.42,1.2-.43,1.84-.64Zm-3.06-4h-.6c-3.66,0-7.32,0-11,0-1.87,0-1.78-.33-1.76,1.8,0,.88.08.94,1,.94H21.28Zm-10.12,8.5v3.12h9.68V27.29ZM5.94,24.9a6.57,6.57,0,0,0-.62,1.52,14.45,14.45,0,0,0-.05,2.94c.23,2.25.85,2.26,2.81,2.06a1.78,1.78,0,0,0,1.75-1.6,9.82,9.82,0,0,0-.09-2.65A1.35,1.35,0,0,0,8.36,26,3.13,3.13,0,0,1,5.94,24.9ZM26,25a3.19,3.19,0,0,1-2.35,1,1.3,1.3,0,0,0-1.31,1,8.7,8.7,0,0,0-.16,2.59,2,2,0,0,0,2.09,1.78,7.61,7.61,0,0,0,.83,0c1,0,1.35-.23,1.5-1.22a21.87,21.87,0,0,0,.21-3.43A2.31,2.31,0,0,0,26,25Z"/><path class="cls-1" d="M10.3,6.17A5.68,5.68,0,1,0,16,.5,5.63,5.63,0,0,0,10.3,6.17Z"/><path class="cls-1" d="M28.12,28c-.09-2-.4-3.83-2.7-4.61a6.55,6.55,0,0,0,.6-.65c.15-.22.39-.52.34-.72a.9.9,0,0,0-.66-.45,22.07,22.07,0,0,0-2.44,0c-.47,0-.7-.17-.7-.6a15.12,15.12,0,0,1,.05-1.78c0-.15.22-.28.31-.43s.43-.56.37-.75a1,1,0,0,0-.73-.43c-1.43,0-2.87,0-4.4,0a4.46,4.46,0,0,1,.21-.5c.73-1.23,1.49-2.45,2.21-3.69.21-.35.4-.4.82-.34a6.38,6.38,0,0,1,5.39,4.62c.85,2.45,1.68,4.9,2.41,7.39A2.74,2.74,0,0,1,28.12,28Z"/><path class="cls-1" d="M13.77,17.54H8.47a1.62,1.62,0,0,0-1.75,1.71A7.56,7.56,0,0,0,6.93,22a1.52,1.52,0,0,1-.56,1.39c-1.91.71-2.34,2.23-2.45,4,0,.15,0,.29,0,.45A2.52,2.52,0,0,1,2.79,25a61.63,61.63,0,0,1,3-8.72c1-2.18,2.89-3,5-3.35a.51.51,0,0,1,.41.2c.85,1.39,1.68,2.79,2.51,4.18C13.81,17.36,13.78,17.41,13.77,17.54Z"/><path class="cls-1" d="M24.34,22.8l-.23,1.81c-.64.21-1.45.22-1.84.64-.84.91-1.83.76-2.83.76-2.74,0-5.48,0-8.22,0a2.58,2.58,0,0,1-1-.36,13.73,13.73,0,0,0-1.89-.83c-.43-.11-.58-.24-.54-.65,0-.19,0-.39,0-.58a.71.71,0,0,1,.77-.76c.53,0,1.07,0,1.6,0H24.34Z"/><path class="cls-1" d="M21.28,18.79v2.75H8.9c-.88,0-1-.06-1-.94,0-2.13-.11-1.8,1.76-1.8,3.66,0,7.32,0,11,0Z"/><path class="cls-1" d="M11.16,27.29h9.68v3.12H11.16Z"/><path class="cls-1" d="M5.94,24.9A3.13,3.13,0,0,0,8.36,26a1.35,1.35,0,0,1,1.38,1.13,9.82,9.82,0,0,1,.09,2.65,1.78,1.78,0,0,1-1.75,1.6c-2,.2-2.58.19-2.81-2.06a14.45,14.45,0,0,1,.05-2.94A6.57,6.57,0,0,1,5.94,24.9Z"/><path class="cls-1" d="M26,25a2.31,2.31,0,0,1,.81,1.79,21.87,21.87,0,0,1-.21,3.43c-.15,1-.52,1.19-1.5,1.22a7.61,7.61,0,0,1-.83,0,2,2,0,0,1-2.09-1.78,8.7,8.7,0,0,1,.16-2.59,1.3,1.3,0,0,1,1.31-1A3.19,3.19,0,0,0,26,25Z"/></svg>