<svg id="Layer_1" data-name="Layer 1" xmlns="http://www.w3.org/2000/svg" viewBox="0 0 32 32"><defs><style>.cls-1{fill:#ffffff;}</style></defs><path class="cls-1" d="M32,16.31a7.38,7.38,0,0,1-.6,1.41,2.79,2.79,0,0,1-2.47,1.21H24.35l.1.33c1.13,3.08,2.27,6.15,3.38,9.23a1.61,1.61,0,0,1,.1.78.83.83,0,0,1-.78.69.89.89,0,0,1-.9-.45,2.05,2.05,0,0,1-.18-.43c-1.21-3.28-2.42-6.55-3.61-9.84a.43.43,0,0,0-.46-.33.39.39,0,0,0-.44.32q-1.8,5-3.62,9.94a1.73,1.73,0,0,1-.45.65.92.92,0,0,1-1.38-1c.34-1,.69-2,1.05-2.94l2.4-6.59c0-.11.06-.22.11-.36H18.41c0-.53.05-1.05.09-1.57a.79.79,0,0,1,.1-.28l1.86-3.72a2.81,2.81,0,0,0-4.76-3c-.44.72-.79,1.51-1.18,2.26-.06.1-.11.21-.17.33l-.19-.08L12.28,12a.34.34,0,0,1-.23-.35c0-2.22,0-4.44,0-6.66a2.92,2.92,0,0,1,3-3Q22,2,29,2a2.91,2.91,0,0,1,3,2.54s0,0,0,.08ZM22,7.88h5.06A.92.92,0,0,0,28,7a.94.94,0,0,0-.82-1H17a.94.94,0,1,0,0,1.87Zm2.94,5.17h-2a.94.94,0,1,0,0,1.87H27a.94.94,0,0,0,1-1,.93.93,0,0,0-1-.91Zm0-3.51h-2a.94.94,0,1,0,0,1.87h1.16c1,0,1.89,0,2.84,0a1.5,1.5,0,0,0,.77-.25.8.8,0,0,0,.26-1,.84.84,0,0,0-.81-.63C26.4,9.53,25.67,9.54,24.94,9.54Z"/><path class="cls-1" d="M0,17.37c0-.17.08-.34.11-.51a6,6,0,0,1,5-4.75l.5-.08a4.18,4.18,0,0,1-2.78-1.48,4,4,0,0,1-.92-2.93,4.09,4.09,0,0,1,8-.6,4.19,4.19,0,0,1-3.37,5,6.77,6.77,0,0,1,3.51.94l4.86,2.42.24.11.22-.42c.58-1.16,1.16-2.33,1.75-3.49a.92.92,0,0,1,1-.55.85.85,0,0,1,.76.68,1.47,1.47,0,0,1-.14.8c-.69,1.43-1.41,2.84-2.1,4.25a1,1,0,0,0-.08.53,2.44,2.44,0,0,1-.82,2.31,2.32,2.32,0,0,1-2.5.5c-.87-.34-1.71-.8-2.56-1.21l-.77-.39c0,.17,0,.3,0,.43v9.84a1.85,1.85,0,0,1-.11.67.9.9,0,0,1-.86.53c-2,0-4,0-6,0a.93.93,0,0,1-1-1c0-1.63,0-3.25,0-4.88a.32.32,0,0,0-.21-.36A2.88,2.88,0,0,1,.07,21.64c0-.09,0-.18-.07-.27Z"/></svg>