<svg id="Layer_1" data-name="Layer 1" xmlns="http://www.w3.org/2000/svg" viewBox="0 0 32 32"><defs><style>.cls-1{fill:#FF9801;}</style></defs><path class="cls-1" d="M31.5,11.47H.5v-5C3.43,5.36,6.37,4.3,9.29,3.2c2.17-.82,4.32-1.7,6.47-2.54h.48a2,2,0,0,0,.39.25L31.5,6.43Zm-20-3.24h1.73V6.54H11.48Zm5.35,0V6.56H15.17V8.25Zm3.64,0V6.53H18.79V8.24ZM7.86,6.49V8.2H9.54V6.49ZM24.14,8.27V6.55H22.48V8.27Z"/><path class="cls-1" d="M29.59,13.38v18H24.3V20.6l1.62-.12V15.17H6.1v5.31l1.58.14V31.31H2.41V13.38Z"/><path class="cls-1" d="M9.72,22.89V20.63H22.28v2.26Z"/><path class="cls-1" d="M9.72,27.07V24.81H22.28v2.26Z"/><path class="cls-1" d="M22.28,29.09v2.25H9.72V29.09Z"/><path class="cls-1" d="M7.86,17H24.14v1.63H7.86Z"/></svg>