<svg id="Layer_1" data-name="Layer 1" xmlns="http://www.w3.org/2000/svg" viewBox="0 0 80 80"><defs><style>.cls-1{fill:#00a983;}.cls-2{fill:#5f5f5f;}</style></defs><path class="cls-1" d="M58.89.09c.21.25.52.16.78.24a6.31,6.31,0,0,1,4.45,7.11,9.34,9.34,0,0,1-9.71,8.24c-9.71,0-19.42,0-29.13,0-.73,0-.89-.22-.85-.9.11-2.12-.18-4.25.31-6.36a10.9,10.9,0,0,1,9-8.22c.25-.15.56.05.8-.13Z"/><path class="cls-2" d="M34.57.09a.85.85,0,0,1-.8.13.12.12,0,0,0,0-.13Z"/><path class="cls-1" d="M40,20.35c5,0,9.92,0,14.88,0,.59,0,.73.13.72.72,0,3.66,0,7.32,0,11a15.58,15.58,0,0,1-31,1.93,69.69,69.69,0,0,1-.12-7.08c0-1.95,0-3.9,0-5.85,0-.6.18-.7.73-.7C30.11,20.36,35.07,20.35,40,20.35Z"/><path class="cls-1" d="M19,48.83c0,2.07,0,4,0,6a8.68,8.68,0,0,0,1.85,5.8.71.71,0,0,1,0,.84c-.53,1.19-1,2.39-1.55,3.56a2.87,2.87,0,0,0,.14,2.81c2.24,4,4.44,8,6.66,12-.18.21-.4.11-.59.11H9.17a2.36,2.36,0,0,1-2.65-2.63c0-2.75-.14-5.5.13-8.25a26.66,26.66,0,0,1,8.63-17.35,25.18,25.18,0,0,1,2.79-2.25C18.34,49.23,18.62,49.07,19,48.83Z"/><path class="cls-1" d="M61.07,48.76C67.89,53.46,72,59.65,73.25,67.7c.51,3.3.25,6.63.28,10a2.24,2.24,0,0,1-2.25,2.24c-5.76,0-11.52,0-17.3,0,0-.31.18-.5.3-.71,2.08-3.76,4.16-7.53,6.27-11.27a2.94,2.94,0,0,0,.15-3c-.54-1.12-1-2.28-1.49-3.41a.89.89,0,0,1,.11-1.05,8.26,8.26,0,0,0,1.75-5.21C61.08,53.18,61.07,51.06,61.07,48.76Z"/><path class="cls-1" d="M37.69,70.06c0,3.06,0,6.13,0,9.19,0,.56-.15.68-.68.67-1.64,0-3.28,0-4.91,0a.81.81,0,0,1-.85-.47Q27.74,73,24.17,66.67a.89.89,0,0,1-.05-.94c.31-.65.42-1.5.91-1.94s1.29.11,2,.14A9,9,0,0,0,31.37,63c1.84-.91,3.66-1.83,5.49-2.75.74-.37.83-.32.83.5Z"/><path class="cls-1" d="M42.37,69.94c0-3.06,0-6.13,0-9.19,0-.78.08-.83.79-.48,1.74.87,3.48,1.73,5.2,2.62a8.65,8.65,0,0,0,6.11.8c.38-.09.65-.09.74.37,0,0,0,0,0,.06.91,2,.91,2-.18,4-2.06,3.72-4.13,7.43-6.18,11.15a1,1,0,0,1-1.06.65c-1.58,0-3.17,0-4.75,0-.56,0-.74-.1-.73-.7C42.39,76.13,42.37,73,42.37,69.94Z"/><path class="cls-1" d="M23.66,52.3c0-1,0-2.08,0-3.12a3.79,3.79,0,0,1,1.23-2.76c.31-.3.51-.39.87,0a18.68,18.68,0,0,0,5.77,4,.57.57,0,0,1,.4.71A8,8,0,0,0,33,56.51c.19.31.12.43-.18.57-1.26.61-2.48,1.29-3.77,1.85a3.86,3.86,0,0,1-5.4-3.51C23.64,54.38,23.66,53.34,23.66,52.3Z"/><path class="cls-1" d="M56.39,52.32c0,1,0,2.07,0,3.11A3.87,3.87,0,0,1,51,58.92c-1.28-.56-2.51-1.25-3.77-1.85-.33-.16-.33-.29-.16-.58a7.89,7.89,0,0,0,1.08-5.3c-.07-.46.11-.62.48-.8a19,19,0,0,0,5.64-4c.36-.36.58-.36.93,0a3.9,3.9,0,0,1,1.22,2.77C56.41,50.24,56.39,51.28,56.39,52.32Z"/><path class="cls-1" d="M40,55.81a3.49,3.49,0,0,1-3.5-3.26c0-.39,0-.55.49-.47a18.06,18.06,0,0,0,6,0c.53-.09.55.1.52.52A3.49,3.49,0,0,1,40,55.81Z"/></svg>