<svg id="Layer_1" data-name="Layer 1" xmlns="http://www.w3.org/2000/svg" viewBox="0 0 80 80"><defs><style>.cls-1{fill:#00a983;}</style></defs><path class="cls-1" d="M40.14,49.5c5.88,0,11.75,0,17.63,0,.82,0,1,.22.89,1Q57.28,61.11,56,71.77c-.08.73-.45.7-1,.7-4.94,0-9.87,0-14.81,0s-9.88,0-14.82,0c-.79,0-1.11-.12-1.22-1-.83-7-1.72-13.93-2.63-20.89-.11-.86.06-1.1,1-1.1C28.38,49.52,34.26,49.5,40.14,49.5Z"/><path class="cls-1" d="M40.12,33.75A16.47,16.47,0,0,1,23.67,18.48c-.08-1,.46-.69.92-.62A18.33,18.33,0,0,0,41.23,12.4a13.54,13.54,0,0,0,1.53-1.85c.38-.56.55-.47.92,0a18.19,18.19,0,0,0,10.93,7.13c2,.46,2,.47,1.62,2.66A16.4,16.4,0,0,1,40.12,33.75Z"/><path class="cls-1" d="M40.2,74.56H76.32c2.24,0,3.44.89,3.45,2.58s-1.22,2.64-3.41,2.64H3.8a7,7,0,0,1-1.45-.12A2.58,2.58,0,0,1,.41,77a2.55,2.55,0,0,1,2.1-2.39,8.86,8.86,0,0,1,1.36-.07Z"/><path class="cls-1" d="M56.43,15.93a16.4,16.4,0,0,1-12.06-8.1c-.77-1.3-1.54-1.28-2.35.06a16.42,16.42,0,0,1-17.35,7.88c-.74-.13-1-.38-.82-1.15a16.46,16.46,0,0,1,32.47.05C56.38,15,56.39,15.42,56.43,15.93Z"/><path class="cls-1" d="M53.19,47.41c-2.09,0-4.18,0-6.26,0a1.06,1.06,0,0,1-1.22-.8q-1.82-4.92-3.77-9.8c-.36-.89-.11-1,.73-1A26.43,26.43,0,0,1,68.94,58.47c.15,1,.22,1.94.36,2.9.07.5-.11.67-.62.66-2.92,0-5.84,0-8.77,0-.54,0-.63-.19-.57-.68.53-4,1-8.07,1.55-12.1.2-1.51,0-1.85-1.54-1.85Z"/><path class="cls-1" d="M27,47.41H20.65c-1.23,0-1.55.4-1.4,1.61.52,4.07,1,8.14,1.57,12.2.09.68-.07.83-.73.82-2.82,0-5.63,0-8.45,0-.69,0-.79-.22-.75-.84A27.27,27.27,0,0,1,35.73,36c.72-.06,1.45-.08,2.18-.14.46,0,.66.09.48.57C37,39.94,35.65,43.46,34.31,47c-.2.52-.57.41-.93.41Z"/><path class="cls-1" d="M40.09,37.79c.56,1.46,1,2.67,1.49,3.88.65,1.68,1.29,3.37,2,5,.19.46.21.7-.4.69-2,0-4,0-6.06,0-.44,0-.68-.07-.48-.58C37.73,43.9,38.86,41,40.09,37.79Z"/></svg>