<svg id="Layer_1" data-name="Layer 1" xmlns="http://www.w3.org/2000/svg" viewBox="0 0 80 80"><defs><style>.cls-1{fill:#29ac0a;}</style></defs><path class="cls-1" d="M25.28,16.11c9.71,0,19.42,0,29.13,0a9.33,9.33,0,0,0,9.71-8.23A6.33,6.33,0,0,0,59.67.74c-.26-.07-.57,0-.78-.23H33.79a.13.13,0,0,1,0,.13,10.9,10.9,0,0,0-9,8.22c-.49,2.11-.2,4.24-.31,6.36C24.39,15.9,24.55,16.12,25.28,16.11Z"/><path class="cls-1" d="M24.57,34.39a15.58,15.58,0,0,0,31-1.93c0-3.66,0-7.32,0-11,0-.58-.13-.72-.72-.71-5,0-9.92,0-14.88,0s-9.92,0-14.88,0c-.55,0-.74.09-.73.7,0,1.95,0,3.9,0,5.85A69.69,69.69,0,0,0,24.57,34.39Z"/><path class="cls-1" d="M19.32,65.45c.55-1.17,1-2.38,1.55-3.56a.72.72,0,0,0,0-.85A8.63,8.63,0,0,1,19,55.25c0-2,0-3.93,0-6-.36.23-.64.4-.91.59a25.18,25.18,0,0,0-2.79,2.25A26.66,26.66,0,0,0,6.65,69.44c-.27,2.75-.1,5.5-.13,8.25a2.36,2.36,0,0,0,2.65,2.63q8.19,0,16.36,0c.19,0,.41.1.59-.12-2.22-4-4.42-8-6.66-11.94A2.87,2.87,0,0,1,19.32,65.45Z"/><path class="cls-1" d="M73.25,68.12C72,60.07,67.89,53.88,61.07,49.18c0,2.3,0,4.42,0,6.54a8.26,8.26,0,0,1-1.75,5.21.88.88,0,0,0-.11,1c.51,1.14.95,2.3,1.49,3.42a2.94,2.94,0,0,1-.15,3c-2.11,3.74-4.19,7.51-6.27,11.27-.12.21-.32.4-.3.71,5.78,0,11.54,0,17.3,0a2.24,2.24,0,0,0,2.25-2.24C73.5,74.75,73.76,71.42,73.25,68.12Z"/><path class="cls-1" d="M37.69,70.48V61.21c0-.82-.09-.87-.83-.5-1.83.92-3.65,1.84-5.49,2.75a9.1,9.1,0,0,1-4.37.89c-.68,0-1.48-.59-2-.14s-.6,1.29-.91,1.94a.89.89,0,0,0,.05.94q3.55,6.38,7.09,12.77a.81.81,0,0,0,.85.47c1.63,0,3.27,0,4.91,0,.53,0,.69-.11.68-.67C37.67,76.61,37.69,73.54,37.69,70.48Z"/><path class="cls-1" d="M55.25,64.54s0,0,0-.06c-.09-.46-.36-.46-.74-.37a8.61,8.61,0,0,1-6.11-.81c-1.72-.88-3.46-1.74-5.2-2.61-.71-.35-.79-.3-.79.48,0,3.06,0,6.13,0,9.19s0,6.18,0,9.27c0,.61.17.72.73.71,1.58,0,3.17,0,4.75,0a1,1,0,0,0,1.06-.65c2-3.73,4.12-7.44,6.18-11.15C56.16,66.58,56.16,66.58,55.25,64.54Z"/><path class="cls-1" d="M29.07,59.34c1.29-.55,2.51-1.23,3.77-1.84.3-.14.37-.26.18-.57a8,8,0,0,1-1.08-5.38.57.57,0,0,0-.4-.71,18.68,18.68,0,0,1-5.77-4c-.36-.37-.56-.28-.87,0a3.79,3.79,0,0,0-1.23,2.76c0,1,0,2.08,0,3.12s0,2.08,0,3.11A3.86,3.86,0,0,0,29.07,59.34Z"/><path class="cls-1" d="M47.2,57.49c1.26.6,2.49,1.29,3.77,1.85a3.87,3.87,0,0,0,5.42-3.49c0-1,0-2.08,0-3.12s0-2.07,0-3.11a3.94,3.94,0,0,0-1.22-2.78c-.35-.34-.57-.35-.93,0a19,19,0,0,1-5.64,4c-.37.18-.55.34-.48.8A7.89,7.89,0,0,1,47,56.91C46.87,57.2,46.87,57.33,47.2,57.49Z"/><path class="cls-1" d="M43.51,53c0-.41,0-.6-.52-.51a18.34,18.34,0,0,1-6,0c-.48-.08-.51.09-.49.48a3.49,3.49,0,0,0,7,0Z"/></svg>