<svg id="Layer_1" data-name="Layer 1" xmlns="http://www.w3.org/2000/svg" viewBox="0 0 80 80"><defs><style>.cls-1{fill:#29ac0a;}</style></defs><path class="cls-1" d="M68.06,64.64a14.27,14.27,0,0,0-1.84,2.22,14.86,14.86,0,0,0-1,2.8c-2-1.22-1.92-4.47.1-5.88a9.53,9.53,0,0,1,3.14-1.2A33.13,33.13,0,0,1,72,62.07a6.82,6.82,0,0,1-3.42,9,.81.81,0,0,0-.43.55c-.17,1.5-.3,3-.43,4.45l4.48-2.38-3.12.3a2.39,2.39,0,0,1,1.8-2.27c2.39-.82,3.79,1,5.43,2.1-2,4.09-3.84,4.93-6.82,3a14.05,14.05,0,0,1-1.36,1.88c-.37.38-1.05.85-1.44.74a1.73,1.73,0,0,1-.86-1.37,35.68,35.68,0,0,1,1.52-11c.26-.74.65-1.43,1-2.14Z"/><path class="cls-1" d="M61.16,73.8a23.87,23.87,0,0,1,2.38,1c1.11.62,1.14,1.47.17,2.31a3,3,0,0,1-4.15-.17c-.84-.92-1.53-2-2.41-3.13a26.11,26.11,0,0,1,3.46-2.09,2.78,2.78,0,0,1,4,2.43c-.61-.12-1.18-.26-1.76-.35s-1.12-.12-1.68-.18Z"/><path class="cls-1" d="M19.32,23.42a7,7,0,0,1,.54-1.26L16.14,28l-.52.82L16.26,25a45.66,45.66,0,0,1,1-5.73,5.18,5.18,0,0,1,5.88-4c2.52.4,5,.86,7.55,1.25A5.17,5.17,0,0,1,35,22.36c-.12.79-.25,1.58-.37,2.4,0,1-.61,2.21,0,3,1.4,2,3.61,3,5.33,4.57-1.65.19-.13-.11,0,0A23.12,23.12,0,0,0,29.39,36c-1.6,1-2.61-1.4-3.81-2.2-.4-.4-.2-1.2-.2-1.81.4-2.8.4-5.81.56-8.69-.47,1.5-.09,1.63,0,0-1.16,3.68-2.37,7.49-3.57,11.1.8.8,1.4,1.6,2.21,2.41A38.15,38.15,0,0,0,27.18,40a30.17,30.17,0,0,1,2.58,2.7,3.3,3.3,0,0,1-.35,4.7l-.05,0A3.31,3.31,0,0,1,24.67,47L17.2,38a6,6,0,0,1-1-5.74C17.12,29.49,18.47,25.67,19.32,23.42Z"/><path class="cls-1" d="M12.78,65.63c3.77-1.55,7.18-4.36,10.16-7.11,0,.15-2.1,2,0,0a7.42,7.42,0,0,1-.37,2.15,87.61,87.61,0,0,1-5.82,15.84c-.2.6-.4,1.41-.6,2-.2.2-.4.6-.8.6-1.4,0-2.81-.6-4.21,0a7.06,7.06,0,0,1-2.81-2c-.2-.2,0-.6.2-1a63,63,0,0,0,3.84-10.06Z"/><path class="cls-1" d="M14.35,54.05c2-2.61,3.81-5.22,6-7.83.2-.2,0-.4-.2-.6-1.4-1-1.8-2.61-3.41-3.61a28.29,28.29,0,0,1-2.6-3.1c0,.76.79.87,0,0-.6,5.07.38,10.13.4,15.21"/><path class="cls-1" d="M25.94,53.13A22,22,0,0,1,29.76,63.6c.71,6.5,3.53,14.85,4.67,15.41s5.51,0,5.51,0,.14-8.48-2-14.28S36.69,56.24,34.43,52l-2.27-4.24Z"/><path class="cls-1" d="M3.6,59.67s10,1.72,18.29-11.23L25.12,51S16.41,62.72,10.38,63.51s-6.78,0-6.78,0Z"/><path class="cls-1" d="M29.9,38.75a23,23,0,0,1,18.4-4.22v3.09s-2.39,0-2.53,1.13-1.55,3.39-4.92,2.61-2.67-2.47-4.49-1.63l-3.93,1.79Z"/><circle class="cls-1" cx="30.19" cy="7.26" r="7.26"/><path class="cls-1" d="M50.94,37.91l.2,0,.18,0,.33.07.64.17-.51,1.86-.53-.1-.26,0-.12,0h-.1Z"/><path class="cls-1" d="M54.56,39.14a15.86,15.86,0,0,1,2,1.26l-.92,1.36a15.73,15.73,0,0,0-1.9-1Z"/><path class="cls-1" d="M58.44,41.94A18.83,18.83,0,0,1,60,43.7l-1,.88a17.42,17.42,0,0,0-1.58-1.52Z"/><path class="cls-1" d="M61.41,45.62a22.69,22.69,0,0,1,1.15,2l-.94.51c-.38-.64-.78-1.27-1.22-1.87Z"/><path class="cls-1" d="M63.51,49.78c.29.72.55,1.45.78,2.18l-.75.26c-.27-.7-.56-1.39-.88-2.07Z"/><polygon class="cls-1" points="64.91 54.19 65.39 56.44 64.9 56.55 64.28 54.36 64.91 54.19"/><polygon class="cls-1" points="65.75 58.71 66 60.99 65.78 61.01 65.39 58.77 65.75 58.71"/><polygon class="cls-1" points="66.16 63.27 66.2 64.48 66.08 63.28 66.16 63.27"/><path class="cls-1" d="M54.36,35.15l.2,0,.18,0h1l0,1.93-.54,0-.26,0-.12,0s-.09,0-.09,0Z"/><path class="cls-1" d="M58.17,35.42a15.38,15.38,0,0,1,2.31.7l-.55,1.55a13.93,13.93,0,0,0-2.1-.5Z"/><path class="cls-1" d="M62.64,37.14a18.81,18.81,0,0,1,2,1.29l-.77,1.12A17.16,17.16,0,0,0,62,38.48Z"/><path class="cls-1" d="M66.45,39.94c.57.53,1.11,1.09,1.63,1.68l-.79.73a21.32,21.32,0,0,0-1.65-1.49Z"/><path class="cls-1" d="M69.54,43.43c.46.62.9,1.26,1.31,1.91l-.66.44q-.66-.91-1.38-1.77Z"/><polygon class="cls-1" points="72.01 47.34 73.05 49.39 72.6 49.62 71.45 47.66 72.01 47.34"/><polygon class="cls-1" points="73.98 51.49 74.8 53.63 74.6 53.71 73.65 51.64 73.98 51.49"/><polygon class="cls-1" points="75.53 55.8 75.89 56.95 75.46 55.83 75.53 55.8"/><path class="cls-1" d="M51.61,32.78l.17-.1.16-.09.3-.15.6-.27.79,1.76-.48.25-.23.14-.1.06-.08.06Z"/><path class="cls-1" d="M55.19,31.45a16.14,16.14,0,0,1,2.39-.32l.14,1.64a14.86,14.86,0,0,0-2.11.42Z"/><path class="cls-1" d="M60,31.17a20.16,20.16,0,0,1,2.35.35l-.24,1.34a18,18,0,0,0-2.19-.19Z"/><path class="cls-1" d="M64.59,32.14c.75.25,1.47.54,2.18.85l-.4,1c-.7-.26-1.41-.49-2.13-.68Z"/><path class="cls-1" d="M68.86,34c.67.37,1.33.78,2,1.2l-.42.67c-.65-.37-1.32-.72-2-1Z"/><polygon class="cls-1" points="72.72 36.57 74.52 38.01 74.2 38.41 72.35 37.1 72.72 36.57"/><polygon class="cls-1" points="76.23 39.54 77.86 41.15 77.71 41.3 75.99 39.81 76.23 39.54"/><polygon class="cls-1" points="79.43 42.82 80.23 43.73 79.38 42.88 79.43 42.82"/></svg>