<svg id="Layer_1" data-name="Layer 1" xmlns="http://www.w3.org/2000/svg" viewBox="0 0 80 80"><defs><style>.cls-1{fill:#29ac0a;}</style></defs><path class="cls-1" d="M17.46,79.44.88,64.17c6.09-6.64,11-12.5,16.48-17.8,4.16-4,9.69-4.78,15-2.93a36,36,0,0,0,13.33,2,16.84,16.84,0,0,1,3.69.22c3.17.63,5.27,3.06,5.11,5.7a5.9,5.9,0,0,1-5.66,5.19c-3.45.2-6.93,0-10.4,0l-.36,1.25a23.18,23.18,0,0,0,4.53,1.73c6.16,1,11.36-.8,16.06-5a124.51,124.51,0,0,1,11.69-8.63c3.48-2.45,6.11-2.35,9.61.11v2.47c-6.87,6-13.83,12-20.59,18.13a15.57,15.57,0,0,1-11.48,4.29c-7.41-.19-14.83-.08-22.25,0-.93,0-2.26.22-2.71.84-1.78,2.47-3.28,5.14-4.89,7.74Z"/><path class="cls-1" d="M48.87,6.88c-1.47,1.72-3.24,3.27-4.32,5.21s-1.49,4.33-2.22,6.59c-4.67-2.85-4.53-10.5.23-13.81A22.38,22.38,0,0,1,49.93,2a79.77,79.77,0,0,1,8.2-1.2c3.48,8.25.17,16.87-8.06,21.07a2,2,0,0,0-1,1.3c-.4,3.53-.69,7.07-1,10.47l10.53-5.59-7.34.7a5.68,5.68,0,0,1,4.25-5.34c5.61-1.94,8.9,2.3,12.78,4.95C63.53,38,59.24,40,52.21,35.57A33.06,33.06,0,0,1,49,40c-.89.91-2.47,2-3.39,1.75s-2-2.09-2-3.21c.22-8.76.62-17.53,3.57-25.92.61-1.73,1.51-3.35,2.28-5Z"/><path class="cls-1" d="M32.65,28.42a50.26,50.26,0,0,1,5.6,2.37c2.6,1.44,2.67,3.44.41,5.42a7.06,7.06,0,0,1-9.76-.4c-2-2.15-3.62-4.65-5.69-7.37,2.93-1.8,5.37-3.75,8.15-4.9,4.63-1.91,9.1.84,9.42,5.71-1.44-.29-2.79-.61-4.15-.82s-2.64-.29-4-.43Z"/></svg>