<svg id="Layer_1" data-name="Layer 1" xmlns="http://www.w3.org/2000/svg" viewBox="0 0 80 80"><defs><style>.cls-1{fill:#29ac0a;}</style></defs><path class="cls-1" d="M80,28.46H0v-13c7.57-2.78,15.15-5.52,22.69-8.36C28.28,5,33.82,2.73,39.38.55h1.24a5.44,5.44,0,0,0,1,.64Q60.8,8.33,80,15.44ZM28.34,20.1h4.45V15.74H28.34Zm13.8,0V15.78H37.86v4.35Zm9.39,0V15.69H47.19v4.42ZM19,15.6V20h4.33V15.6Zm42,4.6V15.76H56.71V20.2Z"/><path class="cls-1" d="M75.08,33.39V79.72H61.41V52l4.19-.29V38H14.45v13.7l4.09.36V79.66H4.92V33.39Z"/><path class="cls-1" d="M23.73,57.92V52.08H56.15v5.84Z"/><path class="cls-1" d="M23.73,68.72V62.88H56.14v5.84Z"/><path class="cls-1" d="M56.23,73.93v5.8H23.8v-5.8Z"/><path class="cls-1" d="M19,42.72H61v4.21H19Z"/></svg>