<svg id="Layer_1" data-name="Layer 1" xmlns="http://www.w3.org/2000/svg" viewBox="0 0 80 80"><defs><style>.cls-1{fill:#fff;}</style></defs><path class="cls-1" d="M41.64,11.28c-2.47,1.77-4.71,3.87-7.58,5a17,17,0,0,1-6.21,1.32c-1.92,0-3.84,0-5.77,0a10.13,10.13,0,0,1-1.22-.14,2.86,2.86,0,0,1-1.95-3,51.59,51.59,0,0,1,.16-6.92,8.42,8.42,0,0,1,8.18-7c3.76,0,7.53,0,11.29,0a5.69,5.69,0,0,1,6,5.68.64.64,0,0,1,.18.49A5.85,5.85,0,0,1,42,11.27.37.37,0,0,1,41.64,11.28Z"/><path class="cls-1" d="M28.93,44.87,14.17,50.42a5.73,5.73,0,0,0-3.81,5.52V80.3c-1.66,0-3.32,0-5,0-.6,0-.73-.19-.73-.75q0-6.86,0-13.69c0-3.35,0-6.7,0-10.05a5.56,5.56,0,0,1,3.62-5.39c6.38-2.41,12.77-4.78,19.16-7.17A3,3,0,0,1,28.93,44.87Z"/><path class="cls-1" d="M42.4,46.17l.36,0c.56-.4,1.21-.19,1.81-.21a1.17,1.17,0,0,0,1.15-.73A2.36,2.36,0,0,0,45,41.66c-.78-.59-.71-.86,0-1.58a19.85,19.85,0,0,1,2-1.91,1.34,1.34,0,0,0,2.18.4,3.15,3.15,0,0,1,.83-.3c.41,0,.64.63,1.11.44a14.09,14.09,0,0,0,2.18-1c.31-.19.21-.59.24-.91.07-.69-.19-1.42.23-2.07a.47.47,0,0,1,.17,0c.86,0,1.93-.35,2.5.14s.16,1.57.16,2.38a.74.74,0,0,0,.67.86,1.84,1.84,0,0,1,.67.23c1.26,1,2.16.49,3.06-.61.78-.95.85-.89,1.75,0s1.75,1.78,2.65,2.64c.36.35.5.57,0,1-.62.55-1.49,1.11-1.65,1.8s.57,1.42.77,2.18.5.82,1.12.8,1.69-.33,2.15.12S68,47.74,68,48.5s0,1.79,0,2.67c0,.49-.12.69-.64.68-1.93,0-3.86,0-5.78,0-.25-.44.07-.8.19-1.17a5.46,5.46,0,0,0-6.23-7,5.69,5.69,0,0,0-7.43,4.76,5.41,5.41,0,0,0,.47,2.84c.19.44.21.64-.36.63-2,0-3.91,0-5.87,0a.73.73,0,0,1-.23-.47,46.05,46.05,0,0,1,0-4.7A.73.73,0,0,1,42.4,46.17Z"/><path class="cls-1" d="M38.85,43.31,33.27,49H33l-4.1-4.08-1.48-1.58q0-3.1,0-6.23a6.42,6.42,0,0,0,2.67.55c2,0,4,0,6,0a6.42,6.42,0,0,0,2.67-.55Q38.84,40.19,38.85,43.31Z"/><path class="cls-1" d="M39.56,54.72V80.3c-.91,0-2.07.32-2.67-.12s-.17-1.66-.17-2.53c0-6.33,0-12.66,0-19,0-.33.16-.71-.15-1a8.05,8.05,0,0,1,0-2.77C37.55,54.47,38.56,54.77,39.56,54.72Z"/><path class="cls-1" d="M41.64,11.28a6,6,0,0,0,2.91-5,2.89,2.89,0,0,1,2.84,3.17l0,8.22c0,.74-.05,1.49,0,2.23,0,.51-.15.67-.67.61a5.75,5.75,0,0,1-5-5.56C41.67,13.71,41.66,12.49,41.64,11.28Z"/><path class="cls-1" d="M55.59,43.62c1-.72,2.1-.28,3.08.08a5.66,5.66,0,0,1,3,8.11c-.77,0-1.54,0-2.31,0-.56,0-.56-.19-.36-.62A5.62,5.62,0,0,0,55.59,43.62Z"/><path class="cls-1" d="M47,38.17a9.12,9.12,0,0,1-2,2.21c-.33.36-.55.62,0,1,1.53,1,2,2.26.91,4-.35.57-.56.84-1.2.8s-1.3,0-2,0a8.18,8.18,0,0,1,.88-2.31.82.82,0,0,0-.19-1.16c-.58-.58-1.65-1.11-1.57-1.78s1-1.21,1.63-1.8,1.13-1.05,1.62-1.64.81-.52,1.22,0A9,9,0,0,0,47,38.17Z"/><path class="cls-1" d="M42.4,46.17v5.64c-.74,0-1.48,0-2.22,0-.44,0-.64-.1-.63-.59,0-1.51,0-3,0-4.54,0-.49.19-.6.63-.58C40.92,46.17,41.66,46.16,42.4,46.17Z"/><path class="cls-1" d="M36.58,54.88a5.53,5.53,0,0,1,0,2.77c-.78.8-1.58,1.59-2.35,2.41a1.14,1.14,0,0,1-1,.33h-2Z"/><path class="cls-1" d="M70.92,57.62a10.21,10.21,0,0,1,.1-2.76l5.38,5.52H74c-.32,0-.46-.24-.65-.42C72.53,59.19,71.72,58.41,70.92,57.62Z"/><path class="cls-1" d="M53.8,34.78v.53c0,2.79,0,2.79-2.64,3.69-.67.23-.8-.39-1.12-.73.83-.16,1-.7.93-1.46,0-2.07,0-2.07,2-2.06C53.27,34.75,53.53,34.77,53.8,34.78Z"/><path class="cls-1" d="M70.84,77.59a34.54,34.54,0,0,1-4.44,0c-1.11-.16-.31-1.27-.5-1.91-.11-.37-.1-.82.55-.79s1.48,0,2.22,0h.68a6,6,0,0,1,1.56.1q0-8.67,0-17.33a4.45,4.45,0,0,0,.1-2.77c-.11-.18-.29-.16-.47-.16l-13.9,0v7.35c-.88-.89-1.64-1.6-2.35-2.37-.37-.4-.63-.4-1,0-.69.77-1.41,1.5-2.11,2.25L51,61.85V54.72H39.56a1.54,1.54,0,0,0-.29,1.17V79.12a1.56,1.56,0,0,0,.29,1.18l1,0c9.75,0,19.51,0,29.27,0,.89,0,1.11-.21,1.11-1.1,0-.56,0-1.11,0-1.67Zm-6.41-5.81c-2.25,0-2.24,0-2.09-2.26,0-.39.12-.6.56-.59a33.72,33.72,0,0,1,4.61.06c1.14.16.31,1.31.51,2,.12.39.1.85-.57.82s-1.54,0-2.31,0Z"/><path class="cls-1" d="M50.26,20.76a2.94,2.94,0,0,0-2.84-3.12c-.46.51-.23,1.13-.27,1.7-.06.83-.15.92-1,.76a5.48,5.48,0,0,1-4.22-5c0-.86,0-1.72,0-2.58a2,2,0,0,0-.22-1.29c-.44-.09-.71.24-1,.46-1.05.77-2.09,1.56-3.13,2.34A16.8,16.8,0,0,1,27.3,17.41c-2,0-4,.06-5.95-.05a.53.53,0,0,0-.49.15c-.49.31-1,.13-1.55.14-1.74,0-2.95.77-3.17,2.25-.27,1.94-.23,3.36,1.68,4.33,1.06.54,2.1,1.1,3.18,1.58A1.14,1.14,0,0,1,21.77,27a14.21,14.21,0,0,0,.09,3.45c.75,3.13,3.23,4.81,5.6,6.58a2.12,2.12,0,0,0,1.89.77c2.53.08,5.07.08,7.6,0a2.13,2.13,0,0,0,1.89-.77c1.7-.79,2.7-2.37,4-3.56a5.17,5.17,0,0,0,1.51-2.76,3.82,3.82,0,0,0,.13-1.67c-.44-2.24.46-3.58,2.62-4.17a8.26,8.26,0,0,0,.79-.39A3.4,3.4,0,0,0,50.26,20.76ZM28.89,23.35a1.35,1.35,0,0,1-1.4-1.57c.06-.54-.12-.58-.54-.57-.62,0-1.24,0-1.86,0s-1.18,0-1.17-.74.59-.69,1.13-.69c.8,0,1.6,0,2.4,0s1.78,0,2.67,0a.79.79,0,0,1,.84.51.62.62,0,0,1-.43.85c-.41.12-.26.34-.25.6A1.41,1.41,0,0,1,28.89,23.35Zm7.65,6.13A4.26,4.26,0,0,1,33,31.4c-1.47.07-2.41-.93-3.31-2a.6.6,0,0,1,.09-.87.64.64,0,0,1,.89-.06,3,3,0,0,1,.33.29c1.71,1.62,2.53,1.63,4.19,0,.11-.1.21-.21.33-.3a.64.64,0,0,1,.95.07A.66.66,0,0,1,36.54,29.48Zm5.08-8.27H38.76a5,5,0,0,1,.07.69,1.41,1.41,0,1,1-2.82,0c0-.33.19-.67-.36-.81a.56.56,0,0,1-.33-.73.67.67,0,0,1,.63-.54c1.93,0,3.86,0,5.78,0a.64.64,0,0,1,.65.71A.68.68,0,0,1,41.62,21.21Z"/></svg>