<svg id="Layer_1" data-name="Layer 1" xmlns="http://www.w3.org/2000/svg" viewBox="0 0 80 80"><defs><style>.cls-1{fill:#29AC0A;}</style></defs><path class="cls-1" d="M38.75,79.92c-.77-.42-1.65-.52-2.42-1a7.69,7.69,0,0,1,5.09-14.32,7.83,7.83,0,0,1,6.23,6.87,7.66,7.66,0,0,1-5.35,8l-1.22.4Z"/><path class="cls-1" d="M10.53,79.92c-.76-.42-1.64-.53-2.42-1A7.71,7.71,0,0,1,4.63,69.4a7.79,7.79,0,0,1,8.6-4.75,7.76,7.76,0,0,1,6.23,7.19,7.68,7.68,0,0,1-5.37,7.69l-1.22.39Z"/><path class="cls-1" d="M67,79.92c-.79-.42-1.69-.54-2.49-1a7.6,7.6,0,0,1-3.88-7.71,7.48,7.48,0,0,1,5.27-6.32,7.68,7.68,0,0,1,7.81,12.7,7.21,7.21,0,0,1-4.28,2.17c-.11,0-.21,0-.25.14Z"/><path class="cls-1" d="M57.56,41.06q0,4.55,0,9.11a2.35,2.35,0,0,1-.28,1.19,11.16,11.16,0,0,0-1.36,4.42c0,.48-.21.63-.66.63-.83,0-1.66,0-2.49,0-.39,0-.45-.15-.49-.49a12.26,12.26,0,0,0-9.44-10.81.57.57,0,0,1-.53-.66c0-5,0-10.08,0-15.12,0-.43.1-.61.55-.56a4.12,4.12,0,0,0,.86,0,2.3,2.3,0,0,0,2.2-2.28,2.23,2.23,0,0,0-2.12-2.35c-2.54-.06-5.09-.06-7.63,0a2.24,2.24,0,0,0-2.13,2.34,2.33,2.33,0,0,0,2.2,2.3c.45,0,1.1-.22,1.32.12s.08.95.09,1.44c0,4.65,0,9.29,0,13.94,0,.56-.16.75-.68.87a12.3,12.3,0,0,0-9.27,10.6c-.06.54-.21.7-.74.67-.77-.06-1.55,0-2.33,0-.37,0-.54-.11-.58-.53a11.57,11.57,0,0,0-1.43-4.64,1.82,1.82,0,0,1-.22-1c0-5.79,0-11.58,0-17.37a10.51,10.51,0,0,1,9.11-10.73,8.91,8.91,0,0,1,1.55-.1c4.6,0,9.2,0,13.79,0a10.46,10.46,0,0,1,10.5,8.71,14.49,14.49,0,0,1,.18,2.79Z"/><path class="cls-1" d="M50,10.14a10,10,0,1,1-10-10A10,10,0,0,1,50,10.14Z"/><path class="cls-1" d="M32.31,57.74a7.93,7.93,0,0,1,6.08-8.13,7.7,7.7,0,0,1,8.3,3.8,7.53,7.53,0,0,1-.13,7.71c-.22.39-.4.4-.77.21a12.08,12.08,0,0,0-11.62,0c-.4.21-.55.1-.76-.25A7.45,7.45,0,0,1,32.31,57.74Z"/><path class="cls-1" d="M19.47,57.25a7.71,7.71,0,0,1-1.13,3.9c-.22.36-.38.37-.72.2a12.09,12.09,0,0,0-11.69,0c-.31.16-.46.15-.67-.17-2.6-3.9-.57-9.67,3.84-11.27a7.75,7.75,0,0,1,10.37,6.94Z"/><path class="cls-1" d="M75.87,57.38a7.57,7.57,0,0,1-1.08,3.7c-.24.42-.43.45-.83.24a12.06,12.06,0,0,0-10.29-.59,5.58,5.58,0,0,0-1.05.49c-.52.34-.79.28-1.12-.29a7.68,7.68,0,1,1,14.37-3.55Z"/></svg>