<svg id="Layer_1" data-name="Layer 1" xmlns="http://www.w3.org/2000/svg" viewBox="0 0 80 80"><defs><style>.cls-1{fill:#fff;}</style></defs><path class="cls-1" d="M39.92,79.86H4.71c-1.82,0-2.32-.49-2.32-2.3,0-1,0-2.1,0-3.16a1.7,1.7,0,0,1,1.92-1.87c1.41,0,2.82,0,4.23,0,.48,0,.62-.15.6-.61,0-.78,0-1.55,0-2.33a2.14,2.14,0,0,1,2.21-2.2c3.63,0,7.25,0,10.88,0a2.18,2.18,0,0,1,2.22,2.21c0,.74,0,1.49,0,2.24,0,.53.11.7.67.69,2.63,0,5.26,0,7.89,0,7.09,0,14.17,0,21.26,0,.68,0,.93-.14.86-.85a14,14,0,0,1,0-2.24,2.12,2.12,0,0,1,2.19-2c3.62,0,7.25,0,10.87,0a2.22,2.22,0,0,1,2.25,2.2,12,12,0,0,1,0,2.08c-.09.78.23.9.92.87,1.35-.05,2.71,0,4.07,0s2,.61,2,2q0,1.62,0,3.24c0,1.47-.6,2.06-2.07,2.06Z"/><path class="cls-1" d="M39.92,30q17.56,0,35.13,0c.77,0,1,.2.93.95-.06.93,0,1.88,0,2.82A2.2,2.2,0,0,1,73.68,36c-.89,0-1.78,0-2.66,0-.45,0-.57.14-.56.56,0,.75,0,1.5,0,2.25a2.22,2.22,0,0,1-2.36,2.33c-3.54,0-7.09,0-10.63,0a2.17,2.17,0,0,1-2.35-2.24,17.3,17.3,0,0,1,0-2.16c0-.57-.14-.75-.73-.75-3,0-6,0-9.06,0-6.61,0-13.23,0-19.85,0-.9,0-1.13.27-1,1.1a13.81,13.81,0,0,1,0,1.82,2.19,2.19,0,0,1-2.28,2.24q-5.4,0-10.8,0A2.12,2.12,0,0,1,9.15,39c0-.8,0-1.6,0-2.41,0-.43-.13-.58-.57-.56q-1.25,0-2.49,0a2.17,2.17,0,0,1-2.2-2.22c0-1.11,0-2.22,0-3.33,0-.38.1-.56.51-.51A5.61,5.61,0,0,0,5,30Z"/><path class="cls-1" d="M39.79,38.52c4,0,8,0,12,0,.61,0,.78.15.82.76A4.46,4.46,0,0,0,55,43a.72.72,0,0,1,.4.72q0,10.59,0,21.19a.71.71,0,0,1-.44.69,4.58,4.58,0,0,0-2.29,3.74c0,.54-.16.78-.75.72-.92-.1-2.17.38-2.7-.19s-.14-1.73-.14-2.64c0-3.54,0-7.09,0-10.63a9.12,9.12,0,1,0-18.23-.16c-.06,4.27,0,8.53,0,12.8,0,.61-.11.88-.8.82a23,23,0,0,0-2.49,0c-.41,0-.56-.08-.58-.53a4.5,4.5,0,0,0-2.28-3.9.8.8,0,0,1-.42-.8c0-7,0-14,0-21a.88.88,0,0,1,.48-.85,4.45,4.45,0,0,0,2.22-3.76c0-.59.23-.66.73-.66C31.7,38.53,35.74,38.52,39.79,38.52Z"/><path class="cls-1" d="M11.84,54.31c0-3.3,0-6.59,0-9.89,0-.62.15-.78.77-.77,2.8,0,5.59,0,8.39,0,.56,0,.76.12.76.72q0,9.93,0,19.86c0,.56-.18.67-.71.67q-4.27,0-8.55,0c-.59,0-.66-.2-.66-.7C11.85,60.9,11.84,57.61,11.84,54.31Z"/><path class="cls-1" d="M57.85,54.27c0-3.29,0-6.58,0-9.88,0-.56.12-.75.72-.74,2.82,0,5.65,0,8.47,0,.53,0,.7.12.7.69q0,10,0,19.92c0,.52-.14.64-.64.64q-4.32,0-8.64,0c-.55,0-.61-.2-.6-.67C57.86,60.91,57.85,57.59,57.85,54.27Z"/><path class="cls-1" d="M77,18.83c-3.42-1.68-6.79-3.46-10.17-5.2Q54,7,41.25.47a2.65,2.65,0,0,0-2.73,0c-1.65.91-3.34,1.73-5,2.59L2.53,19A2.23,2.23,0,0,0,1.16,21.2c0,1.36,0,2.71,0,4.07a2.11,2.11,0,0,0,.69,1.63,2.65,2.65,0,0,0,1.94.55h72a7.66,7.66,0,0,0,.83,0,2,2,0,0,0,2-2.15c0-1.19-.06-2.39,0-3.57A2.69,2.69,0,0,0,77,18.83ZM39.92,21a6.49,6.49,0,1,1,6.48-6.5A6.49,6.49,0,0,1,39.92,21Z"/></svg>