<svg id="Layer_1" data-name="Layer 1" xmlns="http://www.w3.org/2000/svg" viewBox="0 0 40 40"><defs><style>.cls-1{fill:#4557b7;}</style></defs><path class="cls-1" d="M12.61,7.82H27.2a4.69,4.69,0,0,0,4.87-4.13A3.17,3.17,0,0,0,29.84.12c-.13,0-.29,0-.39-.12H16.87a.08.08,0,0,1,0,.07,5.46,5.46,0,0,0-4.51,4.11,18,18,0,0,0-.15,3.19C12.16,7.71,12.24,7.82,12.61,7.82Z"/><path class="cls-1" d="M12.25,17a7.8,7.8,0,0,0,15.53-1V10.5c0-.29-.06-.36-.36-.36H12.51c-.27,0-.37,0-.36.35v2.93A35,35,0,0,0,12.25,17Z"/><path class="cls-1" d="M9.62,32.54c.28-.59.5-1.2.78-1.79a.36.36,0,0,0,0-.42,4.36,4.36,0,0,1-.94-2.9v-3a5,5,0,0,0-.45.3,11.65,11.65,0,0,0-1.4,1.12,13.38,13.38,0,0,0-4.34,8.7c-.13,1.37,0,2.75-.06,4.13a1.18,1.18,0,0,0,1,1.32h8.49c.1,0,.21,0,.3-.06-1.11-2-2.21-4-3.34-6A1.45,1.45,0,0,1,9.62,32.54Z"/><path class="cls-1" d="M36.64,33.87a13.63,13.63,0,0,0-6.1-9.49v3.28a4.1,4.1,0,0,1-.88,2.61.44.44,0,0,0-.05.5c.25.57.47,1.15.74,1.72a1.45,1.45,0,0,1-.07,1.5c-1.06,1.87-2.1,3.76-3.14,5.65A.59.59,0,0,0,27,40h8.67a1.12,1.12,0,0,0,1.12-1.12h0A33.38,33.38,0,0,0,36.64,33.87Z"/><path class="cls-1" d="M18.83,35.06V30.41c0-.41,0-.43-.42-.25l-2.75,1.38a4.59,4.59,0,0,1-2.19.45c-.34,0-.74-.3-1-.08s-.3.65-.46,1a.44.44,0,0,0,0,.47c1.18,2.13,2.37,4.26,3.55,6.4A.4.4,0,0,0,16,40h2.46c.26,0,.34-.05.34-.33C18.82,38.13,18.83,36.59,18.83,35.06Z"/><path class="cls-1" d="M27.62,32.08v0c0-.23-.18-.23-.37-.19a4.29,4.29,0,0,1-3.06-.4l-2.6-1.31c-.36-.17-.4-.15-.4.24v9.25c0,.31.09.36.37.36h2.38a.51.51,0,0,0,.53-.33c1-1.87,2.06-3.73,3.09-5.59C28.08,33.1,28.08,33.1,27.62,32.08Z"/><path class="cls-1" d="M14.51,29.47c.64-.27,1.26-.61,1.89-.92.15-.07.18-.13.09-.28a3.94,3.94,0,0,1-.54-2.7.29.29,0,0,0-.2-.35h0a9.26,9.26,0,0,1-2.9-2c-.18-.18-.28-.14-.43,0a1.93,1.93,0,0,0-.62,1.39v3.12a2,2,0,0,0,1.95,1.92A2,2,0,0,0,14.51,29.47Z"/><path class="cls-1" d="M23.59,28.55c.63.3,1.25.64,1.89.92a1.93,1.93,0,0,0,2.55-1,2,2,0,0,0,.17-.75V24.61a2,2,0,0,0-.62-1.4c-.17-.17-.28-.17-.46,0a9.42,9.42,0,0,1-2.83,2c-.18.09-.27.17-.24.4a4,4,0,0,1-.56,2.64C23.43,28.4,23.43,28.47,23.59,28.55Z"/><path class="cls-1" d="M21.74,26.3c0-.21,0-.3-.26-.26a8.89,8.89,0,0,1-3,0c-.24,0-.26.05-.25.24a1.76,1.76,0,1,0,3.51,0Z"/></svg>