<svg id="Layer_1" data-name="Layer 1" xmlns="http://www.w3.org/2000/svg" viewBox="0 0 40 40"><defs><style>.cls-1{fill:#4caf50;}</style></defs><path class="cls-1" d="M20,24.62h8.88c.42,0,.51.11.45.5Q28.67,30.48,28,35.84c0,.37-.23.35-.5.35H12.58c-.4,0-.56-.06-.61-.5-.42-3.53-.87-7-1.33-10.53-.05-.43,0-.55.51-.55C14.1,24.63,17.06,24.62,20,24.62Z"/><path class="cls-1" d="M20,16.68A8.29,8.29,0,0,1,11.73,9c0-.5.23-.34.46-.31a9.26,9.26,0,0,0,8.39-2.75A7.6,7.6,0,0,0,21.35,5c.19-.29.27-.24.46,0a9.17,9.17,0,0,0,5.51,3.59c1,.23,1,.24.82,1.34A8.26,8.26,0,0,1,20,16.68Z"/><path class="cls-1" d="M20.06,37.25h18.2c1.13,0,1.73.45,1.74,1.3s-.61,1.33-1.72,1.33H1.71A4.49,4.49,0,0,1,1,39.82a1.31,1.31,0,0,1,.08-2.55,4,4,0,0,1,.69,0Z"/><path class="cls-1" d="M28.24,7.7a8.28,8.28,0,0,1-6.08-4.08C21.77,3,21.38,3,21,3.65a8.28,8.28,0,0,1-8.74,4c-.37-.07-.5-.19-.41-.58a8.29,8.29,0,0,1,16.36,0C28.21,7.23,28.22,7.44,28.24,7.7Z"/><path class="cls-1" d="M26.6,23.56H23.45a.54.54,0,0,1-.62-.4q-.91-2.47-1.9-4.94c-.18-.45-.05-.5.37-.5A13.31,13.31,0,0,1,34.54,29.14c.08.5.11,1,.18,1.46,0,.25,0,.34-.31.33H30c-.27,0-.32-.09-.29-.34.27-2,.51-4.07.78-6.1.11-.76,0-.93-.77-.93Z"/><path class="cls-1" d="M13.4,23.56H10.2c-.62,0-.78.21-.7.82.26,2.05.5,4.1.79,6.14,0,.35,0,.42-.37.42H5.66c-.35,0-.4-.11-.38-.43A13.76,13.76,0,0,1,17.8,17.81l1.1-.07c.23,0,.34.05.24.29-.7,1.77-1.38,3.54-2.05,5.33-.1.26-.29.2-.47.2Z"/><path class="cls-1" d="M20,18.72c.28.73.51,1.34.75,2,.33.85.65,1.7,1,2.52.1.23.11.35-.2.35H18.5c-.22,0-.34,0-.24-.29C18.81,21.8,19.38,20.33,20,18.72Z"/></svg>