<svg id="Layer_1" data-name="Layer 1" xmlns="http://www.w3.org/2000/svg" viewBox="0 0 40 40"><defs><style>.cls-1{fill:#9c27b0;}</style></defs><path class="cls-1" d="M35.27,27.2c-.06-.09-.15-.08-.24-.08h-7a.5.5,0,0,0-.12.41v3c-.32-.31-.63-.63-.94-.94a.46.46,0,0,0-.64-.09l-.09.09c-.31.31-.62.63-.94.94v-3a.55.55,0,0,0-.13-.41H19.52a.77.77,0,0,0-.14.59V39.35a.77.77,0,0,0,.14.59H34.68c.45,0,.56-.11.56-.56v-.83h0a15.23,15.23,0,0,1-2.24,0c-.55-.08-.15-.63-.25-1s-.05-.41.28-.4.74,0,1.11,0h.34a3.41,3.41,0,0,1,.78,0V28.59A2.28,2.28,0,0,0,35.27,27.2Zm-1.51,8.07c.06.2.05.43-.28.41s-.77,0-1.16,0H32c-1.13,0-1.13,0-1-1.13,0-.2.06-.3.28-.3a17.81,17.81,0,0,1,2.31,0C34.09,34.36,33.67,34.94,33.76,35.27Z"/><path class="cls-1" d="M23.46,8.57c-.23.25-.12.56-.14.85s-.07.46-.5.38a2.74,2.74,0,0,1-2.11-2.5V6a1,1,0,0,0-.11-.64c-.22-.05-.36.12-.5.23L18.53,6.76a8.37,8.37,0,0,1-5.15,1.69c-1,0-2,0-3,0a.24.24,0,0,0-.24.07c-.25.16-.5.07-.78.07C8.51,8.57,7.91,9,7.8,9.7c-.14,1-.12,1.68.84,2.17.53.27,1,.55,1.59.79a.55.55,0,0,1,.38.61A7.18,7.18,0,0,0,10.66,15c.37,1.56,1.62,2.41,2.8,3.29a1.08,1.08,0,0,0,.95.39q1.9.06,3.81,0a1.06,1.06,0,0,0,.94-.39,8.52,8.52,0,0,0,2-1.78,2.6,2.6,0,0,0,.76-1.38,2,2,0,0,0,.07-.84A1.61,1.61,0,0,1,23.3,12.2c.14,0,.26-.14.4-.19a1.72,1.72,0,0,0,1.16-1.88,1.47,1.47,0,0,0-1.37-1.56Zm-9.28,2.86a.69.69,0,0,1-.71-.66.57.57,0,0,1,0-.13c0-.28-.06-.29-.27-.29h-.93c-.31,0-.59,0-.59-.37s.3-.35.57-.34H14.8a.39.39,0,0,1,.42.25.33.33,0,0,1-.18.42h0c-.2.06-.13.17-.12.3a.71.71,0,0,1-.6.8ZM18,14.5a2.13,2.13,0,0,1-1.77.95,2.06,2.06,0,0,1-1.66-1,.32.32,0,0,1,0-.44h0a.31.31,0,0,1,.44,0l.17.15c.85.81,1.26.81,2.09,0A1.14,1.14,0,0,1,17.5,14,.31.31,0,0,1,18,14l0,0a.32.32,0,0,1,0,.46Zm2.54-4.15H19.12c0,.12,0,.23,0,.35a.71.71,0,0,1-1.42,0h0c0-.17.1-.34-.18-.41a.27.27,0,0,1-.16-.35h0a.34.34,0,0,1,.31-.27h2.9a.32.32,0,0,1,.33.31s0,0,0,0a.34.34,0,0,1-.33.35Z"/><path class="cls-1" d="M20.56,5.38a18.07,18.07,0,0,1-3.79,2.51,8.75,8.75,0,0,1-3.11.66H10.77c-.2,0-.41,0-.61,0A1.45,1.45,0,0,1,9.18,7a26.65,26.65,0,0,1,.08-3.46,4.22,4.22,0,0,1,4.1-3.5C15.24,0,17.13,0,19,0a2.85,2.85,0,0,1,3,2.69c0,.06,0,.11,0,.16a.34.34,0,0,1,.09.24,2.94,2.94,0,0,1-1.37,2.29A.19.19,0,0,1,20.56,5.38Z"/><path class="cls-1" d="M14.2,22.2,6.81,25A2.87,2.87,0,0,0,4.9,27.75V39.94H2.4c-.3,0-.37-.09-.37-.37V27.71A2.77,2.77,0,0,1,3.84,25q4.8-1.82,9.6-3.59A1.49,1.49,0,0,1,14.2,22.2Z"/><path class="cls-1" d="M20.94,22.85h.18c.29-.19.61-.09.91-.1a.6.6,0,0,0,.58-.37,1.19,1.19,0,0,0-.17-1.66l-.19-.13c-.39-.29-.36-.43,0-.79a9,9,0,0,1,1-.95.66.66,0,0,0,.88.34.6.6,0,0,0,.21-.14,1.5,1.5,0,0,1,.42-.15c.2,0,.32.31.55.22a8.28,8.28,0,0,0,1.09-.5c.16-.1.11-.3.12-.46,0-.34-.09-.71.12-1h.08c.43,0,1-.17,1.26.07s.08.79.08,1.2a.36.36,0,0,0,.31.42h0a.85.85,0,0,1,.34.11c.63.5,1.08.25,1.53-.3s.42-.45.87,0,.88.89,1.33,1.32c.18.17.25.28,0,.5s-.74.56-.82.9.28.72.38,1.09.25.41.56.4.85-.16,1.08.06.1.74.1,1.14v1.33c0,.25-.06.35-.32.34H30.55c-.13-.22,0-.4.09-.58a2.74,2.74,0,0,0-3.12-3.51,2.84,2.84,0,0,0-3.59,1.82,3.39,3.39,0,0,0-.13.57A2.68,2.68,0,0,0,24,25.43c.09.22.1.32-.18.31H20.92a.35.35,0,0,1-.12-.23,23.22,23.22,0,0,1,0-2.36A.41.41,0,0,1,20.94,22.85Z"/><path class="cls-1" d="M19.17,21.42l-2.8,2.83h-.13L14.18,22.2l-.74-.79V18.3a3.45,3.45,0,0,0,1.34.27h3a3.41,3.41,0,0,0,1.34-.27C19.15,19.34,19.16,20.38,19.17,21.42Z"/><path class="cls-1" d="M19.52,27.13V39.94c-.45,0-1,.16-1.33-.06s-.09-.83-.09-1.26V29.1c0-.16.08-.35-.07-.5a4.06,4.06,0,0,1,0-1.39A4.39,4.39,0,0,1,19.52,27.13Z"/><path class="cls-1" d="M20.56,5.38A3,3,0,0,0,22,2.88a1.44,1.44,0,0,1,1.43,1.46.57.57,0,0,1,0,.13V8.58c0,.37,0,.75,0,1.12s-.07.33-.33.3A2.88,2.88,0,0,1,20.6,7.22C20.58,6.6,20.57,6,20.56,5.38Z"/><path class="cls-1" d="M27.55,21.58a1.57,1.57,0,0,1,1.54,0,2.83,2.83,0,0,1,1.7,3.63,2.39,2.39,0,0,1-.2.43H29.44c-.28,0-.28-.1-.18-.31a2.82,2.82,0,0,0-1.47-3.7A1.17,1.17,0,0,0,27.55,21.58Z"/><path class="cls-1" d="M23.25,18.85a4.56,4.56,0,0,1-1,1.1c-.17.18-.28.31,0,.5a1.3,1.3,0,0,1,.45,2c-.17.28-.28.42-.6.4s-.65,0-1,0a4.28,4.28,0,0,1,.44-1.16.4.4,0,0,0-.09-.57h0c-.3-.29-.83-.56-.79-.89s.5-.61.82-.9a7.81,7.81,0,0,0,.81-.82c.24-.32.4-.26.61,0S23.13,18.74,23.25,18.85Z"/><path class="cls-1" d="M20.94,22.85v2.83H19.83c-.22,0-.32-.05-.31-.3V23.11c0-.25.09-.3.31-.29C20.2,22.85,20.57,22.85,20.94,22.85Z"/><path class="cls-1" d="M18,27.21a2.73,2.73,0,0,1,0,1.39c-.39.4-.79.8-1.18,1.21a.57.57,0,0,1-.5.16h-1Z"/><path class="cls-1" d="M35.23,28.59a5,5,0,0,1,.05-1.39L38,30h-1.2c-.16,0-.23-.12-.33-.21Z"/><path class="cls-1" d="M26.65,17.15v.27c0,1.39,0,1.39-1.32,1.84-.33.12-.4-.19-.56-.36.42-.08.5-.35.47-.73,0-1,0-1,1-1Z"/></svg>