<svg id="Layer_1" data-name="Layer 1" xmlns="http://www.w3.org/2000/svg" viewBox="0 0 40 40"><defs><style>.cls-1{fill:#ff9800;}</style></defs><path class="cls-1" d="M20.39,32.87l1.43,6.41c.63-1.26,1.23-2.44,1.8-3.62.13-.29.26-.32.55-.23,1.38.48,2.76.93,4.15,1.4l.33.1c-.07-.22-.11-.38-.16-.53L26.3,29.84a.74.74,0,0,1,0-.68,3.81,3.81,0,0,0,.5-1.5.68.68,0,0,1,.25-.5,3.32,3.32,0,0,0,.85-4.87l-.12-.2h9.7c.35,0,.41.1.41.43V36.39A3.49,3.49,0,0,1,34.55,40H5.72a3.5,3.5,0,0,1-3.65-3.35,1.71,1.71,0,0,1,0-.32V22.5c0-.37.1-.44.44-.44h9.63a.72.72,0,0,1-.2.41A3.26,3.26,0,0,0,12.82,27a.9.9,0,0,1,.37.64,3.7,3.7,0,0,0,1,2.19c.19.19.08.34,0,.5-.68,2.08-1.37,4.18-2.08,6.28,0,.07,0,.14-.06.23a1,1,0,0,0,.53-.12c1.31-.43,2.61-.86,3.91-1.31.32-.11.45-.05.6.26.55,1.16,1.13,2.29,1.78,3.56l1.43-6.4Z"/><path class="cls-1" d="M24.46,12.37a7.59,7.59,0,0,0,0-12.28c0-.13.14-.07.2-.07h4.05c.25,0,.33.07.39.31a3.73,3.73,0,0,0,3.1,3c.17,0,.22.1.22.25V8.83c0,.17-.07.21-.22.24a3.77,3.77,0,0,0-3.11,3.06c0,.16,0,.31-.3.31H24.53Z"/><path class="cls-1" d="M15.65,0a7.62,7.62,0,0,0,0,12.41h-4.3c-.18,0-.33,0-.39-.25A3.73,3.73,0,0,0,7.77,9.05c-.19,0-.18-.14-.18-.27V3.65c0-.19,0-.26.25-.3a3.66,3.66,0,0,0,3-2.91c.1-.37.25-.44.6-.44Z"/><path class="cls-1" d="M6.22,15.88v4.44c0,.28,0,.39-.36.38H2.41c-.29,0-.34-.09-.34-.36V12.51a1.36,1.36,0,0,1,1.27-1.46H5.89c.27,0,.33.07.32.33C6.22,12.87,6.22,14.38,6.22,15.88Z"/><path class="cls-1" d="M33.78,15.87V11.39c0-.26,0-.37.34-.36.79,0,1.58,0,2.37,0a1.37,1.37,0,0,1,1.43,1.3v8c0,.3-.09.35-.36.35H34.12c-.29,0-.36-.08-.35-.36C33.79,18.85,33.78,17.36,33.78,15.87Z"/><path class="cls-1" d="M20,15.18H8c-.36,0-.45-.09-.44-.45,0-.94,0-.94,1-.94h23.4c.39,0,.5.09.5.5,0,.9,0,.9-.92.9Z"/><path class="cls-1" d="M26.49,34.77c-1.08-.36-2.09-.69-3.08-1-.24-.08-.36,0-.46.19s-.38.77-.59,1.19a3.1,3.1,0,0,1-.28-1c-.18-.73-.32-1.5-.5-2.21-.07-.29-.06-.47.27-.58a2.35,2.35,0,0,0,.95-.64.43.43,0,0,1,.5-.15,2.73,2.73,0,0,0,1.5,0c.18,0,.24,0,.31.14C25.56,32,26,33.34,26.49,34.77Z"/><path class="cls-1" d="M18.32,35.09c-.2-.39-.41-.76-.57-1.16s-.25-.27-.5-.18c-1,.34-2,.67-3.06,1,.45-1.38.89-2.69,1.32-4,.05-.17.16-.17.3-.17a2.65,2.65,0,0,0,.93-.08.36.36,0,0,1,.39.1,3.6,3.6,0,0,0,1.75,1c.12,0,.29,0,.23.25-.25,1.06-.5,2.12-.72,3.18C18.39,35,18.36,35.06,18.32,35.09Z"/><path class="cls-1" d="M16.54,16.56a1.06,1.06,0,0,1-1.06.77,2.69,2.69,0,0,0-1.27.35,2.32,2.32,0,0,1-1.24.26h-5c-.28,0-.35-.07-.35-.36,0-1,0-1,1-1h7.92Z"/><path class="cls-1" d="M23.46,16.56H32c.33,0,.4.08.4.4,0,1,0,1-1,1H26.63a1.31,1.31,0,0,1-.61-.15,3.2,3.2,0,0,0-1.38-.44A1.14,1.14,0,0,1,23.46,16.56Z"/><path class="cls-1" d="M27.47,19.31h4.69c.18,0,.24,0,.26.23.07,1.16.08,1.16-1.05,1.16H28.06c-.22,0-.32,0-.33-.3A3.77,3.77,0,0,0,27.47,19.31Z"/><path class="cls-1" d="M12.51,19.31a5,5,0,0,0-.26,1.2c0,.16-.08.18-.21.18H7.79c-.14,0-.22,0-.2-.19v-.12c0-1.07,0-1.07,1-1.07Z"/><path class="cls-1" d="M9.56,0a2.51,2.51,0,0,1-2,2V.16c0-.19.14-.15.24-.15Z"/><path class="cls-1" d="M30.45,0h1.69c.2,0,.28,0,.27.26V2A2.32,2.32,0,0,1,30.45,0Z"/><path class="cls-1" d="M9.55,12.42H7.85c-.16,0-.27,0-.27-.22V10.45A2.34,2.34,0,0,1,9.55,12.42Z"/><path class="cls-1" d="M30.44,12.42a2.48,2.48,0,0,1,1.67-1.92c.21-.07.31-.1.3.19v1.5c0,.19-.06.24-.24.24C31.6,12.41,31,12.42,30.44,12.42Z"/><path class="cls-1" d="M26.72,23a1.77,1.77,0,0,1-.38-1.66,2,2,0,0,0-1.89-2.62,6.56,6.56,0,0,0-1.25-.07c-.16,0-.26,0-.31-.21A2.79,2.79,0,0,0,20,16.57a3.18,3.18,0,0,0-2.5,1.07c-.26.3-.2.84-.58,1s-.82.08-1.24.09h-.08c-1.47.22-2.22,1.09-1.94,2.53a2.13,2.13,0,0,1-.45,1.83,1.9,1.9,0,0,0,.5,2.94,3.61,3.61,0,0,0,.5.33.4.4,0,0,1,.24.44,3.72,3.72,0,0,0,.35,1.67,1.19,1.19,0,0,0,1.35.76,3.6,3.6,0,0,0,1.1-.34c.2-.09.33-.1.42.15.58,1.54,3.12,1.67,4.18.63.26-.25.27-.78.66-.8s.69.24,1.05.32a1.24,1.24,0,0,0,1.61-.71l0-.09a2.74,2.74,0,0,0,.29-1.29.92.92,0,0,1,.55-.93C27.38,25.31,27.64,24.2,26.72,23ZM20,27.59a4.14,4.14,0,1,1,4.12-4.16v0A4.14,4.14,0,0,1,20,27.59Z"/><path class="cls-1" d="M20.45,6.42H19.22V8.57c0,.37.23.55.7.55A1.33,1.33,0,0,0,20.56,9a2.37,2.37,0,0,0,.57-.43A2.55,2.55,0,0,0,21.56,8a1.61,1.61,0,0,0,.2-.57,1.35,1.35,0,0,1-.93-.26A.93.93,0,0,1,20.45,6.42Z"/><path class="cls-1" d="M20,0a6.21,6.21,0,1,0,6.2,6.24A6.2,6.2,0,0,0,20,0Zm3.12,8.06A4.84,4.84,0,0,1,21.22,10a2.43,2.43,0,0,1-1.17.33c-.22,0-.44,0-.66,0a1.55,1.55,0,0,1-.67-.21,1.32,1.32,0,0,1-.5-.52,1.82,1.82,0,0,1-.22-1V6.42h-.28l-1.2-1.2H18V4.78a.24.24,0,0,0,0-.12V3.94a.74.74,0,0,0,0-.21.57.57,0,0,0-.11-.28.45.45,0,0,0-.31-.1H17.4a1.17,1.17,0,0,0-.3.19l-.38-1.18a3.49,3.49,0,0,1,.57-.2,1.69,1.69,0,0,1,.5-.08,1.48,1.48,0,0,1,.74.16,1.26,1.26,0,0,1,.44.42,1.85,1.85,0,0,1,.2.6,4.87,4.87,0,0,1,0,.65V5.2h.18l1,1.07h0a1.46,1.46,0,0,1,.33-1,1.27,1.27,0,0,1,1-.39,2,2,0,0,1,.81.17,1.47,1.47,0,0,1,.5.46,1.76,1.76,0,0,1,.28.66,3.3,3.3,0,0,1,.08.77,2.63,2.63,0,0,1-.29,1.13Z"/></svg>