<svg id="Layer_1" data-name="Layer 1" xmlns="http://www.w3.org/2000/svg" viewBox="0 0 40 40"><defs><style>.cls-1{fill:#ae441f;}</style></defs><path class="cls-1" d="M33.16,32.54a7.61,7.61,0,0,0-.92,1.12,6.9,6.9,0,0,0-.48,1.41,1.82,1.82,0,0,1,0-3,4.68,4.68,0,0,1,1.58-.61,17.33,17.33,0,0,1,1.76-.25,3.44,3.44,0,0,1-1.73,4.53.36.36,0,0,0-.21.28c-.09.75-.15,1.51-.22,2.24l2.26-1.2-1.57.15a1.2,1.2,0,0,1,.9-1.14c1.2-.42,1.91.5,2.74,1-1,2.06-1.94,2.48-3.44,1.51a7.13,7.13,0,0,1-.68.95c-.19.19-.53.43-.73.37A.85.85,0,0,1,32,39.3a18,18,0,0,1,.76-5.54,10.48,10.48,0,0,1,.51-1.07Z"/><path class="cls-1" d="M29.69,37.15a12.7,12.7,0,0,1,1.2.51c.56.31.57.74.08,1.16a1.51,1.51,0,0,1-2.09-.09c-.42-.46-.77-1-1.21-1.57a11.83,11.83,0,0,1,1.74-1,1.39,1.39,0,0,1,1.87.64,1.47,1.47,0,0,1,.15.58l-.89-.18-.85-.09Z"/><path class="cls-1" d="M8.63,11.79a2.92,2.92,0,0,1,.27-.63L7,14.1l-.26.41.32-1.92A23.29,23.29,0,0,1,7.59,9.7a2.6,2.6,0,0,1,3-2c1.27.2,2.52.43,3.8.63a2.61,2.61,0,0,1,2.17,2.94c-.06.39-.13.79-.19,1.2s-.3,1.12,0,1.51A15.51,15.51,0,0,0,19,16.28c-.83.09-.07-.06,0,0a11.69,11.69,0,0,0-5.33,1.84c-.8.51-1.31-.7-1.91-1.1-.2-.21-.1-.61-.1-.92.2-1.41.2-2.92.28-4.37-.24.75-.05.82,0,0-.59,1.85-1.2,3.77-1.8,5.59.4.4.71.8,1.11,1.21a20.43,20.43,0,0,0,1.31,1.61,13.92,13.92,0,0,1,1.3,1.36,1.65,1.65,0,0,1-.15,2.34l0,0h0a1.66,1.66,0,0,1-2.35-.19h0L7.56,19.13a3,3,0,0,1-.51-2.89C7.52,14.85,8.2,12.92,8.63,11.79Z"/><path class="cls-1" d="M5.33,33a18.18,18.18,0,0,0,5.12-3.58c0,.08-1.06,1,0,0a3.61,3.61,0,0,1-.19,1.08,44.36,44.36,0,0,1-2.93,8c-.1.3-.2.71-.3,1-.1.1-.2.31-.4.31-.71,0-1.42-.31-2.12,0a3.59,3.59,0,0,1-1.42-1c-.1-.1,0-.3.1-.5a31.73,31.73,0,0,0,1.94-5.07Z"/><path class="cls-1" d="M6.12,27.21c1-1.31,1.92-2.63,3-3.94.1-.1,0-.2-.1-.3-.7-.51-.9-1.32-1.71-1.82A13.87,13.87,0,0,1,6,19.59c0,.38.4.44,0,0-.3,2.55.19,5.1.2,7.66"/><path class="cls-1" d="M12,26.75A11.08,11.08,0,0,1,13.88,32c.36,3.27,1.78,7.47,2.35,7.76a9,9,0,0,0,2.78,0,24,24,0,0,0-1-7.19c-1.08-2.92-.63-4.28-1.77-6.41L15.09,24Z"/><path class="cls-1" d="M.71,30s5,.87,9.21-5.65l1.63,1.28S7.16,31.57,4.12,32,.71,32,.71,32Z"/><path class="cls-1" d="M14,19.51a11.58,11.58,0,0,1,9.26-2.13v1.56s-1.2,0-1.27.57a1.85,1.85,0,0,1-2.48,1.31c-1.69-.39-1.34-1.24-2.26-.82l-2,.9Z"/><circle class="cls-1" cx="14.1" cy="3.65" r="3.65"/><path class="cls-1" d="M24.54,19.08h.19l.17,0,.32.09-.25.93-.27-.05h-.24Z"/><path class="cls-1" d="M26.37,19.7a8.07,8.07,0,0,1,1,.64l-.46.68a8.74,8.74,0,0,0-1-.5Z"/><path class="cls-1" d="M28.32,21.11a9.37,9.37,0,0,1,.78.89l-.5.44a9.45,9.45,0,0,0-.79-.76Z"/><path class="cls-1" d="M29.81,23a10,10,0,0,1,.58,1l-.47.26c-.19-.32-.39-.64-.61-.94Z"/><path class="cls-1" d="M30.87,25.06a11.07,11.07,0,0,1,.39,1.1l-.37.13c-.14-.35-.29-.7-.45-1Z"/><polygon class="cls-1" points="31.58 27.28 31.82 28.41 31.57 28.47 31.26 27.37 31.58 27.28"/><polygon class="cls-1" points="32 29.56 32.13 30.7 32.01 30.71 31.82 29.59 32 29.56"/><polygon class="cls-1" points="32.2 31.85 32.23 32.46 32.16 31.86 32.2 31.85"/><path class="cls-1" d="M26.27,17.7H27v1h-.51Z"/><path class="cls-1" d="M28.18,17.83a9.28,9.28,0,0,1,1.17.35l-.28.78A7.77,7.77,0,0,0,28,18.71Z"/><path class="cls-1" d="M30.43,18.7a8.26,8.26,0,0,1,1,.65l-.39.56a7.9,7.9,0,0,0-.94-.54Z"/><path class="cls-1" d="M32.35,20.11a10.84,10.84,0,0,1,.82.84l-.4.37c-.26-.26-.54-.51-.83-.75Z"/><path class="cls-1" d="M33.91,21.86c.23.32.45.64.66,1l-.34.22c-.22-.31-.45-.61-.69-.89Z"/><polygon class="cls-1" points="35.15 23.83 35.67 24.86 35.45 24.98 34.87 23.99 35.15 23.83"/><polygon class="cls-1" points="36.14 25.92 36.55 27 36.45 27.04 35.98 26 36.14 25.92"/><polygon class="cls-1" points="36.92 28.09 37.1 28.67 36.89 28.11 36.92 28.09"/><path class="cls-1" d="M24.88,16.5l.09-.05.08,0,.15-.08.3-.13.4.88-.24.13-.12.07-.05,0,0,0Z"/><path class="cls-1" d="M26.68,15.83a9.77,9.77,0,0,1,1.21-.16l.07.83a6.53,6.53,0,0,0-1.07.21Z"/><path class="cls-1" d="M29.1,15.69a11.77,11.77,0,0,1,1.19.18l-.12.67a10.38,10.38,0,0,0-1.11-.09Z"/><path class="cls-1" d="M31.42,16.18c.37.13.74.27,1.09.43l-.2.5a10.22,10.22,0,0,0-1.07-.34Z"/><path class="cls-1" d="M33.56,17.12c.34.18.67.39,1,.6l-.21.34a9.55,9.55,0,0,0-1-.51Z"/><polygon class="cls-1" points="35.51 18.41 36.41 19.14 36.25 19.34 35.32 18.68 35.51 18.41"/><polygon class="cls-1" points="37.27 19.91 38.09 20.72 38.02 20.79 37.15 20.04 37.27 19.91"/><polygon class="cls-1" points="38.89 21.56 39.29 22.02 38.86 21.59 38.89 21.56"/></svg>