<svg id="Layer_1" data-name="Layer 1" xmlns="http://www.w3.org/2000/svg" viewBox="0 0 40 40"><defs><style>.cls-1{fill:#00bcd4;}</style></defs><path class="cls-1" d="M30.52,8.8h8.36A1.15,1.15,0,0,0,40,8.25V4.59A1,1,0,0,0,39,4H30.26A9.32,9.32,0,0,0,29,4.12,4.23,4.23,0,0,0,25.2,7.68a22.88,22.88,0,0,0-.11,2.87V11c-.83.14-1,.33-1,1.13v3H22.66a3.48,3.48,0,0,0-.05-.36,1.42,1.42,0,0,0-1.34-1.3c-.82,0-1.64,0-2.46,0a1.42,1.42,0,0,0-1.31,1.21c0,.14,0,.28,0,.43h-2V14a2.61,2.61,0,0,0-2.56-2.54H11.07a2.62,2.62,0,0,0-2.81,2.41c0,.12,0,.25,0,.38v.9l-.17,0A8.93,8.93,0,0,0,.42,21.45,15,15,0,0,0,0,23.3V25c.09.43.16.86.26,1.28a9,9,0,0,0,7.5,6.79,3.66,3.66,0,0,1,.5.08V36H9.87V33.19h3.42V36h1.62V33.19H17.5a1.75,1.75,0,0,0,0,.4A1.47,1.47,0,0,0,19,34.85H21a1.51,1.51,0,0,0,1.62-1.38.09.09,0,0,1,0,0,.66.66,0,0,1,0-.26H33.06c1.13,0,1.29-.17,1.29-1.28V29.15h4.58A1.07,1.07,0,0,0,40,28.59V19.72a1,1,0,0,0-1-.57H34.35V16.5c0-1.25-.13-1.38-1.39-1.38H31.09V11.94a.79.79,0,0,0-.42-.82,3.05,3.05,0,0,0-.54-.14V9A.62.62,0,0,1,30.52,8.8ZM9.85,13.89a1,1,0,0,1,1-.88h2a1,1,0,0,1,1,1v1.08h-4A12,12,0,0,1,9.85,13.89Zm7.65,17.7H9.25a7.45,7.45,0,0,1-.94-14.86c.33,0,.65-.05,1-.05H17.5ZM34.38,20.74h4v6.85h-4Zm-8.71-8.12H29.5v2.5H25.67Zm7.09,4.09V31.59H22.65V27.94a2.83,2.83,0,0,0,0-.5.78.78,0,0,0-1-.53.75.75,0,0,0-.54.62,2.44,2.44,0,0,0,0,.54v5.19h-2V15h2v5.31a1.55,1.55,0,0,0,0,.43.75.75,0,0,0,.87.63.78.78,0,0,0,.63-.58,3.44,3.44,0,0,0,0-.46V16.71ZM28.58,8.79c0,.73,0,1.45,0,2.21h-2a27.12,27.12,0,0,1,.19-3.25,2.75,2.75,0,0,1,3-2.14c2.3,0,4.6,0,6.91,0h1.77V7.24H30.15a1.53,1.53,0,0,0-1.57,1.5Z"/><path class="cls-1" d="M13.7,19.48h1a.78.78,0,1,1,0,1.55H12.67a.78.78,0,0,1-.75-.8.77.77,0,0,1,.8-.75h0C13.06,19.47,13.38,19.48,13.7,19.48Z"/><path class="cls-1" d="M13.7,23.37h1.06a.77.77,0,0,1,0,1.54c-.71,0-1.43,0-2.15,0a.76.76,0,0,1-.74-.79h0a.78.78,0,0,1,.78-.75h1Z"/><path class="cls-1" d="M13.73,27.27h1a.78.78,0,0,1,0,1.55q-1,0-2.1,0a.78.78,0,0,1-.71-.84.77.77,0,0,1,.71-.71Z"/><path class="cls-1" d="M21.07,24.16a.77.77,0,0,1,.71-.83.76.76,0,0,1,.83.71.24.24,0,0,1,0,.12.77.77,0,1,1-1.54.13Z"/></svg>