<svg id="Layer_1" data-name="Layer 1" xmlns="http://www.w3.org/2000/svg" viewBox="0 0 40 40"><defs><style>.cls-1{fill:#380766;}</style></defs><path class="cls-1" d="M14.38,19.1a4,4,0,0,0-6.09-5.29,4,4,0,0,0,0,5.24A4.5,4.5,0,0,0,5.94,23v3.49a1,1,0,0,0,.95,1h8.89a1,1,0,0,0,1-1V23A4.43,4.43,0,0,0,14.38,19.1Zm-3-4.74a2.1,2.1,0,0,1,0,4.19h-.05a2.11,2.11,0,0,1-2.1-2.1,2.15,2.15,0,0,1,2.15-2.09Zm3.49,11.23h-7V23.05a2.56,2.56,0,0,1,2.55-2.55h1.89a2.56,2.56,0,0,1,2.55,2.55ZM27.12,14.76h-5.2a1,1,0,1,0-.05,1.94h5.25a1,1,0,0,0,.94-1,1.05,1.05,0,0,0-.94-1ZM14.38,19.1a4,4,0,0,0-6.09-5.29,4,4,0,0,0,0,5.24A4.5,4.5,0,0,0,5.94,23v3.49a1,1,0,0,0,.95,1h8.89a1,1,0,0,0,1-1V23A4.43,4.43,0,0,0,14.38,19.1Zm-3-4.74a2.1,2.1,0,0,1,0,4.19h-.05a2.11,2.11,0,0,1-2.1-2.1,2.15,2.15,0,0,1,2.15-2.09Zm3.49,11.23h-7V23.05a2.56,2.56,0,0,1,2.55-2.55h1.89a2.56,2.56,0,0,1,2.55,2.55ZM27.12,14.76h-5.2a1,1,0,1,0-.05,1.94h5.25a1,1,0,0,0,.94-1,1.05,1.05,0,0,0-.94-1Zm6.14,8.49H21.92a1,1,0,1,0-.05,1.94H33.26a1,1,0,1,0,.05-1.94Zm0-3.8H21.92a.95.95,0,0,0,0,1.9H33.26a1,1,0,0,0,0-1.9Zm0,0H21.92a.95.95,0,0,0,0,1.9H33.26a1,1,0,0,0,0-1.9Zm0,3.8H21.92a1,1,0,1,0-.05,1.94H33.26a1,1,0,1,0,.05-1.94Zm-6.14-8.49h-5.2a1,1,0,1,0-.05,1.94h5.25a1,1,0,0,0,.94-1,1.05,1.05,0,0,0-.94-1ZM14.38,19.1a4,4,0,0,0-6.09-5.29,4,4,0,0,0,0,5.24A4.5,4.5,0,0,0,5.94,23v3.49a1,1,0,0,0,.95,1h8.89a1,1,0,0,0,1-1V23A4.43,4.43,0,0,0,14.38,19.1Zm-3-4.74a2.1,2.1,0,0,1,0,4.19h-.05a2.11,2.11,0,0,1-2.1-2.1,2.15,2.15,0,0,1,2.15-2.09Zm3.49,11.23h-7V23.05a2.56,2.56,0,0,1,2.55-2.55h1.89a2.56,2.56,0,0,1,2.55,2.55Zm-.45-6.49a4,4,0,0,0-6.09-5.29,4,4,0,0,0,0,5.24A4.5,4.5,0,0,0,5.94,23v3.49a1,1,0,0,0,.95,1h8.89a1,1,0,0,0,1-1V23a4.43,4.43,0,0,0-2.35-3.9Zm-3-4.74a2.1,2.1,0,0,1,0,4.19h-.05a2.11,2.11,0,0,1-2.1-2.1,2.15,2.15,0,0,1,2.15-2.09Zm3.49,11.23h-7V23.05a2.56,2.56,0,0,1,2.55-2.55h1.89a2.56,2.56,0,0,1,2.55,2.55ZM27.12,14.76h-5.2a1,1,0,1,0-.05,1.94h5.25a1,1,0,0,0,.94-1,1.05,1.05,0,0,0-.94-1Zm6.14,8.49H21.92a1,1,0,1,0-.05,1.94H33.26a1,1,0,1,0,.05-1.94Zm0-3.8H21.92a.95.95,0,0,0,0,1.9H33.26a1,1,0,0,0,0-1.9Zm0,0H21.92a.95.95,0,0,0,0,1.9H33.26a1,1,0,0,0,0-1.9Zm0,3.8H21.92a1,1,0,1,0-.05,1.94H33.26a1,1,0,1,0,.05-1.94Zm-6.14-8.49h-5.2a1,1,0,1,0-.05,1.94h5.25a1,1,0,0,0,.94-1,1.05,1.05,0,0,0-.94-1ZM14.38,19.1a4,4,0,0,0-6.09-5.29,4,4,0,0,0,0,5.24A4.5,4.5,0,0,0,5.94,23v3.49a1,1,0,0,0,.95,1h8.89a1,1,0,0,0,1-1V23A4.43,4.43,0,0,0,14.38,19.1Zm-3-4.74a2.1,2.1,0,0,1,0,4.19h-.05a2.11,2.11,0,0,1-2.1-2.1,2.15,2.15,0,0,1,2.15-2.09Zm3.49,11.23h-7V23.05a2.56,2.56,0,0,1,2.55-2.55h1.89a2.56,2.56,0,0,1,2.55,2.55Zm-.45-6.49a4,4,0,0,0-6.09-5.29,4,4,0,0,0,0,5.24A4.5,4.5,0,0,0,5.94,23v3.49a1,1,0,0,0,.95,1h8.89a1,1,0,0,0,1-1V23a4.43,4.43,0,0,0-2.35-3.9Zm-3-4.74a2.1,2.1,0,0,1,0,4.19h-.05a2.11,2.11,0,0,1-2.1-2.1,2.15,2.15,0,0,1,2.15-2.09Zm3.49,11.23h-7V23.05a2.56,2.56,0,0,1,2.55-2.55h1.89a2.56,2.56,0,0,1,2.55,2.55ZM27.12,14.76h-5.2a1,1,0,1,0-.05,1.94h5.25a1,1,0,0,0,.94-1,1.05,1.05,0,0,0-.94-1Zm6.14,8.49H21.92a1,1,0,1,0-.05,1.94H33.26a1,1,0,1,0,.05-1.94Zm0-3.8H21.92a.95.95,0,0,0,0,1.9H33.26a1,1,0,0,0,0-1.9Zm0,0H21.92a.95.95,0,0,0,0,1.9H33.26a1,1,0,0,0,0-1.9Zm0,3.8H21.92a1,1,0,1,0-.05,1.94H33.26a1,1,0,1,0,.05-1.94Zm-6.14-8.49h-5.2a1,1,0,1,0-.05,1.94h5.25a1,1,0,0,0,.94-1,1.05,1.05,0,0,0-.94-1ZM14.38,19.1a4,4,0,0,0-6.09-5.29,4,4,0,0,0,0,5.24A4.5,4.5,0,0,0,5.94,23v3.49a1,1,0,0,0,.95,1h8.89a1,1,0,0,0,1-1V23A4.43,4.43,0,0,0,14.38,19.1Zm-3-4.74a2.1,2.1,0,0,1,0,4.19h-.05a2.11,2.11,0,0,1-2.1-2.1,2.15,2.15,0,0,1,2.15-2.09Zm3.49,11.23h-7V23.05a2.56,2.56,0,0,1,2.55-2.55h1.89a2.56,2.56,0,0,1,2.55,2.55Zm-.45-6.49a4,4,0,0,0-6.09-5.29,4,4,0,0,0,0,5.24A4.5,4.5,0,0,0,5.94,23v3.49a1,1,0,0,0,.95,1h8.89a1,1,0,0,0,1-1V23a4.43,4.43,0,0,0-2.35-3.9Zm-3-4.74a2.1,2.1,0,0,1,0,4.19h-.05a2.11,2.11,0,0,1-2.1-2.1,2.15,2.15,0,0,1,2.15-2.09Zm3.49,11.23h-7V23.05a2.56,2.56,0,0,1,2.55-2.55h1.89a2.56,2.56,0,0,1,2.55,2.55ZM27.12,14.76h-5.2a1,1,0,1,0-.05,1.94h5.25a1,1,0,0,0,.94-1,1.05,1.05,0,0,0-.94-1Zm6.14,8.49H21.92a1,1,0,1,0-.05,1.94H33.26a1,1,0,1,0,.05-1.94Zm0-3.8H21.92a.95.95,0,0,0,0,1.9H33.26a1,1,0,0,0,0-1.9Zm0,0H21.92a.95.95,0,0,0,0,1.9H33.26a1,1,0,0,0,0-1.9Zm0,3.8H21.92a1,1,0,1,0-.05,1.94H33.26a1,1,0,1,0,.05-1.94Zm-6.14-8.49h-5.2a1,1,0,1,0-.05,1.94h5.25a1,1,0,0,0,.94-1,1.05,1.05,0,0,0-.94-1ZM14.38,19.1a4,4,0,0,0-6.09-5.29,4,4,0,0,0,0,5.24A4.5,4.5,0,0,0,5.94,23v3.49a1,1,0,0,0,.95,1h8.89a1,1,0,0,0,1-1V23A4.43,4.43,0,0,0,14.38,19.1Zm-3-4.74a2.1,2.1,0,0,1,0,4.19h-.05a2.11,2.11,0,0,1-2.1-2.1,2.15,2.15,0,0,1,2.15-2.09Zm3.49,11.23h-7V23.05a2.56,2.56,0,0,1,2.55-2.55h1.89a2.56,2.56,0,0,1,2.55,2.55Zm-.45-6.49a4,4,0,0,0-6.09-5.29,4,4,0,0,0,0,5.24A4.5,4.5,0,0,0,5.94,23v3.49a1,1,0,0,0,.95,1h8.89a1,1,0,0,0,1-1V23a4.43,4.43,0,0,0-2.35-3.9Zm-3-4.74a2.1,2.1,0,0,1,0,4.19h-.05a2.11,2.11,0,0,1-2.1-2.1,2.15,2.15,0,0,1,2.15-2.09Zm3.49,11.23h-7V23.05a2.56,2.56,0,0,1,2.55-2.55h1.89a2.56,2.56,0,0,1,2.55,2.55ZM27.12,14.76h-5.2a1,1,0,1,0-.05,1.94h5.25a1,1,0,0,0,.94-1,1.05,1.05,0,0,0-.94-1Zm6.14,8.49H21.92a1,1,0,1,0-.05,1.94H33.26a1,1,0,1,0,.05-1.94Zm0-3.8H21.92a.95.95,0,0,0,0,1.9H33.26a1,1,0,0,0,0-1.9Zm0,0H21.92a.95.95,0,0,0,0,1.9H33.26a1,1,0,0,0,0-1.9Zm0,3.8H21.92a1,1,0,1,0-.05,1.94H33.26a1,1,0,1,0,.05-1.94Zm-6.14-8.49h-5.2a1,1,0,1,0-.05,1.94h5.25a1,1,0,0,0,.94-1,1.05,1.05,0,0,0-.94-1ZM14.38,19.1a4,4,0,0,0-6.09-5.29,4,4,0,0,0,0,5.24A4.5,4.5,0,0,0,5.94,23v3.49a1,1,0,0,0,.95,1h8.89a1,1,0,0,0,1-1V23A4.43,4.43,0,0,0,14.38,19.1Zm-3-4.74a2.1,2.1,0,0,1,0,4.19h-.05a2.11,2.11,0,0,1-2.1-2.1,2.15,2.15,0,0,1,2.15-2.09Zm3.49,11.23h-7V23.05a2.56,2.56,0,0,1,2.55-2.55h1.89a2.56,2.56,0,0,1,2.55,2.55Zm-.45-6.49a4,4,0,0,0-6.09-5.29,4,4,0,0,0,0,5.24A4.5,4.5,0,0,0,5.94,23v3.49a1,1,0,0,0,.95,1h8.89a1,1,0,0,0,1-1V23a4.43,4.43,0,0,0-2.35-3.9Zm-3-4.74a2.1,2.1,0,0,1,0,4.19h-.05a2.11,2.11,0,0,1-2.1-2.1,2.15,2.15,0,0,1,2.15-2.09Zm3.49,11.23h-7V23.05a2.56,2.56,0,0,1,2.55-2.55h1.89a2.56,2.56,0,0,1,2.55,2.55ZM27.12,14.76h-5.2a1,1,0,1,0-.05,1.94h5.25a1,1,0,0,0,.94-1,1.05,1.05,0,0,0-.94-1Zm6.14,8.49H21.92a1,1,0,1,0-.05,1.94H33.26a1,1,0,1,0,.05-1.94Zm0-3.8H21.92a.95.95,0,0,0,0,1.9H33.26a1,1,0,0,0,0-1.9Zm0,0H21.92a.95.95,0,0,0,0,1.9H33.26a1,1,0,0,0,0-1.9Zm0,3.8H21.92a1,1,0,1,0-.05,1.94H33.26a1,1,0,1,0,.05-1.94Zm-6.14-8.49h-5.2a1,1,0,1,0-.05,1.94h5.25a1,1,0,0,0,.94-1,1.05,1.05,0,0,0-.94-1ZM14.38,19.1a4,4,0,0,0-6.09-5.29,4,4,0,0,0,0,5.24A4.5,4.5,0,0,0,5.94,23v3.49a1,1,0,0,0,.95,1h8.89a1,1,0,0,0,1-1V23A4.43,4.43,0,0,0,14.38,19.1Zm-3-4.74a2.1,2.1,0,0,1,0,4.19h-.05a2.11,2.11,0,0,1-2.1-2.1,2.15,2.15,0,0,1,2.15-2.09Zm3.49,11.23h-7V23.05a2.56,2.56,0,0,1,2.55-2.55h1.89a2.56,2.56,0,0,1,2.55,2.55Zm-.45-6.49a4,4,0,0,0-6.09-5.29,4,4,0,0,0,0,5.24A4.5,4.5,0,0,0,5.94,23v3.49a1,1,0,0,0,.95,1h8.89a1,1,0,0,0,1-1V23a4.43,4.43,0,0,0-2.35-3.9Zm-3-4.74a2.1,2.1,0,0,1,0,4.19h-.05a2.11,2.11,0,0,1-2.1-2.1,2.15,2.15,0,0,1,2.15-2.09Zm3.49,11.23h-7V23.05a2.56,2.56,0,0,1,2.55-2.55h1.89a2.56,2.56,0,0,1,2.55,2.55ZM27.12,14.76h-5.2a1,1,0,1,0-.05,1.94h5.25a1,1,0,0,0,.94-1,1.05,1.05,0,0,0-.94-1Zm6.14,8.49H21.92a1,1,0,1,0-.05,1.94H33.26a1,1,0,1,0,.05-1.94Zm0-3.8H21.92a.95.95,0,0,0,0,1.9H33.26a1,1,0,0,0,0-1.9Zm0,0H21.92a.95.95,0,0,0,0,1.9H33.26a1,1,0,0,0,0-1.9Zm0,3.8H21.92a1,1,0,1,0-.05,1.94H33.26a1,1,0,1,0,.05-1.94Zm-6.14-8.49h-5.2a1,1,0,1,0-.05,1.94h5.25a1,1,0,0,0,.94-1,1.05,1.05,0,0,0-.94-1ZM14.38,19.1a4,4,0,0,0-6.09-5.29,4,4,0,0,0,0,5.24A4.5,4.5,0,0,0,5.94,23v3.49a1,1,0,0,0,.95,1h8.89a1,1,0,0,0,1-1V23A4.43,4.43,0,0,0,14.38,19.1Zm-3-4.74a2.1,2.1,0,0,1,0,4.19h-.05a2.11,2.11,0,0,1-2.1-2.1,2.15,2.15,0,0,1,2.15-2.09Zm3.49,11.23h-7V23.05a2.56,2.56,0,0,1,2.55-2.55h1.89a2.56,2.56,0,0,1,2.55,2.55Zm-.45-6.49a4,4,0,0,0-6.09-5.29,4,4,0,0,0,0,5.24A4.5,4.5,0,0,0,5.94,23v3.49a1,1,0,0,0,.95,1h8.89a1,1,0,0,0,1-1V23a4.43,4.43,0,0,0-2.35-3.9Zm-3-4.74a2.1,2.1,0,0,1,0,4.19h-.05a2.11,2.11,0,0,1-2.1-2.1,2.15,2.15,0,0,1,2.15-2.09Zm3.49,11.23h-7V23.05a2.56,2.56,0,0,1,2.55-2.55h1.89a2.56,2.56,0,0,1,2.55,2.55ZM27.12,14.76h-5.2a1,1,0,1,0-.05,1.94h5.25a1,1,0,0,0,.94-1,1.05,1.05,0,0,0-.94-1Zm6.14,8.49H21.92a1,1,0,1,0-.05,1.94H33.26a1,1,0,1,0,.05-1.94Zm0-3.8H21.92a.95.95,0,0,0,0,1.9H33.26a1,1,0,0,0,0-1.9Zm-11.34,1.9H33.26a1,1,0,0,0,1-1,1,1,0,0,0-1-.95H21.92a.95.95,0,0,0,0,1.9Zm11.34,1.9H21.92a1,1,0,1,0-.05,1.94H33.26a1,1,0,1,0,.05-1.94ZM21.92,16.7h5.2a1,1,0,0,0,.94-1,1,1,0,0,0-.94-1h-5.2a1,1,0,1,0-.05,1.94Zm-7.54,2.4a4,4,0,0,0-6.09-5.29,4,4,0,0,0,0,5.24A4.5,4.5,0,0,0,5.94,23v3.49a1,1,0,0,0,.95,1h8.89a1,1,0,0,0,1-1V23a4.43,4.43,0,0,0-2.35-3.9Zm-3-4.74a2.1,2.1,0,0,1,0,4.19h-.05a2.11,2.11,0,0,1-2.1-2.1,2.15,2.15,0,0,1,2.15-2.09Zm3.49,11.23h-7V23.05a2.56,2.56,0,0,1,2.55-2.55h1.89a2.56,2.56,0,0,1,2.55,2.55Zm21-20.82H4.09A4.07,4.07,0,0,0,0,8.81V31.14a4.11,4.11,0,0,0,4.09,4.09H35.91A4.11,4.11,0,0,0,40,31.14V8.81A4.15,4.15,0,0,0,35.86,4.77ZM38,31.14a2.13,2.13,0,0,1-2.14,2.14H4.09A2.13,2.13,0,0,1,2,31.14V8.81A2.16,2.16,0,0,1,4.09,6.67H35.91a2.13,2.13,0,0,1,2.14,2.14ZM33.26,19.45H21.92a.95.95,0,0,0,0,1.9H33.26a1,1,0,0,0,0-1.9Zm0,3.8H21.92a1,1,0,1,0-.05,1.94H33.26a1,1,0,1,0,.05-1.94ZM21.92,16.7h5.2a1,1,0,0,0,.94-1,1,1,0,0,0-.94-1h-5.2a1,1,0,1,0-.05,1.94Zm-7.54,2.4a4,4,0,0,0-6.09-5.29,4,4,0,0,0,0,5.24A4.5,4.5,0,0,0,5.94,23v3.49a1,1,0,0,0,.95,1h8.89a1,1,0,0,0,1-1V23a4.43,4.43,0,0,0-2.35-3.9Zm-3-4.74a2.1,2.1,0,0,1,0,4.19h-.05a2.11,2.11,0,0,1-2.1-2.1,2.15,2.15,0,0,1,2.15-2.09Zm3.49,11.23h-7V23.05a2.56,2.56,0,0,1,2.55-2.55h1.89a2.56,2.56,0,0,1,2.55,2.55Zm-.45-6.49a4,4,0,0,0-6.09-5.29,4,4,0,0,0,0,5.24A4.5,4.5,0,0,0,5.94,23v3.49a1,1,0,0,0,.95,1h8.89a1,1,0,0,0,1-1V23a4.43,4.43,0,0,0-2.35-3.9Zm-3-4.74a2.1,2.1,0,0,1,0,4.19h-.05a2.11,2.11,0,0,1-2.1-2.1,2.15,2.15,0,0,1,2.15-2.09Zm3.49,11.23h-7V23.05a2.56,2.56,0,0,1,2.55-2.55h1.89a2.56,2.56,0,0,1,2.55,2.55ZM27.12,14.76h-5.2a1,1,0,1,0-.05,1.94h5.25a1,1,0,0,0,.94-1,1.05,1.05,0,0,0-.94-1Zm6.14,8.49H21.92a1,1,0,1,0-.05,1.94H33.26a1,1,0,1,0,.05-1.94Zm0-3.8H21.92a1,1,0,0,0-1,.95,1,1,0,0,0,1,1H33.26a1,1,0,0,0,1-1,1,1,0,0,0-1-.95Zm0,0H21.92a1,1,0,0,0-1,.95,1,1,0,0,0,1,1H33.26a1,1,0,0,0,1-1,1,1,0,0,0-1-.95Zm0,3.8H21.92a1,1,0,1,0-.05,1.94H33.26a1,1,0,1,0,.05-1.94Zm-6.14-8.49h-5.2a1,1,0,1,0-.05,1.94h5.25a1,1,0,0,0,.94-1,1.05,1.05,0,0,0-.94-1ZM14.38,19.1a4,4,0,0,0-6.09-5.29,4,4,0,0,0,0,5.24A4.5,4.5,0,0,0,5.94,23v3.49a1,1,0,0,0,.95,1h8.89a1,1,0,0,0,1-1V23A4.43,4.43,0,0,0,14.38,19.1Zm-3-4.74a2.1,2.1,0,0,1,0,4.19h-.05a2.11,2.11,0,0,1-2.1-2.1,2.15,2.15,0,0,1,2.15-2.09Zm3.49,11.23h-7V23.05a2.56,2.56,0,0,1,2.55-2.55h1.89a2.56,2.56,0,0,1,2.55,2.55Zm-.45-6.49a4,4,0,0,0-6.09-5.29,4,4,0,0,0,0,5.24A4.5,4.5,0,0,0,5.94,23v3.49a1,1,0,0,0,.95,1h8.89a1,1,0,0,0,1-1V23a4.43,4.43,0,0,0-2.35-3.9Zm-3-4.74a2.1,2.1,0,0,1,0,4.19h-.05a2.11,2.11,0,0,1-2.1-2.1,2.15,2.15,0,0,1,2.15-2.09Zm3.49,11.23h-7V23.05a2.56,2.56,0,0,1,2.55-2.55h1.89a2.56,2.56,0,0,1,2.55,2.55ZM27.12,14.76h-5.2a1,1,0,1,0-.05,1.94h5.25a1,1,0,0,0,.94-1,1.05,1.05,0,0,0-.94-1Zm6.14,8.49H21.92a1,1,0,1,0-.05,1.94H33.26a1,1,0,1,0,.05-1.94Zm0-3.8H21.92a.95.95,0,0,0,0,1.9H33.26a1,1,0,0,0,0-1.9Zm0,0H21.92a.95.95,0,0,0,0,1.9H33.26a1,1,0,0,0,0-1.9Zm0,3.8H21.92a1,1,0,1,0-.05,1.94H33.26a1,1,0,1,0,.05-1.94Zm-6.14-8.49h-5.2a1,1,0,1,0-.05,1.94h5.25a1,1,0,0,0,.94-1,1.05,1.05,0,0,0-.94-1ZM14.38,19.1a4,4,0,0,0-6.09-5.29,4,4,0,0,0,0,5.24A4.5,4.5,0,0,0,5.94,23v3.49a1,1,0,0,0,.95,1h8.89a1,1,0,0,0,1-1V23A4.43,4.43,0,0,0,14.38,19.1Zm-3-4.74a2.1,2.1,0,0,1,0,4.19h-.05a2.11,2.11,0,0,1-2.1-2.1,2.15,2.15,0,0,1,2.15-2.09Zm3.49,11.23h-7V23.05a2.56,2.56,0,0,1,2.55-2.55h1.89a2.56,2.56,0,0,1,2.55,2.55Zm-.45-6.49a4,4,0,0,0-6.09-5.29,4,4,0,0,0,0,5.24A4.5,4.5,0,0,0,5.94,23v3.49a1,1,0,0,0,.95,1h8.89a1,1,0,0,0,1-1V23a4.43,4.43,0,0,0-2.35-3.9Zm-3-4.74a2.1,2.1,0,0,1,0,4.19h-.05a2.11,2.11,0,0,1-2.1-2.1,2.15,2.15,0,0,1,2.15-2.09Zm3.49,11.23h-7V23.05a2.56,2.56,0,0,1,2.55-2.55h1.89a2.56,2.56,0,0,1,2.55,2.55ZM27.12,14.76h-5.2a1,1,0,1,0-.05,1.94h5.25a1,1,0,0,0,.94-1,1.05,1.05,0,0,0-.94-1Zm6.14,8.49H21.92a1,1,0,1,0-.05,1.94H33.26a1,1,0,1,0,.05-1.94Zm0-3.8H21.92a.95.95,0,0,0,0,1.9H33.26a1,1,0,0,0,0-1.9Zm0,0H21.92a.95.95,0,0,0,0,1.9H33.26a1,1,0,0,0,0-1.9Zm0,3.8H21.92a1,1,0,1,0-.05,1.94H33.26a1,1,0,1,0,.05-1.94Zm-6.14-8.49h-5.2a1,1,0,1,0-.05,1.94h5.25a1,1,0,0,0,.94-1,1.05,1.05,0,0,0-.94-1ZM14.38,19.1a4,4,0,0,0-6.09-5.29,4,4,0,0,0,0,5.24A4.5,4.5,0,0,0,5.94,23v3.49a1,1,0,0,0,.95,1h8.89a1,1,0,0,0,1-1V23A4.43,4.43,0,0,0,14.38,19.1Zm-3-4.74a2.1,2.1,0,0,1,0,4.19h-.05a2.11,2.11,0,0,1-2.1-2.1,2.15,2.15,0,0,1,2.15-2.09Zm3.49,11.23h-7V23.05a2.56,2.56,0,0,1,2.55-2.55h1.89a2.56,2.56,0,0,1,2.55,2.55Zm-.45-6.49a4,4,0,0,0-6.09-5.29,4,4,0,0,0,0,5.24A4.5,4.5,0,0,0,5.94,23v3.49a1,1,0,0,0,.95,1h8.89a1,1,0,0,0,1-1V23a4.43,4.43,0,0,0-2.35-3.9Zm-3-4.74a2.1,2.1,0,0,1,0,4.19h-.05a2.11,2.11,0,0,1-2.1-2.1,2.15,2.15,0,0,1,2.15-2.09Zm3.49,11.23h-7V23.05a2.56,2.56,0,0,1,2.55-2.55h1.89a2.56,2.56,0,0,1,2.55,2.55ZM27.12,14.76h-5.2a1,1,0,1,0-.05,1.94h5.25a1,1,0,0,0,.94-1,1.05,1.05,0,0,0-.94-1Zm6.14,8.49H21.92a1,1,0,1,0-.05,1.94H33.26a1,1,0,1,0,.05-1.94Zm0-3.8H21.92a.95.95,0,0,0,0,1.9H33.26a1,1,0,0,0,0-1.9Zm0,0H21.92a.95.95,0,0,0,0,1.9H33.26a1,1,0,0,0,0-1.9Zm0,3.8H21.92a1,1,0,1,0-.05,1.94H33.26a1,1,0,1,0,.05-1.94Zm-6.14-8.49h-5.2a1,1,0,1,0-.05,1.94h5.25a1,1,0,0,0,.94-1,1.05,1.05,0,0,0-.94-1ZM14.38,19.1a4,4,0,0,0-6.09-5.29,4,4,0,0,0,0,5.24A4.5,4.5,0,0,0,5.94,23v3.49a1,1,0,0,0,.95,1h8.89a1,1,0,0,0,1-1V23A4.43,4.43,0,0,0,14.38,19.1Zm-3-4.74a2.1,2.1,0,0,1,0,4.19h-.05a2.11,2.11,0,0,1-2.1-2.1,2.15,2.15,0,0,1,2.15-2.09Zm3.49,11.23h-7V23.05a2.56,2.56,0,0,1,2.55-2.55h1.89a2.56,2.56,0,0,1,2.55,2.55Zm-.45-6.49a4,4,0,0,0-6.09-5.29,4,4,0,0,0,0,5.24A4.5,4.5,0,0,0,5.94,23v3.49a1,1,0,0,0,.95,1h8.89a1,1,0,0,0,1-1V23a4.43,4.43,0,0,0-2.35-3.9Zm-3-4.74a2.1,2.1,0,0,1,0,4.19h-.05a2.11,2.11,0,0,1-2.1-2.1,2.15,2.15,0,0,1,2.15-2.09Zm3.49,11.23h-7V23.05a2.56,2.56,0,0,1,2.55-2.55h1.89a2.56,2.56,0,0,1,2.55,2.55ZM27.12,14.76h-5.2a1,1,0,1,0-.05,1.94h5.25a1,1,0,0,0,.94-1,1.05,1.05,0,0,0-.94-1Zm6.14,8.49H21.92a1,1,0,1,0-.05,1.94H33.26a1,1,0,1,0,.05-1.94Zm0-3.8H21.92a.95.95,0,0,0,0,1.9H33.26a1,1,0,0,0,0-1.9Zm0,0H21.92a.95.95,0,0,0,0,1.9H33.26a1,1,0,0,0,0-1.9Zm0,3.8H21.92a1,1,0,1,0-.05,1.94H33.26a1,1,0,1,0,.05-1.94Zm-6.14-8.49h-5.2a1,1,0,1,0-.05,1.94h5.25a1,1,0,0,0,.94-1,1.05,1.05,0,0,0-.94-1ZM14.38,19.1a4,4,0,0,0-6.09-5.29,4,4,0,0,0,0,5.24A4.5,4.5,0,0,0,5.94,23v3.49a1,1,0,0,0,.95,1h8.89a1,1,0,0,0,1-1V23A4.43,4.43,0,0,0,14.38,19.1Zm-3-4.74a2.1,2.1,0,0,1,0,4.19h-.05a2.11,2.11,0,0,1-2.1-2.1,2.15,2.15,0,0,1,2.15-2.09Zm3.49,11.23h-7V23.05a2.56,2.56,0,0,1,2.55-2.55h1.89a2.56,2.56,0,0,1,2.55,2.55Zm-.45-6.49a4,4,0,0,0-6.09-5.29,4,4,0,0,0,0,5.24A4.5,4.5,0,0,0,5.94,23v3.49a1,1,0,0,0,.95,1h8.89a1,1,0,0,0,1-1V23a4.43,4.43,0,0,0-2.35-3.9Zm-3-4.74a2.1,2.1,0,0,1,0,4.19h-.05a2.11,2.11,0,0,1-2.1-2.1,2.15,2.15,0,0,1,2.15-2.09Zm3.49,11.23h-7V23.05a2.56,2.56,0,0,1,2.55-2.55h1.89a2.56,2.56,0,0,1,2.55,2.55ZM27.12,14.76h-5.2a1,1,0,1,0-.05,1.94h5.25a1,1,0,0,0,.94-1,1.05,1.05,0,0,0-.94-1Zm6.14,8.49H21.92a1,1,0,1,0-.05,1.94H33.26a1,1,0,1,0,.05-1.94Zm0-3.8H21.92a.95.95,0,0,0,0,1.9H33.26a1,1,0,0,0,0-1.9Zm0,0H21.92a.95.95,0,0,0,0,1.9H33.26a1,1,0,0,0,0-1.9Zm0,3.8H21.92a1,1,0,1,0-.05,1.94H33.26a1,1,0,1,0,.05-1.94Zm-6.14-8.49h-5.2a1,1,0,1,0-.05,1.94h5.25a1,1,0,0,0,.94-1,1.05,1.05,0,0,0-.94-1ZM14.38,19.1a4,4,0,0,0-6.09-5.29,4,4,0,0,0,0,5.24A4.5,4.5,0,0,0,5.94,23v3.49a1,1,0,0,0,.95,1h8.89a1,1,0,0,0,1-1V23A4.43,4.43,0,0,0,14.38,19.1Zm-3-4.74a2.1,2.1,0,0,1,0,4.19h-.05a2.11,2.11,0,0,1-2.1-2.1,2.15,2.15,0,0,1,2.15-2.09Zm3.49,11.23h-7V23.05a2.56,2.56,0,0,1,2.55-2.55h1.89a2.56,2.56,0,0,1,2.55,2.55Zm-.45-6.49a4,4,0,0,0-6.09-5.29,4,4,0,0,0,0,5.24A4.5,4.5,0,0,0,5.94,23v3.49a1,1,0,0,0,.95,1h8.89a1,1,0,0,0,1-1V23a4.43,4.43,0,0,0-2.35-3.9Zm-3-4.74a2.1,2.1,0,0,1,0,4.19h-.05a2.11,2.11,0,0,1-2.1-2.1,2.15,2.15,0,0,1,2.15-2.09Zm3.49,11.23h-7V23.05a2.56,2.56,0,0,1,2.55-2.55h1.89a2.56,2.56,0,0,1,2.55,2.55ZM27.12,14.76h-5.2a1,1,0,1,0-.05,1.94h5.25a1,1,0,0,0,.94-1,1.05,1.05,0,0,0-.94-1Zm6.14,8.49H21.92a1,1,0,1,0-.05,1.94H33.26a1,1,0,1,0,.05-1.94Zm0-3.8H21.92a.95.95,0,0,0,0,1.9H33.26a1,1,0,0,0,0-1.9Zm0,0H21.92a.95.95,0,0,0,0,1.9H33.26a1,1,0,0,0,0-1.9Zm0,3.8H21.92a1,1,0,1,0-.05,1.94H33.26a1,1,0,1,0,.05-1.94Zm-6.14-8.49h-5.2a1,1,0,1,0-.05,1.94h5.25a1,1,0,0,0,.94-1,1.05,1.05,0,0,0-.94-1ZM14.38,19.1a4,4,0,0,0-6.09-5.29,4,4,0,0,0,0,5.24A4.5,4.5,0,0,0,5.94,23v3.49a1,1,0,0,0,.95,1h8.89a1,1,0,0,0,1-1V23A4.43,4.43,0,0,0,14.38,19.1Zm-3-4.74a2.1,2.1,0,0,1,0,4.19h-.05a2.11,2.11,0,0,1-2.1-2.1,2.15,2.15,0,0,1,2.15-2.09Zm3.49,11.23h-7V23.05a2.56,2.56,0,0,1,2.55-2.55h1.89a2.56,2.56,0,0,1,2.55,2.55Zm-.45-6.49a4,4,0,0,0-6.09-5.29,4,4,0,0,0,0,5.24A4.5,4.5,0,0,0,5.94,23v3.49a1,1,0,0,0,.95,1h8.89a1,1,0,0,0,1-1V23a4.43,4.43,0,0,0-2.35-3.9Zm-3-4.74a2.1,2.1,0,0,1,0,4.19h-.05a2.11,2.11,0,0,1-2.1-2.1,2.15,2.15,0,0,1,2.15-2.09Zm3.49,11.23h-7V23.05a2.56,2.56,0,0,1,2.55-2.55h1.89a2.56,2.56,0,0,1,2.55,2.55ZM27.12,14.76h-5.2a1,1,0,1,0-.05,1.94h5.25a1,1,0,0,0,.94-1,1.05,1.05,0,0,0-.94-1Zm6.14,8.49H21.92a1,1,0,1,0-.05,1.94H33.26a1,1,0,1,0,.05-1.94Zm0-3.8H21.92a.95.95,0,0,0,0,1.9H33.26a1,1,0,0,0,0-1.9Zm0,3.8H21.92a1,1,0,1,0-.05,1.94H33.26a1,1,0,1,0,.05-1.94Zm0-3.8H21.92a.95.95,0,0,0,0,1.9H33.26a1,1,0,0,0,0-1.9Z"/></svg>