<svg id="Layer_1" data-name="Layer 1" xmlns="http://www.w3.org/2000/svg" viewBox="0 0 40 40"><defs><style>.cls-1{fill:#009245;}</style></defs><path class="cls-1" d="M22.82.08a3.41,3.41,0,0,1,2.9,3.13,35.48,35.48,0,0,0-11.45,0A3.39,3.39,0,0,1,17.17.08c.12-.08.28,0,.42-.08h4.84C22.54.1,22.69,0,22.82.08Z"/><path class="cls-1" d="M17.59,0a.46.46,0,0,1-.41.07V0Z"/><path class="cls-1" d="M22.82.08A.47.47,0,0,1,22.41,0h.4Z"/><path class="cls-1" d="M11.66,21.3a17.55,17.55,0,0,1-5-2.22,8.69,8.69,0,0,1-2.37-2.23,5.18,5.18,0,0,1,.33-6.65A11.63,11.63,0,0,1,9.1,7.1a27,27,0,0,1,9-2,30.57,30.57,0,0,1,10.12,1A16,16,0,0,1,34.16,9a8.11,8.11,0,0,1,1.5,1.54,5.13,5.13,0,0,1-.28,6.75,12,12,0,0,1-4.59,3.14,18.12,18.12,0,0,1-2.38.83c-.11-.11-.05-.23-.05-.33.09-2.55.18-5.1.29-7.65.07-1.56-.08-1.78-1.6-2.11a32.11,32.11,0,0,0-14.72.15,1.2,1.2,0,0,0-1,1.35c.05,1.63.12,3.25.19,4.88C11.58,18.8,11.61,20,11.66,21.3Z"/><path class="cls-1" d="M13.87,17.94c0-1.41-.09-2.81-.15-4.22,0-.21,0-.32.26-.36a30.08,30.08,0,0,1,12,0c.22.05.28.13.27.36-.11,2.76-.19,5.53-.33,8.3a6,6,0,0,1-11.8.67,39.68,39.68,0,0,1-.24-4.36v-.39Z"/><path class="cls-1" d="M13,33.4a8.82,8.82,0,0,0,7,3.38,8.7,8.7,0,0,0,6.93-3.38v6.24c0,.29-.06.36-.35.36H13.39c-.29,0-.36-.07-.36-.36C13.05,37.6,13,35.56,13,33.4Z"/><path class="cls-1" d="M19.84,34.45a6.2,6.2,0,0,1-4.35-1.89c-.26-.28-.52-.55-.8-.8a.31.31,0,0,1-.09-.4c.31-.81.61-1.63.9-2.45.07-.2.11-.26.34-.14a8.21,8.21,0,0,0,8.32,0c.22-.13.26-.06.33.13.29.82.59,1.64.89,2.45,0,.12.11.22,0,.35a8.56,8.56,0,0,1-2.85,2.21A7.5,7.5,0,0,1,19.84,34.45Z"/><path class="cls-1" d="M10.7,36.28v3.39c0,.25-.06.33-.32.32H5.74a1.16,1.16,0,0,1-1.29-1,1.11,1.11,0,0,1,.06-.51c.2-.86.39-1.72.63-2.57A4.64,4.64,0,0,1,9.5,32.56c.38,0,.89-.14,1.12,0s.07.74.08,1.12C10.71,34.59,10.7,35.43,10.7,36.28Z"/><path class="cls-1" d="M29.28,36.24V32.89c0-.25,0-.33.31-.33a6.68,6.68,0,0,1,2.31.26,4.64,4.64,0,0,1,3,3.28c.21.79.39,1.58.57,2.38a1.16,1.16,0,0,1-.77,1.45,1,1,0,0,1-.39,0H29.56c-.22,0-.28-.06-.28-.28C29.29,38.57,29.28,37.4,29.28,36.24Z"/></svg>