<svg id="Layer_1" data-name="Layer 1" xmlns="http://www.w3.org/2000/svg" viewBox="0 0 40 40"><defs><style>.cls-1{fill:#1b384e;}</style></defs><path class="cls-1" d="M8.83,40a.35.35,0,0,1,.47,0Z"/><path class="cls-1" d="M30.71,40a.27.27,0,0,1,.37,0l.05,0Z"/><path class="cls-1" d="M15.47,9.53q-1.94-2.91-3.9-5.84c-.17-.25-.13-.36.11-.53A17.13,17.13,0,0,1,17.09.39a11.31,11.31,0,0,1,8.19.9A25.53,25.53,0,0,1,28.4,3.2c.22.16.19.26.06.46q-2,2.93-3.92,5.87l-.06.05a1.07,1.07,0,0,1-.53.07H16.07a1.11,1.11,0,0,1-.54-.07Z"/><path class="cls-1" d="M24.63,12c-.08,0-.09-.09-.1-.16a3.34,3.34,0,0,1-.8-1.07.2.2,0,0,1,0-.23,3.34,3.34,0,0,1,.79-1h0a11.05,11.05,0,0,1,2.5.14,4.77,4.77,0,0,1,3.52,4.16c0,.27,0,.42-.34.4-.58,0-1.17,0-1.76,0-.17,0-.22,0-.25-.23a2.34,2.34,0,0,0-2.46-2.12H24.8C24.71,11.88,24.58,11.85,24.63,12Z"/><path class="cls-1" d="M15.47,11.87a.14.14,0,0,1-.09.16c0-.27-.16-.15-.25-.15h-1.9c-.21,0-.27-.05-.26-.25V9.79c0-.23.08-.27.29-.26h2.21a3.08,3.08,0,0,1,.81,1.08.18.18,0,0,1,0,.22A3.4,3.4,0,0,1,15.47,11.87Z"/><path class="cls-1" d="M36.28,28.88c-2.83-4-5.6-8.12-8.4-12.19-1.08-1.56-2.17-3.11-3.25-4.66-.08-.06-.05-.2-.17-.23a1.42,1.42,0,0,0-.54-.05H16.09a1.42,1.42,0,0,0-.54.05c-.11,0-.09.17-.17.23-.6.86-1.21,1.71-1.8,2.58-3.34,4.84-6.71,9.67-10,14.54a7,7,0,0,0,2,9.7,6.77,6.77,0,0,0,1.16.61c.6.25,1.24.33,1.85.54h.23a.55.55,0,0,1,.47,0H30.71a.42.42,0,0,1,.42,0h.15a.13.13,0,0,1,.13-.06,6,6,0,0,0,2.19-.62,7.07,7.07,0,0,0,3.25-9.47A6.73,6.73,0,0,0,36.28,28.88ZM24,29.67a6,6,0,0,1-2.41,2.45,3,3,0,0,1-1.5.42,5.37,5.37,0,0,1-.8,0,2.08,2.08,0,0,1-.84-.27,1.92,1.92,0,0,1-.66-.67,2.42,2.42,0,0,1-.26-1.22V27.59h-.34l-1.5-1.5H17.5v-.25a1.22,1.22,0,0,1,0-.27.43.43,0,0,0,0-.16v-.92a1,1,0,0,0,0-.25.68.68,0,0,0-.15-.36.47.47,0,0,0-.39-.12.67.67,0,0,0-.2,0,1.1,1.1,0,0,0-.37.23l-.5-1.5c.24-.1.48-.19.73-.27a2.28,2.28,0,0,1,.63-.09,2,2,0,0,1,.93.2,1.43,1.43,0,0,1,.55.54,1.82,1.82,0,0,1,.26.75,4.47,4.47,0,0,1,.07.82v1.62h.22l1.3,1.34v0A1.83,1.83,0,0,1,21,26.1a1.56,1.56,0,0,1,1.25-.5,2.2,2.2,0,0,1,1,.21,1.81,1.81,0,0,1,.66.57,2.34,2.34,0,0,1,.35.83,4.57,4.57,0,0,1,.1,1A3.24,3.24,0,0,1,24,29.67Z"/><path class="cls-1" d="M21.06,28.49a1.22,1.22,0,0,1-.5-.91H19v2.71c0,.46.3.68.89.68a1.58,1.58,0,0,0,.79-.21,3.17,3.17,0,0,0,.73-.53,3.41,3.41,0,0,0,.54-.71,1.93,1.93,0,0,0,.24-.71A1.75,1.75,0,0,1,21.06,28.49Z"/></svg>