<svg id="Layer_1" data-name="Layer 1" xmlns="http://www.w3.org/2000/svg" viewBox="0 0 40 40"><defs><style>.cls-1{fill:#2196f3;}</style></defs><path class="cls-1" d="M19.37,40c-.39-.21-.83-.26-1.22-.5a3.86,3.86,0,0,1,2.56-7.18,3.93,3.93,0,0,1,3.12,3.44,3.83,3.83,0,0,1-2.68,4l-.61.2Z"/><path class="cls-1" d="M5.22,40c-.38-.21-.82-.27-1.21-.5a3.86,3.86,0,0,1-1.75-4.77,3.91,3.91,0,0,1,4.31-2.39A3.91,3.91,0,0,1,9.7,36,3.85,3.85,0,0,1,7,39.8l-.61.2Z"/><path class="cls-1" d="M33.53,40c-.39-.21-.85-.27-1.25-.5a3.82,3.82,0,0,1-1.94-3.87A3.77,3.77,0,0,1,33,32.46a3.85,3.85,0,0,1,3.92,6.37,3.62,3.62,0,0,1-2.15,1.09s-.11,0-.13.07Z"/><path class="cls-1" d="M28.8,20.52v4.56a1.13,1.13,0,0,1-.14.6A5.58,5.58,0,0,0,28,27.9c0,.24-.11.31-.33.31H26.4c-.2,0-.23-.07-.25-.24a6.13,6.13,0,0,0-4.73-5.42.29.29,0,0,1-.27-.3V14.64c0-.22.05-.31.28-.29a1.55,1.55,0,0,0,.43,0A1.14,1.14,0,0,0,23,13.21,1.12,1.12,0,0,0,21.91,12h0c-1.27,0-2.55,0-3.83,0A1.13,1.13,0,0,0,17,13.21a1.16,1.16,0,0,0,1.1,1.15c.23,0,.55-.11.66.06s0,.48.05.72v7c0,.28-.08.38-.34.44a6.16,6.16,0,0,0-4.65,5.31c0,.27-.11.35-.37.34s-.78,0-1.17,0c-.19,0-.27-.06-.29-.27a5.72,5.72,0,0,0-.72-2.32,1,1,0,0,1-.11-.51v-8.7A5.26,5.26,0,0,1,15.74,11a4.09,4.09,0,0,1,.78,0h6.91a5.24,5.24,0,0,1,5.26,4.36,6.55,6.55,0,0,1,.09,1.4Z"/><path class="cls-1" d="M25,5a5,5,0,1,1-5-5A5,5,0,0,1,25,5Z"/><path class="cls-1" d="M16.14,28.88a4,4,0,0,1,3.05-4.08,3.87,3.87,0,0,1,4.16,1.91,3.76,3.76,0,0,1-.07,3.86c-.11.2-.2.2-.38.11a6,6,0,0,0-5.83,0c-.2.1-.27.05-.38-.13A3.8,3.8,0,0,1,16.14,28.88Z"/><path class="cls-1" d="M9.7,28.63a3.88,3.88,0,0,1-.57,2c-.11.18-.19.18-.36.1a6,6,0,0,0-5.86,0c-.15.08-.23.07-.33-.09A3.9,3.9,0,0,1,4.5,25a3.9,3.9,0,0,1,5,2.34,4,4,0,0,1,.22,1.14Z"/><path class="cls-1" d="M38,28.7a3.79,3.79,0,0,1-.54,1.85c-.12.21-.22.23-.42.12a6.06,6.06,0,0,0-5.16-.29,2.45,2.45,0,0,0-.52.24c-.26.17-.4.14-.57-.14A3.86,3.86,0,1,1,38,28.7Z"/></svg>