<svg id="Layer_1" data-name="Layer 1" xmlns="http://www.w3.org/2000/svg" viewBox="0 0 40 40"><defs><style>.cls-1{fill:#791e43;}</style></defs><path class="cls-1" d="M40,14.16H0V7.66C3.79,6.27,7.57,4.9,11.35,3.48c2.79-1,5.56-2.19,8.34-3.28h.62a2,2,0,0,0,.5.32L40,7.65ZM14.17,10H16.4V7.8H14.17Zm6.9,0V7.82H18.93V10Zm4.69,0V7.77H23.59V10ZM9.5,7.73v2.2h2.16V7.73Zm21,2.3V7.81H28.35V10Z"/><path class="cls-1" d="M37.54,16.62V39.79H30.7V25.93l2.1-.15V18.93H7.22v6.85L9.27,26v13.8H2.46V16.62Z"/><path class="cls-1" d="M11.86,28.89V26H28.08v2.92Z"/><path class="cls-1" d="M11.86,34.29V31.37H28.07v2.92Z"/><path class="cls-1" d="M28.11,36.89V39.8H11.9V36.89Z"/><path class="cls-1" d="M9.5,21.29h21v2.1H9.5Z"/></svg>