<svg id="Layer_1" data-name="Layer 1" xmlns="http://www.w3.org/2000/svg" viewBox="0 0 80 80"><defs><style>.cls-1{fill:#002d6b;}.cls-2{fill:#f4f4f4;}.cls-3{fill:#012f6c;}.cls-4{fill:#012e6c;}.cls-5{fill:#f9fafa;}.cls-6{fill:#fea81f;}</style></defs><path class="cls-1" d="M6,15.65a1.33,1.33,0,0,1,1.38-1.39A1.37,1.37,0,1,1,6,15.65Z"/><path class="cls-1" d="M11.51,15.66A1.37,1.37,0,1,1,12.87,17,1.31,1.31,0,0,1,11.51,15.66Z"/><path class="cls-1" d="M17,15.66A1.37,1.37,0,1,1,18.35,17,1.32,1.32,0,0,1,17,15.66Z"/><path class="cls-1" d="M22.42,27.94a5.48,5.48,0,1,0,5.52,5.45A5.46,5.46,0,0,0,22.42,27.94Zm.06,8.22a2.74,2.74,0,1,1,2.71-2.74A2.76,2.76,0,0,1,22.48,36.16Z"/><path class="cls-1" d="M35.91,22.47H9.05a2.72,2.72,0,0,0-3,3V57.89A2.7,2.7,0,0,0,9,60.8H35.91a2.7,2.7,0,0,0,3-2.94V25.43A2.71,2.71,0,0,0,35.91,22.47ZM9.54,25.19q12.93,0,25.85,0c.43,0,.79-.09.78.61,0,5.76,0,11.52,0,17.48L30.7,39.55c-1.37-.94-1.71-.91-2.86.24s-2.49,2.43-3.67,3.7c-.49.52-.78.46-1.31.09-2-1.44-4.08-2.82-6.13-4.21-1-.71-1.5-.67-2.38.21L8.93,45c-.27-.17-.16-.39-.16-.57,0-6.16,0-12.32,0-18.49C8.75,25.33,8.91,25.19,9.54,25.19Z"/><path class="cls-1" d="M56.47,43.64a1.32,1.32,0,0,1-.07,1.91A5.17,5.17,0,0,1,53,47.11a5.65,5.65,0,0,1-5.63-3.92,5.48,5.48,0,0,1,8.78-5.75c.82.69,1,1.47.41,2.14s-1.26.66-2.11,0a2.78,2.78,0,0,0-3.47-.14,2.72,2.72,0,0,0,3.14,4.43c.19-.12.36-.28.54-.41A1.35,1.35,0,0,1,56.47,43.64Z"/><path class="cls-1" d="M68.68,45.6a5.28,5.28,0,0,1-3.86,1.56,5.43,5.43,0,0,1-5.25-4A5.53,5.53,0,0,1,62,37a5.46,5.46,0,0,1,6.52.52,1.39,1.39,0,0,1,.35,2c-.52.67-1.27.7-2.09.09a2.79,2.79,0,0,0-3.55-.15,2.72,2.72,0,1,0,3.43,4.23,1.84,1.84,0,0,1,1.14-.53,1.37,1.37,0,0,1,.89,2.41Z"/><path class="cls-1" d="M58.21,25.21A16.43,16.43,0,1,0,74.49,41.67,16.42,16.42,0,0,0,58.21,25.21Zm-.13,30.12A13.7,13.7,0,1,1,71.75,41.76,13.71,13.71,0,0,1,58.08,55.33Z"/><path class="cls-1" d="M80,13.52q0-4.74-4.71-4.74h-70C2.15,8.78.55,10.36.55,13.44V64.35C.55,67.43,2.15,69,5.26,69h35c11.64,0,23.28,0,34.91,0A4.51,4.51,0,0,0,80,64.27C79.93,47.35,80,30.44,80,13.52ZM77.23,64.31c0,1.58-.4,2-2,2q-17.5,0-35,0t-35,0c-1.62,0-2-.38-2-2V13.53c0-1.64.37-2,2-2h70c1.55,0,2,.4,2,2Z"/><path class="cls-2" d="M6,15.65a1.33,1.33,0,0,1,1.38-1.39A1.37,1.37,0,1,1,6,15.65Z"/><path class="cls-2" d="M11.51,15.66A1.37,1.37,0,1,1,12.87,17,1.31,1.31,0,0,1,11.51,15.66Z"/><path class="cls-2" d="M17,15.66A1.37,1.37,0,1,1,18.35,17,1.32,1.32,0,0,1,17,15.66Z"/><path class="cls-2" d="M22.42,27.94a5.48,5.48,0,1,0,5.52,5.45A5.46,5.46,0,0,0,22.42,27.94Zm.06,8.22a2.74,2.74,0,1,1,2.71-2.74A2.76,2.76,0,0,1,22.48,36.16Z"/><path class="cls-2" d="M35.91,22.47H9.05a2.72,2.72,0,0,0-3,3V57.89A2.7,2.7,0,0,0,9,60.8H35.91a2.7,2.7,0,0,0,3-2.94V25.43A2.71,2.71,0,0,0,35.91,22.47ZM9.54,25.19q12.93,0,25.85,0c.43,0,.79-.09.78.61,0,5.76,0,11.52,0,17.48L30.7,39.55c-1.37-.94-1.71-.91-2.86.24s-2.49,2.43-3.67,3.7c-.49.52-.78.46-1.31.09-2-1.44-4.08-2.82-6.13-4.21-1-.71-1.5-.67-2.38.21L8.93,45c-.27-.17-.16-.39-.16-.57,0-6.16,0-12.32,0-18.49C8.75,25.33,8.91,25.19,9.54,25.19Z"/><path class="cls-2" d="M56.47,43.64a1.32,1.32,0,0,1-.07,1.91A5.17,5.17,0,0,1,53,47.11a5.65,5.65,0,0,1-5.63-3.92,5.48,5.48,0,0,1,8.78-5.75c.82.69,1,1.47.41,2.14s-1.26.66-2.11,0a2.78,2.78,0,0,0-3.47-.14,2.72,2.72,0,0,0,3.14,4.43c.19-.12.36-.28.54-.41A1.35,1.35,0,0,1,56.47,43.64Z"/><path class="cls-2" d="M68.68,45.6a5.28,5.28,0,0,1-3.86,1.56,5.43,5.43,0,0,1-5.25-4A5.53,5.53,0,0,1,62,37a5.46,5.46,0,0,1,6.52.52,1.39,1.39,0,0,1,.35,2c-.52.67-1.27.7-2.09.09a2.79,2.79,0,0,0-3.55-.15,2.72,2.72,0,1,0,3.43,4.23,1.84,1.84,0,0,1,1.14-.53,1.37,1.37,0,0,1,.89,2.41Z"/><path class="cls-2" d="M58.21,25.21A16.43,16.43,0,1,0,74.49,41.67,16.42,16.42,0,0,0,58.21,25.21Zm-.13,30.12A13.7,13.7,0,1,1,71.75,41.76,13.71,13.71,0,0,1,58.08,55.33Z"/><path class="cls-1" d="M22.42,27.94a5.48,5.48,0,1,0,5.52,5.45A5.46,5.46,0,0,0,22.42,27.94Zm.06,8.22a2.74,2.74,0,1,1,2.71-2.74A2.76,2.76,0,0,1,22.48,36.16Z"/><path class="cls-1" d="M35.91,22.47H9.05a2.72,2.72,0,0,0-3,3V57.89A2.7,2.7,0,0,0,9,60.8H35.91a2.7,2.7,0,0,0,3-2.94V25.43A2.71,2.71,0,0,0,35.91,22.47ZM9.54,25.19q12.93,0,25.85,0c.43,0,.79-.09.78.61,0,5.76,0,11.52,0,17.48L30.7,39.55c-1.37-.94-1.71-.91-2.86.24s-2.49,2.43-3.67,3.7c-.49.52-.78.46-1.31.09-2-1.44-4.08-2.82-6.13-4.21-1-.71-1.5-.67-2.38.21L8.93,45c-.27-.17-.16-.39-.16-.57,0-6.16,0-12.32,0-18.49C8.75,25.33,8.91,25.19,9.54,25.19Z"/><path class="cls-1" d="M56.47,43.64a1.32,1.32,0,0,1-.07,1.91A5.17,5.17,0,0,1,53,47.11a5.65,5.65,0,0,1-5.63-3.92,5.48,5.48,0,0,1,8.78-5.75c.82.69,1,1.47.41,2.14s-1.26.66-2.11,0a2.78,2.78,0,0,0-3.47-.14,2.72,2.72,0,0,0,3.14,4.43c.19-.12.36-.28.54-.41A1.35,1.35,0,0,1,56.47,43.64Z"/><path class="cls-1" d="M68.68,45.6a5.28,5.28,0,0,1-3.86,1.56,5.43,5.43,0,0,1-5.25-4A5.53,5.53,0,0,1,62,37a5.46,5.46,0,0,1,6.52.52,1.39,1.39,0,0,1,.35,2c-.52.67-1.27.7-2.09.09a2.79,2.79,0,0,0-3.55-.15,2.72,2.72,0,1,0,3.43,4.23,1.84,1.84,0,0,1,1.14-.53,1.37,1.37,0,0,1,.89,2.41Z"/><path class="cls-1" d="M58.21,25.21A16.43,16.43,0,1,0,74.49,41.67,16.42,16.42,0,0,0,58.21,25.21Zm-.13,30.12A13.7,13.7,0,1,1,71.75,41.76,13.71,13.71,0,0,1,58.08,55.33Z"/><path class="cls-3" d="M8.76,15.68A1.35,1.35,0,0,1,7.38,17a1.37,1.37,0,1,1,1.38-1.31Z"/><path class="cls-4" d="M14.24,15.58A1.33,1.33,0,0,1,12.87,17a1.31,1.31,0,0,1-1.36-1.33,1.37,1.37,0,0,1,2.73-.08Z"/><path class="cls-4" d="M19.72,15.58A1.33,1.33,0,0,1,18.35,17,1.32,1.32,0,0,1,17,15.66a1.37,1.37,0,0,1,2.74-.08Z"/><path class="cls-5" d="M22.42,27.94a5.48,5.48,0,1,0,5.52,5.45A5.46,5.46,0,0,0,22.42,27.94Zm.06,8.22a2.74,2.74,0,1,1,2.71-2.74A2.76,2.76,0,0,1,22.48,36.16Z"/><path class="cls-1" d="M22.41,58.07c-4.25,0-8.5,0-12.75,0-.79,0-.93-.23-.91-1,0-2.45,0-4.9,0-7.36a1.49,1.49,0,0,1,.46-1.2c2-2,4-4,6.06-6,.35-.36.59-.45,1.06-.13Q26,49.07,35.64,55.69a2.67,2.67,0,0,1,.49,2.24c-.18.26-.48.13-.72.13Z"/><path class="cls-1" d="M25.84,45.63c1.14-1.13,2.23-2.17,3.29-3.25.29-.3.5-.24.8,0q2.91,2,5.84,4a.75.75,0,0,1,.39.69c0,1.82,0,3.64,0,5.65Z"/><path class="cls-6" d="M56.47,43.64a1.32,1.32,0,0,1-.07,1.91A5.17,5.17,0,0,1,53,47.11a5.65,5.65,0,0,1-5.63-3.92,5.48,5.48,0,0,1,8.78-5.75c.82.69,1,1.47.41,2.14s-1.26.66-2.11,0a2.78,2.78,0,0,0-3.47-.14,2.72,2.72,0,0,0,3.14,4.43c.19-.12.36-.28.54-.41A1.35,1.35,0,0,1,56.47,43.64Z"/><path class="cls-6" d="M68.68,45.6a5.28,5.28,0,0,1-3.86,1.56,5.43,5.43,0,0,1-5.25-4A5.53,5.53,0,0,1,62,37a5.46,5.46,0,0,1,6.52.52,1.39,1.39,0,0,1,.35,2c-.52.67-1.27.7-2.09.09a2.79,2.79,0,0,0-3.55-.15,2.72,2.72,0,1,0,3.43,4.23,1.84,1.84,0,0,1,1.14-.53,1.37,1.37,0,0,1,.89,2.41Z"/><path class="cls-1" d="M22.42,27.94a5.48,5.48,0,1,0,5.52,5.45A5.46,5.46,0,0,0,22.42,27.94Zm.06,8.22a2.74,2.74,0,1,1,2.71-2.74A2.76,2.76,0,0,1,22.48,36.16Z"/><path class="cls-1" d="M68.68,45.6a5.28,5.28,0,0,1-3.86,1.56,5.43,5.43,0,0,1-5.25-4A5.53,5.53,0,0,1,62,37a5.46,5.46,0,0,1,6.52.52,1.39,1.39,0,0,1,.35,2c-.52.67-1.27.7-2.09.09a2.79,2.79,0,0,0-3.55-.15,2.72,2.72,0,1,0,3.43,4.23,1.84,1.84,0,0,1,1.14-.53,1.37,1.37,0,0,1,.89,2.41Z"/><path class="cls-1" d="M56.4,45.55A5.17,5.17,0,0,1,53,47.11a5.65,5.65,0,0,1-5.63-3.92,5.48,5.48,0,0,1,8.78-5.75c.82.69,1,1.47.41,2.14s-1.26.66-2.11,0a2.78,2.78,0,0,0-3.47-.14,2.72,2.72,0,0,0,3.14,4.43c.19-.12.36-.28.54-.41a1.35,1.35,0,0,1,1.86.15A1.32,1.32,0,0,1,56.4,45.55Z"/></svg>