<?xml version="1.0" encoding="utf-8"?>
<!-- Generator: Adobe Illustrator 25.1.0, SVG Export Plug-In . SVG Version: 6.00 Build 0)  -->
<svg version="1.1" id="Layer_1" xmlns="http://www.w3.org/2000/svg" xmlns:xlink="http://www.w3.org/1999/xlink" x="0px" y="0px"
	 viewBox="0 0 24.6 27.5" style="enable-background:new 0 0 24.6 27.5;" xml:space="preserve">
<style type="text/css">
	.st0{fill:#009100;}
	.st1{fill:#3DB043;}
</style>
<g id="Layer_2_1_">
	<g id="Layer_1-2">
		<path class="st0" d="M24.6,21.2v-0.2c0-0.1,0-0.2-0.1-0.4c0,0,0-0.1,0-0.1c0-0.1,0-0.2-0.1-0.3c0-0.1,0-0.2-0.1-0.3
			c-0.2-0.5-0.4-1-0.7-1.5c-0.3-0.4-0.6-0.8-1-1.1L22,18.1l0,0c0.3,0.2,0.5,0.5,0.7,0.8c0,0,0,0.1,0.1,0.1c0,0.1,0.1,0.1,0.1,0.2
			c0.5,0.9,0.8,1.9,0.6,2.9c-0.1,1.3-0.8,2.5-1.8,3.3l0,0c0,0-0.1,0.1-0.1,0.1c-0.1,0.1-0.2,0.2-0.3,0.2c0,0,0,0-0.1,0
			c-0.2,0.1-0.5,0.3-0.7,0.4l0,0c-0.1,0.1-0.3,0.1-0.4,0.1l-0.4,0.1h-0.2h-0.3h-0.2c-0.3,0-0.5,0-0.8,0c-0.2,0-0.4,0-0.6-0.1
			c-0.2,0-0.4-0.1-0.5-0.1L17,26l-0.4-0.2c-0.1-0.1-0.3-0.1-0.4-0.2h-0.1c-0.2-0.1-0.4-0.3-0.6-0.5L15.5,25l-0.3-0.3l0,0
			c-0.1-0.1-0.2-0.2-0.2-0.3c-0.1-0.1-0.2-0.2-0.2-0.3c-0.1-0.1-0.1-0.2-0.1-0.3c-0.1-0.1-0.1-0.3-0.2-0.5c-0.1-0.3-0.2-0.6-0.2-0.9
			c0-0.1,0-0.2,0-0.4c0-0.3,0-0.6,0-0.9c0-0.4,0.1-0.8,0.3-1.2c0-0.1,0.1-0.3,0.2-0.4l0.1-0.2l0,0c0.1-0.1,0.1-0.3,0.2-0.4l0,0
			c0-0.1,0-0.1,0.1-0.2l0.3-0.3c0-0.1,0.1-0.1,0.1-0.1l0,0c0.1-0.1,0.2-0.2,0.4-0.3c0.2-0.2,0.5-0.3,0.7-0.5
			c1.1-0.6,2.5-0.7,3.7-0.4c0.5,0.1,0.8-0.1,0.8-0.6v-0.2c0-3,0-6,0-9c0-0.2-0.1-0.5-0.3-0.6c-2.1-2.2-4.3-4.3-6.5-6.4
			C14,0.1,13.7,0,13.5,0H0.8C0.2,0,0,0.2,0,0.8v26c0,0.6,0.2,0.8,0.8,0.8c5.7,0,11.3,0,16.9,0h1h0.5h0.3c0.2,0,0.3,0,0.5-0.1
			c0.2,0,0.4-0.1,0.5-0.1c0.2-0.1,0.4-0.1,0.5-0.2c0.3-0.1,0.6-0.3,0.9-0.4c0.1-0.1,0.2-0.1,0.3-0.2c0.1-0.1,0.2-0.2,0.4-0.3
			l0.1-0.1l0.3-0.3c0,0,0.1-0.1,0.1-0.1c0.1-0.1,0.2-0.3,0.4-0.4c0.1-0.1,0.2-0.2,0.3-0.4c0.2-0.3,0.4-0.6,0.5-1
			c0.1-0.1,0.1-0.3,0.2-0.4l0,0c0.1-0.1,0.1-0.3,0.1-0.4c0-0.1,0.1-0.2,0.1-0.4c0-0.1,0-0.3,0.1-0.5c0-0.2,0-0.4,0-0.7
			C24.6,21.5,24.6,21.3,24.6,21.2z M14.2,1.8l4.9,4.7h-0.3H16c-0.9,0.1-1.7-0.6-1.8-1.5c0-0.1,0-0.2,0-0.3V1.8z M1.1,26.4V1.1h12.1
			v0.3c0,1.1,0,2.3,0,3.4c0,1.3,1,2.5,2.3,2.7c0.2,0,0.4,0,0.6,0h3.9v8.2c-2.8-0.3-5,0.6-6.2,3c-0.1,0.1-0.1,0.2-0.1,0.3
			s-0.1,0.3-0.2,0.4s-0.1,0.4-0.2,0.6c0,0.1-0.1,0.2-0.1,0.4c-0.4,1.7,0,3.6,1.2,4.9l0,0c0.1,0.1,0.2,0.3,0.4,0.4
			c0.2,0.2,0.4,0.4,0.7,0.6L1.1,26.4z"/>
		<path class="st1" d="M10.8,14.9c-0.7-1.3-2.1-2.1-3.6-2.2c-0.3-0.1-0.6,0.1-0.6,0.4c0,0.1,0,0.1,0,0.2v0.3c-1.9,0.3-3.2,2.1-2.9,4
			c0.2,1.5,1.4,2.6,2.9,2.9c1.9,0.3,3.7-1,4-2.9c0,0,0,0,0,0h0.2c0.6,0.1,0.8-0.3,0.7-0.8C11.4,16.1,11.2,15.5,10.8,14.9z M7,19.4
			c-1.2,0-2.2-1-2.3-2.2c-0.1-1.2,0.7-2.2,1.8-2.4v2.2c0,0.5,0.2,0.7,0.7,0.7h2.1C9.1,18.7,8.1,19.5,7,19.4z M10,16.5H7.6v-2.6
			c1.4,0.2,2.4,1.3,2.6,2.6L10,16.5z"/>
		<path class="st1" d="M7.2,9.6h3.2c0.3,0,0.5,0.2,0.6,0.5c0,0.1,0,0.2,0,0.3c-0.1,0.2-0.3,0.4-0.6,0.3H4.1c-0.4,0-0.6-0.2-0.6-0.5
			s0.2-0.5,0.6-0.5H7.2z"/>
		<path class="st1" d="M15.1,10.7h-1.9c-0.4,0-0.6-0.2-0.6-0.5c0-0.3,0.3-0.5,0.6-0.5c0,0,0,0,0.1,0H17c0.3,0,0.6,0.2,0.6,0.5
			c0,0,0,0.1,0,0.1c0,0.3-0.2,0.5-0.6,0.5L15.1,10.7z"/>
		<path class="st1" d="M15.6,14.1h-1.5c-0.4,0-0.6-0.2-0.6-0.5c0-0.3,0.2-0.5,0.5-0.5c0,0,0,0,0.1,0c1,0,2,0,3,0
			c0.3,0,0.6,0.2,0.6,0.5c0,0,0,0,0,0.1c0,0.3-0.2,0.5-0.5,0.5c0,0,0,0-0.1,0H15.6z"/>
		<path class="st1" d="M5.6,7.3H4.1C3.7,7.3,3.5,7,3.5,6.7c0-0.3,0.3-0.5,0.6-0.5c0,0,0,0,0,0h3c0.3-0.1,0.6,0.1,0.6,0.4
			S7.6,7.2,7.3,7.3c-0.1,0-0.1,0-0.2,0L5.6,7.3z"/>
		<path class="st1" d="M5.6,23.4H4.1c-0.4,0-0.6-0.2-0.6-0.5s0.2-0.5,0.6-0.5h3c0.4,0,0.6,0.2,0.6,0.5s-0.2,0.5-0.6,0.5H5.6z"/>
		<path class="st1" d="M10.1,22.3c0.2,0,0.4,0,0.6,0c0.3,0,0.5,0.2,0.5,0.5c0,0.3-0.2,0.5-0.5,0.5c-0.4,0-0.9,0-1.4,0
			c-0.3,0-0.5-0.3-0.5-0.5c0-0.3,0.2-0.5,0.5-0.5H10.1L10.1,22.3z"/>
		<path class="st1" d="M10.1,6.2h0.6c0.3,0,0.5,0.2,0.5,0.5c0,0.3-0.2,0.5-0.5,0.5H9.5C9.2,7.2,9,7,9,6.7c0-0.3,0.2-0.5,0.5-0.5
			H10.1z"/>
		<circle class="st0" cx="18.8" cy="19.7" r="2"/>
		<path class="st0" d="M20.2,22.8l-0.6,2.5l-0.5-1.9l0.3-0.5c0.1-0.1,0-0.3-0.1-0.3c0,0-0.1,0-0.1,0h-0.6c-0.1,0-0.2,0.1-0.2,0.3
			c0,0,0,0.1,0,0.1l0.3,0.5l0,0l-0.5,1.9l-0.6-2.5c-1.2,0.2-2.1,1.3-2.1,2.5c0,0.3,0.2,0.5,0.5,0.5H16v0.4l1.4,0.4l1.2,0.2l1.3-0.1
			l1.1-0.2l0.9-0.7c0.3,0,0.5-0.2,0.5-0.5C22.3,24,21.4,23,20.2,22.8z"/>
	</g>
</g>
</svg>
