<svg id="Layer_1" data-name="Layer 1" xmlns="http://www.w3.org/2000/svg" viewBox="0 0 80 80"><defs><style>.cls-1{fill:#ff9800;}</style></defs><path class="cls-1" d="M41.34,65.75,44.2,78.57c1.26-2.53,2.46-4.88,3.6-7.25.27-.57.53-.64,1.1-.45,2.76.95,5.53,1.86,8.3,2.79l.67.2c-.14-.43-.22-.75-.33-1.06-1.46-4.37-2.91-8.74-4.38-13.11a1.51,1.51,0,0,1,.09-1.37,7.66,7.66,0,0,0,1-3,1.35,1.35,0,0,1,.49-1c3.5-2.76,4-6,1.71-9.73l-.24-.4H57c6.21,0,12.41,0,18.62,0,.69,0,.82.19.82.85,0,9.24,0,18.49,0,27.74A7,7,0,0,1,69.14,80H12a7,7,0,0,1-7.3-7.34c0-9.22,0-18.44,0-27.66,0-.74.2-.87.89-.87,6.41,0,12.81,0,19.25,0,0,.36-.24.57-.39.82-2,3.39-1.36,6.74,1.76,9.14a1.77,1.77,0,0,1,.73,1.27,7.36,7.36,0,0,0,2,4.38c.38.38.16.68,0,1Q26.9,67,24.79,73.31c-.05.13-.08.27-.13.45a1.83,1.83,0,0,0,1.07-.24c2.61-.86,5.22-1.71,7.82-2.62.64-.22.9-.1,1.2.53C35.85,73.75,37,76,38.3,78.55l2.86-12.8Z"/><path class="cls-1" d="M49.48,24.75a15.2,15.2,0,0,0,0-24.58c.07-.26.28-.14.41-.14,2.7,0,5.4,0,8.1,0,.5,0,.65.15.77.62.82,3.3,2.78,5.46,6.21,6.1.33.07.43.19.43.5,0,3.47,0,7,0,10.42,0,.33-.13.42-.44.48-3.44.65-5.38,2.82-6.22,6.11-.08.33-.07.62-.59.62-2.85,0-5.69,0-8.53,0C49.57,24.83,49.53,24.78,49.48,24.75Z"/><path class="cls-1" d="M31.86,0a15.24,15.24,0,0,0-.07,24.82H23.18c-.36,0-.65.06-.78-.49-.8-3.36-2.76-5.61-6.29-6.23-.38-.07-.37-.27-.37-.54q0-5.13,0-10.25c0-.38.09-.53.5-.61A7.34,7.34,0,0,0,22.29.88c.19-.74.49-.89,1.19-.88C26.2,0,28.92,0,31.86,0Z"/><path class="cls-1" d="M13,31.77c0,3,0,5.91,0,8.87,0,.57-.09.78-.72.77-2.3,0-4.6,0-6.89,0-.59,0-.69-.19-.69-.72,0-5.22,0-10.44,0-15.66A2.75,2.75,0,0,1,7.6,22.09c1.58,0,3.16,0,4.74,0,.54,0,.66.14.65.66C13,25.75,13,28.76,13,31.77Z"/><path class="cls-1" d="M68.14,31.74c0-3,0-6,0-8.95,0-.53.09-.74.68-.72,1.58.05,3.16,0,4.74,0A2.73,2.73,0,0,1,76.41,25c0,5.25,0,10.5,0,15.75,0,.59-.18.7-.72.69-2.29,0-4.59,0-6.88,0-.58,0-.71-.15-.7-.71C68.16,37.71,68.14,34.73,68.14,31.74Z"/><path class="cls-1" d="M40.47,30.36c-7.95,0-15.91,0-23.87,0-.72,0-.9-.17-.88-.89,0-1.89,0-1.89,1.92-1.89q23.4,0,46.8,0c.78,0,1,.19,1,1-.06,1.81,0,1.81-1.83,1.81Z"/><path class="cls-1" d="M53.55,69.54c-2.17-.72-4.18-1.38-6.17-2.08-.47-.16-.71-.09-.92.38-.34.78-.75,1.54-1.18,2.39a6.68,6.68,0,0,1-.55-2c-.36-1.47-.65-3-1-4.43-.14-.58-.13-.93.53-1.16a4.74,4.74,0,0,0,1.91-1.28.88.88,0,0,1,1-.3,5.46,5.46,0,0,0,3-.07c.35-.11.48-.1.61.28C51.68,64,52.6,66.69,53.55,69.54Z"/><path class="cls-1" d="M37.2,70.19c-.39-.78-.81-1.53-1.14-2.32-.22-.52-.49-.54-1-.37-2,.69-4,1.34-6.12,2,.91-2.75,1.79-5.37,2.65-8,.1-.33.31-.34.59-.33a5.61,5.61,0,0,0,1.87-.17.73.73,0,0,1,.78.21,7.28,7.28,0,0,0,3.49,1.91c.25.06.58,0,.47.51-.5,2.12-1,4.24-1.45,6.36C37.35,70.09,37.28,70.12,37.2,70.19Z"/><path class="cls-1" d="M33.65,33.12a2.11,2.11,0,0,1-2.12,1.55,5.42,5.42,0,0,0-2.55.7,4.63,4.63,0,0,1-2.47.51q-5,0-10.08,0c-.56,0-.71-.14-.71-.71,0-2.06,0-2.06,2.09-2.06H33.65Z"/><path class="cls-1" d="M47.48,33.12h.85c5.43,0,10.86,0,16.28,0,.66,0,.8.16.79.8,0,2,0,2-2,2H53.83a2.37,2.37,0,0,1-1.22-.3,6.4,6.4,0,0,0-2.76-.88A2.28,2.28,0,0,1,47.48,33.12Z"/><path class="cls-1" d="M55.51,38.63c3.2,0,6.29,0,9.38,0,.35,0,.48.07.51.46.14,2.31.16,2.31-2.1,2.31s-4.41,0-6.61,0c-.45,0-.64-.08-.66-.59A7.48,7.48,0,0,0,55.51,38.63Z"/><path class="cls-1" d="M25.59,38.63a9.33,9.33,0,0,0-.52,2.4c0,.32-.16.36-.43.36h-8.5c-.28,0-.44-.06-.4-.38a2.09,2.09,0,0,0,0-.25c0-2.13,0-2.13,2.08-2.13Z"/><path class="cls-1" d="M19.68,0a5,5,0,0,1-3.94,4V.31c0-.38.28-.29.48-.29Z"/><path class="cls-1" d="M61.46,0c1.16,0,2.28,0,3.39,0,.39,0,.56.07.54.51,0,1.14,0,2.28,0,3.43C63.39,3.66,62.05,2.34,61.46,0Z"/><path class="cls-1" d="M19.66,24.84h-3.4c-.32,0-.54,0-.53-.44,0-1.16,0-2.33,0-3.5Q18.8,21.39,19.66,24.84Z"/><path class="cls-1" d="M61.44,24.84A5,5,0,0,1,64.79,21c.41-.13.62-.19.6.38,0,1,0,2,0,3,0,.39-.12.49-.48.48C63.77,24.83,62.63,24.84,61.44,24.84Z"/><path class="cls-1" d="M54,46a3.55,3.55,0,0,1-.75-3.32c.62-2.88-.88-4.78-3.79-5.23a13,13,0,0,0-2.49-.15c-.33,0-.53-.06-.62-.41-.66-2.5-3.24-3.78-5.76-3.74a6.33,6.33,0,0,0-5,2.13c-.52.61-.41,1.69-1.16,2a21.58,21.58,0,0,1-2.48.18l-.17,0c-2.94.44-4.43,2.18-3.88,5.07A4.2,4.2,0,0,1,27,46.18c-1.64,2.22-1.17,4.22,1,5.88a6,6,0,0,0,1,.66.81.81,0,0,1,.49.88,7.42,7.42,0,0,0,.69,3.34,2.39,2.39,0,0,0,2.7,1.52,6.92,6.92,0,0,0,2.21-.68c.4-.18.65-.19.83.3,1.16,3.09,6.25,3.34,8.37,1.27.52-.51.53-1.57,1.31-1.61s1.39.48,2.11.65A2.49,2.49,0,0,0,51,56.78a5.48,5.48,0,0,0,.59-2.58,1.84,1.84,0,0,1,1.1-1.86C55.33,50.62,55.85,48.41,54,46ZM40.58,55.18a8.28,8.28,0,1,1,8.25-8.28A8.29,8.29,0,0,1,40.58,55.18Z"/><path class="cls-1" d="M41.47,12.84H39v4.31c0,.73.47,1.09,1.41,1.09a2.69,2.69,0,0,0,1.27-.34,4.76,4.76,0,0,0,1.15-.85,5,5,0,0,0,.85-1.11,3,3,0,0,0,.4-1.13,2.8,2.8,0,0,1-1.86-.52A1.91,1.91,0,0,1,41.47,12.84Z"/><path class="cls-1" d="M40.6,0A12.41,12.41,0,1,0,53,12.49,12.43,12.43,0,0,0,40.6,0Zm6.25,16.12A9.55,9.55,0,0,1,43,20a4.84,4.84,0,0,1-2.34.66,12.9,12.9,0,0,1-1.31-.08A3.44,3.44,0,0,1,38,20.17a2.83,2.83,0,0,1-1-1.05,3.67,3.67,0,0,1-.43-1.94V12.84H36l-2.4-2.4h2.93V10c0-.16,0-.3,0-.43a.53.53,0,0,0,0-.25c0-.17,0-.35,0-.51s0-.33,0-.49V7.89a2.58,2.58,0,0,0,0-.42,1.16,1.16,0,0,0-.23-.57.82.82,0,0,0-.62-.19,1.87,1.87,0,0,0-.32,0,2.39,2.39,0,0,0-.59.37L34,4.72a9.57,9.57,0,0,1,1.14-.41,3.52,3.52,0,0,1,1-.15,3,3,0,0,1,1.48.32,2.32,2.32,0,0,1,.88.85,3.29,3.29,0,0,1,.41,1.19A8.35,8.35,0,0,1,39,7.83v2.58h.36l2.06,2.13s0,0,0,0a3,3,0,0,1,.66-2,2.48,2.48,0,0,1,2-.77,3.61,3.61,0,0,1,1.63.34,2.74,2.74,0,0,1,1,.91,3.56,3.56,0,0,1,.56,1.32,7.12,7.12,0,0,1,.16,1.54A5.07,5.07,0,0,1,46.85,16.14Z"/></svg>