<svg id="Layer_1" data-name="Layer 1" xmlns="http://www.w3.org/2000/svg" viewBox="0 0 80 80"><defs><style>.cls-1{fill:#9c27b0;}</style></defs><path class="cls-1" d="M30.24,55.46c.79,1.17,1.5,2.23,2.22,3.28,2.56,3.78,5.15,7.54,7.67,11.34A6.25,6.25,0,0,1,37,79.67a6.49,6.49,0,0,1-7.5-2.77q-5.28-7.75-10.54-15.53l-.55-.79a10,10,0,0,1-5.12,1.64A10.37,10.37,0,0,1,2.59,51.63a9.64,9.64,0,0,1,4.39-8c2.06-1.43,4.16-2.79,6.21-4.23a3.77,3.77,0,0,0,1.15-1.3q6-12.08,12-24.18A5.64,5.64,0,0,1,31,10.68a12.26,12.26,0,0,1,7.33,1.79,35.53,35.53,0,0,1,10.48,9A47.34,47.34,0,0,1,58.29,39.3a18.5,18.5,0,0,1,.54,8.59,7.53,7.53,0,0,1-2,3.93A5.87,5.87,0,0,1,53,53.59c-7.36.56-14.72,1.16-22.08,1.75C30.72,55.36,30.55,55.4,30.24,55.46ZM28,19.45c.1.92.17,1.8.3,2.67A15.09,15.09,0,0,0,28.74,24,45.12,45.12,0,0,0,43.85,46.88a16.69,16.69,0,0,0,6.94,3.61,3.65,3.65,0,0,0,3.5-1.06,5,5,0,0,0,1.42-2.82,14.67,14.67,0,0,0-.23-5.9,35.78,35.78,0,0,0-4.79-11.14A44.36,44.36,0,0,0,40,17.29a17.4,17.4,0,0,0-6.54-3.39c-2.81-.66-4.79.64-5.27,3.48C28.09,18.07,28.08,18.78,28,19.45ZM25.24,23a2.2,2.2,0,0,0-.19.3q-3.93,8-7.86,16a.9.9,0,0,0,.15,1q4,5.88,8,11.79a1,1,0,0,0,1.08.52q8-.66,16.07-1.28c.62,0,1.24-.13,1.87-.19A48.73,48.73,0,0,1,25.24,23ZM22.82,53.9,14.76,42c-2.15,1.48-4.27,2.86-6.31,4.34a6.79,6.79,0,0,0-1.73,9.14c2.09,3.4,5.88,4.73,9.13,2.94C18.26,57.12,20.48,55.45,22.82,53.9Zm-1.87,5,1,1.45Q27,67.81,32.06,75.27a3.31,3.31,0,0,0,2.61,1.64,3.09,3.09,0,0,0,3.07-1.62,3.19,3.19,0,0,0-.23-3.61L27.11,56.34A1.26,1.26,0,0,0,25.26,56C23.83,56.89,22.42,57.87,21,58.87Z"/><path class="cls-1" d="M61.9,21.85a1.61,1.61,0,0,1-1.74-1A1.51,1.51,0,0,1,60.84,19c1.52-1,3-2,4.57-3l5.81-3.81a1.59,1.59,0,1,1,1.71,2.61q-5.06,3.33-10.12,6.63A6.11,6.11,0,0,1,61.9,21.85Z"/><path class="cls-1" d="M64.43,29l6.48,1.16c2,.35,3.9.71,5.85,1.05a1.59,1.59,0,0,1,1.47,1.7,1.61,1.61,0,0,1-1.94,1.36q-6.12-1.08-12.24-2.2a1.58,1.58,0,0,1-1.42-1.74A1.6,1.6,0,0,1,64.43,29Z"/><path class="cls-1" d="M56.59,1.78q-.48,4.66-1,9.32c-.08.75-.15,1.5-.25,2.25a1.5,1.5,0,0,1-1.71,1.43,1.47,1.47,0,0,1-1.32-1.71q.55-5.79,1.17-11.57A1.5,1.5,0,0,1,55.24.15,1.53,1.53,0,0,1,56.59,1.78Z"/><path class="cls-1" d="M38.53,25.71c4.33,0,7.52,2.25,8.68,5.66a8.33,8.33,0,0,1-2.76,9.26,2.78,2.78,0,0,1-1.24.58,1.32,1.32,0,0,1-1.5-.87A1.47,1.47,0,0,1,42,38.61c.18-.18.4-.32.6-.49a5.28,5.28,0,0,0-5.91-8.68l-.41.23a1.53,1.53,0,0,1-2.24-.47,1.59,1.59,0,0,1,.68-2.2A8.07,8.07,0,0,1,38.53,25.71Z"/></svg>