<svg id="Layer_1" data-name="Layer 1" xmlns="http://www.w3.org/2000/svg" viewBox="0 0 80 80"><defs><style>.cls-1{fill:#e58005;}.cls-1,.cls-2,.cls-3,.cls-4{fill-rule:evenodd;}.cls-2{fill:#ff9800;}.cls-3{fill:#ce7102;}.cls-4{fill:#ef8903;}</style></defs><path class="cls-1" d="M41,0a11.31,11.31,0,0,0-8.23,3.24,10.6,10.6,0,0,0-1.14-.06c-4.9,0-8.87,3.05-8.87,6.82h0c-4.12.19-7.38,2.82-7.38,6L40,20,65.63,16c0-3.2-3.26-5.82-7.37-6h0c0-3.77-4-6.82-8.89-6.82h-.22A11.35,11.35,0,0,0,41,0Z"/><path class="cls-2" d="M68.29,23.65,39,19.84l-27.3,3.81C8.2,35.81,5.87,53.35,8.37,69.25l29.74,4.46,33.53-4.46C74.15,53.35,71.82,35.81,68.29,23.65Z"/><path class="cls-3" d="M40,16H11.7a3.82,3.82,0,1,0,0,7.63H69.34a3.82,3.82,0,0,0,0-7.63Z"/><path class="cls-1" d="M71.64,69.25H8.37C3.61,72.08,3.12,80,12.05,80H68C76.9,80,76.41,72.08,71.64,69.25Z"/><path class="cls-4" d="M31.2,31.83c-3.13,0-4.25,1.89-4.2,4.82.3,18.76,13,26,21.22,18.83l.08-.07,0,0C57.73,46.93,46.14,32.46,31.2,31.83Z"/><path class="cls-3" d="M30.85,31.84C28,32,27,33.83,27,36.65,27.29,54.94,39.34,62.32,47.58,56c-7.83,2.58-17.1-5.08-17.35-21.09A5.89,5.89,0,0,1,30.85,31.84Z"/></svg>