<?xml version="1.0" encoding="utf-8"?>
<!-- Generator: Adobe Illustrator 25.1.0, SVG Export Plug-In . SVG Version: 6.00 Build 0)  -->
<svg version="1.1" id="Layer_1" xmlns="http://www.w3.org/2000/svg" xmlns:xlink="http://www.w3.org/1999/xlink" x="0px" y="0px"
	 viewBox="0 0 80 80" style="enable-background:new 0 0 80 80;" xml:space="preserve">
<style type="text/css">
	.st0{fill:#FFFFFF;}
</style>
<g>
	<g>
		<path class="st0" d="M18.4,79c0.3-0.3,0.6-0.2,0.9,0C19,79,18.7,79,18.4,79z"/>
		<path class="st0" d="M62.2,79c0.3-0.2,0.5-0.2,0.8,0C62.7,79,62.4,79,62.2,79z"/>
		<path class="st0" d="M31.7,20.3c-2.6-3.8-5.2-7.5-7.8-11.2c-0.3-0.5-0.3-0.7,0.2-1c3.3-2.3,6.8-4.3,10.8-5.3
			c5.7-1.5,11.1-0.8,16.4,1.7c2.2,1,4.2,2.3,6.2,3.7C58,8.4,57.9,8.6,57.7,9c-2.6,3.8-5.2,7.5-7.8,11.3c0,0-0.1,0.1-0.1,0.1
			c-0.3,0.2-0.7,0.1-1.1,0.1c-5.3,0-10.5,0-15.8,0c-0.4,0-0.7,0-1.1-0.1C31.8,20.4,31.7,20.3,31.7,20.3z"/>
		<path class="st0" d="M50,25.1c-0.1,0-0.2-0.2-0.2-0.3c-0.8-0.5-1.1-1.3-1.6-2.1c-0.1-0.1-0.1-0.3,0-0.4c0.5-0.7,0.8-1.5,1.6-2
			c0,0,0,0,0,0c1.7,0.1,3.3-0.1,5,0.3c3.8,1,6.7,4.2,7.1,8c0,0.5,0,0.8-0.7,0.8c-1.2-0.1-2.3,0-3.5,0c-0.4,0-0.5-0.1-0.5-0.4
			c-0.4-2.5-2.2-4.1-4.9-4.1c-0.6,0-1.2,0-1.9,0C50.2,24.8,49.9,24.7,50,25.1z"/>
		<path class="st0" d="M31.7,24.8c0,0.1,0,0.2-0.2,0.3c0.1-0.5-0.3-0.3-0.5-0.3c-1.3,0-2.5,0-3.8,0c-0.4,0-0.5-0.1-0.5-0.5
			c0-1.2,0-2.3,0-3.5c0-0.5,0.2-0.5,0.6-0.5c1.5,0,3,0,4.4,0c0,0,0,0,0,0c0.8,0.5,1.1,1.3,1.6,2.1c0.1,0.1,0.1,0.3,0,0.4
			C32.8,23.5,32.4,24.3,31.7,24.8z"/>
	</g>
	<g>
		<path class="st0" d="M73.3,57.6c-5.7-7.8-11.2-15.7-16.8-23.5c-2.2-3-4.3-6-6.5-9c-0.2-0.1-0.1-0.4-0.3-0.4
			c-0.4-0.1-0.7-0.1-1.1-0.1c-5.2,0-10.4,0-15.6,0c-0.4,0-0.7,0-1.1,0.1c-0.2,0.1-0.2,0.3-0.3,0.4c-1.2,1.7-2.4,3.3-3.6,5
			c-6.7,9.3-13.4,18.6-20,28C3,65.1,6.2,74.7,14.3,78c1.2,0.5,2.5,0.6,3.7,1c0.2,0,0.3,0,0.5,0c0.3-0.1,0.6-0.1,0.9,0
			c14.3,0,28.5,0,42.8,0c0.3-0.1,0.5-0.1,0.8,0c0.1,0,0.2,0,0.3,0c0-0.1,0.1-0.1,0.2-0.1c1.5-0.1,3-0.5,4.4-1.2
			C75.2,74.3,78.6,64.9,73.3,57.6z M48.7,59.1c-0.5,1-1.2,1.9-2,2.7c-0.8,0.8-1.8,1.5-2.8,2c-1,0.5-2,0.8-3,0.8c-0.5,0-1,0-1.6-0.1
			c-0.6-0.1-1.2-0.2-1.7-0.5c-0.5-0.3-1-0.7-1.3-1.3c-0.4-0.6-0.5-1.4-0.5-2.3v-5.3h-0.7l-3-2.9h3.7v-0.5c0-0.2,0-0.4,0-0.5
			c0-0.2,0-0.3,0-0.3c0-0.2,0-0.4,0-0.6c0-0.2,0-0.4,0.1-0.6c0-0.2,0-0.4,0-0.6c0-0.2,0-0.4,0-0.5c0-0.3-0.1-0.5-0.3-0.7
			c-0.1-0.2-0.4-0.2-0.8-0.2c-0.1,0-0.3,0-0.4,0.1c-0.1,0-0.4,0.2-0.7,0.4l-1-2.9c0.5-0.2,1-0.4,1.4-0.5c0.4-0.1,0.8-0.2,1.3-0.2
			c0.8,0,1.4,0.1,1.9,0.4c0.5,0.3,0.8,0.6,1.1,1c0.3,0.4,0.4,0.9,0.5,1.4c0.1,0.5,0.1,1.1,0.1,1.6v3.1h0.4l2.6,2.6c0,0,0,0,0-0.1
			c0-1,0.3-1.8,0.8-2.5c0.6-0.6,1.4-0.9,2.5-0.9c0.8,0,1.5,0.1,2,0.4c0.6,0.3,1,0.6,1.3,1.1c0.3,0.5,0.6,1,0.7,1.6
			c0.1,0.6,0.2,1.2,0.2,1.9C49.5,57.2,49.2,58.1,48.7,59.1z"/>
		<path class="st0" d="M42.9,56.9c-0.6-0.4-0.9-1-1-1.8h-3.1v5.2c0,0.9,0.6,1.3,1.8,1.3c0.5,0,1-0.1,1.6-0.4c0.5-0.3,1-0.6,1.5-1
			c0.4-0.4,0.8-0.9,1.1-1.4c0.3-0.5,0.4-0.9,0.5-1.4C44.3,57.5,43.5,57.3,42.9,56.9z"/>
	</g>
</g>
</svg>
