<?xml version="1.0" encoding="utf-8"?>
<!-- Generator: Adobe Illustrator 25.1.0, SVG Export Plug-In . SVG Version: 6.00 Build 0)  -->
<svg version="1.1" id="Layer_1" xmlns="http://www.w3.org/2000/svg" xmlns:xlink="http://www.w3.org/1999/xlink" x="0px" y="0px"
	 viewBox="0 0 80 80" style="enable-background:new 0 0 80 80;" xml:space="preserve">
<style type="text/css">
	.st0{fill:#FFFFFF;}
</style>
<path class="st0" d="M43.5,60.3c-3.3,0-6.6,0.1-9.9,0c-3-0.1-5.5,0.8-7.5,3.1c-0.5,0.6-0.8,0.5-1.3,0c-3.9-4-7.9-7.9-11.8-11.8
	c-0.4-0.4-0.5-0.7-0.2-1.2c2.8-4.6,6.9-7.2,12.1-8c3.6-0.6,7.2-0.3,10.5,1.2c0.4,0.2,0.9,0.2,1.4,0.2c5.9,0,11.9,0,17.8,0
	c2.1,0,3.4,1,3.7,2.8c0.3,1.7-0.9,3.4-2.6,3.7c-0.4,0.1-0.8,0.1-1.2,0.1c-4.1,0-8.2,0-12.3,0c-0.3,0-0.6,0-0.8,0
	c-1,0.1-1.6,0.7-1.6,1.6c0,0.9,0.6,1.6,1.6,1.7c1.2,0.1,2.3,0,3.5,0c3.2,0,6.4,0,9.6,0c4.4,0,7.1-2.8,7.1-7.2c0-0.4,0.2-0.6,0.4-0.8
	c3.5-3.6,7-7.2,10.5-10.8c1.3-1.4,3.3-1.5,4.7-0.3c1.4,1.2,1.5,3.2,0.2,4.8c-4.5,5.5-9.2,10.8-13.6,16.4c-2.6,3.2-5.9,4.6-10,4.6
	C50.4,60.3,47,60.3,43.5,60.3z M36.3,51.7c0-0.9-0.7-1.6-1.6-1.7c-0.9,0-1.7,0.7-1.7,1.6c0,0.9,0.8,1.7,1.7,1.7
	C35.5,53.3,36.2,52.6,36.3,51.7z"/>
<path class="st0" d="M24.3,68.3c0,0.5-0.2,0.9-0.6,1.3c-2.1,2.1-4.2,4.1-6.3,6.2c-0.4,0.4-0.6,0.3-0.9,0
	C11.4,70.5,6.3,65.3,1.1,60.2c-0.3-0.3-0.3-0.5,0-0.8c2.1-2,4.1-4.1,6.2-6.2c0.9-0.9,1.7-0.9,2.6,0c4.6,4.6,9.2,9.2,13.8,13.8
	C24,67.3,24.3,67.7,24.3,68.3z"/>
<path class="st0" d="M46.2,33.7c-8.3,0-14.9-6.7-14.9-15c0-8.2,6.7-14.9,15-14.9c8.2,0,14.9,6.8,14.9,15
	C61.1,27.1,54.4,33.8,46.2,33.7z M44.2,15.5c0-1.2,1-1.9,2.1-1.6c0.5,0.1,0.9,0.5,1.3,0.8c0.8,0.6,1.8,0.6,2.4-0.1
	c0.6-0.7,0.5-1.7-0.3-2.4c-0.5-0.5-1.1-0.9-1.8-1.2c-0.4-0.1-0.5-0.4-0.5-0.7c0-0.5,0-1.1,0-1.6c-0.1-0.9-0.8-1.5-1.7-1.5
	c-0.9,0-1.5,0.7-1.6,1.6c0,0.4,0,0.9,0,1.3c0,0.5-0.1,0.7-0.6,0.9c-1.6,0.8-2.6,2.1-2.7,3.9c-0.3,3,1.7,5.3,4.7,5.5
	c0.8,0.1,1.5,0.4,1.8,1.2c0.2,0.7,0,1.3-0.6,1.8c-0.7,0.5-1.5,0.4-2.2,0c-0.4-0.3-0.7-0.7-1.1-1c-0.7-0.6-1.6-0.6-2.2,0
	c-0.7,0.6-0.7,1.5-0.2,2.2c0.4,0.6,0.9,1.2,1.6,1.4c1.3,0.5,1.7,1.4,1.5,2.7c-0.1,1,0.7,1.6,1.6,1.6c0.9,0,1.6-0.6,1.7-1.6
	c0-0.4,0-0.8,0-1.2c0-0.5,0.1-0.8,0.6-1.1c2.4-1.2,3.3-4,2.3-6.3c-0.8-1.9-2.4-2.9-4.5-3C44.8,17.1,44.2,16.5,44.2,15.5z"/>
</svg>
