<?xml version="1.0" encoding="utf-8"?>
<!-- Generator: Adobe Illustrator 25.1.0, SVG Export Plug-In . SVG Version: 6.00 Build 0)  -->
<svg version="1.1" id="Layer_1" xmlns="http://www.w3.org/2000/svg" xmlns:xlink="http://www.w3.org/1999/xlink" x="0px" y="0px"
	 viewBox="0 0 80 80" style="enable-background:new 0 0 80 80;" xml:space="preserve">
<style type="text/css">
	.st0{fill:#FFFFFF;}
</style>
<g>
	<path class="st0" d="M46.5,1c3.1,0.4,5.6,3,5.8,6.1c-7.6-1.2-15.2-1.2-22.8,0C29.6,4,32.2,1.4,35.2,1c0.3-0.1,0.6,0.1,0.8-0.1
		c3.2,0,6.4,0,9.7,0C45.9,1.1,46.3,0.9,46.5,1z"/>
	<path class="st0" d="M36,0.9c-0.2,0.2-0.5,0.2-0.8,0.1c0,0,0-0.1,0-0.1C35.5,0.9,35.8,0.9,36,0.9z"/>
	<path class="st0" d="M46.5,1c-0.3,0.1-0.6,0.1-0.8-0.1c0.3,0,0.5,0,0.8,0C46.5,1,46.5,1,46.5,1z"/>
	<path class="st0" d="M24.2,42.4c-3.6-1-7-2.3-10-4.3c-1.8-1.2-3.5-2.6-4.7-4.4c-3-4.2-2.8-9,0.7-12.9c2.4-2.8,5.6-4.6,9-6
		c5.8-2.4,11.8-3.5,18.1-3.8c6.8-0.4,13.6,0.2,20.2,2c4.2,1.2,8.3,2.8,11.7,5.5c1.1,0.9,2.1,1.9,3,3c3.2,4.2,3,9.1-0.6,13.2
		c-2.5,2.8-5.7,4.7-9.2,6.1c-1.5,0.6-3.1,1.2-4.8,1.6c-0.2-0.2-0.1-0.4-0.1-0.7c0.2-5,0.4-9.9,0.6-14.9c0.1-3.1-0.2-3.5-3.2-4.1
		c-9.8-2.1-19.6-2-29.4,0.3c-1.3,0.3-2,1.2-1.9,2.6c0.1,3.2,0.2,6.3,0.4,9.5C24,37.5,24.1,39.9,24.2,42.4z"/>
	<path class="st0" d="M28.7,35.9c-0.1-2.7-0.2-5.5-0.3-8.2c0-0.4,0-0.6,0.5-0.7c8-1.6,16-1.6,24,0c0.5,0.1,0.6,0.2,0.6,0.7
		C53.2,33,53,38.4,52.7,43.8c-0.3,5.8-5.2,10.5-11.1,10.8c-6.1,0.3-11.4-3.8-12.4-9.5c-0.5-2.8-0.3-5.7-0.5-8.5
		C28.7,36.4,28.7,36.1,28.7,35.9C28.7,35.9,28.7,35.9,28.7,35.9z"/>
	<path class="st0" d="M27,66c3.7,4.3,8.3,6.6,13.9,6.6c5.6,0,10.1-2.3,13.8-6.6c0,0.5,0,0.7,0,1c0,3.7,0,7.5,0,11.2
		c0,0.6-0.1,0.7-0.7,0.7c-8.8,0-17.6,0-26.3,0c-0.6,0-0.7-0.1-0.7-0.7C27,74.2,27,70.2,27,66z"/>
	<path class="st0" d="M40.5,68c-3.2-0.1-6.2-1.2-8.7-3.6c-0.5-0.5-1.1-1.1-1.6-1.6C30,62.6,30,62.4,30.1,62c0.6-1.6,1.2-3.2,1.8-4.8
		c0.1-0.4,0.2-0.5,0.7-0.3c5.5,3,11.1,3,16.6,0c0.4-0.2,0.5-0.1,0.7,0.3c0.6,1.6,1.2,3.2,1.8,4.8c0.1,0.2,0.2,0.4,0,0.7
		c-1.7,1.7-3.3,3.4-5.7,4.3C44.3,67.6,42.6,68,40.5,68z"/>
	<path class="st0" d="M22.3,71.6c0,2.2,0,4.4,0,6.6c0,0.5-0.1,0.6-0.6,0.6c-3.1,0-6.2,0-9.3,0c-1.9,0-2.9-1.2-2.5-3
		c0.4-1.7,0.8-3.4,1.3-5c1.1-3.7,4.7-6.4,8.7-6.4c0.8,0,1.8-0.3,2.3,0.1c0.5,0.4,0.1,1.4,0.1,2.2C22.3,68.3,22.3,70,22.3,71.6z"/>
	<path class="st0" d="M59.4,71.5c0-2.2,0-4.4,0-6.5c0-0.5,0.1-0.6,0.6-0.6c1.6,0,3.1,0,4.6,0.5c3.1,1.1,5.1,3.3,6,6.4
		c0.4,1.5,0.8,3.1,1.2,4.6c0.4,1.6-0.6,2.9-2.3,2.9c-3.2,0-6.3,0-9.5,0c-0.4,0-0.6-0.1-0.6-0.5C59.4,76,59.4,73.8,59.4,71.5z"/>
</g>
</svg>
