<?xml version="1.0" encoding="utf-8"?>
<!-- Generator: Adobe Illustrator 25.1.0, SVG Export Plug-In . SVG Version: 6.00 Build 0)  -->
<svg version="1.1" id="Layer_1" xmlns="http://www.w3.org/2000/svg" xmlns:xlink="http://www.w3.org/1999/xlink" x="0px" y="0px"
	 viewBox="0 0 80 80" style="enable-background:new 0 0 80 80;" xml:space="preserve">
<style type="text/css">
	.st0{fill:#FFFFFF;}
</style>
<g>
	<g>
		<path class="st0" d="M41.3,65.1c0.9,4.1,1.8,8.2,2.8,12.5c1.2-2.5,2.4-4.8,3.5-7.1c0.3-0.6,0.5-0.6,1.1-0.4
			c2.7,0.9,5.4,1.8,8.1,2.7c0.2,0.1,0.4,0.1,0.7,0.2c-0.1-0.4-0.2-0.7-0.3-1c-1.4-4.3-2.8-8.5-4.3-12.8c-0.2-0.5-0.2-0.9,0.1-1.3
			c0.5-0.9,0.8-1.9,0.9-2.9c0-0.4,0.1-0.7,0.5-1c3.4-2.7,4-5.8,1.7-9.5c-0.1-0.1-0.1-0.2-0.2-0.4c0.3,0,0.6,0,0.8,0
			c6.1,0,12.1,0,18.2,0c0.7,0,0.8,0.2,0.8,0.8c0,9,0,18,0,27.1c0,4.1-3,7.1-7.1,7.1c-18.6,0-37.1,0-55.7,0c-4.2,0-7.1-3-7.1-7.2
			c0-9,0-18,0-27c0-0.7,0.2-0.8,0.9-0.8c6.2,0,12.5,0,18.8,0c0,0.4-0.2,0.6-0.4,0.8c-1.9,3.3-1.3,6.6,1.7,8.9
			c0.4,0.3,0.6,0.7,0.7,1.2c0.2,1.6,0.8,3.1,1.9,4.3c0.4,0.4,0.2,0.7,0.1,1c-1.4,4.1-2.7,8.2-4.1,12.2c0,0.1-0.1,0.3-0.1,0.4
			c0.4,0.1,0.7-0.1,1-0.2c2.5-0.8,5.1-1.7,7.6-2.6c0.6-0.2,0.9-0.1,1.2,0.5c1.1,2.3,2.2,4.5,3.5,7c1-4.3,1.9-8.4,2.8-12.5
			C41.2,65.1,41.3,65.1,41.3,65.1z"/>
		<path class="st0" d="M49.3,25.1c8.4-6.4,7.9-18.2,0-24C49.3,0.9,49.5,1,49.7,1c2.6,0,5.3,0,7.9,0c0.5,0,0.6,0.1,0.7,0.6
			c0.8,3.2,2.7,5.3,6.1,6c0.3,0.1,0.4,0.2,0.4,0.5c0,3.4,0,6.8,0,10.2c0,0.3-0.1,0.4-0.4,0.5c-3.3,0.6-5.2,2.8-6.1,6
			c-0.1,0.3-0.1,0.6-0.6,0.6c-2.8,0-5.5,0-8.3,0C49.3,25.2,49.3,25.1,49.3,25.1z"/>
		<path class="st0" d="M32.1,1C24,7,23.5,18.8,32,25.2c-0.4,0-0.7,0-0.9,0c-2.5,0-5,0-7.5,0c-0.4,0-0.6,0.1-0.8-0.5
			c-0.8-3.3-2.7-5.5-6.1-6.1c-0.4-0.1-0.4-0.3-0.4-0.5c0-3.3,0-6.7,0-10c0-0.4,0.1-0.5,0.5-0.6c3.2-0.6,5.1-2.6,5.9-5.7
			C22.9,1.1,23.2,1,23.9,1C26.6,1,29.2,1,32.1,1z"/>
		<path class="st0" d="M13.7,32c0,2.9,0,5.8,0,8.6c0,0.6-0.1,0.8-0.7,0.7c-2.2,0-4.5,0-6.7,0c-0.6,0-0.7-0.2-0.7-0.7
			c0-5.1,0-10.2,0-15.3c0-1.7,1.1-2.8,2.8-2.9c1.5,0,3.1,0,4.6,0c0.5,0,0.6,0.1,0.6,0.6C13.6,26.1,13.7,29,13.7,32z"/>
		<path class="st0" d="M67.5,31.9c0-2.9,0-5.8,0-8.7c0-0.5,0.1-0.7,0.7-0.7c1.5,0,3.1,0,4.6,0c1.7,0,2.8,1.1,2.8,2.8
			c0,5.1,0,10.2,0,15.4c0,0.6-0.2,0.7-0.7,0.7c-2.2,0-4.5,0-6.7,0c-0.6,0-0.7-0.2-0.7-0.7C67.5,37.8,67.5,34.8,67.5,31.9z"/>
		<path class="st0" d="M40.5,30.6c-7.8,0-15.5,0-23.3,0c-0.7,0-0.9-0.2-0.9-0.9c0.1-1.8,0-1.8,1.9-1.8c15.2,0,30.4,0,45.6,0
			c0.8,0,1,0.2,0.9,0.9c-0.1,1.8,0,1.8-1.8,1.8C55.5,30.6,48,30.6,40.5,30.6z"/>
		<path class="st0" d="M53.2,68.8c-2.1-0.7-4.1-1.4-6-2c-0.5-0.2-0.7-0.1-0.9,0.4c-0.3,0.8-0.7,1.5-1.2,2.3
			c-0.4-0.7-0.4-1.3-0.5-1.9c-0.4-1.4-0.6-2.9-1-4.3c-0.1-0.6-0.1-0.9,0.5-1.1c0.7-0.2,1.3-0.7,1.9-1.3c0.3-0.3,0.6-0.4,1-0.3
			c1,0.3,2,0.2,3-0.1c0.3-0.1,0.5-0.1,0.6,0.3C51.4,63.4,52.3,66,53.2,68.8z"/>
		<path class="st0" d="M37.3,69.4c-0.4-0.8-0.8-1.5-1.1-2.3c-0.2-0.5-0.5-0.5-1-0.4c-1.9,0.7-3.9,1.3-6,2c0.9-2.7,1.7-5.2,2.6-7.8
			c0.1-0.3,0.3-0.3,0.6-0.3c0.6,0,1.2,0,1.8-0.2c0.3-0.1,0.5,0,0.8,0.2c0.9,1,2.1,1.5,3.4,1.9c0.2,0.1,0.6,0,0.5,0.5
			c-0.5,2.1-0.9,4.1-1.4,6.2C37.4,69.3,37.4,69.4,37.3,69.4z"/>
		<path class="st0" d="M33.8,33.3c-0.4,1-1,1.5-2.1,1.5c-0.9,0-1.7,0.3-2.5,0.7c-0.8,0.4-1.6,0.5-2.4,0.5c-3.3,0-6.6,0-9.8,0
			c-0.5,0-0.7-0.1-0.7-0.7c0-2,0-2,2-2c4.9,0,9.7,0,14.6,0C33.3,33.3,33.5,33.3,33.8,33.3z"/>
		<path class="st0" d="M47.3,33.3c0.3,0,0.6,0,0.8,0c5.3,0,10.6,0,15.9,0c0.6,0,0.8,0.2,0.8,0.8c0,1.9,0,1.9-2,1.9
			c-3.1,0-6.2,0-9.3,0c-0.4,0-0.8-0.1-1.2-0.3c-0.8-0.5-1.8-0.8-2.7-0.9C48.6,34.8,47.7,34.5,47.3,33.3z"/>
		<path class="st0" d="M55.1,38.7c3.1,0,6.1,0,9.1,0c0.3,0,0.5,0.1,0.5,0.4c0.1,2.2,0.2,2.2-2,2.2c-2.2,0-4.3,0-6.5,0
			c-0.4,0-0.6-0.1-0.6-0.6C55.6,40.1,55.4,39.4,55.1,38.7z"/>
		<path class="st0" d="M26,38.7c-0.2,0.8-0.5,1.6-0.5,2.3c0,0.3-0.1,0.4-0.4,0.4c-2.8,0-5.5,0-8.3,0c-0.3,0-0.4-0.1-0.4-0.4
			c0-0.1,0-0.2,0-0.3c0-2.1,0-2.1,2-2.1C20.9,38.7,23.4,38.7,26,38.7z"/>
		<path class="st0" d="M20.2,1c-0.5,2.1-1.7,3.4-3.8,3.9c0-1.2,0-2.4,0-3.6c0-0.4,0.3-0.3,0.5-0.3C17.9,1,19,1,20.2,1z"/>
		<path class="st0" d="M60.9,1c1.1,0,2.2,0,3.3,0c0.4,0,0.5,0.1,0.5,0.5c0,1.1,0,2.2,0,3.3C62.8,4.6,61.5,3.3,60.9,1z"/>
		<path class="st0" d="M20.2,25.2c-1.1,0-2.2,0-3.3,0c-0.3,0-0.5,0-0.5-0.4c0-1.1,0-2.3,0-3.4C18.3,21.7,19.6,23,20.2,25.2z"/>
		<path class="st0" d="M60.9,25.2c0.5-1.8,1.5-3.2,3.3-3.7c0.4-0.1,0.6-0.2,0.6,0.4c0,1,0,1.9,0,2.9c0,0.4-0.1,0.5-0.5,0.5
			C63.2,25.2,62.1,25.2,60.9,25.2z"/>
		<path class="st0" d="M53.6,45.8c-0.8-1.1-1-1.9-0.7-3.2c0.6-2.8-0.9-4.7-3.7-5.1c-0.8-0.1-1.6-0.2-2.4-0.1c-0.3,0-0.5-0.1-0.6-0.4
			c-0.6-2.4-3.2-3.7-5.6-3.6c-1.9,0-3.6,0.6-4.9,2.1c-0.5,0.6-0.4,1.7-1.1,1.9c-0.7,0.3-1.6,0-2.4,0.2c-0.1,0-0.1,0-0.2,0
			c-2.9,0.4-4.3,2.1-3.8,4.9c0.3,1.5,0,2.4-0.9,3.6c-1.6,2.2-1.1,4.1,1,5.7c0.3,0.2,0.6,0.5,1,0.6c0.4,0.2,0.5,0.4,0.5,0.9
			c0,1.1,0.2,2.2,0.7,3.3c0.6,1.2,1.3,1.6,2.6,1.5c0.8-0.1,1.5-0.4,2.2-0.7c0.4-0.2,0.6-0.2,0.8,0.3c1.1,3,6.1,3.3,8.2,1.2
			c0.5-0.5,0.5-1.5,1.3-1.6c0.7,0,1.4,0.5,2.1,0.6c1.5,0.4,2.5-0.2,3.1-1.6c0.4-0.8,0.6-1.7,0.6-2.5c-0.1-0.9,0.4-1.4,1.1-1.8
			C55,50.3,55.5,48.2,53.6,45.8z M40.6,54.8c-4.4,0-8.1-3.6-8.1-8c0-4.5,3.6-8.1,8.1-8.1c4.4,0,8,3.6,8,8.1
			C48.6,51.2,45,54.8,40.6,54.8z"/>
	</g>
	<g>
		<path class="st0" d="M41.4,13.5h-2.4v4.2c0,0.7,0.5,1.1,1.4,1.1c0.4,0,0.8-0.1,1.2-0.3c0.4-0.2,0.8-0.5,1.1-0.8
			c0.3-0.3,0.6-0.7,0.8-1.1c0.2-0.4,0.3-0.8,0.4-1.1c-0.7,0-1.3-0.1-1.8-0.5C41.8,14.6,41.5,14.1,41.4,13.5z"/>
		<path class="st0" d="M40.6,1c-6.7,0-12.1,5.4-12.1,12.1c0,6.7,5.4,12.1,12.1,12.1c6.6,0,12.1-5.4,12.1-12C52.7,6.5,47.3,1,40.6,1z
			 M46.7,16.7c-0.4,0.8-0.9,1.5-1.6,2.2c-0.6,0.7-1.4,1.2-2.1,1.6c-0.8,0.4-1.5,0.6-2.3,0.6c-0.4,0-0.8,0-1.3-0.1
			c-0.5-0.1-0.9-0.2-1.3-0.4c-0.4-0.2-0.7-0.6-1-1s-0.4-1.1-0.4-1.9v-4.2h-0.5l-2.3-2.3h2.9v-0.4c0-0.2,0-0.3,0-0.4
			c0-0.1,0-0.2,0-0.2c0-0.2,0-0.3,0-0.5c0-0.2,0-0.3,0-0.5c0-0.2,0-0.3,0-0.5c0-0.2,0-0.3,0-0.4c0-0.2-0.1-0.4-0.2-0.6
			c-0.1-0.1-0.3-0.2-0.6-0.2c-0.1,0-0.2,0-0.3,0c-0.1,0-0.3,0.1-0.6,0.4l-0.8-2.3c0.4-0.2,0.8-0.3,1.1-0.4c0.3-0.1,0.6-0.1,1-0.1
			c0.6,0,1.1,0.1,1.4,0.3c0.4,0.2,0.7,0.5,0.9,0.8s0.3,0.7,0.4,1.2c0.1,0.4,0.1,0.9,0.1,1.3v2.5h0.3l2,2.1c0,0,0,0,0-0.1
			c0-0.8,0.2-1.5,0.6-2c0.4-0.5,1.1-0.7,1.9-0.7c0.6,0,1.2,0.1,1.6,0.3c0.4,0.2,0.8,0.5,1,0.9c0.3,0.4,0.4,0.8,0.5,1.3
			c0.1,0.5,0.2,1,0.2,1.5C47.3,15.2,47.1,15.9,46.7,16.7z"/>
	</g>
</g>
</svg>
