<?xml version="1.0" encoding="utf-8"?>
<!-- Generator: Adobe Illustrator 25.1.0, SVG Export Plug-In . SVG Version: 6.00 Build 0)  -->
<svg version="1.1" id="Layer_1" xmlns="http://www.w3.org/2000/svg" xmlns:xlink="http://www.w3.org/1999/xlink" x="0px" y="0px"
	 viewBox="0 0 80 80" style="enable-background:new 0 0 80 80;" xml:space="preserve">
<style type="text/css">
	.st0{fill:#FFFFFF;}
</style>
<path class="st0" d="M25.7,1.5c11.1,0,22.2,0,33.2,0c0,5.6,0,11.2,0,16.8c0,1.9,0.8,2.7,2.7,2.7c5.3,0,10.7,0,16,0
	c0.3,0,0.5,0,0.8,0c0,0.4,0,0.6,0,0.8c0,16.5,0,32.9,0,49.4c0,4.3-2.9,7.2-7.2,7.2c-11.3,0-22.7,0-34,0c-0.2,0-0.5,0-0.9,0
	c6.1-4.6,9.6-10.6,10.4-18c1,0,2,0,3,0c5.2,0,10.4,0,15.6,0c1.1,0,1.9-0.4,2.3-1.4c0.7-1.5-0.4-3.1-2.3-3.2c-5.9,0-11.9,0-17.8,0
	c-0.3,0-0.6,0-0.9,0c-0.3-3.2-1.2-6.2-2.6-9c3.7,0,7.2,0,10.8,0c3.5,0,7,0,10.5,0c1,0,1.8-0.4,2.2-1.4c0.7-1.5-0.5-3.1-2.3-3.1
	c-7.7,0-15.5,0-23.2,0c-0.7,0-1.2-0.2-1.7-0.8c-4.3-4.8-9.7-7.6-16.2-8.1c-1.5-0.1-3,0-4.5,0c0-0.2,0-0.3,0-0.4c0-8.3,0-16.7,0-25
	c0-2.1,0.9-3.9,2.6-5.1C23.4,2.3,24.6,2,25.7,1.5z M49.2,28.9c-5.5,0-11,0-16.5,0c-1.2,0-2.2,0.8-2.3,2c-0.1,1.1,0.6,2.2,1.8,2.4
	c0.3,0.1,0.6,0.1,1,0.1c8.1,0,16.2,0,24.3,0c2.7,0,5.4,0,8.1,0c1,0,1.8-0.4,2.2-1.4c0.7-1.5-0.5-3.1-2.2-3.1
	C60.1,28.9,54.6,28.9,49.2,28.9z"/>
<path class="st0" d="M22,37.9c11.2,0,20.3,9.1,20.3,20.3c0,11.2-9.1,20.3-20.3,20.3c-11.2,0-20.3-9.1-20.3-20.3
	C1.8,47,10.9,37.9,22,37.9z M24.3,55.9c0-2.3,0-4.4,0-6.6c0-1.4-1-2.4-2.2-2.4c-1.3,0-2.3,1-2.3,2.4c0,2.9,0,5.8,0,8.7
	c0,1.5,0.9,2.4,2.4,2.4c1.9,0,3.8,0,5.7,0c1.4,0,2.4-0.9,2.4-2.2c0-1.3-1-2.3-2.5-2.3C26.7,55.9,25.6,55.9,24.3,55.9z"/>
<path class="st0" d="M63.5,3.1c4.4,4.4,8.9,8.9,13.4,13.4c-4.4,0-8.9,0-13.4,0C63.5,12,63.5,7.5,63.5,3.1z"/>
</svg>
