<?xml version="1.0" encoding="utf-8"?>
<!-- Generator: Adobe Illustrator 25.1.0, SVG Export Plug-In . SVG Version: 6.00 Build 0)  -->
<svg version="1.1" id="Layer_1" xmlns="http://www.w3.org/2000/svg" xmlns:xlink="http://www.w3.org/1999/xlink" x="0px" y="0px"
	 viewBox="0 0 80 80" style="enable-background:new 0 0 80 80;" xml:space="preserve">
<style type="text/css">
	.st0{fill:#FFFFFF;}
</style>
<g>
	<path class="st0" d="M49.7,6.4c-0.2-2.7-2.3-4.9-4.9-5.3c0,0,0-0.1,0-0.1c-0.2,0-0.4,0-0.7,0c-2.7,0-5.5,0-8.2,0
		c-0.2,0-0.4,0-0.7,0c0,0,0,0.1,0,0.1c-2.6,0.3-4.7,2.6-4.9,5.3C36.8,5.3,43.2,5.3,49.7,6.4z"/>
	<path class="st0" d="M17.3,33c2.6,1.7,5.5,2.9,8.6,3.7c-0.1-2.1-0.2-4.2-0.2-6.3c-0.1-2.7-0.2-5.5-0.3-8.2c0-1.3,0.5-2,1.7-2.3
		c8.3-2,16.7-2.1,25-0.3c2.6,0.6,2.8,0.9,2.7,3.6c-0.2,4.3-0.3,8.6-0.5,12.8c0,0.2-0.1,0.4,0.1,0.6c1.4-0.4,2.7-0.8,4-1.4
		c2.9-1.2,5.7-2.8,7.8-5.3c3-3.5,3.2-7.7,0.5-11.3c-0.7-1-1.6-1.8-2.5-2.6c-3-2.4-6.4-3.8-10-4.8c-5.6-1.6-11.4-2.1-17.2-1.7
		c-5.3,0.3-10.5,1.3-15.4,3.3c-2.9,1.2-5.6,2.8-7.7,5.2c-2.9,3.4-3.1,7.6-0.6,11.2C14.3,30.8,15.7,32,17.3,33z"/>
	<path class="st0" d="M29.6,31.8c0.1,2.4,0,4.9,0.4,7.3c0.8,5,5.4,8.5,10.6,8.2c5.1-0.3,9.2-4.3,9.5-9.3c0.2-4.6,0.4-9.3,0.6-14
		c0-0.4-0.1-0.5-0.5-0.6c-6.8-1.4-13.6-1.4-20.4,0c-0.4,0.1-0.5,0.3-0.5,0.6c0.1,2.4,0.2,4.7,0.3,7.1c0,0,0,0,0,0
		C29.6,31.3,29.6,31.6,29.6,31.8z"/>
	<path class="st0" d="M24.1,55.8c-0.4-0.3-1.3-0.1-1.9-0.1c-3.4,0.1-6.4,2.3-7.4,5.6c-0.4,1.4-0.7,2.9-1.1,4.3
		c-0.4,1.5,0.5,2.6,2.1,2.6c2.6,0,5.3,0,7.9,0c0.4,0,0.5-0.1,0.5-0.5c0-1.9,0-3.8,0-5.7c0-1.4,0-2.8,0-4.3
		C24.2,57,24.5,56.1,24.1,55.8z"/>
	<path class="st0" d="M56.3,68.2c2.7,0,5.4,0,8.1,0c1.4,0,2.3-1.1,2-2.5c-0.3-1.3-0.6-2.7-1-4c-0.7-2.7-2.5-4.5-5.1-5.5
		c-1.3-0.5-2.6-0.4-3.9-0.4c-0.5,0-0.5,0.1-0.5,0.5c0,1.9,0,3.8,0,5.6c0,1.9,0,3.9,0,5.8C55.8,68.1,55.9,68.2,56.3,68.2z"/>
	<path class="st0" d="M52.1,69.3c-2.5,4-7,6.6-12.1,6.6c-5.1,0-9.5-2.6-12.1-6.6H0v10.6h80V69.3H52.1z"/>
	<path class="st0" d="M28.2,58.2c-0.3,1.1-0.5,2.3-0.5,3.5c0,1.2,0.2,2.4,0.5,3.5c0.3,1.1,0.8,2.1,1.4,3c0,0,0.1,0.1,0.1,0.1
		c0.1,0.2,0.2,0.3,0.3,0.5c0.1,0.2,0.2,0.3,0.3,0.5c2.3,2.8,5.7,4.6,9.6,4.6c3.9,0,7.4-1.8,9.6-4.6c0.1-0.1,0.2-0.3,0.3-0.5
		c0.1-0.2,0.2-0.3,0.3-0.5c0,0,0.1-0.1,0.1-0.1c0.6-0.9,1.1-2,1.4-3c0.3-1.1,0.5-2.3,0.5-3.4c0-1.2-0.2-2.4-0.5-3.5
		c-0.1-0.3-0.2-0.5-0.3-0.8c-0.6-1.5-1.4-2.8-2.5-4c-1.2-1.3-2.7-2.3-4.4-3c-1.4-0.6-3-0.9-4.7-0.9c-1.7,0-3.2,0.3-4.7,0.9
		c-1.7,0.7-3.2,1.7-4.4,3c-1.1,1.1-1.9,2.5-2.5,3.9C28.4,57.7,28.3,57.9,28.2,58.2z M32.2,53.5c0.5-0.5,1.4-0.5,1.9,0.1l5,5.3l0.9,1
		l1-1l5-4.9c0.5-0.5,1.4-0.5,1.9,0c0.4,0.3,0.4,0.8,0.3,1.3c-0.1,0.2-0.2,0.4-0.3,0.6l-6,5.9l0.8,0.8l5.2,5.5
		c0.1,0.1,0.1,0.1,0.1,0.2c0,0,0.1,0.1,0.1,0.1c0.1,0.2,0.1,0.3,0.1,0.5c0,0.2,0,0.3,0,0.5c-0.1,0.2-0.2,0.5-0.4,0.6
		c-0.3,0.2-0.6,0.4-0.9,0.4c-0.4,0-0.7-0.1-1-0.4l-0.5-0.6l-0.4-0.5l-0.5-0.5l-0.1-0.1L40,63.6l-4.6,4.6l-0.1,0.1l-0.5,0.5l-0.5,0.5
		L34,69.5c-0.3,0.3-0.6,0.4-1,0.4s-0.7-0.1-1-0.4c-0.1-0.1-0.1-0.2-0.2-0.2c-0.1-0.1-0.2-0.3-0.2-0.5c0-0.2,0-0.3,0-0.5
		c0,0,0-0.1,0-0.1c0.1-0.2,0.2-0.4,0.3-0.6l5.2-5.1l0.9-0.9l-4.8-5.1l-1.1-1.2C31.7,54.8,31.7,54,32.2,53.5z"/>
</g>
</svg>
