<?xml version="1.0" encoding="utf-8"?>
<!-- Generator: Adobe Illustrator 25.1.0, SVG Export Plug-In . SVG Version: 6.00 Build 0)  -->
<svg version="1.1" id="Layer_1" xmlns="http://www.w3.org/2000/svg" xmlns:xlink="http://www.w3.org/1999/xlink" x="0px" y="0px"
	 viewBox="0 0 80 80" style="enable-background:new 0 0 80 80;" xml:space="preserve">
<style type="text/css">
	.st0{fill-rule:evenodd;clip-rule:evenodd;fill:#228B22;}
	.st1{fill-rule:evenodd;clip-rule:evenodd;fill:#009F00;}
	.st2{fill-rule:evenodd;clip-rule:evenodd;fill:#227A22;}
</style>
<path class="st0" d="M41,0c-3.1-0.1-6,1.1-8.2,3.2c-0.4,0-0.8-0.1-1.1-0.1c-4.9,0-8.9,3-8.9,6.8l0,0c-4.1,0.2-7.4,2.8-7.4,6L40,20
	l25.6-4c0-3.2-3.3-5.8-7.4-6l0,0c0-3.8-4-6.8-8.9-6.8h-0.2C47,1.1,44-0.1,41,0z"/>
<path class="st1" d="M68.3,23.6L39,19.8l-27.3,3.8C8.2,35.8,5.9,53.3,8.4,69.2l29.7,4.5l33.5-4.5C74.2,53.3,71.8,35.8,68.3,23.6z"/>
<path class="st2" d="M40,16H11.7c-2.1-0.1-3.9,1.5-4,3.6c-0.1,2.1,1.5,3.9,3.6,4c0.1,0,0.3,0,0.4,0h57.6c2.1-0.1,3.7-1.9,3.6-4
	c-0.1-2-1.7-3.5-3.6-3.6H40z"/>
<path class="st0" d="M71.6,69.2H8.4C3.6,72.1,3.1,80,12.1,80h56C76.9,80,76.4,72.1,71.6,69.2z"/>
<path class="st0" d="M31.2,31.8c-3.1,0-4.2,1.9-4.2,4.8c0.3,18.8,13,26,21.2,18.8l0.1-0.1l0,0C57.7,46.9,46.1,32.5,31.2,31.8z"/>
<path class="st2" d="M30.9,31.8C28,32,27,33.8,27,36.7C27.3,54.9,39.3,62.3,47.6,56c-7.8,2.6-17.1-5.1-17.4-21.1
	C30.2,33.8,30.4,32.8,30.9,31.8z"/>
</svg>
