<?xml version="1.0" encoding="utf-8"?>
<!-- Generator: Adobe Illustrator 25.1.0, SVG Export Plug-In . SVG Version: 6.00 Build 0)  -->
<svg version="1.1" id="Layer_1" xmlns="http://www.w3.org/2000/svg" xmlns:xlink="http://www.w3.org/1999/xlink" x="0px" y="0px"
	 viewBox="0 0 80 80" style="enable-background:new 0 0 80 80;" xml:space="preserve">
<style type="text/css">
	.st0{fill:#228B22;}
</style>
<path class="st0" d="M19.7,17.7c0,1.4,0,2.7,0,4c-0.4,0.1-0.7,0.2-1.1,0.3c-0.6,0.3-0.9,0.9-0.8,1.6c0,2.1,0,4.2,0,6.4h-3.7
	c-2.5,0-2.8,0.3-2.8,2.8v5.3h-0.9c-2.8,0-5.6,0-8.4,0c-0.8-0.1-1.7,0.3-2,1.1l0,17.9c0.4,0.8,1.2,1.2,2.1,1.1c2.8,0,5.5,0,8.3,0h0.9
	v5.5c0,2.2,0.3,2.5,2.6,2.5h20.7c0.1,0.2,0.1,0.3,0.1,0.5v0.1c0.1,1.6,1.5,2.8,3.2,2.7c1.3,0,2.7,0,4.1,0c1.4,0,2.6-1.1,2.8-2.5
	c0.1-0.2,0.1-0.5,0.1-0.8h5.3v5.5h3.2v-5.5h6.8v5.6h3.2v-5.6c0.4-0.1,0.7-0.2,1-0.2c7.3-1,13.2-6.4,15-13.6c0.2-0.9,0.3-1.7,0.5-2.6
	v-3.4c-0.2-1.2-0.4-2.5-0.8-3.7c-2.6-7.2-7.7-11.4-15.2-12.3l-0.4-0.1v-1.8c0-0.3,0-0.5,0-0.8c-0.2-2.9-2.7-5-5.6-4.8
	c-1.2,0-2.5,0-3.7,0c-2.8,0.1-5,2.3-5.1,5.1c0,0.7,0,1.4,0,2.2h-4C45,29.9,45,29.6,45,29.3c-0.2-1.3-1.3-2.3-2.6-2.4
	c-1.6-0.1-3.3-0.1-4.9,0c-1.4,0.1-2.6,1.2-2.7,2.6c0,0.2-0.1,0.4-0.1,0.7h-2.9v-6c0-1.6-0.3-2-2-2.3c0-0.3,0-0.6,0-0.9
	c0.1-2,0-3.9-0.2-5.8c-0.5-3.8-3.5-6.5-7.5-7.1c-0.9-0.1-1.7-0.2-2.6-0.2c-5.8,0-11.7,0-17.5,0C1.2,7.8,0.4,8.2,0,9l0,7.3
	c0.4,0.8,1.3,1.2,2.2,1.1c3.1,0,6.3,0,9.5,0c2.4,0,4.8,0,7.2,0C19.1,17.4,19.6,17.7,19.7,17.7z M60.2,29.9h-8.1c0-0.7,0-1.4,0-2.1
	c0.1-1.1,1-2,2.1-2c1.3,0,2.7,0,4,0c1,0,1.9,0.8,2,1.8C60.3,28.4,60.2,29.2,60.2,29.9z M44.9,33.2h16.4c0.7,0,1.4,0,2,0.1
	c7.9,0.7,13.8,7.4,13.5,15.4c-0.3,8.2-7.2,14.6-15.4,14.3c-5.2,0-10.5,0-15.7,0c-0.3,0-0.5,0-0.8,0V33.2z M11.1,55H3V41.3h8.1V55z
	 M28.6,30.1h-7.7v-5h7.7V30.1z M34.6,33.2v0.9c0,2.1,0,4.3,0,6.4c0,0.3,0,0.6,0.1,0.9c0.1,0.6,0.6,1.1,1.2,1.2
	c0.9,0.1,1.7-0.5,1.8-1.3c0-0.2,0-0.5,0-0.8V29.9h4v36.4h-4V55.9c0-0.4,0-0.7,0-1.1c-0.1-0.6-0.5-1-1.1-1.2
	c-0.8-0.2-1.7,0.3-1.9,1.1c-0.1,0.3-0.1,0.7-0.1,1c0,2.2,0,4.3,0,6.5c0,0.2,0,0.5,0,0.8H14.4V33.2C14.4,33.2,34.6,33.2,34.6,33.2z
	 M22.7,17.3c0-1.7-1.4-3-3.1-3c-0.4,0-0.8,0-1.3,0H3V11h3.6c4.6,0,9.2-0.1,13.8,0c3.1,0.1,5.4,1.6,5.9,4.3c0.3,2.2,0.4,4.3,0.4,6.5
	h-4c0-1.5,0.1-2.9,0-4.4V17.3z"/>
<path class="st0" d="M54.4,38.8L54.4,38.8c0.9,0,1.6,0.6,1.6,1.5c0,0.9-0.6,1.6-1.5,1.6c-1.3,0-2.7,0-4.1,0l0,0
	c-0.8,0-1.5-0.7-1.5-1.6c0-0.8,0.7-1.5,1.6-1.5c0.6,0,1.3,0,2,0C53.1,38.8,53.8,38.8,54.4,38.8z"/>
<path class="st0" d="M52.5,46.6l2.1-0.1c0.9,0,1.6,0.7,1.6,1.5l0,0c0,0.9-0.7,1.6-1.5,1.6c-1.4,0-2.9,0-4.3,0
	c-0.8,0-1.5-0.7-1.5-1.5s0.6-1.5,1.5-1.5C51.1,46.6,51.8,46.6,52.5,46.6L52.5,46.6z"/>
<path class="st0" d="M54.5,54.3c0.7,0,1.3,0.6,1.4,1.4c0.1,0.9-0.5,1.6-1.4,1.7c-1.4,0-2.8,0-4.2,0c-0.8,0-1.4-0.6-1.4-1.4
	s0.6-1.5,1.5-1.6c0.6,0,1.3,0,2,0S53.9,54.3,54.5,54.3z"/>
<path class="st0" d="M37.8,48.3c-0.1,0.8-0.8,1.5-1.7,1.4c-0.8-0.1-1.5-0.8-1.4-1.7c0,0,0-0.1,0-0.2c0.1-0.8,0.8-1.5,1.7-1.4
	c0.8,0.1,1.5,0.8,1.4,1.7C37.8,48.2,37.8,48.3,37.8,48.3z"/>
</svg>
