<?xml version="1.0" encoding="utf-8"?>
<!-- Generator: Adobe Illustrator 25.1.0, SVG Export Plug-In . SVG Version: 6.00 Build 0)  -->
<svg version="1.1" id="Layer_1" xmlns="http://www.w3.org/2000/svg" xmlns:xlink="http://www.w3.org/1999/xlink" x="0px" y="0px"
	 viewBox="0 0 80 80" style="enable-background:new 0 0 80 80;" xml:space="preserve">
<style type="text/css">
	.st0{fill:#228B22;}
</style>
<path class="st0" d="M44.5,0.2c3.2,0.5,5.6,3.1,5.8,6.2c-7.6-1.2-15.3-1.2-22.9,0c0.2-3.2,2.6-5.8,5.8-6.2C33.4,0,33.7,0.2,34,0h9.7
	C43.9,0.2,44.2,0,44.5,0.2z"/>
<path class="st0" d="M34,0c-0.2,0.2-0.5,0.2-0.8,0.1c0,0,0-0.1,0-0.1H34z"/>
<path class="st0" d="M44.5,0.2c-0.3,0.1-0.6,0-0.8-0.2h0.8L44.5,0.2z"/>
<path class="st0" d="M22.2,42.5c-3.6-1-6.9-2.5-10.1-4.4c-1.8-1.2-3.4-2.7-4.7-4.5c-3-4-2.7-9.6,0.7-13.3c2.5-2.8,5.5-4.9,9-6.2
	c5.8-2.3,11.9-3.7,18.1-3.9c6.8-0.4,13.6,0.3,20.2,2.1c4.3,1.1,8.3,3,11.8,5.7c1.1,0.9,2.1,1.9,3,3.1c3.2,4.3,3,9.3-0.6,13.5
	c-2.5,2.8-5.7,4.9-9.2,6.3c-1.5,0.7-3.1,1.2-4.8,1.7c-0.2-0.2-0.1-0.5-0.1-0.7c0.2-5.1,0.4-10.2,0.6-15.3c0.1-3.1-0.2-3.6-3.2-4.2
	c-9.7-2.2-19.7-2.1-29.4,0.3c-1.3,0.2-2.1,1.4-2,2.7c0.1,3.2,0.2,6.5,0.4,9.7C22,37.5,22.1,40,22.2,42.5z"/>
<path class="st0" d="M26.6,35.8c-0.1-2.8-0.2-5.6-0.3-8.4c0-0.4,0-0.6,0.5-0.7c7.9-1.6,16.1-1.6,24,0c0.5,0.1,0.6,0.3,0.5,0.7
	C51.1,32.9,51,38.4,50.7,44c-0.4,6.5-6.1,11.5-12.6,11.1c-5.5-0.3-10-4.4-10.9-9.8c-0.3-2.9-0.5-5.8-0.5-8.7
	C26.7,36.3,26.7,36.1,26.6,35.8L26.6,35.8z"/>
<path class="st0" d="M24.9,66.7c3.8,4.4,8.3,6.8,13.9,6.7s10.2-2.3,13.8-6.7v1c0,3.8,0,7.6,0,11.5c0,0.6-0.1,0.7-0.7,0.7
	c-8.8,0-17.6,0-26.4,0c-0.6,0-0.7-0.1-0.7-0.7C24.9,75.1,24.9,71,24.9,66.7z"/>
<path class="st0" d="M38.5,68.8c-3.3-0.1-6.4-1.4-8.7-3.8c-0.5-0.6-1-1.1-1.6-1.6c-0.3-0.2-0.3-0.5-0.2-0.8c0.6-1.6,1.2-3.2,1.8-4.9
	c0.1-0.4,0.2-0.5,0.7-0.3c5.1,3,11.5,3,16.6,0c0.4-0.2,0.5-0.1,0.7,0.3c0.6,1.6,1.2,3.3,1.8,4.9c0.1,0.2,0.2,0.4,0,0.7
	c-1.7,1.7-3.3,3.5-5.7,4.4C42.2,68.4,40.3,68.7,38.5,68.8z"/>
<path class="st0" d="M20.2,72.4c0,2.3,0,4.5,0,6.8c0,0.5-0.1,0.7-0.6,0.6c-3.1,0-6.2,0-9.3,0c-1.3,0.1-2.4-0.8-2.6-2
	c0-0.3,0-0.7,0.1-1c0.4-1.7,0.8-3.4,1.3-5.1c1.1-3.9,4.7-6.6,8.7-6.7c0.8,0,1.8-0.3,2.2,0.1s0.1,1.5,0.1,2.2
	C20.3,69.1,20.2,70.7,20.2,72.4z"/>
<path class="st0" d="M57.3,72.3c0-2.2,0-4.5,0-6.7c0-0.5,0.1-0.7,0.6-0.7c1.6-0.1,3.1,0.1,4.6,0.5c3,1,5.3,3.5,6,6.5
	c0.4,1.6,0.8,3.2,1.2,4.8c0.4,1.2-0.3,2.5-1.5,2.9c-0.3,0.1-0.5,0.1-0.8,0.1c-3.2,0-6.3,0-9.5,0c-0.4,0-0.6-0.1-0.6-0.6
	C57.4,77,57.3,74.7,57.3,72.3z"/>
</svg>
