<?xml version="1.0" encoding="utf-8"?>
<!-- Generator: Adobe Illustrator 25.1.0, SVG Export Plug-In . SVG Version: 6.00 Build 0)  -->
<svg version="1.1" id="Layer_1" xmlns="http://www.w3.org/2000/svg" xmlns:xlink="http://www.w3.org/1999/xlink" x="0px" y="0px"
	 viewBox="0 0 80 80" style="enable-background:new 0 0 80 80;" xml:space="preserve">
<style type="text/css">
	.st0{fill:#228B22;}
</style>
<path class="st0" d="M38.8,79.9c-0.8-0.4-1.7-0.5-2.4-1c-3.7-2-5.1-6.7-3.1-10.4c1.6-2.9,4.9-4.5,8.2-3.9c3.4,0.7,5.9,3.5,6.2,6.9
	c0.3,3.6-1.9,6.9-5.3,8l-1.2,0.4L38.8,79.9z"/>
<path class="st0" d="M10.5,79.9c-0.8-0.4-1.6-0.5-2.4-1c-3.4-1.9-4.9-5.9-3.5-9.5c1.4-3.4,5-5.4,8.6-4.8c3.5,0.7,6,3.7,6.2,7.2
	c0.2,3.5-2,6.6-5.4,7.7l-1.2,0.4L10.5,79.9z"/>
<path class="st0" d="M67,79.9c-0.8-0.4-1.7-0.5-2.5-1c-2.8-1.5-4.3-4.6-3.9-7.7c0.3-3,2.4-5.5,5.3-6.3c4-1.3,8.4,0.9,9.6,5
	c0.9,2.7,0.2,5.7-1.8,7.7c-1.1,1.2-2.6,2-4.3,2.2c-0.1,0-0.2,0-0.2,0.1L67,79.9z"/>
<path class="st0" d="M57.6,41.1c0,3,0,6.1,0,9.1c0,0.4-0.1,0.8-0.3,1.2c-0.8,1.4-1.2,2.9-1.4,4.4c0,0.5-0.2,0.6-0.7,0.6
	c-0.8,0-1.7,0-2.5,0c-0.4,0-0.5-0.2-0.5-0.5c-0.5-5.3-4.3-9.6-9.4-10.8c-0.3,0-0.6-0.3-0.5-0.6c0,0,0,0,0-0.1c0-5,0-10.1,0-15.1
	c0-0.4,0.1-0.6,0.5-0.6c0.3,0,0.6,0,0.9,0c1.2-0.1,2.2-1.1,2.2-2.3c0.1-1.2-0.9-2.3-2.1-2.3c0,0,0,0,0,0c-2.5-0.1-5.1-0.1-7.6,0
	c-1.2,0.1-2.2,1.1-2.1,2.3c0,1.2,1,2.2,2.2,2.3c0.5,0,1.1-0.2,1.3,0.1s0.1,1,0.1,1.4c0,4.6,0,9.3,0,13.9c0,0.6-0.2,0.8-0.7,0.9
	c-5,1.2-8.7,5.5-9.3,10.6c-0.1,0.5-0.2,0.7-0.7,0.7c-0.8-0.1-1.5,0-2.3,0c-0.4,0-0.5-0.1-0.6-0.5c-0.1-1.6-0.6-3.2-1.4-4.6
	c-0.2-0.3-0.2-0.7-0.2-1c0-5.8,0-11.6,0-17.4c-0.2-5.4,3.8-10,9.1-10.7c0.5-0.1,1-0.1,1.5-0.1c4.6,0,9.2,0,13.8,0
	c5.2-0.1,9.6,3.6,10.5,8.7c0.1,0.9,0.2,1.9,0.2,2.8L57.6,41.1z"/>
<path class="st0" d="M50,10.1c0,5.5-4.5,10-10,10s-10-4.5-10-10s4.5-10,10-10S50,4.6,50,10.1z"/>
<path class="st0" d="M32.3,57.7c-0.2-3.8,2.4-7.2,6.1-8.1c3.3-0.7,6.7,0.9,8.3,3.8c1.4,2.4,1.3,5.4-0.1,7.7
	c-0.2,0.4-0.4,0.4-0.8,0.2c-3.6-2-8-2-11.6,0c-0.4,0.2-0.5,0.1-0.8-0.2C32.8,60.1,32.4,58.9,32.3,57.7z"/>
<path class="st0" d="M19.5,57.2c0,1.4-0.4,2.7-1.1,3.9c-0.2,0.4-0.4,0.4-0.7,0.2c-3.6-2-8.1-2-11.7,0c-0.3,0.2-0.5,0.2-0.7-0.2
	c-2.6-3.9-0.6-9.7,3.8-11.3c4-1.5,8.5,0.6,9.9,4.7c0.3,0.7,0.4,1.5,0.5,2.3L19.5,57.2z"/>
<path class="st0" d="M75.9,57.4c0,1.3-0.4,2.6-1.1,3.7c-0.2,0.4-0.4,0.5-0.8,0.2c-3.2-1.7-6.9-1.9-10.3-0.6c-0.4,0.1-0.7,0.3-1,0.5
	c-0.5,0.3-0.8,0.3-1.1-0.3c-2.1-3.7-0.8-8.4,2.9-10.5c3.7-2.1,8.4-0.8,10.5,2.9C75.6,54.6,75.9,56,75.9,57.4z"/>
</svg>
