<?xml version="1.0" encoding="utf-8"?>
<!-- Generator: Adobe Illustrator 25.1.0, SVG Export Plug-In . SVG Version: 6.00 Build 0)  -->
<svg version="1.1" id="Layer_1" xmlns="http://www.w3.org/2000/svg" xmlns:xlink="http://www.w3.org/1999/xlink" x="0px" y="0px"
	 viewBox="0 0 80 80" style="enable-background:new 0 0 80 80;" xml:space="preserve">
<style type="text/css">
	.st0{fill:#228B22;}
</style>
<path class="st0" d="M80,28.5H0v-13c7.6-2.8,15.1-5.5,22.7-8.4C28.3,5,33.8,2.7,39.4,0.6h1.2c0.3,0.2,0.6,0.5,1,0.6
	C54.4,6,67.2,10.7,80,15.4V28.5z M28.3,20.1h4.5v-4.4h-4.5V20.1z M42.1,20.1v-4.3h-4.3v4.3L42.1,20.1z M51.5,20.1v-4.4h-4.3v4.4
	L51.5,20.1z M19,15.6V20h4.3v-4.4H19z M61,20.2v-4.4h-4.3v4.4H61z"/>
<path class="st0" d="M75.1,33.4v46.3H61.4V52l4.2-0.3V38H14.4v13.7l4.1,0.4v27.6H4.9V33.4H75.1z"/>
<path class="st0" d="M23.7,57.9v-5.8h32.4v5.8L23.7,57.9z"/>
<path class="st0" d="M23.7,68.7v-5.8h32.4v5.8H23.7z"/>
<path class="st0" d="M56.2,73.9v5.8H23.8v-5.8H56.2z"/>
<path class="st0" d="M19,42.7h42v4.2H19V42.7z"/>
</svg>
